<svg xmlns="http://www.w3.org/2000/svg" width="210" height="130" viewBox="0 0 210 130"><defs><style>.cls-1{fill:#3746a0;}.cls-2{fill:#a5a5a5;}</style></defs><title>Blå bil</title><g id="Layer_2" data-name="Layer 2"><path class="cls-1" d="M10.62,116.9l46.06-1.39c0-.07-1.17-20.54,14.26-20.31s16.52,7.68,19.48,14,38.68.24,38.75.42c0,0,4.16-12.16,12.89-12.95s16.06,4.56,17.41,11.44,43.48-2.24,43.62-2.65c.6-14.7,1.13-29.1,1.58-43.71a278.62,278.62,0,0,1-28,2.12c-10.41-14.68-21.46-31.48-33.14-48.54C119.92,13.43,96.29,11.6,72.58,10a529.21,529.21,0,0,0-25,49.92,283.57,283.57,0,0,0-43,3Q7.59,90,10.62,116.9Z"/><circle cx="144.5" cy="112" r="13"/><circle cx="73.5" cy="111" r="13"/><polyline class="cls-2" points="59.5 61 77.5 18 104.5 20 104.5 61"/><polyline class="cls-2" points="114.5 21 114.5 61 159.5 61 140.5 22"/></g></svg>