<svg xmlns="http://www.w3.org/2000/svg" width="210" height="130" viewBox="0 0 210 130"><defs><style>.cls-1{fill:#44a336;}.cls-2{fill:#a5a5a5;}.cls-3{fill:#f43838;}</style></defs><title>Grøn bil</title><g id="Layer_2" data-name="Layer 2"><path class="cls-1" d="M10.62,115.9l46.06-1.39c0-.07-1.17-20.54,14.26-20.31s16.52,7.68,19.48,14,38.68.24,38.75.42c0,0,4.16-12.16,12.89-12.95s16.06,4.56,17.41,11.44,43.48-2.24,43.62-2.65c.6-14.7,1.13-29.1,1.58-43.71a278.62,278.62,0,0,1-28,2.12c-10.41-14.68-21.46-31.48-33.14-48.54C119.92,12.43,96.29,10.6,72.58,9a529.21,529.21,0,0,0-25,49.92,283.57,283.57,0,0,0-43,3Q7.59,89,10.62,115.9Z"/><circle cx="144.5" cy="111" r="13"/><circle cx="73.5" cy="110" r="13"/><polyline class="cls-2" points="59.5 60 77.5 17 104.5 19 104.5 60"/><polyline class="cls-2" points="114.5 20 114.5 60 159.5 60 140.5 21"/><path class="cls-3" d="M199.21,95.93c-12.37,1-24.62,1.19-36.77,2.1-1.19-9.89-2.43-19.33-3.74-28.95,13.6-1,27.31-1.19,41.12-2.1C199.67,76.88,199.47,86.31,199.21,95.93Z"/><path d="M170.59,72.29a.56.56,0,0,1,.44.15.45.45,0,0,1,.16.36.5.5,0,0,1-.11.34.73.73,0,0,1-.39.22l-.54,0-.53,0,.27,4.76a2.36,2.36,0,0,1-.29,1.33,2.2,2.2,0,0,1-.39.53,3,3,0,0,1-.53.41,3.66,3.66,0,0,1-.61.27,2.41,2.41,0,0,1-.65.12,2.21,2.21,0,0,1-.88-.12,2,2,0,0,1-.75-.48l-.15-.18-.25-.3-.22-.3a.58.58,0,0,1-.11-.17.64.64,0,0,1-.15-.36.48.48,0,0,1,.48-.53.68.68,0,0,1,.42.12,2.25,2.25,0,0,1,.21.24c.06.08.11.16.16.24s.1.16.16.24a1,1,0,0,0,.22.24,1.1,1.1,0,0,0,.4.21,1.38,1.38,0,0,0,.45,0,1.65,1.65,0,0,0,.57-.14,1.39,1.39,0,0,0,.46-.33l.13-.15a.66.66,0,0,0,.08-.13l.06-.14.06-.18c0-.35,0-.69,0-1s0-.69,0-1,0-.49-.05-.75,0-.53-.05-.8,0-.54-.07-.81,0-.51-.06-.75l-1.55.11-1.55.1a.64.64,0,0,1-.42-.19.44.44,0,0,1-.15-.34c0-.23.13-.42.42-.56l2.62-.16,2.63-.17Z"/><path d="M177.36,72.4a.83.83,0,0,1,.19-.41.5.5,0,0,1,.32-.15.54.54,0,0,1,.34.1.73.73,0,0,1,.23.36c0,.56,0,1.14.05,1.76s0,1.21,0,1.79-.08,1.13-.15,1.64a5.37,5.37,0,0,1-.35,1.32,1.66,1.66,0,0,1-.39.57,2.78,2.78,0,0,1-.58.42,3.46,3.46,0,0,1-.7.26,3.72,3.72,0,0,1-.71.11,3.64,3.64,0,0,1-.81,0,2.69,2.69,0,0,1-.74-.25,2.26,2.26,0,0,1-.62-.44,1.8,1.8,0,0,1-.43-.65,6.59,6.59,0,0,1-.39-1.38c-.08-.5-.14-1-.19-1.56s-.07-1.07-.09-1.6,0-1-.07-1.5a.87.87,0,0,1,.19-.41.53.53,0,0,1,.33-.15.6.6,0,0,1,.33.1.81.81,0,0,1,.24.36c0,.29,0,.63,0,1s0,.77,0,1.17,0,.8.08,1.2.08.78.14,1.13a6.32,6.32,0,0,0,.23.93,1.44,1.44,0,0,0,.38.6,1.28,1.28,0,0,0,.65.36,2,2,0,0,0,.68.06,1.82,1.82,0,0,0,.78-.21,2,2,0,0,0,.65-.59,1.57,1.57,0,0,0,.23-.63q.07-.42.12-1c0-.35,0-.73,0-1.14s0-.8,0-1.19,0-.75,0-1.1S177.36,72.64,177.36,72.4Z"/><path d="M180.36,78.74a.77.77,0,0,1-.1-.34.48.48,0,0,1,.12-.37.52.52,0,0,1,.34-.16.76.76,0,0,1,.42.13,1.84,1.84,0,0,0,.55.41,2.83,2.83,0,0,0,.65.25,4.1,4.1,0,0,0,.69.1h.69l.3-.11.14-.06.11-.08.25-.2a1.42,1.42,0,0,1,.11-.18.87.87,0,0,1,.11-.18l.1-.36v-.18a1.48,1.48,0,0,0,0-.19,1.34,1.34,0,0,0-.07-.18l-.09-.17-.16-.17a1.21,1.21,0,0,1-.16-.16l-.25-.13a.81.81,0,0,0-.27-.11,6.3,6.3,0,0,0-1-.2,7.9,7.9,0,0,1-.87-.14,2.89,2.89,0,0,1-.78-.31,2.8,2.8,0,0,1-.74-.73.54.54,0,0,1-.09-.16,1.06,1.06,0,0,1,0-.18,1.77,1.77,0,0,1,0-.2c0-.07,0-.13,0-.2a1.88,1.88,0,0,1,0-.42,2.29,2.29,0,0,1,.12-.37,2.32,2.32,0,0,1,.22-.36c.09-.13.2-.26.32-.41a1.83,1.83,0,0,1,.5-.42,3.24,3.24,0,0,1,.6-.27,3.32,3.32,0,0,1,.64-.15,5.3,5.3,0,0,1,.66-.07h.19a1.08,1.08,0,0,1,.18,0,1.87,1.87,0,0,1,.58.12,3.83,3.83,0,0,0,.58.16.62.62,0,0,1,.33.5.47.47,0,0,1-.13.36.59.59,0,0,1-.43.18h-.12a7.48,7.48,0,0,0-.76-.16,2.74,2.74,0,0,0-.63,0,2.17,2.17,0,0,0-.64.14,3.48,3.48,0,0,0-.75.4l-.15.2-.15.19-.06.16a1,1,0,0,0-.05.16.86.86,0,0,0,0,.16l0,.14.1.13a1.13,1.13,0,0,0,.1.13l.57.29.75.11.67.12c.22,0,.43.1.64.17a5.89,5.89,0,0,1,.69.28,1.06,1.06,0,0,1,.33.26l.27.3a1.64,1.64,0,0,1,.34.55,2.43,2.43,0,0,1,.14.66,2.48,2.48,0,0,1-.14.93,1.86,1.86,0,0,1-.49.77,2.19,2.19,0,0,1-.23.21l-.24.18a2.33,2.33,0,0,1-.61.31,2.71,2.71,0,0,1-.72.13,3.83,3.83,0,0,1-.89,0,5.06,5.06,0,0,1-.87-.23,4.6,4.6,0,0,1-.77-.38A3,3,0,0,1,180.36,78.74Z"/><path d="M192.23,71.19a.63.63,0,0,1,.37.22.47.47,0,0,1,.13.32.51.51,0,0,1-.13.33.73.73,0,0,1-.39.22l-2.06.12.36,6.46a.62.62,0,0,1-.16.47.51.51,0,0,1-.35.17.48.48,0,0,1-.35-.12.66.66,0,0,1-.22-.42l-.37-6.5-2.09.11a.69.69,0,0,1-.43-.19.45.45,0,0,1-.14-.35.56.56,0,0,1,.14-.36.59.59,0,0,1,.45-.19l.56,0,.94,0,1.12-.06,1.13-.06.93-.06Z"/><path d="M180.17,92.8a.69.69,0,0,1,.42.08.5.5,0,0,1,.23.27.45.45,0,0,1,0,.34.66.66,0,0,1-.28.33,8.7,8.7,0,0,1-1,.27,9.53,9.53,0,0,1-1.09.15,8.15,8.15,0,0,1-1.1,0,5.82,5.82,0,0,1-1-.1.68.68,0,0,1-.32-.24.43.43,0,0,1-.09-.29v0l-.31-5.81a.47.47,0,0,1-.27-.17.46.46,0,0,1-.11-.29.47.47,0,0,1,.09-.31.59.59,0,0,1,.32-.25,5.33,5.33,0,0,1,1-.28c.35-.06.71-.1,1.07-.14s.72-.06,1.09-.07.72,0,1.07-.09a.61.61,0,0,1,.46.11.51.51,0,0,1,.21.32.47.47,0,0,1-.08.37.71.71,0,0,1-.4.27c-.53,0-1.09.09-1.69.11a10.5,10.5,0,0,0-1.72.22l.12,2.33c.46,0,.93,0,1.39-.08l1.39-.18a.61.61,0,0,1,.46.11.51.51,0,0,1,.21.32.47.47,0,0,1-.08.37.68.68,0,0,1-.4.27c-.48.07-1,.13-1.46.18s-1,.08-1.45.09l.12,2.15a7.63,7.63,0,0,0,1.65,0A8.31,8.31,0,0,0,180.17,92.8Z"/><path d="M188.75,93.28a.77.77,0,0,1-.11.42.48.48,0,0,1-.28.21.54.54,0,0,1-.35,0,.8.8,0,0,1-.31-.3,9.85,9.85,0,0,0-.29-1.22c-.12-.39-.25-.79-.41-1.18l-3.5.22h-.12c-.19.76-.34,1.55-.47,2.37a.68.68,0,0,1-.29.38.52.52,0,0,1-.38.06.5.5,0,0,1-.3-.22.65.65,0,0,1-.08-.47,36.32,36.32,0,0,1,.85-3.81A22.82,22.82,0,0,1,184.06,86a.47.47,0,0,1,.35-.34.46.46,0,0,1,.28,0,.49.49,0,0,1,.23.11h0a6.52,6.52,0,0,1,1.23,1.44c.34.54.65,1.09.94,1.65.1.2.21.39.3.59s.19.4.28.6l.7,0a.67.67,0,0,1,.38.21.49.49,0,0,1,.13.32.5.5,0,0,1-.12.33.68.68,0,0,1-.37.22l-.28,0c.13.36.25.71.36,1.08A10.3,10.3,0,0,1,188.75,93.28Zm-4-6.17c-.22.52-.42,1-.6,1.57s-.34,1.07-.49,1.61l2.89-.18c-.13-.26-.26-.51-.4-.76s-.26-.5-.4-.75l-.47-.76A4.68,4.68,0,0,0,184.75,87.11Z"/><path d="M194.34,85.49a.78.78,0,0,1,.38.22.52.52,0,0,1,.12.33.53.53,0,0,1-.13.33.66.66,0,0,1-.39.21l-2.06.13.36,6.46a.68.68,0,0,1-.15.47.6.6,0,0,1-.36.17.59.59,0,0,1-.35-.12.66.66,0,0,1-.22-.42l-.37-6.5-2.09.11a.7.7,0,0,1-.43-.2.47.47,0,0,1-.14-.34.59.59,0,0,1,.14-.37.62.62,0,0,1,.45-.18l.57,0,.93-.05,1.12-.06,1.13-.06.93-.06Z"/></g></svg>