<svg xmlns="http://www.w3.org/2000/svg" xmlns:xlink="http://www.w3.org/1999/xlink" width="275" height="205" viewBox="0 0 275 205"><defs><style>.cls-1{fill:url(#linear-gradient);}.cls-2{fill:#efece6;}.cls-3{fill:#9e9e9e;}.cls-4{fill:none;}</style><linearGradient id="linear-gradient" x1="1.47" y1="93.07" x2="273.35" y2="93.07" gradientUnits="userSpaceOnUse"><stop offset="0" stop-color="#3dc1ae"/><stop offset="0.1" stop-color="#47bdae"/><stop offset="0.28" stop-color="#62b4ae"/><stop offset="0.51" stop-color="#8da4ad"/><stop offset="0.78" stop-color="#c98ead"/><stop offset="1" stop-color="#ff7bac"/></linearGradient></defs><title>Hippie bil</title><g id="Layer_2" data-name="Layer 2"><circle cx="186.01" cy="186.64" r="17.5"/><circle cx="80.98" cy="186.64" r="17.5"/><path class="cls-1" d="M264.55,180c-.55-.17,26.4-107.9-11.37-138.54-35.86-33-166.21-74.8-243,6.72C-8.46,91.27,8.71,185.32,8.41,185.29h44.3c-.46-.33,25.09-46.76,57,0H159c-.39-.44,19.26-42.09,53.36-3.76C229.76,181.11,247.15,180.63,264.55,180Z"/><path class="cls-2" d="M255.78,42.74C173.51,49.1,91.66,40.67,10.22,48.13c-.1-.23-12.24,36-7.63,56.05,89.68-13.69,180,3.53,270.94-10.06C273.55,94.09,270.35,54.7,255.78,42.74Z"/><path class="cls-3" d="M196.3,55.63c15.67.35,31.34.4,47-.1,9.52-.27,16.7,6.95,16,16.28h0c-.74,9.35-8.95,17.54-18.23,17.91-15.33.62-30.67.56-46,.12a17.18,17.18,0,0,1-16.47-17.59h0A17.26,17.26,0,0,1,196.3,55.63Z"/><path class="cls-3" d="M117.55,55.18c10.13.46,20.26,1,30.39,1.43a17.75,17.75,0,0,1,16.95,17.8h0a16.21,16.21,0,0,1-17.21,16c-9.91-.58-19.83-1.19-29.74-1.75-9.27-.53-17-8.46-17.27-17.61h0C100.44,61.89,108,54.76,117.55,55.18Z"/><path class="cls-3" d="M37.74,54.78c10.11-.14,20.22-.07,30.33.13,9.5.19,17.48,7.88,17.72,17h0A15.7,15.7,0,0,1,69.41,88.1c-9.9-.25-19.8-.33-29.69-.16-9.26.15-17.38-7-18-16.17h0A16,16,0,0,1,37.74,54.78Z"/><path class="cls-4" d="M133,142.62V162.8a23.48,23.48,0,0,0,14.67-5.51Z"/><path class="cls-4" d="M131,162.76V142.93l-14,14A23.56,23.56,0,0,0,131,162.76Z"/><path class="cls-4" d="M131,140.65V115.59a23.62,23.62,0,0,0-15.23,40.29Z"/><path class="cls-4" d="M133,115.55v24.8l15.87,15.86A23.62,23.62,0,0,0,133,115.55Z"/><path d="M132.49,112.58a26.6,26.6,0,1,0,26.59,26.6A26.63,26.63,0,0,0,132.49,112.58Zm.49,30,14.67,14.67A23.48,23.48,0,0,1,133,162.8Zm-2,20.14A23.56,23.56,0,0,1,117,157l14-14Zm-22.16-23.58A23.67,23.67,0,0,1,131,115.59v25.06l-15.23,15.23A23.56,23.56,0,0,1,108.85,139.18Zm40,17L133,140.35v-24.8a23.62,23.62,0,0,1,15.87,40.66Z"/></g></svg>