<svg id="Layer_1" data-name="Layer 1" xmlns="http://www.w3.org/2000/svg" width="350" height="500" viewBox="0 0 350 500"><defs><style>.cls-1{fill:#dbdbdb;}.cls-2{fill:#ddb980;}.cls-3{fill:#efc67d;}.cls-4{fill:#fff;}.cls-5{fill:#cc3e3e;}.cls-6{fill:#704807;}.cls-7{fill:#f4f4f4;}.cls-8{fill:#ed2e2e;}</style></defs><title>Nicklas Bendtner</title><polygon points="170.6 248.82 106.54 213.49 81.34 152.63 71.97 156.52 97.24 217.55 96.34 219.19 98.39 220.32 99.47 222.93 101.55 222.06 165.81 257.51 170.6 248.82"/><polygon points="348 385.97 342.36 314.2 343.36 313.87 342.02 309.86 341.79 306.87 341.05 306.93 320.7 245.66 311.07 248.85 332.31 312.79 338.11 386.75 348 385.97"/><polygon points="255.27 493.66 209.39 414.18 228.57 347.19 219.25 344.52 199.38 413.91 198.58 414.37 199.02 415.14 198.82 415.85 199.55 416.06 247.08 498.39 255.27 493.66"/><polygon points="317.83 450.94 317.19 449.33 317.38 448.74 316.89 448.58 274.14 341.22 266.38 344.31 309.16 451.75 294.63 495.86 301.15 498.01 316.48 451.48 317.83 450.94"/><path class="cls-1" d="M261.38,402.12c-21-44.47-41.85-45.91-66.09-86.75-12.13-20.53-24.66-45.12-37.6-74.39-12.94-28.82-26.29-62.3-40-90.25l230.23,42c-15.88,32.77-30.88,58.51-45,97.44C288.74,327.67,273.75,352.62,261.38,402.12Z"/><path d="M182.34,226.52a1.29,1.29,0,0,1-1-.42,1.17,1.17,0,0,1-.3-.77,1.52,1.52,0,0,1,.11-.49V212.3a1.54,1.54,0,0,1-.52.09,1.08,1.08,0,0,1-.8-.32,1.09,1.09,0,0,1-.3-.76,1.54,1.54,0,0,1,.7-1.19,7.07,7.07,0,0,1,1.68-1,12,12,0,0,1,2-.66,8.84,8.84,0,0,1,1.78-.23,6.21,6.21,0,0,1,2.37.44,6,6,0,0,1,1.8,1.12,4.79,4.79,0,0,1,1.13,1.51,3.73,3.73,0,0,1,.39,1.61,4.46,4.46,0,0,1-.56,2.13,5.62,5.62,0,0,1-1.59,1.79,5.13,5.13,0,0,1,2.15,1.84,4.31,4.31,0,0,1,.7,2.34,4.51,4.51,0,0,1-.29,1.58,5.67,5.67,0,0,1-.8,1.44,5.85,5.85,0,0,1-1.21,1.17,5,5,0,0,1-1.53.77,10.36,10.36,0,0,1-2.2.45c-.74.07-1.48.1-2.22.1h-.8Zm2.16-10.69.91,0a4.93,4.93,0,0,0,1.05-.22,5.67,5.67,0,0,0,1.22-.52,3.66,3.66,0,0,0,1-.83,1.73,1.73,0,0,0,.42-1.16,1.83,1.83,0,0,0-.32-1.1,2.59,2.59,0,0,0-.81-.77,3.38,3.38,0,0,0-1.12-.45,5.12,5.12,0,0,0-1.2-.15,5.64,5.64,0,0,0-2.07.38v4.76Zm4.2,3.41a4.69,4.69,0,0,0-1.47-.68,9.9,9.9,0,0,0-1.64-.31l-1,.1c-.34,0-.68.05-1,.05v5.8c.41,0,1,0,1.66-.06a9.43,9.43,0,0,0,2-.33,4.49,4.49,0,0,0,1.74-.89,2.08,2.08,0,0,0,.74-1.71,2.47,2.47,0,0,0-.26-1.1A2.24,2.24,0,0,0,188.7,219.24Z"/><path d="M205.1,223.36a1.39,1.39,0,0,1,.91.22,1.07,1.07,0,0,1,.47.61,1.09,1.09,0,0,1-.06.75,1.52,1.52,0,0,1-.65.69,20.12,20.12,0,0,1-2.24.46,21.62,21.62,0,0,1-4.82.17,13.35,13.35,0,0,1-2.26-.34,1.61,1.61,0,0,1-.67-.57,1,1,0,0,1-.17-.65V211.92a1.06,1.06,0,0,1-.59-.41,1.1,1.1,0,0,1-.2-.63,1.24,1.24,0,0,1,.23-.69,1.43,1.43,0,0,1,.73-.5,11.29,11.29,0,0,1,2.31-.48c.78-.09,1.57-.15,2.36-.18s1.59,0,2.38,0,1.58,0,2.36-.06a1.38,1.38,0,0,1,1,.29,1.2,1.2,0,0,1,.42.73,1.08,1.08,0,0,1-.22.79,1.39,1.39,0,0,1-.91.54c-1.16.06-2.4.08-3.7.06a22.34,22.34,0,0,0-3.79.26v5.11c1,0,2,0,3,0s2-.12,3.06-.22a1.36,1.36,0,0,1,1,.29,1.14,1.14,0,0,1,.43.73,1.13,1.13,0,0,1-.22.79,1.46,1.46,0,0,1-.92.54c-1.06.1-2.13.18-3.2.23s-2.14.07-3.18,0v4.71a17.23,17.23,0,0,0,3.61.13A18.82,18.82,0,0,0,205.1,223.36Z"/><path d="M221.24,209.37a1.72,1.72,0,0,1,.47-.88,1,1,0,0,1,.72-.29,1.11,1.11,0,0,1,.71.27,1.36,1.36,0,0,1,.48.81q0,4.16-.06,8c0,2.6-.13,5.28-.28,8l0,0h0a1.29,1.29,0,0,0,0,.25v.22a1.52,1.52,0,0,1-.48.69,1.05,1.05,0,0,1-.66.24,1.39,1.39,0,0,1-1-.47,1.76,1.76,0,0,0-.12-.2l-.12-.18h0v-.05c-.7-1.18-1.42-2.31-2.15-3.39s-1.49-2.12-2.27-3.16-1.56-2.06-2.36-3.08l-2.49-3.12V219c0,1,0,2,0,3.06s0,2.22,0,3.46a1.39,1.39,0,0,1-.39,1,1.16,1.16,0,0,1-.8.33,1.12,1.12,0,0,1-.75-.3,1.49,1.49,0,0,1-.44-.94c0-2.62,0-5.26,0-7.95s0-5.32,0-7.94a1.45,1.45,0,0,1,.44-.81,1,1,0,0,1,.72-.29,1.56,1.56,0,0,1,.87.32l2.62,3.12c.85,1,1.69,2,2.51,3.06s1.62,2.08,2.39,3.15,1.53,2.2,2.27,3.36q.12-3.19.16-6.13C221.23,213.57,221.24,211.51,221.24,209.37Z"/><path d="M228.94,226.93a1.7,1.7,0,0,1-.73-.25,1.16,1.16,0,0,1-.43-.45l-.09-.17-.12-.3a.89.89,0,0,1-.06-.31v-13l-.42.16a1,1,0,0,1-.45.08,1.22,1.22,0,0,1-.88-.32,1,1,0,0,1-.34-.76,1.33,1.33,0,0,1,.74-1.1,7.13,7.13,0,0,1,1.76-.77,15.85,15.85,0,0,1,4-.6,9.71,9.71,0,0,1,3.77.7,8.29,8.29,0,0,1,2.79,1.87,8.18,8.18,0,0,1,1.73,2.75,9.41,9.41,0,0,1-.05,6.69A7.83,7.83,0,0,1,238.2,224a7.11,7.11,0,0,1-2,1.38,13.2,13.2,0,0,1-2.34.81,20.46,20.46,0,0,1-2.46.45C230.54,226.77,229.73,226.85,228.94,226.93Zm2.93-15.44a8.21,8.21,0,0,0-1,0l-1,.15v12.77c.57-.05,1.16-.12,1.79-.2a13.9,13.9,0,0,0,1.84-.35,8.9,8.9,0,0,0,1.69-.61,4,4,0,0,0,1.3-1,7,7,0,0,0,1.41-2.29,7.35,7.35,0,0,0,.48-2.61,6.1,6.1,0,0,0-.42-2.24,5.56,5.56,0,0,0-1.25-1.9,6.09,6.09,0,0,0-2-1.32A7.51,7.51,0,0,0,231.87,211.49Z"/><path d="M255.27,209.05a1.5,1.5,0,0,1,.78.52,1.06,1.06,0,0,1,.24.72,1.16,1.16,0,0,1-.32.72,1.69,1.69,0,0,1-.87.42l-4.53,0,0,14.17a1.37,1.37,0,0,1-.4,1,1.14,1.14,0,0,1-.79.33,1.13,1.13,0,0,1-.76-.3,1.52,1.52,0,0,1-.44-.95l0-14.25H243.6a1.57,1.57,0,0,1-.92-.48,1.06,1.06,0,0,1-.27-.77,1.28,1.28,0,0,1,.36-.79,1.33,1.33,0,0,1,1-.34H252l2,0Z"/><path d="M270.16,209.37a1.8,1.8,0,0,1,.47-.88,1,1,0,0,1,.72-.29,1.13,1.13,0,0,1,.72.27,1.4,1.4,0,0,1,.47.81c0,2.77,0,5.45-.05,8s-.14,5.28-.29,8l0,0h0a1.29,1.29,0,0,0,0,.25v.22a1.52,1.52,0,0,1-.48.69,1,1,0,0,1-.65.24,1.4,1.4,0,0,1-1-.47,1.76,1.76,0,0,0-.12-.2,1.74,1.74,0,0,1-.11-.18h0v-.05c-.7-1.18-1.42-2.31-2.15-3.39s-1.49-2.12-2.27-3.16-1.56-2.06-2.36-3.08l-2.48-3.12V219c0,1,0,2,0,3.06s0,2.22,0,3.46a1.39,1.39,0,0,1-.39,1,1.16,1.16,0,0,1-.8.33,1.12,1.12,0,0,1-.75-.3,1.49,1.49,0,0,1-.44-.94c0-2.62,0-5.26,0-7.95s0-5.32,0-7.94a1.52,1.52,0,0,1,.44-.81,1,1,0,0,1,.72-.29,1.59,1.59,0,0,1,.88.32l2.61,3.12c.85,1,1.69,2,2.51,3.06s1.62,2.08,2.4,3.15,1.52,2.2,2.26,3.36q.12-3.19.16-6.13C270.15,213.57,270.16,211.51,270.16,209.37Z"/><path d="M285.64,223.36a1.39,1.39,0,0,1,.91.22,1.11,1.11,0,0,1,.47.61,1.09,1.09,0,0,1-.06.75,1.52,1.52,0,0,1-.65.69,19.66,19.66,0,0,1-2.24.46,21.62,21.62,0,0,1-4.82.17,13.35,13.35,0,0,1-2.26-.34,1.61,1.61,0,0,1-.67-.57,1,1,0,0,1-.18-.65V211.92a1.07,1.07,0,0,1-.58-.41,1.1,1.1,0,0,1-.2-.63,1.24,1.24,0,0,1,.23-.69,1.43,1.43,0,0,1,.73-.5,11.29,11.29,0,0,1,2.31-.48c.78-.09,1.57-.15,2.36-.18s1.59,0,2.39,0,1.57,0,2.35-.06a1.38,1.38,0,0,1,1,.29,1.2,1.2,0,0,1,.42.73,1,1,0,0,1-.22.79,1.39,1.39,0,0,1-.91.54c-1.16.06-2.4.08-3.71.06a22.29,22.29,0,0,0-3.78.26v5.11c1,0,2,0,3,0s2-.12,3.06-.22a1.36,1.36,0,0,1,1,.29,1.14,1.14,0,0,1,.43.73,1.13,1.13,0,0,1-.22.79,1.46,1.46,0,0,1-.92.54c-1.06.1-2.13.18-3.2.23s-2.14.07-3.18,0v4.71a17.23,17.23,0,0,0,3.61.13A18.82,18.82,0,0,0,285.64,223.36Z"/><path d="M292.3,226.54a1.16,1.16,0,0,1-.8.33,1.12,1.12,0,0,1-.75-.3,1.49,1.49,0,0,1-.44-.94V211.78a1.15,1.15,0,0,1-.74-.37,1.07,1.07,0,0,1-.27-.74,1.29,1.29,0,0,1,.13-.55,1.28,1.28,0,0,1,.42-.52,11.87,11.87,0,0,1,2.79-1.27,10.65,10.65,0,0,1,3.1-.47,8.75,8.75,0,0,1,2.46.34,6.42,6.42,0,0,1,2.16,1.14,5.74,5.74,0,0,1,1.68,2,5.23,5.23,0,0,1,.53,2.26,5.76,5.76,0,0,1-.31,1.83,6.63,6.63,0,0,1-.86,1.7,6.94,6.94,0,0,1-1.32,1.45,7.27,7.27,0,0,1-1.72,1.09c.73.83,1.52,1.72,2.38,2.64l2.38,2.62a1.44,1.44,0,0,1,.32.9,1.08,1.08,0,0,1-.32.8,1.13,1.13,0,0,1-.79.3,1.39,1.39,0,0,1-.5-.1,1.26,1.26,0,0,1-.51-.36l-.61-.69-1-1.07c-.37-.4-.76-.82-1.16-1.28l-1.15-1.28-1-1.06c-.29-.3-.49-.53-.61-.66-.52.09-1,.16-1.57.2s-1,.07-1.57.09v4.79A1.39,1.39,0,0,1,292.3,226.54Zm6.52-15.4a4.48,4.48,0,0,0-1.52-.7,6.93,6.93,0,0,0-1.7-.2,8,8,0,0,0-1.48.14,9,9,0,0,0-1.43.41v7.58c.74,0,1.48-.1,2.21-.18a8.44,8.44,0,0,0,2.18-.52,4.59,4.59,0,0,0,1.2-.67,5.91,5.91,0,0,0,1-1,4.58,4.58,0,0,0,.68-1.17,3.44,3.44,0,0,0,.24-1.23,2.79,2.79,0,0,0-.32-1.31A3.14,3.14,0,0,0,298.82,211.14Z"/><path d="M235.71,294.05l-.59.13a3.49,3.49,0,0,1-.59,0,3.68,3.68,0,0,1-2.66-.93,3,3,0,0,1-1-2.19,3.85,3.85,0,0,1,1.69-3,33.86,33.86,0,0,0,9.65-6.91,29.77,29.77,0,0,0,6.28-9.61,22.43,22.43,0,0,1-8.77,1.85,18.35,18.35,0,0,1-7.5-1.43,16.57,16.57,0,0,1-5.31-3.67,15.3,15.3,0,0,1-4.21-10.41,17.06,17.06,0,0,1,1.22-6.32,16.83,16.83,0,0,1,3.62-5.61,18.89,18.89,0,0,1,5.9-4,19.64,19.64,0,0,1,8.06-1.56,12,12,0,0,1,3.87.59,16.51,16.51,0,0,1,6,2.86,14.53,14.53,0,0,1,3.67,4.3,17.88,17.88,0,0,1,1.89,5.44,40.07,40.07,0,0,1,.63,6.45,38,38,0,0,1-1.47,10.58,35.67,35.67,0,0,1-4.3,9.48A37.33,37.33,0,0,1,245,288,41.25,41.25,0,0,1,235.71,294.05Zm-4.05-30.77a10.94,10.94,0,0,0,8,3.38,14.81,14.81,0,0,0,5.65-1.14,21.28,21.28,0,0,0,5-2.83q.17,0,.21-.33a6.27,6.27,0,0,0,0-.8V260a27.48,27.48,0,0,0-.42-4.81,12.72,12.72,0,0,0-1.47-4.17,8.12,8.12,0,0,0-2.91-2.91A9,9,0,0,0,241.1,247a11.45,11.45,0,0,0-4.34.84,11.81,11.81,0,0,0-3.66,2.32,10.72,10.72,0,0,0-2.53,3.49,10.2,10.2,0,0,0-.93,4.3,8.5,8.5,0,0,0,.46,2.79A7,7,0,0,0,231.66,263.28Z"/><ellipse class="cls-2" cx="165.64" cy="73.32" rx="6.48" ry="18.31"/><ellipse class="cls-2" cx="324.31" cy="80.95" rx="18.31" ry="6.48" transform="translate(185.61 385.07) rotate(-79.5)"/><polygon class="cls-3" points="314.78 151.13 232.39 183.94 163.73 133.59 172.12 33.65 252.22 1.61 323.93 51.96 314.78 151.13"/><ellipse class="cls-4" cx="219.8" cy="71.79" rx="14.88" ry="6.87"/><ellipse cx="220.18" cy="71.79" rx="4.58" ry="6.87"/><ellipse class="cls-4" cx="265.57" cy="73.32" rx="6.87" ry="14.88" transform="translate(181.09 335.55) rotate(-87.58)"/><ellipse cx="265.95" cy="73.34" rx="6.87" ry="4.58" transform="translate(181.44 335.95) rotate(-87.58)"/><path class="cls-5" d="M259.85,138.93c0,5.9-11.67,1.52-21.36,1.52s-22.12,4.38-22.12-1.52,14.72-12.21,24.41-12.21S259.85,133,259.85,138.93Z"/><polygon class="cls-2" points="240.78 87.05 249.17 117.57 228.57 116.8 240.78 87.05"/><polygon class="cls-6" points="235.25 66.8 213.36 57.85 214.38 53.33 237.53 65.26 235.25 66.8"/><polygon class="cls-6" points="251.49 67.56 273.38 58.61 272.35 54.09 249.21 66.02 251.49 67.56"/><path class="cls-7" d="M77.73,144l-10.8-5.69a12.1,12.1,0,0,0-2.38-1s0,0,0,.06c0,7.77-5.67,14.6-14.24,18.55a12.5,12.5,0,0,0,4.88,4.62L66,166.26A12.59,12.59,0,0,0,77.73,144Z"/><path class="cls-8" d="M64.56,137.4s0,0,0-.06c0-12.19-14-22.06-31.27-22.06S2,125.18,2,137.4s14,22.12,31.28,22.12a40.87,40.87,0,0,0,17-3.57C58.89,152,64.56,145.17,64.56,137.4Z"/></svg>