<svg xmlns="http://www.w3.org/2000/svg" xmlns:xlink="http://www.w3.org/1999/xlink" width="1920" height="1080" viewBox="0 0 1920 1080"><defs><style>.cls-1{isolation:isolate;}.cls-2{fill:url(#linear-gradient);}.cls-3{mix-blend-mode:overlay;}.cls-4{fill:none;}.cls-5{fill:#fff;}.cls-6{fill:#fcfcfc;stroke:#000;stroke-miterlimit:10;stroke-width:3px;}.cls-7{fill:url(#radial-gradient);}.cls-8{fill:url(#radial-gradient-2);}.cls-9{fill:#f7f7f7;}.cls-10{fill:#e5d648;}.cls-11{fill:#a5a5a5;}.cls-12{fill:#e2e0e0;}.cls-13{fill:#f43838;}.cls-14{fill:#ddb980;}.cls-15{fill:#efc67d;}.cls-16{fill:#cc3e3e;}.cls-17{fill:#704807;}.cls-18{fill:#f4f4f4;}.cls-19{fill:#ed2e2e;}.cls-20{fill:#dbdbdb;}.cls-21{fill:#606060;}.cls-22{fill:#efefef;}.cls-23{fill:#555859;}.cls-24{fill:url(#linear-gradient-2);}.cls-25{fill:url(#linear-gradient-3);}.cls-26{fill:url(#linear-gradient-4);}.cls-27{fill:url(#linear-gradient-5);}.cls-28{fill:url(#linear-gradient-6);}.cls-29{fill:url(#linear-gradient-7);}.cls-30{fill:url(#linear-gradient-8);}.cls-31{fill:url(#linear-gradient-9);}.cls-32{fill:url(#linear-gradient-10);}.cls-33{fill:url(#linear-gradient-11);}.cls-34{fill:url(#linear-gradient-12);}.cls-35{fill:url(#linear-gradient-13);}.cls-36{fill:url(#linear-gradient-14);}.cls-37{fill:url(#linear-gradient-15);}.cls-38{fill:url(#linear-gradient-16);}.cls-39{fill:url(#linear-gradient-17);}.cls-40{fill:#3e3f3f;}.cls-41{fill:url(#linear-gradient-18);}.cls-42{fill:url(#linear-gradient-19);}.cls-43{fill:url(#linear-gradient-20);}.cls-44{fill:url(#linear-gradient-21);}.cls-45{fill:url(#linear-gradient-22);}.cls-46{fill:url(#linear-gradient-23);}.cls-47{fill:url(#linear-gradient-24);}.cls-48{fill:url(#linear-gradient-25);}.cls-49{fill:url(#linear-gradient-26);}.cls-50{fill:url(#linear-gradient-27);}.cls-51{fill:#efece6;}.cls-52{fill:#9e9e9e;}.cls-53{fill:#3746a0;}.cls-54{fill:#44a336;}</style><linearGradient id="linear-gradient" x1="960" y1="1080" x2="960" gradientUnits="userSpaceOnUse"><stop offset="0.16" stop-color="#1e9cd7"/><stop offset="0.47" stop-color="#0075be"/><stop offset="1" stop-color="#0b3168"/></linearGradient><radialGradient id="radial-gradient" cx="1510.5" cy="458.5" r="124.5" gradientTransform="translate(0 320.95) scale(1 0.3)" gradientUnits="userSpaceOnUse"><stop offset="0" stop-opacity="0.6"/><stop offset="1" stop-opacity="0"/></radialGradient><radialGradient id="radial-gradient-2" cx="993.79" cy="472.44" r="120.56" gradientTransform="translate(0 330.71) scale(1 0.3)" xlink:href="#radial-gradient"/><linearGradient id="linear-gradient-2" x1="301.48" y1="97.06" x2="331.52" y2="149.1" gradientUnits="userSpaceOnUse"><stop offset="0" stop-color="#ffa727"/><stop offset="1" stop-color="#fcdb54"/></linearGradient><linearGradient id="linear-gradient-3" x1="380.48" y1="97.06" x2="410.52" y2="149.1" xlink:href="#linear-gradient-2"/><linearGradient id="linear-gradient-4" x1="461.48" y1="97.06" x2="491.52" y2="149.1" xlink:href="#linear-gradient-2"/><linearGradient id="linear-gradient-5" x1="542.48" y1="97.06" x2="572.52" y2="149.1" xlink:href="#linear-gradient-2"/><linearGradient id="linear-gradient-6" x1="301.48" y1="148.06" x2="331.52" y2="200.1" xlink:href="#linear-gradient-2"/><linearGradient id="linear-gradient-7" x1="380.48" y1="148.06" x2="410.52" y2="200.1" xlink:href="#linear-gradient-2"/><linearGradient id="linear-gradient-8" x1="461.48" y1="148.06" x2="491.52" y2="200.1" xlink:href="#linear-gradient-2"/><linearGradient id="linear-gradient-9" x1="542.48" y1="148.06" x2="572.52" y2="200.1" xlink:href="#linear-gradient-2"/><linearGradient id="linear-gradient-10" x1="301.48" y1="198.06" x2="331.52" y2="250.1" xlink:href="#linear-gradient-2"/><linearGradient id="linear-gradient-11" x1="380.48" y1="198.06" x2="410.52" y2="250.1" xlink:href="#linear-gradient-2"/><linearGradient id="linear-gradient-12" x1="461.48" y1="198.06" x2="491.52" y2="250.1" xlink:href="#linear-gradient-2"/><linearGradient id="linear-gradient-13" x1="542.48" y1="198.06" x2="572.52" y2="250.1" xlink:href="#linear-gradient-2"/><linearGradient id="linear-gradient-14" x1="301.48" y1="248.06" x2="331.52" y2="300.1" xlink:href="#linear-gradient-2"/><linearGradient id="linear-gradient-15" x1="380.48" y1="248.06" x2="410.52" y2="300.1" xlink:href="#linear-gradient-2"/><linearGradient id="linear-gradient-16" x1="461.48" y1="248.06" x2="491.52" y2="300.1" xlink:href="#linear-gradient-2"/><linearGradient id="linear-gradient-17" x1="542.48" y1="248.06" x2="572.52" y2="300.1" xlink:href="#linear-gradient-2"/><linearGradient id="linear-gradient-18" x1="72.03" y1="222.01" x2="108.97" y2="285.99" xlink:href="#linear-gradient-2"/><linearGradient id="linear-gradient-19" x1="165.03" y1="222.01" x2="201.97" y2="285.99" xlink:href="#linear-gradient-2"/><linearGradient id="linear-gradient-20" x1="259.03" y1="222.01" x2="295.97" y2="285.99" xlink:href="#linear-gradient-2"/><linearGradient id="linear-gradient-21" x1="71.03" y1="286.01" x2="107.97" y2="349.99" xlink:href="#linear-gradient-2"/><linearGradient id="linear-gradient-22" x1="164.03" y1="286.01" x2="200.97" y2="349.99" xlink:href="#linear-gradient-2"/><linearGradient id="linear-gradient-23" x1="258.03" y1="286.01" x2="294.97" y2="349.99" xlink:href="#linear-gradient-2"/><linearGradient id="linear-gradient-24" x1="70.03" y1="346.01" x2="106.97" y2="409.99" xlink:href="#linear-gradient-2"/><linearGradient id="linear-gradient-25" x1="163.03" y1="346.01" x2="199.97" y2="409.99" xlink:href="#linear-gradient-2"/><linearGradient id="linear-gradient-26" x1="257.03" y1="346.01" x2="293.97" y2="409.99" xlink:href="#linear-gradient-2"/><linearGradient id="linear-gradient-27" x1="-410.2" y1="3093.64" x2="-100.35" y2="3093.64" gradientTransform="translate(3164.2 -1179.73) rotate(43.89)" gradientUnits="userSpaceOnUse"><stop offset="0" stop-color="#3dc1ae"/><stop offset="0.1" stop-color="#47bdae"/><stop offset="0.28" stop-color="#62b4ae"/><stop offset="0.51" stop-color="#8da4ad"/><stop offset="0.78" stop-color="#c98ead"/><stop offset="1" stop-color="#ff7bac"/></linearGradient></defs><title>Playskærm</title><g class="cls-1"><g id="Layer_4" data-name="Layer 4"><rect class="cls-2" width="1920" height="1080"/><g class="cls-3"><rect class="cls-4" x="1806.82" y="142.02" width="6.72" height="6.72"/><circle class="cls-5" cx="1810.19" cy="145.39" r="3.36"/></g><g class="cls-3"><rect class="cls-4" x="1829.51" y="68.28" width="6.71" height="6.71"/><circle class="cls-5" cx="1832.87" cy="71.64" r="3.35"/></g><g class="cls-3"><rect class="cls-4" x="1758.97" y="86.43" width="8.85" height="8.85"/><circle class="cls-5" cx="1763.4" cy="90.85" r="4.42"/></g><g class="cls-3"><rect class="cls-4" x="1739.95" y="98.27" width="7.79" height="7.79"/><circle class="cls-5" cx="1743.84" cy="102.17" r="3.89"/></g><g class="cls-3"><rect class="cls-4" x="1698.87" y="63.97" width="7.9" height="7.9"/><circle class="cls-5" cx="1702.81" cy="67.92" r="3.95"/></g><rect class="cls-4" x="1665.08" y="238.69" width="4.24" height="4.24"/><circle class="cls-5" cx="1667.2" cy="240.81" r="2.12"/><g class="cls-3"><rect class="cls-4" x="1794.33" y="252.24" width="4.19" height="4.19"/><circle class="cls-5" cx="1796.42" cy="254.34" r="2.1"/></g><rect class="cls-4" x="1385.01" y="223.77" width="5.14" height="5.14"/><circle class="cls-5" cx="1387.58" cy="226.34" r="2.57"/><g class="cls-3"><rect class="cls-4" x="1375.34" y="128.78" width="6.52" height="6.52"/><circle class="cls-5" cx="1378.61" cy="132.04" r="3.26"/></g><g class="cls-3"><rect class="cls-4" x="1127.34" y="81.18" width="6.05" height="6.05"/><circle class="cls-5" cx="1130.36" cy="84.21" r="3.03"/></g><g class="cls-3"><rect class="cls-4" x="1047.65" y="39.39" width="8.23" height="8.23"/><circle class="cls-5" cx="1051.77" cy="43.5" r="4.11"/></g><rect class="cls-4" x="971.05" y="121.25" width="8.06" height="8.06"/><circle class="cls-5" cx="975.08" cy="125.28" r="4.03"/><g class="cls-3"><rect class="cls-4" x="830.02" y="117.12" width="4.95" height="4.95"/><circle class="cls-5" cx="832.49" cy="119.6" r="2.48"/></g><rect class="cls-4" x="615.26" y="143.81" width="7.57" height="7.57"/><circle class="cls-5" cx="619.04" cy="147.59" r="3.78"/><rect class="cls-4" x="568.39" y="129.06" width="6.49" height="6.49"/><circle class="cls-5" cx="571.63" cy="132.3" r="3.25"/><g class="cls-3"><rect class="cls-4" x="609.05" y="519.76" width="6.21" height="6.21"/><circle class="cls-5" cx="612.15" cy="522.86" r="3.11"/></g><g class="cls-3"><rect class="cls-4" x="1446.59" y="34.77" width="6.6" height="6.6"/><circle class="cls-5" cx="1449.88" cy="38.07" r="3.3"/></g><g class="cls-3"><rect class="cls-4" x="1073.61" y="57.17" width="7.36" height="7.36"/><circle class="cls-5" cx="1077.29" cy="60.85" r="3.68"/></g><g class="cls-3"><rect class="cls-4" x="762.67" y="85.29" width="5.33" height="5.33"/><circle class="cls-5" cx="765.33" cy="87.95" r="2.66"/></g><g class="cls-3"><rect class="cls-4" x="672.81" y="47.38" width="6.85" height="6.85"/><circle class="cls-5" cx="676.23" cy="50.8" r="3.43"/></g><rect class="cls-4" x="558.1" y="109.08" width="5.48" height="5.48"/><circle class="cls-5" cx="560.84" cy="111.82" r="2.74"/><rect class="cls-4" x="393.13" y="175.31" width="7.4" height="7.4"/><circle class="cls-5" cx="396.83" cy="179.01" r="3.7"/><rect class="cls-4" x="328.35" y="216.69" width="3.06" height="3.06"/><circle class="cls-5" cx="329.89" cy="218.22" r="1.53"/><rect class="cls-4" x="308.54" y="196.01" width="8.75" height="8.75"/><circle class="cls-5" cx="312.92" cy="200.39" r="4.38"/><rect class="cls-4" x="341.72" y="126.47" width="8.88" height="8.88"/><circle class="cls-5" cx="346.16" cy="130.92" r="4.44"/><rect class="cls-4" x="442.97" y="151.18" width="6.1" height="6.1"/><circle class="cls-5" cx="446.02" cy="154.23" r="3.05"/><rect class="cls-4" x="578.91" y="266.56" width="8.06" height="8.06"/><circle class="cls-5" cx="582.94" cy="270.59" r="4.03"/><rect class="cls-4" x="528.07" y="317.33" width="5.56" height="5.56"/><circle class="cls-5" cx="530.85" cy="320.11" r="2.78"/><g class="cls-3"><rect class="cls-4" x="690.3" y="113.52" width="5.53" height="5.53"/><circle class="cls-5" cx="693.07" cy="116.28" r="2.76"/></g><rect class="cls-4" x="514.76" y="122.75" width="3.56" height="3.56"/><circle class="cls-5" cx="516.54" cy="124.53" r="1.78"/><rect class="cls-4" x="595.97" y="206.15" width="8.52" height="8.52"/><circle class="cls-5" cx="600.23" cy="210.4" r="4.26"/><rect class="cls-4" x="625.63" y="206.11" width="8.81" height="8.81"/><circle class="cls-5" cx="630.04" cy="210.52" r="4.41"/><g class="cls-3"><rect class="cls-4" x="761.07" y="125.44" width="6.57" height="6.57"/><circle class="cls-5" cx="764.36" cy="128.73" r="3.29"/></g><rect class="cls-4" x="994.13" y="305.15" width="7.58" height="7.58"/><circle class="cls-5" cx="997.92" cy="308.94" r="3.79"/><rect class="cls-4" x="1043.58" y="212.73" width="5.01" height="5.01"/><circle class="cls-5" cx="1046.09" cy="215.24" r="2.51"/><rect class="cls-4" x="1059.93" y="281.1" width="6.67" height="6.67"/><circle class="cls-5" cx="1063.27" cy="284.44" r="3.34"/><rect class="cls-4" x="934.73" y="209.04" width="8.15" height="8.15"/><circle class="cls-5" cx="938.81" cy="213.12" r="4.08"/><rect class="cls-4" x="1007.14" y="296.9" width="5.89" height="5.89"/><circle class="cls-5" cx="1010.08" cy="299.85" r="2.95"/><g class="cls-3"><rect class="cls-4" x="1156.88" y="118.41" width="3.88" height="3.88"/><circle class="cls-5" cx="1158.82" cy="120.35" r="1.94"/></g><g class="cls-3"><rect class="cls-4" x="1184.6" y="35.71" width="8.29" height="8.29"/><circle class="cls-5" cx="1188.74" cy="39.85" r="4.14"/></g><g class="cls-3"><rect class="cls-4" x="1176.39" y="173.82" width="8.43" height="8.43"/><circle class="cls-5" cx="1180.61" cy="178.03" r="4.22"/></g><g class="cls-3"><rect class="cls-4" x="1272.13" y="208.68" width="5.17" height="5.17"/><circle class="cls-5" cx="1274.71" cy="211.26" r="2.58"/></g><g class="cls-3"><rect class="cls-4" x="1290.73" y="220.75" width="8.14" height="8.14"/><circle class="cls-5" cx="1294.8" cy="224.83" r="4.07"/></g><g class="cls-3"><rect class="cls-4" x="1292.21" y="261.14" width="4.2" height="4.2"/><circle class="cls-5" cx="1294.31" cy="263.24" r="2.1"/></g><g class="cls-3"><rect class="cls-4" x="1307.09" y="231" width="4.13" height="4.13"/><circle class="cls-5" cx="1309.15" cy="233.07" r="2.07"/></g><rect class="cls-4" x="1653.46" y="196.06" width="7.34" height="7.34"/><circle class="cls-5" cx="1657.13" cy="199.73" r="3.67"/><rect class="cls-4" x="1669.39" y="363.71" width="3.02" height="3.02"/><circle class="cls-5" cx="1670.9" cy="365.22" r="1.51"/><g class="cls-3"><rect class="cls-4" x="1700.53" y="179.25" width="8.89" height="8.89"/><circle class="cls-5" cx="1704.97" cy="183.7" r="4.45"/></g><g class="cls-3"><rect class="cls-4" x="1661.79" y="120.44" width="8.39" height="8.39"/><circle class="cls-5" cx="1665.98" cy="124.64" r="4.19"/></g><g class="cls-3"><rect class="cls-4" x="1867.09" y="327.27" width="7.82" height="7.82"/><circle class="cls-5" cx="1871.01" cy="331.18" r="3.91"/></g><g class="cls-3"><rect class="cls-4" x="1879.29" y="351.51" width="4.95" height="4.95"/><circle class="cls-5" cx="1881.76" cy="353.98" r="2.47"/></g><g class="cls-3"><rect class="cls-4" x="1840.96" y="281.51" width="7.92" height="7.92"/><circle class="cls-5" cx="1844.92" cy="285.47" r="3.96"/></g><g class="cls-3"><rect class="cls-4" x="1844.26" y="356.93" width="6.83" height="6.83"/><circle class="cls-5" cx="1847.68" cy="360.34" r="3.42"/></g><g class="cls-3"><rect class="cls-4" x="1758.7" y="384.89" width="8.65" height="8.65"/><circle class="cls-5" cx="1763.03" cy="389.22" r="4.32"/></g><rect class="cls-4" x="1669.59" y="237.9" width="5.74" height="5.74"/><circle class="cls-5" cx="1672.46" cy="240.77" r="2.87"/><g class="cls-3"><rect class="cls-4" x="1618.86" y="43.61" width="6.71" height="6.71"/><circle class="cls-5" cx="1622.21" cy="46.97" r="3.36"/></g><g class="cls-3"><rect class="cls-4" x="1209.51" y="127.35" width="4.07" height="4.07"/><circle class="cls-5" cx="1211.55" cy="129.38" r="2.03"/></g><g class="cls-3"><rect class="cls-4" x="1266.34" y="236.82" width="4.96" height="4.96"/><circle class="cls-5" cx="1268.82" cy="239.3" r="2.48"/></g><g class="cls-3"><rect class="cls-4" x="1353.1" y="111.15" width="5.4" height="5.4"/><circle class="cls-5" cx="1355.8" cy="113.85" r="2.7"/></g><g class="cls-3"><rect class="cls-4" x="1278.23" y="203.51" width="3.93" height="3.93"/><circle class="cls-5" cx="1280.2" cy="205.48" r="1.97"/></g><rect class="cls-4" x="1033.82" y="137.02" width="6.72" height="6.72"/><circle class="cls-5" cx="1037.19" cy="140.39" r="3.36"/><g class="cls-3"><rect class="cls-4" x="1056.51" y="63.28" width="6.71" height="6.71"/><circle class="cls-5" cx="1059.87" cy="66.64" r="3.35"/></g><rect class="cls-4" x="966.95" y="93.27" width="7.79" height="7.79"/><circle class="cls-5" cx="970.84" cy="97.17" r="3.89"/><g class="cls-3"><rect class="cls-4" x="925.87" y="58.97" width="7.9" height="7.9"/><circle class="cls-5" cx="929.81" cy="62.92" r="3.95"/></g><rect class="cls-4" x="892.08" y="233.69" width="4.24" height="4.24"/><circle class="cls-5" cx="894.2" cy="235.81" r="2.12"/><rect class="cls-4" x="1021.33" y="247.24" width="4.19" height="4.19"/><circle class="cls-5" cx="1023.42" cy="249.34" r="2.1"/><g class="cls-3"><rect class="cls-4" x="1237.31" y="402.68" width="5.99" height="5.99"/><circle class="cls-5" cx="1240.3" cy="405.68" r="2.99"/></g><rect class="cls-4" x="612.01" y="218.77" width="5.14" height="5.14"/><circle class="cls-5" cx="614.58" cy="221.34" r="2.57"/><rect class="cls-4" x="602.34" y="123.78" width="6.52" height="6.52"/><circle class="cls-5" cx="605.61" cy="127.04" r="3.26"/><g class="cls-3"><rect class="cls-4" x="274.65" y="34.39" width="8.23" height="8.23"/><circle class="cls-5" cx="278.77" cy="38.5" r="4.11"/></g><g class="cls-3"><rect class="cls-4" x="198.05" y="116.25" width="8.06" height="8.06"/><circle class="cls-5" cx="202.08" cy="120.28" r="4.03"/></g><g class="cls-3"><rect class="cls-4" x="57.02" y="112.12" width="4.95" height="4.95"/><circle class="cls-5" cx="59.49" cy="114.6" r="2.48"/></g><rect class="cls-4" x="59.58" y="447.74" width="8.33" height="8.33"/><circle class="cls-5" cx="63.75" cy="451.9" r="4.17"/><g class="cls-3"><rect class="cls-4" x="359.11" y="556.78" width="4.52" height="4.52"/><circle class="cls-5" cx="361.37" cy="559.04" r="2.26"/></g><g class="cls-3"><rect class="cls-4" x="673.59" y="29.77" width="6.6" height="6.6"/><circle class="cls-5" cx="676.88" cy="33.07" r="3.3"/></g><g class="cls-3"><rect class="cls-4" x="300.61" y="52.17" width="7.36" height="7.36"/><circle class="cls-5" cx="304.29" cy="55.85" r="3.68"/></g><g class="cls-3"><rect class="cls-4" x="161.84" y="82.3" width="7.4" height="7.4"/><circle class="cls-5" cx="165.54" cy="86" r="3.7"/></g><rect class="cls-4" x="221.13" y="300.15" width="7.58" height="7.58"/><circle class="cls-5" cx="224.92" cy="303.94" r="3.79"/><rect class="cls-4" x="270.58" y="207.73" width="5.01" height="5.01"/><circle class="cls-5" cx="273.09" cy="210.24" r="2.51"/><rect class="cls-4" x="286.93" y="276.1" width="6.67" height="6.67"/><circle class="cls-5" cx="290.27" cy="279.44" r="3.34"/><g class="cls-3"><rect class="cls-4" x="161.73" y="204.04" width="8.15" height="8.15"/><circle class="cls-5" cx="165.81" cy="208.12" r="4.08"/></g><rect class="cls-4" x="234.14" y="291.9" width="5.89" height="5.89"/><circle class="cls-5" cx="237.08" cy="294.85" r="2.95"/><rect class="cls-4" x="383.88" y="113.41" width="3.88" height="3.88"/><circle class="cls-5" cx="385.82" cy="115.35" r="1.94"/><g class="cls-3"><rect class="cls-4" x="411.6" y="30.71" width="8.29" height="8.29"/><circle class="cls-5" cx="415.74" cy="34.85" r="4.14"/></g><rect class="cls-4" x="403.39" y="168.82" width="8.43" height="8.43"/><circle class="cls-5" cx="407.61" cy="173.03" r="4.22"/><rect class="cls-4" x="499.13" y="203.68" width="5.17" height="5.17"/><circle class="cls-5" cx="501.71" cy="206.26" r="2.58"/><rect class="cls-4" x="517.73" y="215.75" width="8.14" height="8.14"/><circle class="cls-5" cx="521.8" cy="219.83" r="4.07"/><rect class="cls-4" x="519.21" y="256.14" width="4.2" height="4.2"/><circle class="cls-5" cx="521.31" cy="258.24" r="2.1"/><rect class="cls-4" x="534.09" y="226" width="4.13" height="4.13"/><circle class="cls-5" cx="536.15" cy="228.07" r="2.07"/><rect class="cls-4" x="880.46" y="191.06" width="7.34" height="7.34"/><circle class="cls-5" cx="884.13" cy="194.73" r="3.67"/><g class="cls-3"><rect class="cls-4" x="833.76" y="156.49" width="4.49" height="4.49"/><circle class="cls-5" cx="836.01" cy="158.73" r="2.25"/></g><g class="cls-3"><rect class="cls-4" x="799.49" y="252.83" width="5.17" height="5.17"/><circle class="cls-5" cx="802.07" cy="255.42" r="2.58"/></g><rect class="cls-4" x="843.87" y="271.6" width="8.2" height="8.2"/><circle class="cls-5" cx="847.97" cy="275.7" r="4.1"/><rect class="cls-4" x="896.39" y="358.71" width="3.02" height="3.02"/><circle class="cls-5" cx="897.9" cy="360.22" r="1.51"/><rect class="cls-4" x="927.53" y="174.25" width="8.89" height="8.89"/><circle class="cls-5" cx="931.97" cy="178.7" r="4.45"/><rect class="cls-4" x="1094.09" y="322.27" width="7.82" height="7.82"/><circle class="cls-5" cx="1098.01" cy="326.18" r="3.91"/><rect class="cls-4" x="1106.29" y="346.51" width="4.95" height="4.95"/><circle class="cls-5" cx="1108.76" cy="348.98" r="2.47"/><rect class="cls-4" x="1067.96" y="276.51" width="7.92" height="7.92"/><circle class="cls-5" cx="1071.92" cy="280.47" r="3.96"/><g class="cls-3"><rect class="cls-4" x="1153.77" y="336.46" width="5.98" height="5.98"/><circle class="cls-5" cx="1156.76" cy="339.45" r="2.99"/></g><rect class="cls-4" x="1071.26" y="351.93" width="6.83" height="6.83"/><circle class="cls-5" cx="1074.68" cy="355.34" r="3.42"/><g class="cls-3"><rect class="cls-4" x="1127.7" y="365.89" width="8.65" height="8.65"/><circle class="cls-5" cx="1132.03" cy="370.22" r="4.32"/></g><g class="cls-3"><rect class="cls-4" x="1170.21" y="421.58" width="7.4" height="7.4"/><circle class="cls-5" cx="1173.91" cy="425.28" r="3.7"/></g><g class="cls-3"><rect class="cls-4" x="1282.53" y="293.83" width="4.58" height="4.58"/><circle class="cls-5" cx="1284.82" cy="296.12" r="2.29"/></g><g class="cls-3"><rect class="cls-4" x="1265.84" y="268.44" width="4.3" height="4.3"/><circle class="cls-5" cx="1267.99" cy="270.59" r="2.15"/></g><g class="cls-3"><rect class="cls-4" x="1272.85" y="239.8" width="8.91" height="8.91"/><circle class="cls-5" cx="1277.3" cy="244.25" r="4.45"/></g><g class="cls-3"><rect class="cls-4" x="1194.32" y="389.16" width="6.06" height="6.06"/><circle class="cls-5" cx="1197.35" cy="392.19" r="3.03"/></g><g class="cls-3"><rect class="cls-4" x="1173.7" y="336.29" width="4.93" height="4.93"/><circle class="cls-5" cx="1176.16" cy="338.76" r="2.46"/></g><g class="cls-3"><rect class="cls-4" x="1147.82" y="427.7" width="3.29" height="3.29"/><circle class="cls-5" cx="1149.47" cy="429.34" r="1.65"/></g><g class="cls-3"><rect class="cls-4" x="1221.01" y="454.39" width="6.43" height="6.43"/><circle class="cls-5" cx="1224.22" cy="457.6" r="3.21"/></g></g><g id="Layer_2" data-name="Layer 2"><rect class="cls-6" x="1326" y="168" width="357.94" height="90.76" rx="18"/><rect class="cls-6" x="1326.36" y="293.24" width="357.94" height="90.76" rx="18"/><path d="M1437.41,193.58A2.43,2.43,0,0,1,1439,193a1.88,1.88,0,0,1,.77.13,33.37,33.37,0,0,1,5.13-1.79,21.29,21.29,0,0,1,5.39-.71,17.53,17.53,0,0,1,3.5.35,12,12,0,0,1,3.31,1.25,12.79,12.79,0,0,1,3.14,2.31,14.91,14.91,0,0,1,2.38,3.12,16.25,16.25,0,0,1,1.5,3.62,13.88,13.88,0,0,1,.55,3.85,12.54,12.54,0,0,1-2,6.87,17,17,0,0,1-5.2,5.23,15.13,15.13,0,0,1-7.06,2.28c-.51,0-1,.08-1.57.1l-1.51,0c-1,0-1.95,0-2.89-.13s-1.88-.19-2.82-.32v5.52q0,3.07.06,5.52a3.05,3.05,0,0,1-.86,2.21,2.59,2.59,0,0,1-1.77.74,2.49,2.49,0,0,1-1.67-.67,3.28,3.28,0,0,1-1-2.09V217.88a1.11,1.11,0,0,1-.45-.13,3.66,3.66,0,0,1-1.41-1.22,2.6,2.6,0,0,1-.45-1.41,2.24,2.24,0,0,1,.58-1.51,3,3,0,0,1,1.67-.93v-17.2A3.56,3.56,0,0,1,1437.41,193.58Zm17.2,3.25a9.28,9.28,0,0,0-4.36-1,15.47,15.47,0,0,0-4.49.67,28.87,28.87,0,0,0-4.11,1.57v15.79a21.41,21.41,0,0,0,2.69.48,22.73,22.73,0,0,0,2.76.17,18.87,18.87,0,0,0,2.7-.2,24.31,24.31,0,0,0,3.69-.93,7.85,7.85,0,0,0,3.24-2.08,9.77,9.77,0,0,0,1.93-3.08,9.46,9.46,0,0,0,.64-3.34,9.35,9.35,0,0,0-1.19-4.59A8.7,8.7,0,0,0,1454.61,196.83Z"/><path d="M1492.22,226.09a3.41,3.41,0,0,1,1.8,1.16,2.39,2.39,0,0,1,.55,1.57,2.54,2.54,0,0,1-.68,1.54,3.28,3.28,0,0,1-1.86,1c-3.3.09-6.57.14-9.82.17s-6.5.07-9.75.16a2.81,2.81,0,0,1-2.76-2.76q0-8.47.06-16.88t.06-16.95a3.29,3.29,0,0,1,1-1.86,2.3,2.3,0,0,1,3.11-.13,3.56,3.56,0,0,1,1.16,1.8q0,8-.07,15.76c0,5.19-.06,10.45-.06,15.75,2.86-.08,5.73-.14,8.6-.16S1489.31,226.18,1492.22,226.09Z"/><path d="M1531.37,229a3.47,3.47,0,0,1-.64,2,2.22,2.22,0,0,1-1.41.93,2.49,2.49,0,0,1-1.67-.28,3.55,3.55,0,0,1-1.41-1.54,55.51,55.51,0,0,0-1.09-5.94c-.47-1.95-1-3.88-1.67-5.81l-17,.13-.29,0a1.67,1.67,0,0,0-.29,0q-1.61,5.46-2.89,11.3a3,3,0,0,1-1.47,1.8,2.53,2.53,0,0,1-1.83.19,2.44,2.44,0,0,1-1.41-1.16,3.2,3.2,0,0,1-.29-2.31,188.54,188.54,0,0,1,5.1-18.19,114.9,114.9,0,0,1,7.48-17.36,3,3,0,0,1,3.14-1.64,2.31,2.31,0,0,1,1.09.61s.07,0,.07,0,0,0,.06,0a30.59,30.59,0,0,1,5.59,7.26q2.23,4,4.1,8.21c.47,1,.91,2,1.32,2.95s.8,2,1.19,3l3.4-.07a3.56,3.56,0,0,1,1.8,1.16,2.45,2.45,0,0,1,.54,1.57,2.5,2.5,0,0,1-.67,1.54,3.29,3.29,0,0,1-1.86,1H1529c.55,1.75,1,3.52,1.44,5.29A49.07,49.07,0,0,1,1531.37,229Zm-17.71-30.87q-1.8,3.66-3.31,7.45t-2.79,7.64l14-.13c-.55-1.29-1.12-2.55-1.7-3.79s-1.16-2.48-1.76-3.72-1.37-2.51-2.06-3.79A25.41,25.41,0,0,0,1513.66,198.17Z"/><path d="M1550.76,228.79a3.1,3.1,0,0,1-.87,2.21,2.57,2.57,0,0,1-1.77.74,2.45,2.45,0,0,1-1.66-.67,3.24,3.24,0,0,1-1-2.09q0-3.91,0-7.8t0-7.86a70.3,70.3,0,0,1-7.29-8.25,31.81,31.81,0,0,1-5-9.78,1.5,1.5,0,0,0,0-.29,1.68,1.68,0,0,1,0-.29,2.83,2.83,0,0,1,.73-2.09,2.36,2.36,0,0,1,1.7-.74,3,3,0,0,1,2.51,1.48,28.81,28.81,0,0,0,4,8.25,53.89,53.89,0,0,0,5.91,7l6.19-7.35a45.37,45.37,0,0,0,5.36-7.92,3.34,3.34,0,0,1,1.19-1.29,2.58,2.58,0,0,1,1.31-.38,2.49,2.49,0,0,1,1.73.7,2.38,2.38,0,0,1,.77,1.86,4,4,0,0,1-.32,1.42,55.77,55.77,0,0,1-6.22,9.08q-3.6,4.26-7.06,8.5l-.26.26v7.67Q1550.69,224.93,1550.76,228.79Z"/><path d="M1375.24,351.38a4.39,4.39,0,0,1-.38-1.67,2.37,2.37,0,0,1,.67-1.76,2.31,2.31,0,0,1,1.7-.68,3.32,3.32,0,0,1,2,.71,10.47,10.47,0,0,0,2.54,2.15,13,13,0,0,0,3.08,1.35,19.76,19.76,0,0,0,3.34.67,28.85,28.85,0,0,0,3.3.19c.73-.25,1.23-.41,1.51-.48a3.09,3.09,0,0,0,.67-.22,3.27,3.27,0,0,0,.58-.39c.22-.17.62-.47,1.22-.9.22-.3.41-.57.58-.83s.36-.54.58-.84l.57-1.73v-.86a8.32,8.32,0,0,0-.06-.94,6.86,6.86,0,0,0-.32-.86q-.19-.42-.39-.87c-.25-.3-.5-.58-.73-.83s-.48-.54-.74-.84-.77-.45-1.16-.7a4.26,4.26,0,0,0-1.28-.58,29,29,0,0,0-4.85-1.25,40.17,40.17,0,0,1-4.17-.9,11.5,11.5,0,0,1-7.09-5.42,3.89,3.89,0,0,1-.39-.77,8.34,8.34,0,0,1-.12-.9c-.05-.35-.08-.68-.1-1s0-.63,0-.93a8.48,8.48,0,0,1,.22-2.05,7.57,7.57,0,0,1,.68-1.74,11.33,11.33,0,0,1,1.15-1.7c.47-.57,1-1.2,1.67-1.89A9.42,9.42,0,0,1,1382,320a14.8,14.8,0,0,1,3-1.16,19.28,19.28,0,0,1,3.17-.58c1.09-.1,2.15-.16,3.18-.16h.93a6.64,6.64,0,0,1,.87.07,8.81,8.81,0,0,1,2.79.7,19.65,19.65,0,0,0,2.73,1,3,3,0,0,1,1.47,2.5,2.31,2.31,0,0,1-.74,1.7,2.81,2.81,0,0,1-2.08.74l-.29,0a1.67,1.67,0,0,0-.29,0c-1.37-.42-2.58-.75-3.62-1a14.28,14.28,0,0,0-3-.35,10.37,10.37,0,0,0-3.15.51,19.72,19.72,0,0,0-3.72,1.73,9.52,9.52,0,0,1-.77.93c-.26.28-.51.57-.77.87s-.25.51-.35.77a8,8,0,0,0-.29.77c0,.26,0,.51,0,.77a4.86,4.86,0,0,0,.1.71,4.3,4.3,0,0,1,.44.64,6.24,6.24,0,0,0,.45.64l2.7,1.54c1.28.3,2.48.56,3.59.77s2.19.46,3.21.74,2,.61,3,1a25.86,25.86,0,0,1,3.24,1.54,5.59,5.59,0,0,1,1.54,1.32l1.22,1.51a7.75,7.75,0,0,1,1.51,2.76,10.66,10.66,0,0,1,.48,3.21,11.65,11.65,0,0,1-.9,4.49,9.17,9.17,0,0,1-2.56,3.59,11,11,0,0,1-1.19.93l-1.19.81a10.08,10.08,0,0,1-3,1.34,13.44,13.44,0,0,1-3.53.45,19.46,19.46,0,0,1-4.26-.48,22.28,22.28,0,0,1-4.14-1.35,20.75,20.75,0,0,1-3.66-2A14.78,14.78,0,0,1,1375.24,351.38Z"/><path d="M1430.57,349.58a3.24,3.24,0,0,1,2,.48,2.43,2.43,0,0,1,1,1.35,2.56,2.56,0,0,1-.13,1.67,3.26,3.26,0,0,1-1.45,1.51,40.18,40.18,0,0,1-4.94,1,52,52,0,0,1-5.32.48,49.66,49.66,0,0,1-5.33-.1,30.33,30.33,0,0,1-5-.77A3.49,3.49,0,0,1,1410,354a2.35,2.35,0,0,1-.39-1.44V324.3a2.37,2.37,0,0,1-1.28-.9,2.41,2.41,0,0,1-.45-1.41,2.61,2.61,0,0,1,.51-1.51,3.13,3.13,0,0,1,1.61-1.13,28.71,28.71,0,0,1,5.1-1.06c1.73-.19,3.47-.32,5.23-.38s3.51-.1,5.26-.1,3.49,0,5.2-.13a3.06,3.06,0,0,1,2.22.65,2.64,2.64,0,0,1,.93,1.6,2.44,2.44,0,0,1-.49,1.77,3.21,3.21,0,0,1-2,1.18c-2.56.13-5.29.18-8.18.13a48.88,48.88,0,0,0-8.38.58v11.3c2.23.08,4.46.07,6.71,0s4.5-.26,6.77-.48a3.06,3.06,0,0,1,2.22.64,2.69,2.69,0,0,1,.93,1.61,2.44,2.44,0,0,1-.48,1.76,3.23,3.23,0,0,1-2,1.19q-3.53.33-7.09.51c-2.37.13-4.72.15-7,.07v10.4a36.46,36.46,0,0,0,8,.28A40.91,40.91,0,0,0,1430.57,349.58Z"/><path d="M1466.38,317.94a3.41,3.41,0,0,1,1.73,1.16,2.31,2.31,0,0,1,.52,1.6,2.5,2.5,0,0,1-.71,1.57,3.54,3.54,0,0,1-1.92.93l-10,.07.07,31.32a3,3,0,0,1-.87,2.21,2.55,2.55,0,0,1-1.76.74,2.47,2.47,0,0,1-1.67-.67,3.19,3.19,0,0,1-1-2.09l-.07-31.51h-10.14a3.32,3.32,0,0,1-2-1.06,2.33,2.33,0,0,1-.61-1.7,2.7,2.7,0,0,1,.8-1.73A2.91,2.91,0,0,1,1441,318h18.16c1.71,0,3.22,0,4.52,0Z"/><path d="M1499.43,317.94a3.48,3.48,0,0,1,1.74,1.16,2.35,2.35,0,0,1,.51,1.6,2.45,2.45,0,0,1-.71,1.57,3.51,3.51,0,0,1-1.92.93l-10,.07.06,31.32a3,3,0,0,1-.87,2.21,2.55,2.55,0,0,1-1.76.74,2.47,2.47,0,0,1-1.67-.67,3.28,3.28,0,0,1-1-2.09l-.07-31.51h-10.14a3.32,3.32,0,0,1-2-1.06,2.33,2.33,0,0,1-.61-1.7,2.7,2.7,0,0,1,.8-1.73A2.92,2.92,0,0,1,1474,318h18.16c1.71,0,3.22,0,4.53,0Z"/><path d="M1521.9,350.8a3,3,0,0,1,2.21.64,2.59,2.59,0,0,1,.93,1.61,2.35,2.35,0,0,1-.48,1.76,3.21,3.21,0,0,1-2,1.19q-3.35.13-6.64.1c-2.21,0-4.42,0-6.65,0a3.09,3.09,0,0,1-2.08-1,2.44,2.44,0,0,1-.64-1.73,2.49,2.49,0,0,1,.77-1.7,3,3,0,0,1,2.15-.84h1.89c.62,0,1.25,0,1.89.07V322.82h-4a3.17,3.17,0,0,1-2.09-1,2.49,2.49,0,0,1-.64-1.73,2.54,2.54,0,0,1,.77-1.7,3,3,0,0,1,2.15-.83h13.22a3.48,3.48,0,0,1,1.8,1.15,2.47,2.47,0,0,1,.55,1.57,2.51,2.51,0,0,1-.68,1.54,3.24,3.24,0,0,1-1.86,1h-3.92v28.11c.56,0,1.12,0,1.67,0S1521.3,350.85,1521.9,350.8Z"/><path d="M1558.09,318.65a3.82,3.82,0,0,1,1-1.93,2.36,2.36,0,0,1,1.61-.64,2.48,2.48,0,0,1,1.57.58,3.26,3.26,0,0,1,1.06,1.79q0,9.18-.13,17.78t-.64,17.78l.06.07h-.06a2.35,2.35,0,0,0-.07.54v.48a3.26,3.26,0,0,1-1.06,1.54,2.36,2.36,0,0,1-1.44.52,3.08,3.08,0,0,1-2.18-1,4.49,4.49,0,0,0-.26-.45l-.26-.39h-.06v-.12q-2.31-3.92-4.75-7.48c-1.63-2.38-3.29-4.71-5-7s-3.45-4.55-5.23-6.8-3.6-4.55-5.48-6.9v13q0,3.24,0,6.77t0,7.64a3,3,0,0,1-.87,2.21,2.55,2.55,0,0,1-1.76.74,2.49,2.49,0,0,1-1.67-.68,3.23,3.23,0,0,1-1-2.08q0-8.67,0-17.55t0-17.56a3.28,3.28,0,0,1,1-1.8,2.34,2.34,0,0,1,1.6-.64,3.49,3.49,0,0,1,1.93.71l5.77,6.9q2.82,3.36,5.55,6.77t5.3,7q2.56,3.57,5,7.42c.18-4.71.29-9.22.36-13.55S1558.09,323.4,1558.09,318.65Z"/><path d="M1600.71,334.69a3.33,3.33,0,0,1,1.8,1.06,2.53,2.53,0,0,1,.57,1.57,2.35,2.35,0,0,1-.51,1.45,3.37,3.37,0,0,1-1.47,1.06v9.62a3.29,3.29,0,0,1-.94,2.38l-1.76,1.8a12.16,12.16,0,0,1-4.85,3,17.84,17.84,0,0,1-5.68.93,16.59,16.59,0,0,1-8.21-2,19,19,0,0,1-5.87-4.94,21.48,21.48,0,0,1-3.53-6.51,20.94,20.94,0,0,1-1.19-6.74,20,20,0,0,1,.45-4,21.6,21.6,0,0,1,1.38-4.31,19.62,19.62,0,0,1,2.34-4,12.54,12.54,0,0,1,3.34-3.08,41,41,0,0,1,7.09-3.7,19.93,19.93,0,0,1,7.41-1.44,18.6,18.6,0,0,1,2.63.23,17.35,17.35,0,0,1,3,.7,7.77,7.77,0,0,1,2.47,1.32,2.56,2.56,0,0,1,1,2,2.35,2.35,0,0,1-.71,1.73,2.44,2.44,0,0,1-1.8.71,4.36,4.36,0,0,1-1.34-.26l-1.64-.54c-.58-.2-1.18-.38-1.8-.55a6.89,6.89,0,0,0-1.83-.25,11.87,11.87,0,0,0-1.22.06,5.29,5.29,0,0,0-1.15.26q-2.51.76-5.07,1.82a18,18,0,0,0-4.66,2.8,13.35,13.35,0,0,0-3.37,4.26,14,14,0,0,0-1.28,6.33,15.38,15.38,0,0,0,1.09,5.8,15.54,15.54,0,0,0,2.89,4.72,13.6,13.6,0,0,0,4.17,3.15,11.15,11.15,0,0,0,4.94,1.15,11.5,11.5,0,0,0,4.43-.9,11.93,11.93,0,0,0,4-2.69V340c-1.62,0-3.24.06-4.84.06h-4.85a3.23,3.23,0,0,1-2.09-1,2.52,2.52,0,0,1-.67-1.67,2.76,2.76,0,0,1,2.95-2.63l2.73,0c1.39,0,2.88,0,4.46,0s3.07,0,4.46,0Z"/><path d="M1609.69,351.38a4.39,4.39,0,0,1-.38-1.67A2.37,2.37,0,0,1,1610,348a2.31,2.31,0,0,1,1.7-.68,3.32,3.32,0,0,1,2,.71,10.47,10.47,0,0,0,2.54,2.15,13,13,0,0,0,3.08,1.35,19.76,19.76,0,0,0,3.34.67,28.85,28.85,0,0,0,3.3.19c.73-.25,1.23-.41,1.51-.48a3.09,3.09,0,0,0,.67-.22,3.27,3.27,0,0,0,.58-.39c.22-.17.62-.47,1.22-.9.22-.3.41-.57.58-.83s.36-.54.58-.84l.57-1.73v-.86a8.32,8.32,0,0,0-.06-.94,6.86,6.86,0,0,0-.32-.86l-.39-.87c-.25-.3-.5-.58-.73-.83s-.49-.54-.74-.84-.77-.45-1.16-.7a4.26,4.26,0,0,0-1.28-.58,29,29,0,0,0-4.85-1.25,40.17,40.17,0,0,1-4.17-.9,11.5,11.5,0,0,1-7.09-5.42,3.89,3.89,0,0,1-.39-.77,8.34,8.34,0,0,1-.12-.9c0-.35-.08-.68-.1-1s0-.63,0-.93a8.48,8.48,0,0,1,.22-2.05,7.57,7.57,0,0,1,.68-1.74,11.33,11.33,0,0,1,1.15-1.7c.47-.57,1-1.2,1.67-1.89a9.42,9.42,0,0,1,2.5-1.89,14.8,14.8,0,0,1,3-1.16,19.28,19.28,0,0,1,3.17-.58c1.09-.1,2.15-.16,3.18-.16h.93a6.64,6.64,0,0,1,.87.07,8.81,8.81,0,0,1,2.79.7,19.2,19.2,0,0,0,2.73,1,3,3,0,0,1,1.47,2.5,2.31,2.31,0,0,1-.74,1.7,2.81,2.81,0,0,1-2.08.74l-.29,0a1.67,1.67,0,0,0-.29,0q-2.06-.63-3.63-1a14.12,14.12,0,0,0-3-.35,10.37,10.37,0,0,0-3.15.51,19.72,19.72,0,0,0-3.72,1.73,9.52,9.52,0,0,1-.77.93c-.26.28-.51.57-.77.87s-.25.51-.35.77a8,8,0,0,0-.29.77c0,.26,0,.51,0,.77a6.86,6.86,0,0,0,.09.71,3.73,3.73,0,0,1,.45.64,6.24,6.24,0,0,0,.45.64l2.7,1.54c1.28.3,2.48.56,3.59.77s2.19.46,3.21.74,2,.61,3,1a25.86,25.86,0,0,1,3.24,1.54,5.59,5.59,0,0,1,1.54,1.32l1.22,1.51a7.75,7.75,0,0,1,1.51,2.76,10.66,10.66,0,0,1,.48,3.21,11.65,11.65,0,0,1-.9,4.49,9.17,9.17,0,0,1-2.56,3.59,11,11,0,0,1-1.19.93l-1.19.81a10.08,10.08,0,0,1-3,1.34,13.44,13.44,0,0,1-3.53.45,19.46,19.46,0,0,1-4.26-.48,22.28,22.28,0,0,1-4.14-1.35,20.75,20.75,0,0,1-3.66-2A14.78,14.78,0,0,1,1609.69,351.38Z"/><circle class="cls-7" cx="1510.5" cy="458.5" r="124.5"/></g><g id="Layer_3" data-name="Layer 3"><circle class="cls-8" cx="993.79" cy="472.44" r="120.56"/><path class="cls-9" d="M1135,185.12A155.26,155.26,0,1,0,992,400.71c2,0,4.06,0,6.08-.13a153.84,153.84,0,0,0,54.32-12.07c3.85-1.62,7.61-3.41,11.29-5.32A155.37,155.37,0,0,0,1135,185.12Z"/><path class="cls-9" d="M992,87.81a157.72,157.72,0,1,0,0,315.43c2.25,0,4.48-.05,6.71-.15A157.71,157.71,0,0,0,992,87.81Zm109.73,267.44a154.89,154.89,0,0,1-38,27.94c-3.68,1.91-7.44,3.7-11.29,5.32a153.84,153.84,0,0,1-54.32,12.07c-2,.08-4.05.13-6.08.13a155.4,155.4,0,1,1,109.73-45.46Z"/><path class="cls-10" d="M852.38,231.47l29.31-3.67s-2-13,7.88-13.82,11,3.91,13.27,7.75,24.7-2.18,24.76-2.06,1.92-8,7.44-9,10.53,1.95,11.81,6.25,27.61-4,27.68-4.32c-.5-9.41-1-18.64-1.63-28a177.28,177.28,0,0,1-17.77,3c-7.53-8.74-15.59-18.79-24.08-29-15.14.22-30.34.48-45.57.87a339.8,339.8,0,0,0-13,33.36,182.82,182.82,0,0,0-27.24,4.54Q848.82,214.46,852.38,231.47Z"/><circle cx="937.53" cy="220.27" r="8.33"/><circle cx="892.15" cy="223.91" r="8.33"/><polyline class="cls-11" points="880.21 192.84 889.11 164.31 906.46 163.96 908.93 190.13"/><polyline class="cls-11" points="912.9 164 915.31 189.53 944.03 186.82 929.55 163.07"/><rect class="cls-12" x="847.13" y="202.31" width="15.79" height="2.56" transform="translate(-15.35 81.24) rotate(-5.39)"/><rect class="cls-12" x="863.09" y="203.38" width="15.79" height="2.56" transform="translate(-15.38 82.75) rotate(-5.39)"/><rect class="cls-12" x="878.56" y="199.34" width="15.79" height="2.56" transform="translate(-14.93 84.18) rotate(-5.39)"/><rect class="cls-12" x="894.52" y="200.41" width="15.79" height="2.56" transform="translate(-14.96 85.69) rotate(-5.39)"/><rect class="cls-12" x="909.99" y="196.38" width="15.79" height="2.56" transform="translate(-14.51 87.12) rotate(-5.39)"/><rect class="cls-12" x="925.95" y="197.44" width="15.79" height="2.56" transform="matrix(1, -0.09, 0.09, 1, -14.54, 88.63)"/><rect class="cls-12" x="941.43" y="193.41" width="15.79" height="2.56" transform="translate(-14.09 90.06) rotate(-5.39)"/><rect class="cls-12" x="957.39" y="194.48" width="15.79" height="2.56" transform="translate(-14.12 91.57) rotate(-5.39)"/><rect x="847.37" y="204.86" width="15.79" height="2.56" transform="translate(-15.59 81.28) rotate(-5.39)"/><rect x="862.84" y="200.83" width="15.79" height="2.56" transform="translate(-15.14 82.71) rotate(-5.39)"/><rect x="878.8" y="201.9" width="15.79" height="2.56" transform="matrix(1, -0.09, 0.09, 1, -15.17, 84.22)"/><rect x="894.28" y="197.86" width="15.79" height="2.56" transform="matrix(1, -0.09, 0.09, 1, -14.72, 85.65)"/><rect x="910.24" y="198.93" width="15.79" height="2.56" transform="translate(-14.75 87.16) rotate(-5.39)"/><rect x="925.71" y="194.89" width="15.79" height="2.56" transform="translate(-14.3 88.59) rotate(-5.39)"/><rect x="941.67" y="195.96" width="15.79" height="2.56" transform="translate(-14.33 90.1) rotate(-5.39)"/><rect x="957.14" y="191.93" width="15.79" height="2.56" transform="translate(-13.88 91.53) rotate(-5.39)"/><rect class="cls-13" x="898.91" y="152.05" width="20.21" height="7.03" transform="translate(-4.48 28.9) rotate(-1.82)"/><path d="M904.06,153.38a.38.38,0,0,1,.21.13.28.28,0,0,1,.07.19.36.36,0,0,1-.08.19.45.45,0,0,1-.23.11l-1.19.05.13,3.73a.37.37,0,0,1-.1.27.29.29,0,0,1-.21.09.27.27,0,0,1-.2-.07.39.39,0,0,1-.12-.25l-.13-3.75-1.21,0a.46.46,0,0,1-.24-.12.27.27,0,0,1-.08-.2.29.29,0,0,1,.09-.21.35.35,0,0,1,.26-.1h.33l.53,0,.65,0,.66,0,.53,0Z"/><path d="M908.66,157.55a.61.61,0,0,1-.07.24.27.27,0,0,1-.17.11.25.25,0,0,1-.2,0,.4.4,0,0,1-.17-.17c0-.24-.09-.48-.15-.71s-.14-.46-.23-.68l-2,.08h-.07c-.11.44-.22.89-.3,1.36a.4.4,0,0,1-.17.22.29.29,0,0,1-.22,0,.27.27,0,0,1-.17-.13.37.37,0,0,1,0-.28c.14-.74.32-1.47.53-2.19a13.77,13.77,0,0,1,.83-2.09.27.27,0,0,1,.21-.19.23.23,0,0,1,.16,0,.24.24,0,0,1,.13.07h0a3.52,3.52,0,0,1,.69.84c.19.31.36.64.52,1,.06.12.12.23.17.35l.15.35.41,0a.35.35,0,0,1,.21.13.27.27,0,0,1,.07.18.28.28,0,0,1-.07.19.36.36,0,0,1-.22.12h-.16c.07.21.14.41.19.62S908.62,157.33,908.66,157.55Zm-2.23-3.61c-.14.29-.26.59-.37.89s-.21.62-.3.93l1.66-.07-.21-.45-.23-.43c-.08-.15-.17-.3-.26-.45A2.42,2.42,0,0,0,906.43,153.94Z"/><path d="M912.68,153a.44.44,0,0,1,.25-.1.27.27,0,0,1,.21.07.29.29,0,0,1,.09.22.4.4,0,0,1,0,.17c-.2.35-.42.69-.64,1l-.71,1c.27.31.53.63.8.95a7.42,7.42,0,0,1,.69,1,.35.35,0,0,1,0,.14.36.36,0,0,1-.08.23.34.34,0,0,1-.2.09.41.41,0,0,1-.28-.12,6.25,6.25,0,0,0-.63-.92q-.34-.44-.72-.87c-.25.33-.5.65-.76,1l-.77,1a.4.4,0,0,1-.22.08.3.3,0,0,1-.21-.07.31.31,0,0,1-.09-.21.53.53,0,0,1,.06-.23l.8-1,.78-1c-.25-.31-.51-.61-.77-.9a9.68,9.68,0,0,0-.87-.81.31.31,0,0,1-.1-.13.35.35,0,0,1,0-.13.31.31,0,0,1,.07-.21.29.29,0,0,1,.21-.09.4.4,0,0,1,.24.07,9.53,9.53,0,0,1,.86.81c.27.28.53.57.78.88.23-.3.44-.6.65-.89A7,7,0,0,0,912.68,153Z"/><path d="M915.72,156.92a.41.41,0,0,1,.27.07.31.31,0,0,1,.12.19.33.33,0,0,1-.05.21.42.42,0,0,1-.24.15l-.79,0-.79,0a.37.37,0,0,1-.25-.11.29.29,0,0,1-.09-.21.28.28,0,0,1,.09-.2.37.37,0,0,1,.25-.11h.45l-.1-3.35-.49,0a.39.39,0,0,1-.25-.11.32.32,0,0,1-.08-.21.32.32,0,0,1,.08-.2.37.37,0,0,1,.26-.11l1.57,0a.43.43,0,0,1,.22.13.28.28,0,0,1,.07.19.27.27,0,0,1-.07.18.43.43,0,0,1-.22.13h-.47l.11,3.35h.2Z"/><path d="M969.59,106.64a2,2,0,0,1,.88.83,1.35,1.35,0,0,1,.14,1,1.45,1.45,0,0,1-.56.84,2,2,0,0,1-1.19.35l-5.76-.94-3,18a1.76,1.76,0,0,1-.71,1.19,1.51,1.51,0,0,1-1.09.25,1.45,1.45,0,0,1-.89-.55,1.89,1.89,0,0,1-.35-1.29l3-18.12-5.83-1a2,2,0,0,1-1.06-.81,1.37,1.37,0,0,1-.19-1,1.59,1.59,0,0,1,.63-.91,1.69,1.69,0,0,1,1.35-.23l1.57.26,2.6.44,3.14.53,3.13.52c1,.17,1.85.31,2.61.42Z"/><path d="M987.6,131.07a2.14,2.14,0,0,1-.56,1.08,1.35,1.35,0,0,1-.91.4,1.4,1.4,0,0,1-.93-.33,2,2,0,0,1-.66-1,31.77,31.77,0,0,0,0-3.52c-.09-1.16-.22-2.33-.4-3.5l-9.79-1.57-.16,0a.59.59,0,0,0-.17,0q-1.44,3-2.75,6.21a1.76,1.76,0,0,1-1,.89,1.44,1.44,0,0,1-1.07-.07,1.4,1.4,0,0,1-.7-.8,1.88,1.88,0,0,1,.06-1.35,109.46,109.46,0,0,1,4.69-10,67.88,67.88,0,0,1,6-9.26,1.3,1.3,0,0,1,1.18-.71,1.35,1.35,0,0,1,1.35.53s0,0,0,0,0,0,0,0a18.09,18.09,0,0,1,2.51,4.71c.6,1.7,1.12,3.4,1.56,5.12q.27.91.48,1.83c.13.6.27,1.21.39,1.81l2,.29a2,2,0,0,1,.92.84,1.4,1.4,0,0,1,.17,1,1.52,1.52,0,0,1-.54.82,1.91,1.91,0,0,1-1.17.39l-.77-.13c.15,1.06.25,2.12.32,3.18A31.23,31.23,0,0,1,987.6,131.07Zm-7.2-19.46c-.92,1.28-1.8,2.6-2.62,4s-1.6,2.72-2.34,4.12l8,1.28c-.19-.79-.4-1.57-.61-2.34s-.43-1.54-.65-2.31-.55-1.58-.82-2.38A14.52,14.52,0,0,0,980.4,111.61Z"/><path d="M1011.27,113.27a2,2,0,0,1,1.3-.27,1.39,1.39,0,0,1,.93.57,1.45,1.45,0,0,1,.23,1.1,2.43,2.43,0,0,1-.32.78,50.33,50.33,0,0,1-4,4.18q-2,1.91-4.31,3.91,1.45,2.59,2.88,5.28a35.72,35.72,0,0,1,2.36,5.5,2.58,2.58,0,0,1,0,.68,1.49,1.49,0,0,1-.59,1,1.37,1.37,0,0,1-1.06.23,1.8,1.8,0,0,1-1.2-.8,34.46,34.46,0,0,0-2.13-5c-.85-1.63-1.72-3.25-2.62-4.84q-2.26,2-4.57,3.86t-4.61,3.81a2.09,2.09,0,0,1-1.13.15,1.4,1.4,0,0,1-.95-.55,1.42,1.42,0,0,1-.21-1.08,2.05,2.05,0,0,1,.51-1l4.74-3.92c1.57-1.29,3.14-2.62,4.71-4q-1.38-2.62-2.85-5a39.16,39.16,0,0,0-3.36-4.72,1.59,1.59,0,0,1-.35-.73,1.94,1.94,0,0,1,0-.67,1.46,1.46,0,0,1,.56-.93,1.37,1.37,0,0,1,1.08-.23,1.84,1.84,0,0,1,1.08.6,47.31,47.31,0,0,1,3.35,4.68q1.49,2.39,2.88,5c1.37-1.24,2.7-2.44,4-3.62A40.71,40.71,0,0,0,1011.27,113.27Z"/><path d="M1022.09,134.9a1.79,1.79,0,0,1,1.21.58,1.55,1.55,0,0,1,.38,1,1.39,1.39,0,0,1-.45,1,1.85,1.85,0,0,1-1.28.49c-1.28-.17-2.56-.36-3.82-.59l-3.82-.66a1.79,1.79,0,0,1-1.1-.77,1.47,1.47,0,0,1-.21-1.06,1.52,1.52,0,0,1,.61-.9,1.75,1.75,0,0,1,1.32-.27l1.09.18c.35.06.71.13,1.08.22l2.71-16.13-2.32-.39a1.79,1.79,0,0,1-1.1-.77,1.46,1.46,0,0,1-.21-1.06,1.52,1.52,0,0,1,.61-.9,1.75,1.75,0,0,1,1.32-.27l7.6,1.27a2.06,2.06,0,0,1,.92.84,1.35,1.35,0,0,1-.37,1.78,2,2,0,0,1-1.17.39l-2.25-.38-2.72,16.16q.48.09,1,.15Z"/><path d="M959.66,169a1.78,1.78,0,0,1-1.11-.74,1.54,1.54,0,0,1-.22-1,1.75,1.75,0,0,1,.25-.61l2.68-15.94a1.94,1.94,0,0,1-.68,0,1.39,1.39,0,0,1-1.17-1.6,2,2,0,0,1,1.14-1.36,9.51,9.51,0,0,1,2.35-.88,14.71,14.71,0,0,1,2.74-.39,11.11,11.11,0,0,1,2.32.08,8,8,0,0,1,2.91,1.06,7.72,7.72,0,0,1,2,1.81,6.38,6.38,0,0,1,1.12,2.16,4.92,4.92,0,0,1,.15,2.13,5.6,5.6,0,0,1-1.18,2.59,6.91,6.91,0,0,1-2.39,1.93A6.67,6.67,0,0,1,973,161a5.55,5.55,0,0,1,.38,3.12,5.65,5.65,0,0,1-.7,1.94,7.09,7.09,0,0,1-1.33,1.66,7.46,7.46,0,0,1-1.78,1.24,7,7,0,0,1-2.12.65,13.23,13.23,0,0,1-2.88.1c-1-.07-1.91-.19-2.85-.35l-1-.17C960.34,169.17,960,169.1,959.66,169Zm9.64-7.91a6,6,0,0,0-1.72-1.18,13.49,13.49,0,0,0-2-.74l-1.29-.08c-.44,0-.87-.09-1.28-.16l-1.25,7.38c.52.09,1.23.18,2.12.28a12.54,12.54,0,0,0,2.67,0,6,6,0,0,0,2.41-.75,2.68,2.68,0,0,0,1.3-2,3.14,3.14,0,0,0-.09-1.46A2.86,2.86,0,0,0,969.3,161.11Zm-4.6-5.23,1.15.25a6.16,6.16,0,0,0,1.38,0,7,7,0,0,0,1.66-.41,4.64,4.64,0,0,0,1.45-.83,2.29,2.29,0,0,0,.78-1.39A2.49,2.49,0,0,0,971,152a3.34,3.34,0,0,0-.87-1.15,4.59,4.59,0,0,0-1.32-.81,6.86,6.86,0,0,0-1.5-.44,7,7,0,0,0-2.7,0l-1,6C963.93,155.73,964.32,155.8,964.7,155.88Z"/><path d="M989.26,169.86a1.89,1.89,0,0,1,1.12.47,1.41,1.41,0,0,1,.46.88,1.47,1.47,0,0,1-.23.94,1.9,1.9,0,0,1-1,.73,21.6,21.6,0,0,1-2.94.11,29.57,29.57,0,0,1-3.11-.23,27.39,27.39,0,0,1-3.05-.58,18.14,18.14,0,0,1-2.81-.92,2.07,2.07,0,0,1-.73-.86,1.41,1.41,0,0,1-.08-.87v0l2.73-16.2a1.33,1.33,0,0,1-.66-.64,1.39,1.39,0,0,1-.12-.85,1.54,1.54,0,0,1,.44-.82,1.88,1.88,0,0,1,1-.49,16.29,16.29,0,0,1,3-.12c1,.06,2,.16,3,.29s2,.28,3,.45,2,.32,3,.43a1.77,1.77,0,0,1,1.21.58,1.55,1.55,0,0,1,.38,1,1.39,1.39,0,0,1-.45,1,1.82,1.82,0,0,1-1.27.49c-1.49-.17-3.06-.41-4.72-.72a28.35,28.35,0,0,0-4.87-.47l-1.09,6.49c1.27.26,2.55.48,3.86.63s2.61.28,3.93.38a1.81,1.81,0,0,1,1.22.58,1.57,1.57,0,0,1,.38,1,1.4,1.4,0,0,1-.45,1,1.9,1.9,0,0,1-1.28.49c-1.37-.1-2.75-.24-4.13-.39s-2.72-.37-4-.64l-1,6a20.93,20.93,0,0,0,4.57.94A23.23,23.23,0,0,0,989.26,169.86Z"/><path d="M1012.77,155.53a2.25,2.25,0,0,1,.78-1,1.33,1.33,0,0,1,1-.21,1.42,1.42,0,0,1,.85.48,1.91,1.91,0,0,1,.44,1.14q-.89,5.26-1.8,10.21t-2.09,10.15l0,.05h0a1.15,1.15,0,0,0-.09.31c0,.08,0,.18-.05.27a1.94,1.94,0,0,1-.76.79,1.37,1.37,0,0,1-.88.15,1.77,1.77,0,0,1-1.15-.8,1.82,1.82,0,0,0-.11-.28,2.72,2.72,0,0,0-.11-.25h0v-.08c-.63-1.65-1.3-3.23-2-4.76s-1.44-3-2.2-4.5-1.54-3-2.35-4.42l-2.48-4.5c-.22,1.31-.44,2.57-.64,3.79s-.41,2.44-.62,3.69-.42,2.54-.64,3.89-.45,2.82-.72,4.39a1.78,1.78,0,0,1-.71,1.19,1.52,1.52,0,0,1-1.09.26,1.45,1.45,0,0,1-.89-.55,1.89,1.89,0,0,1-.35-1.29q.84-5,1.68-10.1t1.68-10.09a1.9,1.9,0,0,1,.72-.94,1.41,1.41,0,0,1,1-.22,2.05,2.05,0,0,1,1,.6q1.35,2.31,2.65,4.52t2.54,4.43q1.23,2.22,2.37,4.52t2.16,4.74c.55-2.69,1.06-5.27,1.51-7.75S1012.31,158.26,1012.77,155.53Z"/><path d="M1018.79,179.5a2.4,2.4,0,0,1-.87-.47,1.53,1.53,0,0,1-.45-.67l-.08-.24c0-.13,0-.27-.08-.41a1.09,1.09,0,0,1,0-.4l2.79-16.57-.57.12a1.47,1.47,0,0,1-.59,0,1.56,1.56,0,0,1-1-.59,1.3,1.3,0,0,1-.27-1,1.72,1.72,0,0,1,1.18-1.25,9,9,0,0,1,2.4-.6,17.3,17.3,0,0,1,2.81-.11,17,17,0,0,1,2.37.21,12.36,12.36,0,0,1,4.65,1.69,10.65,10.65,0,0,1,3.14,3,10.39,10.39,0,0,1,1.61,3.86,11.72,11.72,0,0,1,0,4.3,12.32,12.32,0,0,1-1.54,4.2,10.15,10.15,0,0,1-3.1,3.29,9.12,9.12,0,0,1-2.85,1.32,17.27,17.27,0,0,1-3.15.53,24.88,24.88,0,0,1-3.23.05Zm7-19a10.76,10.76,0,0,0-1.26-.13q-.64,0-1.29,0l-2.73,16.24,2.31.12a17.71,17.71,0,0,0,2.42-.05,12.66,12.66,0,0,0,2.27-.41,5.26,5.26,0,0,0,1.86-.94,8.79,8.79,0,0,0,2.28-2.62,9.41,9.41,0,0,0,1.17-3.21,7.85,7.85,0,0,0,0-2.94,7.24,7.24,0,0,0-1.18-2.68,8.06,8.06,0,0,0-2.32-2.12A9.74,9.74,0,0,0,1025.82,160.49Z"/><path d="M1056.08,162.4a2,2,0,0,1,.89.83,1.35,1.35,0,0,1,.14,1,1.45,1.45,0,0,1-.56.84,2.08,2.08,0,0,1-1.2.35l-5.76-.93-3,18a1.8,1.8,0,0,1-.71,1.19,1.51,1.51,0,0,1-1.09.25,1.45,1.45,0,0,1-.89-.55,1.89,1.89,0,0,1-.36-1.29l3-18.12-5.83-1a2,2,0,0,1-1.06-.81,1.36,1.36,0,0,1-.19-1,1.59,1.59,0,0,1,.63-.91,1.68,1.68,0,0,1,1.35-.23l1.56.26,2.61.44,3.13.53,3.14.52c1,.17,1.85.31,2.6.42Z"/><path d="M1074.94,166a2.25,2.25,0,0,1,.78-1,1.35,1.35,0,0,1,1-.21,1.39,1.39,0,0,1,.84.48,1.91,1.91,0,0,1,.44,1.14q-.88,5.28-1.79,10.21t-2.09,10.16l0,0h0a1.15,1.15,0,0,0-.09.31c0,.09,0,.18,0,.28a1.85,1.85,0,0,1-.76.78,1.43,1.43,0,0,1-.87.16,1.82,1.82,0,0,1-1.16-.81c0-.1-.07-.2-.1-.28a1.89,1.89,0,0,1-.11-.25h0v-.08c-.63-1.64-1.3-3.23-2-4.75s-1.43-3-2.2-4.51-1.54-2.95-2.35-4.42-1.63-3-2.48-4.49c-.22,1.3-.43,2.56-.64,3.78s-.41,2.45-.62,3.69-.42,2.54-.64,3.89-.45,2.82-.72,4.4a1.79,1.79,0,0,1-.71,1.19,1.51,1.51,0,0,1-1.09.25,1.45,1.45,0,0,1-.89-.55,1.89,1.89,0,0,1-.35-1.29q.84-5,1.68-10.1c.56-3.4,1.12-6.77,1.68-10.09a1.86,1.86,0,0,1,.73-.94,1.33,1.33,0,0,1,1-.21,2,2,0,0,1,1,.59l2.65,4.52c.87,1.48,1.71,2.95,2.54,4.43s1.61,3,2.37,4.52,1.47,3.11,2.16,4.74c.55-2.68,1.06-5.27,1.51-7.75S1074.48,168.72,1074.94,166Z"/><path d="M1091.62,187.08a1.9,1.9,0,0,1,1.11.48,1.39,1.39,0,0,1,.46.87,1.45,1.45,0,0,1-.23.95,1.91,1.91,0,0,1-1,.73,25.39,25.39,0,0,1-2.94.11,29.8,29.8,0,0,1-3.11-.24,30.4,30.4,0,0,1-3-.57,18.15,18.15,0,0,1-2.81-.93,2,2,0,0,1-.72-.86,1.34,1.34,0,0,1-.08-.87v0l2.73-16.19a1.39,1.39,0,0,1-.65-.64,1.42,1.42,0,0,1-.12-.86,1.51,1.51,0,0,1,.44-.82,1.82,1.82,0,0,1,1-.49,16.17,16.17,0,0,1,3-.11c1,.05,2,.15,3,.28s2,.29,3,.46,2,.31,3,.42a1.77,1.77,0,0,1,1.21.59,1.47,1.47,0,0,1,.38,1,1.36,1.36,0,0,1-.44,1,2,2,0,0,1-1.28.49c-1.49-.18-3.06-.42-4.72-.72a27.32,27.32,0,0,0-4.87-.48l-1.09,6.49c1.27.27,2.56.48,3.86.63s2.61.29,3.94.38a1.79,1.79,0,0,1,1.21.58,1.55,1.55,0,0,1,.38,1,1.43,1.43,0,0,1-.45,1,1.87,1.87,0,0,1-1.28.48c-1.37-.1-2.75-.23-4.12-.39s-2.73-.37-4-.64l-1,6a21.66,21.66,0,0,0,4.57.94A24.1,24.1,0,0,0,1091.62,187.08Z"/><path d="M1099.41,192.55a1.47,1.47,0,0,1-1.09.25,1.43,1.43,0,0,1-.9-.55,1.91,1.91,0,0,1-.35-1.29l3-17.6a1.46,1.46,0,0,1-.86-.62,1.38,1.38,0,0,1-.19-1,1.81,1.81,0,0,1,.28-.67,1.94,1.94,0,0,1,.65-.58,15.23,15.23,0,0,1,3.81-1,13.4,13.4,0,0,1,4,0,11.1,11.1,0,0,1,3,1,8.21,8.21,0,0,1,2.5,1.9,7.58,7.58,0,0,1,1.71,2.94,6.92,6.92,0,0,1,.18,3,7.14,7.14,0,0,1-.78,2.26,9,9,0,0,1-1.45,2,9.55,9.55,0,0,1-4.42,2.57Q1109.7,187,1111,189c.88,1.36,1.71,2.64,2.47,3.83a1.85,1.85,0,0,1,.21,1.21,1.36,1.36,0,0,1-.57.95,1.42,1.42,0,0,1-1.07.22,1.79,1.79,0,0,1-.62-.24,1.55,1.55,0,0,1-.57-.57l-.63-1-1-1.57c-.39-.58-.79-1.21-1.2-1.87l-1.19-1.87-1-1.56c-.3-.45-.51-.78-.63-1a17.31,17.31,0,0,1-2-.07c-.67-.07-1.34-.14-2-.23l-1,6.09A1.8,1.8,0,0,1,1099.41,192.55ZM1111,174.37a5.61,5.61,0,0,0-1.79-1.21,8.85,8.85,0,0,0-2.11-.62,9.51,9.51,0,0,0-1.91-.14,11.06,11.06,0,0,0-1.9.22l-1.62,9.63c.94.1,1.89.19,2.84.25a11.25,11.25,0,0,0,2.88-.2,5.91,5.91,0,0,0,1.68-.59,7.72,7.72,0,0,0,1.48-1,6.19,6.19,0,0,0,1.12-1.35,4.3,4.3,0,0,0,.58-1.52,3.81,3.81,0,0,0-.13-1.73A4.08,4.08,0,0,0,1111,174.37Z"/><ellipse class="cls-14" cx="989.99" cy="245.88" rx="15.45" ry="5.47" transform="translate(519.03 1150.72) rotate(-76.45)"/><ellipse class="cls-14" cx="1118.68" cy="283.52" rx="15.45" ry="5.47" transform="translate(403.87 1189.53) rotate(-65.95)"/><polygon class="cls-15" points="1096.98 339.22 1022.89 349.84 976.51 294.95 1003.16 214.62 1075.21 204.16 1124.1 259.65 1096.98 339.22"/><ellipse class="cls-5" cx="1034.74" cy="255.34" rx="5.79" ry="12.56" transform="translate(544.09 1201.46) rotate(-76.45)"/><ellipse cx="1035.05" cy="255.42" rx="5.79" ry="3.86" transform="translate(544.26 1201.82) rotate(-76.45)"/><ellipse class="cls-5" cx="1071.99" cy="265.64" rx="5.79" ry="12.56" transform="matrix(0.28, -0.96, 0.96, 0.28, 521.63, 1223.15)"/><ellipse cx="1072.3" cy="265.73" rx="5.79" ry="3.86" transform="translate(521.77 1223.52) rotate(-74.03)"/><path class="cls-16" d="M1054.32,318.34c-1.16,4.84-9.87-1-17.82-3s-19-.79-17.85-5.63,14.49-7.1,22.44-5.18S1055.49,313.5,1054.32,318.34Z"/><polygon class="cls-14" points="1048.93 272.01 1049.78 298.7 1033.04 294 1048.93 272.01"/><polygon class="cls-17" points="1048.4 254.3 1032.21 242.62 1033.94 239.11 1050.57 253.48 1048.4 254.3"/><polygon class="cls-17" points="1061.58 258.13 1081.31 255.12 1081.36 251.2 1060.01 256.42 1061.58 258.13"/><polygon points="1002.63 379.69 948.57 349.87 927.29 298.51 919.38 301.78 940.72 353.29 939.95 354.68 941.68 355.63 942.59 357.83 944.35 357.1 998.58 387.02 1002.63 379.69"/><path class="cls-18" d="M934.66,296.26l-5.8-8.52a10.12,10.12,0,0,0-1.39-1.65l0,0c-3.08,5.79-10,8.64-18,8.19a10.53,10.53,0,0,0,1.8,5.37l5.8,8.52a10.62,10.62,0,1,0,17.56-11.95Z"/><path class="cls-19" d="M927.45,286.13l0,0c4.79-9.11-1.72-22-14.57-28.83s-27.24-5-32.07,4.1,1.67,22,14.55,28.87a34.4,34.4,0,0,0,14.12,4.09C917.44,294.77,924.37,291.92,927.45,286.13Z"/><path class="cls-4" d="M1091.53,358.56l-26.81,25.86A157.81,157.81,0,1,0,992,402.19c2.06,0,4.12-.05,6.17-.13l-18.84-75.75Z"/><path class="cls-20" d="M1064.72,384.42l26.81-25.86-112.2-32.25,18.84,75.75a156.25,156.25,0,0,0,55.11-12.24C1057.18,388.17,1061,386.36,1064.72,384.42Z"/><path class="cls-4" d="M1137.05,183.49a157.51,157.51,0,1,0-145,218.7c2.06,0,4.12-.05,6.17-.13a156.25,156.25,0,0,0,55.11-12.24c3.9-1.65,7.71-3.46,11.44-5.4a157.6,157.6,0,0,0,72.33-200.93Z"/><path d="M992,84.76a160,160,0,0,0,0,320q3.42,0,6.81-.15A160,160,0,0,0,992,84.76Zm111.32,271.32a157.16,157.16,0,0,1-38.6,28.34c-3.73,1.94-7.54,3.75-11.44,5.4a156.25,156.25,0,0,1-55.11,12.24c-2,.08-4.11.13-6.17.13a157.57,157.57,0,1,1,111.32-46.11Z"/></g><g id="Layer_5" data-name="Layer 5"><rect class="cls-21" x="-1" y="725" width="1920" height="355"/><rect class="cls-22" x="1732" y="891" width="169" height="24"/><rect class="cls-22" x="1444" y="890" width="169" height="24"/><rect class="cls-22" x="1161" y="890" width="169" height="24"/><rect class="cls-22" x="880" y="890" width="169" height="24"/><rect class="cls-22" x="599" y="890" width="169" height="24"/><rect class="cls-22" x="308" y="890" width="169" height="24"/><rect class="cls-22" x="31" y="890" width="169" height="24"/><rect class="cls-23" x="256.53" y="81" width="393.75" height="645"/><rect class="cls-24" x="286" y="106" width="61" height="34.16"/><rect class="cls-25" x="365" y="106" width="61" height="34.16"/><rect class="cls-26" x="446" y="106" width="61" height="34.16"/><rect class="cls-27" x="527" y="106" width="61" height="34.16"/><rect class="cls-28" x="286" y="157" width="61" height="34.16"/><rect class="cls-29" x="365" y="157" width="61" height="34.16"/><rect class="cls-30" x="446" y="157" width="61" height="34.16"/><rect class="cls-31" x="527" y="157" width="61" height="34.16"/><rect class="cls-32" x="286" y="207" width="61" height="34.16"/><rect class="cls-33" x="365" y="207" width="61" height="34.16"/><rect class="cls-34" x="446" y="207" width="61" height="34.16"/><rect class="cls-35" x="527" y="207" width="61" height="34.16"/><rect class="cls-36" x="286" y="257" width="61" height="34.16"/><rect class="cls-37" x="365" y="257" width="61" height="34.16"/><rect class="cls-38" x="446" y="257" width="61" height="34.16"/><rect class="cls-39" x="527" y="257" width="61" height="34.16"/><rect class="cls-40" x="24" y="210" width="315" height="516"/><rect class="cls-41" x="53" y="233" width="75" height="42"/><rect class="cls-42" x="146" y="233" width="75" height="42"/><rect class="cls-43" x="240" y="233" width="75" height="42"/><rect class="cls-44" x="52" y="297" width="75" height="42"/><rect class="cls-45" x="145" y="297" width="75" height="42"/><rect class="cls-46" x="239" y="297" width="75" height="42"/><rect class="cls-47" x="51" y="357" width="75" height="42"/><rect class="cls-48" x="144" y="357" width="75" height="42"/><rect class="cls-49" x="238" y="357" width="75" height="42"/><circle cx="194.48" cy="948.73" r="17.44"/><circle cx="128.41" cy="782.78" r="17.44"/><path class="cls-13" d="M239.89,1017.8c1.94-.94,20.72-5.85,32.14-36.37,6-15.51,11.25-38.16,11.37-70-.27-31.57-5.62-72.31-29.46-118.11-13.86-3.82-26.67-7.63-40.31-10.66-11-36.35-24.06-71.68-45.18-103.55,1.88-.74-20.23-8.89-37.81-7.53C112.16,673,98.23,684,95.57,723.33c7.32,12.47,15,24.89,22.45,37.45.72-.7,23.2-.31,29.2,12,2.89,6,3.83,13.85-6.92,27.34,18.7,40.79,34.45,83.11,51.82,125.1-.05-.35,16.59,4.08,22,16.07,2.81,6.17.86,15.14-4.08,24.8A399.57,399.57,0,0,0,239.89,1017.8Z"/><path class="cls-11" d="M245.28,803.63l-39.4-5.77,60.35,143.51s12.83-20.51,3.29-67.73Z"/><circle cx="801.33" cy="987.9" r="19.95"/><circle cx="715.08" cy="904.91" r="19.95"/><path class="cls-50" d="M871.12,1044.46c-.32-.57,106.94-67.75,100.13-122.76-3.34-55.47-77.4-192.77-204.91-186.52C717,755.91,656.76,846.72,656.54,846.46l36.38,35c-.12-.63,57.55-18.57,46.77,45l40.54,39c0-.66,49.08-19.35,46.81,39.08Q848.94,1024.62,871.12,1044.46Z"/><path class="cls-51" d="M972.34,924.85c-72.6-59.78-133.16-131.39-205.94-189.61.09-.27-38.48,19.87-50.55,40,84.47,59.61,145,145.11,230.46,205.81C946.35,981.06,974.85,946.18,972.34,924.85Z"/><path class="cls-52" d="M913.3,888.44c12.59,12.66,25.42,25.08,38.68,37.06,8,7.3,8.23,18.91.25,26h0c-8,7.09-21.21,7.34-29.12.3C910,940.17,897.48,928,885.23,915.53a19.56,19.56,0,0,1,.38-27.45h0A19.66,19.66,0,0,1,913.3,888.44Z"/><path class="cls-52" d="M849,825.84q11.94,12.57,23.83,25.19a20.23,20.23,0,0,1-.14,28h0a18.48,18.48,0,0,1-26.77-.47c-7.69-8.3-15.35-16.64-23-24.93-7.2-7.76-7.32-20.42-.27-28.12h0C829.62,817.83,841.5,818,849,825.84Z"/><path class="cls-52" d="M783.75,762.44q12.62,11.82,24.8,24.09c7.66,7.65,8.13,20.27,1.09,28h0a17.91,17.91,0,0,1-26.22.32q-11.89-12-24.25-23.6c-7.72-7.19-8.72-19.5-2-27.53h0C763.82,755.66,775.85,755,783.75,762.44Z"/><path class="cls-4" d="M792.56,909.85l-15.95,16.57a26.84,26.84,0,0,0,16.4,7.07Z"/><path class="cls-4" d="M775,924.83l15.68-16.29-22.64.44A26.87,26.87,0,0,0,775,924.83Z"/><path class="cls-4" d="M792.49,906.67l19.81-20.58A26.92,26.92,0,0,0,768,907.15Z"/><path class="cls-4" d="M814,887.61,794.36,908l.49,25.57A26.92,26.92,0,0,0,814,887.61Z"/><path d="M815.89,884.79a30.31,30.31,0,1,0,.83,42.85A30.34,30.34,0,0,0,815.89,884.79Zm-23.33,25.06.45,23.64a26.84,26.84,0,0,1-16.4-7.07Zm-17.54,15a26.87,26.87,0,0,1-7-15.85l22.64-.44Zm.44-36.88a27,27,0,0,1,36.84-1.86l-19.81,20.58-24.54.48A26.87,26.87,0,0,1,775.46,888Zm19.39,45.6L794.36,908,814,887.61a26.92,26.92,0,0,1-19.1,45.94Z"/><path class="cls-10" d="M418.94,845l75.11-43c-.05-.12-20.09-33,5.69-46.28s34.17-1.88,44.65,6,64.32-33.8,64.61-33.56c0,0-3.87-23.83,9.9-32.87s30.67-6.63,39,3.58c8.32,10.43,70.1-42.16,70-43-12-24.9-23.86-49.23-36-73.84a521.93,521.93,0,0,1-44.62,28.3c-30.23-15.12-63.4-33.2-97.86-51.15Q488.29,585.73,427.1,613a989.29,989.29,0,0,0,2.62,104.89,533.72,533.72,0,0,0-68.54,43Z"/><circle cx="636.52" cy="718.53" r="24.42"/><circle cx="517.95" cy="779.65" r="24.42"/><polyline class="cls-11" points="450.54 709.14 442.36 621.95 488.88 601.39 525.13 669.36"/><polyline class="cls-11" points="506.34 594.21 541.71 660.52 616.3 620.73 550.32 572.88"/><rect class="cls-12" x="371.45" y="762.91" width="46.26" height="7.51" transform="translate(-314.37 275.9) rotate(-28.07)"/><rect class="cls-12" x="415.81" y="747.77" width="46.26" height="7.51" transform="translate(-302.03 294.99) rotate(-28.07)"/><rect class="cls-12" x="453.09" y="719.36" width="46.26" height="7.51" transform="translate(-284.27 309.19) rotate(-28.07)"/><rect class="cls-12" x="497.45" y="704.22" width="46.26" height="7.51" transform="translate(-271.93 328.29) rotate(-28.07)"/><rect class="cls-12" x="534.73" y="675.82" width="46.26" height="7.51" transform="translate(-254.18 342.49) rotate(-28.07)"/><rect class="cls-12" x="579.08" y="660.68" width="46.26" height="7.51" transform="translate(-241.83 361.58) rotate(-28.07)"/><rect class="cls-12" x="616.37" y="632.28" width="46.26" height="7.51" transform="translate(-224.08 375.79) rotate(-28.07)"/><rect class="cls-12" x="660.72" y="617.14" width="46.26" height="7.51" transform="translate(-211.74 394.88) rotate(-28.07)"/><rect x="374.99" y="769.54" width="46.26" height="7.51" transform="translate(-317.08 278.34) rotate(-28.07)"/><rect x="412.27" y="741.13" width="46.26" height="7.51" transform="translate(-299.32 292.55) rotate(-28.07)"/><rect x="456.63" y="725.99" width="46.26" height="7.51" transform="translate(-286.98 311.64) rotate(-28.07)"/><rect x="493.91" y="697.59" width="46.26" height="7.51" transform="translate(-269.23 325.84) rotate(-28.07)"/><rect x="538.27" y="682.45" width="46.26" height="7.51" transform="translate(-256.88 344.93) rotate(-28.07)"/><rect x="575.55" y="654.05" width="46.26" height="7.51" transform="translate(-239.13 359.14) rotate(-28.07)"/><rect x="619.9" y="638.91" width="46.26" height="7.51" transform="translate(-226.79 378.23) rotate(-28.07)"/><rect x="657.19" y="610.51" width="46.26" height="7.51" transform="translate(-209.03 392.43) rotate(-28.07)"/><rect class="cls-13" x="456.68" y="565.48" width="59.23" height="20.6" transform="translate(-194.98 253.49) rotate(-24.5)"/><path d="M470.43,575.47a1.2,1.2,0,0,1,.72.12.81.81,0,0,1,.39.43.85.85,0,0,1,0,.61,1.26,1.26,0,0,1-.48.57l-3.18,1.47,4.56,10a1.06,1.06,0,0,1,.05.83.87.87,0,0,1-.45.49.85.85,0,0,1-.63,0,1.11,1.11,0,0,1-.61-.52l-4.59-10L463,580.91a1.18,1.18,0,0,1-.8,0,.78.78,0,0,1-.44-.45,1,1,0,0,1,0-.67,1,1,0,0,1,.6-.56l.86-.4,1.44-.65,1.74-.79,1.73-.8c.55-.24,1-.47,1.44-.66Z"/><path d="M487.57,581.56a1.27,1.27,0,0,1,.08.73.77.77,0,0,1-.31.5.91.91,0,0,1-.57.15,1.23,1.23,0,0,1-.67-.29c-.38-.6-.78-1.18-1.21-1.73s-.89-1.08-1.37-1.6l-5.39,2.5a.29.29,0,0,1-.1,0l-.1,0c.19,1.32.43,2.65.72,4a1.07,1.07,0,0,1-.21.78.82.82,0,0,1-1.17.16,1.08,1.08,0,0,1-.42-.69q-.68-3.27-1-6.52a40.44,40.44,0,0,1-.13-6.61.79.79,0,0,1,.34-.75.86.86,0,0,1,.42-.22.78.78,0,0,1,.43,0h.05a10.5,10.5,0,0,1,2.83,1.49c.87.64,1.7,1.31,2.5,2q.44.36.84.75l.81.76,1.07-.51a1.17,1.17,0,0,1,.74.11.81.81,0,0,1,.4.42.91.91,0,0,1,0,.59,1.15,1.15,0,0,1-.45.58l-.43.2c.43.47.84,1,1.23,1.47S487.24,581,487.57,581.56Zm-10.1-7.25c0,1,0,1.9,0,2.85s.12,1.89.22,2.83l4.43-2.07c-.36-.32-.72-.64-1.09-.95s-.73-.63-1.1-.93l-1.2-.91A9,9,0,0,0,477.47,574.31Z"/><path d="M493.35,564.78a1.11,1.11,0,0,1,.56-.57.83.83,0,0,1,1.13.44,1.49,1.49,0,0,1,.11.5,34.21,34.21,0,0,1-.6,3.42c-.25,1.09-.53,2.21-.83,3.39,1.06.53,2.13,1.08,3.2,1.65a21.31,21.31,0,0,1,3,1.94,1.46,1.46,0,0,1,.23.34.91.91,0,0,1,0,.7.8.8,0,0,1-.45.47,1.07,1.07,0,0,1-.86,0,21.1,21.1,0,0,0-2.74-1.78c-1-.52-2-1-2.93-1.52-.31,1.16-.63,2.31-1,3.45s-.68,2.29-1,3.44a1.19,1.19,0,0,1-.51.45.81.81,0,0,1-.66,0,.79.79,0,0,1-.47-.46,1.21,1.21,0,0,1-.09-.67c.35-1.2.69-2.38,1-3.55s.68-2.35,1-3.55c-1-.56-2.08-1.07-3.11-1.55a23.19,23.19,0,0,0-3.25-1.21,1.09,1.09,0,0,1-.42-.25,1.12,1.12,0,0,1-.23-.32.82.82,0,0,1,.42-1.13,1.1,1.1,0,0,1,.74-.06,27.54,27.54,0,0,1,3.23,1.2c1,.46,2.06,1,3.1,1.5.27-1.07.52-2.11.77-3.13A25.7,25.7,0,0,0,493.35,564.78Z"/><path d="M506,571.89a1.07,1.07,0,0,1,.8-.12.92.92,0,0,1,.53.38.89.89,0,0,1,.1.63,1.16,1.16,0,0,1-.47.67q-1.05.52-2.1,1l-2.12.95a1,1,0,0,1-.8,0,.9.9,0,0,1-.46-.46.91.91,0,0,1,0-.65,1.08,1.08,0,0,1,.56-.58l.61-.27.61-.26-4.07-8.91-1.28.58a1.12,1.12,0,0,1-.81,0,.94.94,0,0,1-.46-.46.91.91,0,0,1,0-.65,1,1,0,0,1,.57-.58l4.2-1.91a1.25,1.25,0,0,1,.74.1.85.85,0,0,1,.4.42.91.91,0,0,1,0,.59,1.23,1.23,0,0,1-.45.59l-1.24.57,4.07,8.93.52-.25Z"/><circle cx="982.34" cy="725.62" r="19.87"/><circle cx="1101.73" cy="801.89" r="19.87"/><path class="cls-11" d="M1185.33,845.49q56.93-76,113.87-152L1056.6,550.23a928,928,0,0,0-94.53,41.63Q952,586.75,941.79,582q-22.11,49-44.21,97.94c19.95,10.34,40,20.56,60.12,30.89-.25-.55,45.91-33.46,52,29.31q38,21.95,76.07,44c-.16-.29,35.61-19.72,40,22.4C1145.58,819.63,1165.49,832.56,1185.33,845.49Z"/><polygon points="987.02 602.89 1058.36 570.02 1077.61 581.39 1040.49 634.47 987.02 602.89"/><path d="M1105,616.59a1.3,1.3,0,0,1-.8.62,1.06,1.06,0,0,1-.81-.11,1.17,1.17,0,0,1-.49-.64,1.38,1.38,0,0,1,.09-1q1.83-3.06,3.62-6.08t3.7-6.33a1.56,1.56,0,0,1,.8-.48,1,1,0,0,1,.73.11,1.07,1.07,0,0,1,.45.55,1.38,1.38,0,0,1,0,.9l-1.53,2.57-1.55,2.59a10.17,10.17,0,0,0,2.39,0,13,13,0,0,0,2.13-.45c.7-.22,1.42-.48,2.18-.78s1.6-.63,2.53-1a1.44,1.44,0,0,1,1,.16,1,1,0,0,1,.49.63,1,1,0,0,1-.13.82,2,2,0,0,1-.43.45c-.8.27-1.53.54-2.19.79s-1.3.49-1.91.71-1.22.39-1.81.54a10.64,10.64,0,0,1-1.82.31c.34,1.54.69,3.07,1,4.58s.67,3,1,4.56a1.34,1.34,0,0,1-.17.88,1,1,0,0,1-.64.5,1,1,0,0,1-.79-.13,1.11,1.11,0,0,1-.36-.33,1.12,1.12,0,0,1-.24-.54c0-.19-.11-.53-.23-1s-.24-1.06-.38-1.71-.29-1.33-.44-2.05-.31-1.4-.45-2-.27-1.21-.38-1.7-.19-.84-.22-1c-.39,0-.84-.1-1.36-.19-.54.91-1,1.79-1.51,2.63S1105.48,615.67,1105,616.59Z"/><path d="M1124.6,626.93a1.41,1.41,0,0,1,.4.81,1,1,0,0,1-.14.7,1,1,0,0,1-.58.42,1.34,1.34,0,0,1-.9,0c-1.23-.68-2.45-1.37-3.65-2.07s-2.41-1.39-3.63-2.07a1.18,1.18,0,0,1-.41-1.61q1.83-3.12,3.69-6.2c1.23-2.06,2.47-4.13,3.71-6.23a1.39,1.39,0,0,1,.77-.47,1,1,0,0,1,.71.09,1,1,0,0,1,.46.54,1.45,1.45,0,0,1,0,.91q-1.74,2.94-3.45,5.79t-3.45,5.79c1.07.59,2.14,1.2,3.2,1.81S1123.5,626.33,1124.6,626.93Z"/><path d="M1141.9,631.41a14.54,14.54,0,0,1-3.59,2.6,10.19,10.19,0,0,1-2.12.78,5.59,5.59,0,0,1-2.14.14l-.81-.14a5,5,0,0,1-.67-.16c-.22-.06-.44-.14-.68-.22s-.49-.2-.77-.34L1131,634l-.15-.07a5.05,5.05,0,0,1-1.14-1l-1-1.1a5,5,0,0,1-1-2,6.65,6.65,0,0,1-.19-2.13,8,8,0,0,1,.46-2.14,12.51,12.51,0,0,1,.94-2c.14-.24.29-.46.44-.68s.3-.43.47-.64a11.09,11.09,0,0,1,1.37-1.38,13.44,13.44,0,0,1,1.76-1.28,11.93,11.93,0,0,1,1.94-.94,6.28,6.28,0,0,1,1.91-.4,7.46,7.46,0,0,1,2.26.23,8,8,0,0,1,2.07.86,7.38,7.38,0,0,1,2.58,2.54,6.32,6.32,0,0,1,.88,3.65,6.75,6.75,0,0,1-.38,1.93,10.31,10.31,0,0,1-.83,1.78c-.22.37-.45.72-.7,1.08S1142.18,631.09,1141.9,631.41Zm-1.75-1.35c.23-.29.47-.58.7-.88a8.69,8.69,0,0,0,.63-.95,8,8,0,0,0,.63-1.32,4.47,4.47,0,0,0,.27-1.43,4.26,4.26,0,0,0-.66-2.5,5.43,5.43,0,0,0-1.86-1.83,4.62,4.62,0,0,0-2.87-.64,6.5,6.5,0,0,0-1.88.51,9.4,9.4,0,0,0-1.74,1,9.55,9.55,0,0,0-1.49,1.34,8.66,8.66,0,0,0-1.12,1.49,7.42,7.42,0,0,0-.82,2,4.9,4.9,0,0,0-.12,2,4.72,4.72,0,0,0,.72,1.84,4.88,4.88,0,0,0,1.65,1.52,5.08,5.08,0,0,0,1,.42,4.31,4.31,0,0,0,1,.16,6.1,6.1,0,0,0,1.76-.2,9.17,9.17,0,0,0,1.63-.63,9.92,9.92,0,0,0,1.49-1,14.75,14.75,0,0,0,1.31-1.15Z"/><path d="M1152.57,644.92a1.49,1.49,0,0,1-.67.59,1,1,0,0,1-.72,0,1.09,1.09,0,0,1-.55-.47,1.53,1.53,0,0,1-.18-.88,23.32,23.32,0,0,0,.88-2.42c.25-.82.47-1.65.65-2.5l-6.29-3.65-.1-.08a.23.23,0,0,0-.1-.07q-1.77,1.65-3.52,3.53a1.32,1.32,0,0,1-.93.34,1.1,1.1,0,0,1-.72-.33,1.05,1.05,0,0,1-.26-.73,1.33,1.33,0,0,1,.39-.91q2.8-3,5.84-5.6a49.66,49.66,0,0,1,6.53-4.76.93.93,0,0,1,1-.18,1,1,0,0,1,.52.26,1,1,0,0,1,.27.46l0,0s0,0,0,0a12.78,12.78,0,0,1,.48,3.89c0,1.32-.12,2.62-.27,3.92,0,.46-.1.92-.16,1.37s-.13.9-.2,1.34l1.26.72a1.42,1.42,0,0,1,.41.82,1,1,0,0,1-.72,1.11,1.4,1.4,0,0,1-.9,0l-.5-.3c-.18.77-.38,1.52-.62,2.27S1152.89,644.19,1152.57,644.92Zm.19-15.22c-1,.63-1.91,1.31-2.83,2s-1.82,1.44-2.69,2.2l5.18,3c.07-.59.14-1.18.2-1.76s.11-1.17.16-1.76,0-1.22.06-1.84A10.53,10.53,0,0,0,1152.76,629.7Z"/><path d="M1156.57,647.05a1.28,1.28,0,0,1-.8.63,1.12,1.12,0,0,1-.81-.11,1.17,1.17,0,0,1-.49-.64,1.37,1.37,0,0,1,.09-1q1.83-3.06,3.62-6.09t3.71-6.32a1.54,1.54,0,0,1,.79-.48,1,1,0,0,1,.73.11,1.05,1.05,0,0,1,.46.55,1.42,1.42,0,0,1,0,.89c-.53.9-1,1.76-1.53,2.57s-1,1.68-1.55,2.6a9.63,9.63,0,0,0,2.39,0,12,12,0,0,0,2.13-.44c.7-.22,1.43-.48,2.18-.79s1.6-.62,2.53-.94a1.41,1.41,0,0,1,1,.15,1,1,0,0,1,.48.64,1,1,0,0,1-.13.82,1.76,1.76,0,0,1-.43.45c-.79.27-1.52.53-2.19.79s-1.3.49-1.91.7-1.21.4-1.8.55a12.05,12.05,0,0,1-1.83.31c.35,1.54.69,3.06,1,4.57s.68,3,1,4.56a1.3,1.3,0,0,1-.17.89,1,1,0,0,1-.64.5,1.05,1.05,0,0,1-.79-.13,1.56,1.56,0,0,1-.36-.33,1.12,1.12,0,0,1-.24-.54c0-.19-.11-.53-.22-1s-.24-1.06-.38-1.71-.29-1.33-.45-2.05-.31-1.4-.45-2-.26-1.21-.38-1.7-.19-.84-.22-1c-.38,0-.84-.1-1.35-.19-.54.91-1,1.79-1.52,2.62Z"/><path d="M1167.26,649.51a1.4,1.4,0,0,1-.56-.81,1.09,1.09,0,0,1,.12-.76,1.19,1.19,0,0,1,.65-.49,1.22,1.22,0,0,1,1,.16l1.19.71,2,1.15c.71.4,1.36.78,2,1.14l1.19.71a1.29,1.29,0,0,1,.43.78,1,1,0,0,1-.71,1.15,1.58,1.58,0,0,1-.93,0l-3.16-1.85Z"/><path d="M1190.75,667.55a1.28,1.28,0,0,1-.8.63,1.06,1.06,0,0,1-.81-.11,1.13,1.13,0,0,1-.48-.62,1.23,1.23,0,0,1,.11-1c.37-.8.74-1.66,1.12-2.57s.75-1.84,1.1-2.79.7-1.89,1-2.84.58-1.83.8-2.68c-.73.55-1.47,1.13-2.24,1.75l-2.34,1.88-2.34,1.88c-.77.63-1.53,1.21-2.27,1.75a1.26,1.26,0,0,1-1.1,0,1.44,1.44,0,0,1-.55-.84l.72-11.91c-.53.71-1.07,1.46-1.65,2.25l-1.71,2.4-1.72,2.39q-.86,1.18-1.65,2.25a1.53,1.53,0,0,1-.77.34,1.11,1.11,0,0,1-.66-.13,1.05,1.05,0,0,1-.46-.63,1.27,1.27,0,0,1,.12-1c.69-1,1.4-1.94,2.14-3l2.23-3.08,2.25-3.1,2.15-3a1.4,1.4,0,0,1,.75-.44,1.06,1.06,0,0,1,.75.12,1.21,1.21,0,0,1,.56,1c0,1-.08,2.08-.15,3.17s-.15,2.2-.23,3.31-.16,2.21-.22,3.31-.11,2.16-.14,3.18c.77-.58,1.56-1.2,2.38-1.85l2.48-2,2.48-2c.83-.66,1.64-1.27,2.42-1.85a1.53,1.53,0,0,1,.69-.2,1.11,1.11,0,0,1,.58.15,1,1,0,0,1,.43.54,1.35,1.35,0,0,1,0,.85c-.3,1.16-.64,2.35-1,3.58s-.77,2.45-1.19,3.68-.86,2.44-1.34,3.64S1191.26,666.48,1190.75,667.55Z"/><path d="M1204.26,675.44a1.44,1.44,0,0,1-.67.59,1,1,0,0,1-.72,0,1,1,0,0,1-.55-.47,1.56,1.56,0,0,1-.19-.87,22.17,22.17,0,0,0,.89-2.43c.25-.82.47-1.65.65-2.5l-6.29-3.65-.1-.08-.1-.07c-1.18,1.11-2.36,2.28-3.52,3.53a1.27,1.27,0,0,1-.93.34,1.15,1.15,0,0,1-.72-.32,1.13,1.13,0,0,1-.27-.74,1.39,1.39,0,0,1,.4-.91,80.64,80.64,0,0,1,5.83-5.59,50.15,50.15,0,0,1,6.53-4.77,1,1,0,0,1,1-.18,1,1,0,0,1,.52.26,1.14,1.14,0,0,1,.27.46s0,0,0,0,0,0,0,0a13.37,13.37,0,0,1,.48,3.88c0,1.32-.13,2.63-.28,3.92,0,.46-.09.92-.15,1.37l-.21,1.35,1.27.71a1.52,1.52,0,0,1,.41.82,1.07,1.07,0,0,1-.14.7,1.11,1.11,0,0,1-.58.42,1.44,1.44,0,0,1-.91,0l-.49-.29c-.18.76-.39,1.52-.62,2.26A22.59,22.59,0,0,1,1204.26,675.44Zm.19-15.22c-1,.64-1.92,1.31-2.83,2s-1.82,1.45-2.69,2.21l5.18,3c.07-.59.14-1.18.19-1.76s.11-1.17.16-1.76,0-1.22.07-1.84A10.53,10.53,0,0,0,1204.45,660.22Z"/><path d="M1223.7,669.29a1.56,1.56,0,0,1,.8-.48,1,1,0,0,1,.73.11,1.13,1.13,0,0,1,.45.55,1.38,1.38,0,0,1,0,.9q-2,3.38-3.91,6.51c-1.28,2.1-2.65,4.23-4.11,6.41v0h0a1,1,0,0,0-.14.18l-.11.18a1.4,1.4,0,0,1-.72.34,1,1,0,0,1-.64-.13,1.28,1.28,0,0,1-.58-.85v-.42h0l0-.05c0-1.3,0-2.56-.12-3.79s-.19-2.45-.32-3.66-.28-2.43-.45-3.64-.34-2.46-.52-3.74l-1.43,2.42-1.4,2.37c-.47.79-1,1.63-1.46,2.5s-1,1.81-1.65,2.82a1.27,1.27,0,0,1-.8.62,1.07,1.07,0,0,1-.81-.11,1.09,1.09,0,0,1-.47-.61,1.45,1.45,0,0,1,.1-1q1.89-3.18,3.81-6.47l3.8-6.47a1.42,1.42,0,0,1,.75-.45,1,1,0,0,1,.73.11,1.5,1.5,0,0,1,.56.68c.21,1.29.42,2.56.62,3.8s.4,2.47.58,3.7.32,2.47.43,3.71.19,2.52.23,3.82c1.09-1.69,2.11-3.33,3.08-4.91S1222.67,671,1223.7,669.29Z"/><path d="M1221.52,687.29a1.49,1.49,0,0,1-.47-.55,1.15,1.15,0,0,1-.14-.58V686c0-.1,0-.2,0-.3a1,1,0,0,1,.1-.28l6.27-10.61a3,3,0,0,0-.42-.07,1.32,1.32,0,0,1-.4-.16,1.19,1.19,0,0,1-.57-.69.93.93,0,0,1,.09-.77,1.25,1.25,0,0,1,1.14-.54,6.56,6.56,0,0,1,1.8.21,12.45,12.45,0,0,1,2,.66,14.48,14.48,0,0,1,1.57.77,9.19,9.19,0,0,1,2.74,2.38,8,8,0,0,1,1.37,2.87,7.68,7.68,0,0,1,.08,3.06,8.68,8.68,0,0,1-1.09,3,9.07,9.07,0,0,1-2.16,2.47,7.52,7.52,0,0,1-3,1.44,6.93,6.93,0,0,1-2.31.15,13.09,13.09,0,0,1-2.29-.46,19.17,19.17,0,0,1-2.23-.82C1222.91,687.93,1222.2,687.61,1221.52,687.29Zm9.81-11.16a6.52,6.52,0,0,0-.83-.43l-.87-.36-6.14,10.4,1.55.69a14.52,14.52,0,0,0,1.67.61,9,9,0,0,0,1.66.31,3.79,3.79,0,0,0,1.52-.15,6.76,6.76,0,0,0,2.25-1.19,7,7,0,0,0,1.65-1.9,5.84,5.84,0,0,0,.73-2,5.2,5.2,0,0,0-.1-2.15,6,6,0,0,0-1-2.06A7.06,7.06,0,0,0,1231.33,676.13Z"/><path d="M1243.18,696.16a1.33,1.33,0,0,1,.64.62,1,1,0,0,1,.09.72,1.12,1.12,0,0,1-.41.59,1.39,1.39,0,0,1-.86.24,17,17,0,0,1-2-.7,20.55,20.55,0,0,1-2.07-1,21,21,0,0,1-1.94-1.2,12.06,12.06,0,0,1-1.68-1.37,1.41,1.41,0,0,1-.27-.78,1,1,0,0,1,.17-.61l0,0,6.13-10.37a1,1,0,0,1-.28-.61,1,1,0,0,1,.14-.62,1,1,0,0,1,.52-.44,1.33,1.33,0,0,1,.83-.07,11.17,11.17,0,0,1,2.11.72c.68.31,1.35.64,2,1s1.31.72,2,1.11,1.29.74,1.94,1.08a1.31,1.31,0,0,1,.68.72,1.13,1.13,0,0,1,0,.79,1,1,0,0,1-.56.54,1.32,1.32,0,0,1-1,0c-1-.51-2-1.09-3-1.73a21.89,21.89,0,0,0-3.21-1.61l-2.46,4.16c.8.52,1.63,1,2.48,1.45s1.71.88,2.6,1.29a1.29,1.29,0,0,1,.67.72,1.13,1.13,0,0,1,0,.79,1,1,0,0,1-.56.55,1.42,1.42,0,0,1-1,0c-.91-.44-1.82-.89-2.72-1.36s-1.77-1-2.61-1.5l-2.26,3.83a16.25,16.25,0,0,0,2.88,1.84A17.17,17.17,0,0,0,1243.18,696.16Z"/><path d="M1263.05,692.53a1.66,1.66,0,0,1,.8-.49,1,1,0,0,1,.73.12,1.08,1.08,0,0,1,.45.55,1.35,1.35,0,0,1,0,.89q-2,3.39-3.91,6.52t-4.11,6.41v0l0,0a1.5,1.5,0,0,0-.14.19l-.11.18a1.38,1.38,0,0,1-.72.33,1,1,0,0,1-.64-.12,1.28,1.28,0,0,1-.58-.85v-.42l0,0,0,0c0-1.3,0-2.56-.12-3.79s-.19-2.45-.32-3.66-.28-2.43-.45-3.65-.34-2.45-.52-3.73l-1.43,2.42-1.4,2.36-1.46,2.51q-.75,1.31-1.65,2.82a1.27,1.27,0,0,1-.8.62,1.07,1.07,0,0,1-.81-.11,1.09,1.09,0,0,1-.47-.61,1.45,1.45,0,0,1,.1-1c1.26-2.13,2.53-4.28,3.81-6.47s2.55-4.34,3.8-6.47a1.36,1.36,0,0,1,.75-.45,1,1,0,0,1,.73.11,1.5,1.5,0,0,1,.56.68c.21,1.29.42,2.56.62,3.8s.4,2.47.58,3.7.32,2.46.43,3.71.19,2.52.23,3.82c1.09-1.7,2.11-3.33,3.08-4.91S1262,694.28,1263.05,692.53Z"/><path d="M1213.66,724a1.92,1.92,0,0,1-.83.74,1.21,1.21,0,0,1-.91,0,1.29,1.29,0,0,1-.68-.59,1.86,1.86,0,0,1-.24-1.09,31.61,31.61,0,0,0,1.12-3c.31-1,.58-2.07.81-3.13l-7.87-4.56-.12-.1-.13-.09c-1.48,1.38-2.94,2.86-4.4,4.42a1.59,1.59,0,0,1-1.16.42,1.36,1.36,0,0,1-.9-.41,1.27,1.27,0,0,1-.33-.91,1.69,1.69,0,0,1,.49-1.14,97.88,97.88,0,0,1,7.3-7,60.13,60.13,0,0,1,8.16-6,1.6,1.6,0,0,1,1.89.1,1.23,1.23,0,0,1,.34.58s0,0,0,0,0,0,0,0a16.61,16.61,0,0,1,.6,4.86c0,1.64-.16,3.28-.35,4.9,0,.58-.11,1.15-.19,1.71s-.17,1.13-.26,1.68l1.58.9a1.85,1.85,0,0,1,.52,1,1.26,1.26,0,0,1-.18.87,1.32,1.32,0,0,1-.73.53,1.74,1.74,0,0,1-1.12-.05l-.63-.37c-.22,1-.47,1.91-.77,2.83A25.48,25.48,0,0,1,1213.66,724Zm.24-19c-1.21.79-2.39,1.64-3.54,2.53s-2.27,1.8-3.36,2.75l6.47,3.75c.09-.75.18-1.48.25-2.21s.14-1.46.2-2.19,0-1.53.08-2.3A13.94,13.94,0,0,0,1213.9,705Z"/><path d="M1224.09,714.18a1.25,1.25,0,0,1,.91.14,1.41,1.41,0,0,1,.57.69,1.72,1.72,0,0,1,0,1.12l-.15.26a5.11,5.11,0,0,1,2.06.05,6.17,6.17,0,0,1,1.87.72,5.29,5.29,0,0,1,1.84,1.77,6.65,6.65,0,0,1,.93,2.38,7.28,7.28,0,0,1,0,2.67,8.63,8.63,0,0,1-3,5,6.64,6.64,0,0,1-2.54,1.25,7.36,7.36,0,0,1-3,0,10,10,0,0,1-3.34-1.32c-.28-.16-.54-.33-.8-.51a9.4,9.4,0,0,1-.76-.57l-3.68,6.24a1.63,1.63,0,0,1-1,.78,1.31,1.31,0,0,1-1.6-.9,1.74,1.74,0,0,1,.13-1.22l10.62-18A2,2,0,0,1,1224.09,714.18Zm-.25,5.55a1,1,0,0,1-.25.07l-.22.05-3.3,5.58q.36.33.72.63a6.78,6.78,0,0,0,.78.54,7.08,7.08,0,0,0,2,.83,5.42,5.42,0,0,0,2,.12,4.17,4.17,0,0,0,1.72-.66,4.42,4.42,0,0,0,1.35-1.48,6,6,0,0,0,.78-3.24,4.35,4.35,0,0,0-.37-1.51,2.37,2.37,0,0,0-1-1.07,2.89,2.89,0,0,0-1-.38,5,5,0,0,0-1.1,0,6.51,6.51,0,0,0-1.07.2A9,9,0,0,0,1223.84,719.73Z"/><path d="M1231.67,732.92a2.12,2.12,0,0,1,.27-.87,1.25,1.25,0,0,1,.79-.63,1.21,1.21,0,0,1,1,.15,1.82,1.82,0,0,1,.72.86,5.4,5.4,0,0,0,.58,1.68,6.89,6.89,0,0,0,1.06,1.46,9.79,9.79,0,0,0,1.35,1.22c.49.37,1,.69,1.47,1l.82.18a1.24,1.24,0,0,0,.37.08,1.73,1.73,0,0,0,.38,0l.8-.08.49-.22c.15-.08.32-.15.5-.23l.73-.64.24-.4a4.75,4.75,0,0,0,.22-.45,4,4,0,0,0,.09-.48c0-.17,0-.33.06-.51s-.08-.4-.11-.58-.08-.38-.12-.59-.23-.41-.34-.64a2.51,2.51,0,0,0-.43-.61,16.81,16.81,0,0,0-1.89-1.89,19.63,19.63,0,0,1-1.68-1.55,6.78,6.78,0,0,1-1.23-1.79,6.69,6.69,0,0,1-.56-2.64,2.34,2.34,0,0,1,0-.45,4.27,4.27,0,0,1,.19-.45c.07-.17.15-.33.23-.49a5.2,5.2,0,0,1,.9-1.32,3.9,3.9,0,0,1,.78-.61,5.69,5.69,0,0,1,1-.47c.37-.14.8-.28,1.28-.42a5,5,0,0,1,1.67-.19,7.86,7.86,0,0,1,1.67.27,9.9,9.9,0,0,1,1.62.6c.53.25,1,.51,1.51.79l.43.25a3,3,0,0,1,.38.27,4.47,4.47,0,0,1,1.09,1.08,9.32,9.32,0,0,0,1,1.18,1.62,1.62,0,0,1,0,1.56,1.24,1.24,0,0,1-.8.58,1.5,1.5,0,0,1-1.16-.23l-.12-.09-.13-.09c-.51-.57-1-1-1.4-1.45a7.46,7.46,0,0,0-1.3-1,5.73,5.73,0,0,0-1.59-.62,10.87,10.87,0,0,0-2.18-.21c-.22.09-.42.16-.61.22l-.59.19-.37.25-.35.28c-.07.12-.13.24-.19.36s-.11.25-.15.36a2.93,2.93,0,0,1,0,.41,3,3,0,0,0,0,.42l.82,1.44c.51.49,1,.93,1.44,1.33s.88.81,1.28,1.22a15.42,15.42,0,0,1,1.13,1.28,13.68,13.68,0,0,1,1.08,1.59,2.93,2.93,0,0,1,.35,1q.07.54.15,1a4.33,4.33,0,0,1-.06,1.68,5.73,5.73,0,0,1-.65,1.61,6.32,6.32,0,0,1-1.63,1.83,5,5,0,0,1-2.16,1,7.67,7.67,0,0,1-.8.11l-.77,0a5.3,5.3,0,0,1-1.75-.2,7,7,0,0,1-1.75-.75,10,10,0,0,1-1.83-1.38,12.14,12.14,0,0,1-1.54-1.75,11.09,11.09,0,0,1-1.13-1.92A7.64,7.64,0,0,1,1231.67,732.92Z"/><path class="cls-53" d="M1196.28,1041.82l54.66-21.5c0-.08-10.25-24.13,8.37-30.5s23.12,2.1,29.38,8.38,46.5-16.36,46.67-16.16c0,0-.25-16.39,9.88-21.1s21.24-1.43,25.81,6.24c4.56,7.82,51.2-21.41,51.2-22-5.61-17.89-11.18-35.39-16.92-53.1a354.78,354.78,0,0,1-32.74,14.6c-18.81-13.12-39.29-28.52-60.66-44q-43.59,11.84-87.35,24.12a673.15,673.15,0,0,0-8.56,70.66,362.5,362.5,0,0,0-50.24,22.16Q1181.05,1010.82,1196.28,1041.82Z"/><circle cx="1354.78" cy="978.31" r="16.57"/><circle cx="1269.17" cy="1007.67" r="16.57"/><polyline class="cls-11" points="1230.86 953.72 1233.94 894.38 1267.19 885.16 1284.84 934.35"/><polyline class="cls-11" points="1279.62 882.05 1296.84 930.04 1350.82 910.67 1311.24 872.06"/><path class="cls-54" d="M1355.09,739.63l76.1,17.63c0-.11,7-34.16,32.16-27.11s23.75,19.72,25.87,31.33,63.29,17.12,63.33,17.46c0,0,12.07-18.14,26.72-15.67s24.36,14.44,23.59,26.29c-.9,12,72.24,15.13,72.65,14.52,7.34-23.83,14.43-47.21,21.49-71a468.64,468.64,0,0,1-46.89-8.67c-10.71-28.55-21.55-60.86-33.33-93.89-37.79-13.26-75.73-26.48-113.89-39.4a894.45,894.45,0,0,0-62.64,71,481.84,481.84,0,0,0-71.75-13.58Q1361.78,694.16,1355.09,739.63Z"/><circle cx="1576.64" cy="789.49" r="22.04"/><circle cx="1460.7" cy="757.15" r="22.04"/><polyline class="cls-11" points="1459.38 669.14 1507.48 606.45 1550.87 621.41 1533.14 688.61"/><polyline class="cls-11" points="1566.83 627.37 1549.53 692.93 1623.28 712.39 1609.01 640.26"/><path class="cls-13" d="M1672.9,788.92c-20.05-3.42-40.65-10.51-61.83-13.41,2-16.47,4.4-33.15,7.06-48.13,23.11,3.42,45.66,10.51,67.64,13.41C1681.17,757.26,1676.88,773.94,1672.9,788.92Z"/><path d="M1636.15,737.33a1,1,0,0,1,.66.44.83.83,0,0,1,.1.66.8.8,0,0,1-.33.5,1.22,1.22,0,0,1-.73.2c-.27,0-.57-.1-.91-.17l-.88-.18-1.62,7.93a4.05,4.05,0,0,1-1,2,4,4,0,0,1-.88.69,4.51,4.51,0,0,1-1,.44,5.34,5.34,0,0,1-1.12.18,4.2,4.2,0,0,1-1.12-.08,4,4,0,0,1-1.38-.57,3.06,3.06,0,0,1-1-1.12,2.27,2.27,0,0,1-.18-.36c-.08-.19-.17-.38-.27-.59l-.24-.59a1.67,1.67,0,0,1-.1-.32,1,1,0,0,1-.09-.66.87.87,0,0,1,.35-.55.83.83,0,0,1,.66-.12,1.19,1.19,0,0,1,.63.39,1.94,1.94,0,0,1,.25.47,4.26,4.26,0,0,1,.15.47c0,.15.1.31.16.47a1.94,1.94,0,0,0,.27.48,1.78,1.78,0,0,0,.57.52,2.27,2.27,0,0,0,.71.27,2.48,2.48,0,0,0,1,0,2.34,2.34,0,0,0,.9-.34,2.09,2.09,0,0,0,.29-.19,1.66,1.66,0,0,0,.19-.18l.15-.2a2.43,2.43,0,0,0,.19-.27c.19-.56.35-1.12.49-1.69s.27-1.14.39-1.71c.09-.39.17-.81.25-1.24s.17-.88.25-1.34.17-.91.25-1.35.15-.86.21-1.26c-.87-.15-1.73-.32-2.58-.49s-1.71-.35-2.58-.51a1.09,1.09,0,0,1-.61-.49.76.76,0,0,1-.1-.63q.12-.57.93-.72l4.36.87c1.49.3,2.95.58,4.4.85Z"/><path d="M1647.19,740.44a1.41,1.41,0,0,1,.49-.59.84.84,0,0,1,.6-.1.9.9,0,0,1,.5.31,1.1,1.1,0,0,1,.23.69c-.21.92-.43,1.89-.68,2.9s-.52,2-.81,2.93-.62,1.82-1,2.62a8.57,8.57,0,0,1-1.14,2,2.72,2.72,0,0,1-.88.77,4.88,4.88,0,0,1-1.14.43,5.86,5.86,0,0,1-1.26.13,6.6,6.6,0,0,1-1.21-.13,5.67,5.67,0,0,1-1.3-.43,4.66,4.66,0,0,1-1.12-.72,4.13,4.13,0,0,1-.82-1,3.3,3.3,0,0,1-.42-1.25,10.28,10.28,0,0,1,0-2.43c.08-.86.2-1.74.37-2.64s.34-1.79.54-2.67.37-1.7.53-2.48a1.41,1.41,0,0,1,.49-.59.84.84,0,0,1,.6-.1.87.87,0,0,1,.5.31,1.12,1.12,0,0,1,.23.69c-.1.48-.22,1-.36,1.66s-.29,1.26-.44,1.93-.27,1.33-.39,2-.2,1.31-.26,1.91a8.91,8.91,0,0,0,0,1.63,2.52,2.52,0,0,0,.34,1.15,2.36,2.36,0,0,0,.91.87,4.58,4.58,0,0,0,1.1.4,3.29,3.29,0,0,0,1.36,0,3.08,3.08,0,0,0,1.34-.69,2.71,2.71,0,0,0,.64-.93c.2-.44.41-1,.61-1.52s.39-1.18.58-1.84.35-1.31.51-1.95.31-1.24.44-1.81S1647.09,740.83,1647.19,740.44Z"/><path d="M1649.36,752.14a1.36,1.36,0,0,1,0-.6.84.84,0,0,1,.35-.56.81.81,0,0,1,.63-.11,1.22,1.22,0,0,1,.64.38,3.34,3.34,0,0,0,.71.92,4.63,4.63,0,0,0,1,.68,7.14,7.14,0,0,0,1.1.47c.38.12.75.22,1.12.3a4.52,4.52,0,0,1,.55-.06.9.9,0,0,0,.25,0,.64.64,0,0,0,.22-.09l.48-.22.26-.24.26-.25.32-.55.06-.3a2.69,2.69,0,0,0,0-.32,3.06,3.06,0,0,0,0-.32c0-.11,0-.22-.07-.33l-.2-.34-.19-.34c-.12-.1-.23-.2-.35-.32a1.42,1.42,0,0,0-.39-.29,10.3,10.3,0,0,0-1.58-.77,13.22,13.22,0,0,1-1.36-.61,4.31,4.31,0,0,1-1.15-.84,4.49,4.49,0,0,1-.9-1.52,1,1,0,0,1-.08-.29,2.28,2.28,0,0,1,0-.32c0-.12,0-.24,0-.35a3.06,3.06,0,0,1,0-.32,3.1,3.1,0,0,1,.23-.69,2.62,2.62,0,0,1,.35-.54,3.56,3.56,0,0,1,.52-.5c.2-.17.44-.35.7-.53a3.42,3.42,0,0,1,1-.48,5,5,0,0,1,1.09-.18,6.11,6.11,0,0,1,1.13,0c.38,0,.75.1,1.1.18l.32.06a1.4,1.4,0,0,1,.29.09,2.65,2.65,0,0,1,.91.44,8.33,8.33,0,0,0,.87.52,1,1,0,0,1,.33,1,.81.81,0,0,1-.38.53,1,1,0,0,1-.76.11l-.1,0-.1,0q-.66-.37-1.17-.6a4.53,4.53,0,0,0-1-.34,3.77,3.77,0,0,0-1.12-.05,6.88,6.88,0,0,0-1.4.33l-.33.27-.32.24-.18.24-.15.24a2.51,2.51,0,0,0,0,.27,1.1,1.1,0,0,0,0,.25,2.72,2.72,0,0,1,.11.25,1.36,1.36,0,0,0,.11.25l.81.72c.42.19.81.37,1.18.52s.71.31,1,.48a10.56,10.56,0,0,1,1,.56,7.57,7.57,0,0,1,1,.76,1.85,1.85,0,0,1,.44.56l.31.6a2.79,2.79,0,0,1,.32,1,3.65,3.65,0,0,1-.06,1.14,4.12,4.12,0,0,1-.63,1.48,3.35,3.35,0,0,1-1.14,1,4.09,4.09,0,0,1-.47.23l-.46.19a3.51,3.51,0,0,1-1.13.25,4.87,4.87,0,0,1-1.25-.1,6.47,6.47,0,0,1-1.43-.47,8.17,8.17,0,0,1-1.32-.75,7.92,7.92,0,0,1-1.11-.95A5.3,5.3,0,0,1,1649.36,752.14Z"/><path d="M1672.09,744.89a1.18,1.18,0,0,1,.52.52.85.85,0,0,1,.06.58.88.88,0,0,1-.36.49,1.18,1.18,0,0,1-.72.18l-3.44-.69-2.2,10.75a1.1,1.1,0,0,1-.46.7.9.9,0,0,1-.65.13.92.92,0,0,1-.53-.35,1.2,1.2,0,0,1-.18-.79l2.21-10.81-3.47-.72a1.12,1.12,0,0,1-.62-.51.77.77,0,0,1-.09-.62.93.93,0,0,1,.4-.54,1,1,0,0,1,.81-.11l.94.2,1.55.32,1.87.39,1.87.38,1.56.31Z"/><path d="M1643,775.1a1.14,1.14,0,0,1,.66.31.85.85,0,0,1,.25.53.87.87,0,0,1-.16.57,1.09,1.09,0,0,1-.6.41,13.06,13.06,0,0,1-1.77,0,16.8,16.8,0,0,1-1.86-.21,17.83,17.83,0,0,1-1.82-.41,11.2,11.2,0,0,1-1.66-.62,1.29,1.29,0,0,1-.42-.54.79.79,0,0,1,0-.52v0l2-9.66a.84.84,0,0,1-.37-.4.93.93,0,0,1-.06-.52,1,1,0,0,1,.29-.48,1.14,1.14,0,0,1,.63-.27,9.22,9.22,0,0,1,1.82,0c.61.06,1.22.14,1.82.24s1.21.21,1.82.34,1.19.23,1.79.32a1.09,1.09,0,0,1,.71.38,1,1,0,0,1,.21.62.88.88,0,0,1-.29.57,1.11,1.11,0,0,1-.78.26c-.89-.14-1.83-.31-2.82-.53a16.66,16.66,0,0,0-2.91-.4l-.8,3.87c.75.19,1.52.35,2.3.47s1.56.23,2.36.31a1.09,1.09,0,0,1,.71.38.89.89,0,0,1,.2.62.83.83,0,0,1-.29.57,1.07,1.07,0,0,1-.77.26c-.83-.09-1.65-.2-2.47-.33s-1.63-.28-2.42-.47l-.74,3.56a12.53,12.53,0,0,0,2.73.67A14.28,14.28,0,0,0,1643,775.1Z"/><path d="M1656.83,779.6a1.31,1.31,0,0,1-.37.63.74.74,0,0,1-.54.22.87.87,0,0,1-.56-.21,1.31,1.31,0,0,1-.37-.63c0-.71.07-1.41,0-2.12s-.08-1.4-.16-2.11l-5.85-1.16-.09,0-.1,0c-.63,1.17-1.22,2.39-1.79,3.67a1.07,1.07,0,0,1-.64.51.92.92,0,0,1-.64-.07.86.86,0,0,1-.4-.49,1.14,1.14,0,0,1,.07-.82,63.79,63.79,0,0,1,3-5.87,39.87,39.87,0,0,1,3.8-5.43.77.77,0,0,1,.72-.4.82.82,0,0,1,.47.07.75.75,0,0,1,.33.28s0,0,0,0h0a10.88,10.88,0,0,1,1.4,2.89c.32,1,.6,2.06.82,3.11.1.37.18.74.25,1.1s.13.73.19,1.1l1.18.22a1.27,1.27,0,0,1,.53.52.86.86,0,0,1,.07.58.82.82,0,0,1-.34.48,1.1,1.1,0,0,1-.7.21l-.47-.1q.11,1,.12,1.92A17.86,17.86,0,0,1,1656.83,779.6Zm-3.89-11.85c-.58.75-1.13,1.53-1.66,2.32s-1,1.6-1.5,2.42l4.81,1c-.1-.48-.21-1-.32-1.42s-.22-.93-.34-1.4-.29-1-.43-1.44A9.22,9.22,0,0,0,1652.94,767.75Z"/><path d="M1669.37,769.25a1.21,1.21,0,0,1,.51.52.8.8,0,0,1,.06.58.83.83,0,0,1-.35.49,1.22,1.22,0,0,1-.73.19l-3.44-.69-2.2,10.74a1.07,1.07,0,0,1-.45.7.93.93,0,0,1-.66.13.92.92,0,0,1-.53-.35,1.18,1.18,0,0,1-.18-.79l2.22-10.81-3.48-.72a1.18,1.18,0,0,1-.62-.5.89.89,0,0,1-.09-.63,1,1,0,0,1,.4-.54,1,1,0,0,1,.82-.1l.93.19,1.55.32,1.87.39,1.87.39,1.56.31Z"/><path class="cls-10" d="M1636.65,1044.4l57-14c0-.09-6.94-25.27,12.34-29.11s22.63,5.15,28,12.2,48.24-10,48.38-9.82c0,0,1.93-16.26,12.59-19.59s21.23,1.4,24.74,9.61,53.57-14.41,53.64-15c-3.18-18.47-6.38-36.55-9.71-54.86A353.49,353.49,0,0,1,1829.25,934c-16.89-15.5-35.14-33.47-54.26-51.6-29.84,3.95-59.76,8-89.73,12.3a666.62,666.62,0,0,0-17.86,68.87,361,361,0,0,0-52.72,15.28Q1625.68,1011.67,1636.65,1044.4Z"/><circle cx="1802.11" cy="1002.52" r="16.56"/><circle cx="1713.4" cy="1020.25" r="16.56"/><polyline class="cls-11" points="1682.6 961.71 1693.53 903.33 1727.7 898.61 1738.65 949.68"/><polyline class="cls-11" points="1740.42 897.18 1751.11 947.01 1807.16 934.98 1773.07 891.48"/></g></g></svg>
