<svg xmlns="http://www.w3.org/2000/svg" width="275" height="105" viewBox="0 0 275 105"><defs><style>.cls-1{fill:#f43838;}.cls-2{fill:#a5a5a5;}</style></defs><title>Rød sportsvogn</title><g id="Layer_2" data-name="Layer 2"><circle cx="211.86" cy="90.18" r="13"/><circle cx="78.86" cy="84.18" r="13"/><path class="cls-1" d="M272.7,80.52c0-1.61,2.38-15.88-14.85-33-8.69-8.86-22.47-19.34-44.06-29.18A189.48,189.48,0,0,0,124.53,2.14c-6.85,8.25-13.36,15.78-19.61,24.12-28.07-3.67-56.07-5.63-84.2-1.06.08-1.5-12.24,11-16.7,23.38C-.67,61.57,2.5,74.4,28.41,88.26c10.71-1.14,21.49-2.53,32.32-3.76-.25-.71,6.9-15.86,17.13-16.15,4.93-.14,10.57,1.64,16.45,13.08,33.44-.19,67,2.08,100.87,3.16-.25-.08,7.86-10,17.68-10,5,0,10.55,4.06,15.59,10.38A297.29,297.29,0,0,0,272.7,80.52Z"/><path class="cls-2" d="M128.86,11.18l-16,25,116,3s-10-15-45-23Z"/></g></svg>