<svg xmlns="http://www.w3.org/2000/svg" xmlns:xlink="http://www.w3.org/1999/xlink" width="1600" height="900" viewBox="0 0 1600 900"><defs><style>.cls-1{isolation:isolate;}.cls-2{fill:url(#linear-gradient);}.cls-3{mix-blend-mode:overlay;}.cls-4{fill:none;}.cls-5{fill:#fff;}.cls-6{fill:#606060;}.cls-7{fill:#efefef;}.cls-8{fill:#555859;}.cls-9{fill:url(#linear-gradient-2);}.cls-10{fill:url(#linear-gradient-3);}.cls-11{fill:url(#linear-gradient-4);}.cls-12{fill:url(#linear-gradient-5);}.cls-13{fill:url(#linear-gradient-6);}.cls-14{fill:url(#linear-gradient-7);}.cls-15{fill:url(#linear-gradient-8);}.cls-16{fill:url(#linear-gradient-9);}.cls-17{fill:url(#linear-gradient-10);}.cls-18{fill:url(#linear-gradient-11);}.cls-19{fill:url(#linear-gradient-12);}.cls-20{fill:url(#linear-gradient-13);}.cls-21{fill:url(#linear-gradient-14);}.cls-22{fill:url(#linear-gradient-15);}.cls-23{fill:url(#linear-gradient-16);}.cls-24{fill:url(#linear-gradient-17);}.cls-25{fill:#3e3f3f;}.cls-26{fill:url(#linear-gradient-18);}.cls-27{fill:url(#linear-gradient-19);}.cls-28{fill:url(#linear-gradient-20);}.cls-29{fill:url(#linear-gradient-21);}.cls-30{fill:url(#linear-gradient-22);}.cls-31{fill:url(#linear-gradient-23);}.cls-32{fill:url(#linear-gradient-24);}.cls-33{fill:url(#linear-gradient-25);}.cls-34{fill:url(#linear-gradient-26);}</style><linearGradient id="linear-gradient" x1="799.96" y1="900" x2="799.96" y2="-0.05" gradientUnits="userSpaceOnUse"><stop offset="0.16" stop-color="#1e9cd7"/><stop offset="0.47" stop-color="#0075be"/><stop offset="1" stop-color="#0b3168"/></linearGradient><linearGradient id="linear-gradient-2" x1="251.16" y1="80.84" x2="276.2" y2="124.21" gradientUnits="userSpaceOnUse"><stop offset="0" stop-color="#ffa727"/><stop offset="1" stop-color="#fcdb54"/></linearGradient><linearGradient id="linear-gradient-3" x1="317" y1="80.84" x2="342.04" y2="124.21" xlink:href="#linear-gradient-2"/><linearGradient id="linear-gradient-4" x1="384.5" y1="80.84" x2="409.54" y2="124.21" xlink:href="#linear-gradient-2"/><linearGradient id="linear-gradient-5" x1="452.01" y1="80.84" x2="477.04" y2="124.21" xlink:href="#linear-gradient-2"/><linearGradient id="linear-gradient-6" x1="251.16" y1="123.35" x2="276.2" y2="166.71" xlink:href="#linear-gradient-2"/><linearGradient id="linear-gradient-7" x1="317" y1="123.35" x2="342.04" y2="166.71" xlink:href="#linear-gradient-2"/><linearGradient id="linear-gradient-8" x1="384.5" y1="123.35" x2="409.54" y2="166.71" xlink:href="#linear-gradient-2"/><linearGradient id="linear-gradient-9" x1="452.01" y1="123.35" x2="477.04" y2="166.71" xlink:href="#linear-gradient-2"/><linearGradient id="linear-gradient-10" x1="251.16" y1="165.01" x2="276.2" y2="208.38" xlink:href="#linear-gradient-2"/><linearGradient id="linear-gradient-11" x1="317" y1="165.01" x2="342.04" y2="208.38" xlink:href="#linear-gradient-2"/><linearGradient id="linear-gradient-12" x1="384.5" y1="165.01" x2="409.54" y2="208.38" xlink:href="#linear-gradient-2"/><linearGradient id="linear-gradient-13" x1="452.01" y1="165.01" x2="477.04" y2="208.38" xlink:href="#linear-gradient-2"/><linearGradient id="linear-gradient-14" x1="251.16" y1="206.68" x2="276.2" y2="250.05" xlink:href="#linear-gradient-2"/><linearGradient id="linear-gradient-15" x1="317" y1="206.68" x2="342.04" y2="250.05" xlink:href="#linear-gradient-2"/><linearGradient id="linear-gradient-16" x1="384.5" y1="206.68" x2="409.54" y2="250.05" xlink:href="#linear-gradient-2"/><linearGradient id="linear-gradient-17" x1="452.01" y1="206.68" x2="477.04" y2="250.05" xlink:href="#linear-gradient-2"/><linearGradient id="linear-gradient-18" x1="59.95" y1="184.97" x2="90.73" y2="238.29" xlink:href="#linear-gradient-2"/><linearGradient id="linear-gradient-19" x1="137.45" y1="184.97" x2="168.23" y2="238.29" xlink:href="#linear-gradient-2"/><linearGradient id="linear-gradient-20" x1="215.79" y1="184.97" x2="246.57" y2="238.29" xlink:href="#linear-gradient-2"/><linearGradient id="linear-gradient-21" x1="59.11" y1="238.31" x2="89.89" y2="291.62" xlink:href="#linear-gradient-2"/><linearGradient id="linear-gradient-22" x1="136.62" y1="238.31" x2="167.4" y2="291.62" xlink:href="#linear-gradient-2"/><linearGradient id="linear-gradient-23" x1="214.95" y1="238.31" x2="245.74" y2="291.62" xlink:href="#linear-gradient-2"/><linearGradient id="linear-gradient-24" x1="58.28" y1="288.31" x2="89.06" y2="341.63" xlink:href="#linear-gradient-2"/><linearGradient id="linear-gradient-25" x1="135.78" y1="288.31" x2="166.57" y2="341.63" xlink:href="#linear-gradient-2"/><linearGradient id="linear-gradient-26" x1="214.12" y1="288.31" x2="244.9" y2="341.63" xlink:href="#linear-gradient-2"/></defs><title>Scene_1600</title><g class="cls-1"><g id="Layer_5" data-name="Layer 5"><rect class="cls-2" x="-0.08" y="-0.05" width="1600.08" height="900.05"/><g class="cls-3"><rect class="cls-4" x="1490.68" y="114.98" width="5.6" height="5.6"/><circle class="cls-5" cx="1493.48" cy="117.78" r="2.8"/></g><g class="cls-3"><rect class="cls-4" x="1509.59" y="53.52" width="5.59" height="5.59"/><circle class="cls-5" cx="1512.38" cy="56.32" r="2.79"/></g><g class="cls-3"><rect class="cls-4" x="1450.8" y="68.65" width="7.37" height="7.37"/><circle class="cls-5" cx="1454.49" cy="72.34" r="3.69"/></g><g class="cls-3"><rect class="cls-4" x="1434.95" y="78.52" width="6.49" height="6.49"/><circle class="cls-5" cx="1438.19" cy="81.76" r="3.24"/></g><g class="cls-3"><rect class="cls-4" x="1400.71" y="49.93" width="6.58" height="6.58"/><circle class="cls-5" cx="1404" cy="53.22" r="3.29"/></g><g class="cls-3"><rect class="cls-4" x="1131.1" y="103.94" width="5.44" height="5.44"/><circle class="cls-5" cx="1133.81" cy="106.66" r="2.72"/></g><g class="cls-3"><rect class="cls-4" x="858" y="29.45" width="6.86" height="6.86"/><circle class="cls-5" cx="861.43" cy="32.87" r="3.43"/></g><g class="cls-3"><rect class="cls-4" x="676.63" y="94.23" width="4.13" height="4.13"/><circle class="cls-5" cx="678.69" cy="96.29" r="2.06"/></g><rect class="cls-4" x="497.66" y="116.47" width="6.31" height="6.31"/><circle class="cls-5" cx="500.81" cy="119.62" r="3.15"/><rect class="cls-4" x="458.59" y="104.17" width="5.41" height="5.41"/><circle class="cls-5" cx="461.3" cy="106.88" r="2.71"/><g class="cls-3"><rect class="cls-4" x="492.48" y="429.77" width="5.18" height="5.18"/><circle class="cls-5" cx="495.07" cy="432.36" r="2.59"/></g><g class="cls-3"><rect class="cls-4" x="879.64" y="44.27" width="6.13" height="6.13"/><circle class="cls-5" cx="882.71" cy="47.33" r="3.07"/></g><g class="cls-3"><rect class="cls-4" x="620.51" y="67.7" width="4.44" height="4.44"/><circle class="cls-5" cx="622.73" cy="69.92" r="2.22"/></g><g class="cls-3"><rect class="cls-4" x="545.62" y="36.1" width="5.71" height="5.71"/><circle class="cls-5" cx="548.47" cy="38.96" r="2.85"/></g><rect class="cls-4" x="450.02" y="87.53" width="4.57" height="4.57"/><circle class="cls-5" cx="452.31" cy="89.81" r="2.28"/><rect class="cls-4" x="312.54" y="142.72" width="6.17" height="6.17"/><circle class="cls-5" cx="315.63" cy="145.8" r="3.08"/><rect class="cls-4" x="258.56" y="177.21" width="2.55" height="2.55"/><circle class="cls-5" cx="259.83" cy="178.48" r="1.28"/><rect class="cls-4" x="242.05" y="159.97" width="7.29" height="7.29"/><circle class="cls-5" cx="245.69" cy="163.62" r="3.65"/><rect class="cls-4" x="269.7" y="102.02" width="7.4" height="7.4"/><circle class="cls-5" cx="273.4" cy="105.72" r="3.7"/><rect class="cls-4" x="354.08" y="122.61" width="5.08" height="5.08"/><circle class="cls-5" cx="356.62" cy="125.15" r="2.54"/><rect class="cls-4" x="467.37" y="218.76" width="6.72" height="6.72"/><circle class="cls-5" cx="470.72" cy="222.12" r="3.36"/><rect class="cls-4" x="424.99" y="261.07" width="4.63" height="4.63"/><circle class="cls-5" cx="427.31" cy="263.39" r="2.32"/><g class="cls-3"><rect class="cls-4" x="560.2" y="91.22" width="4.6" height="4.6"/><circle class="cls-5" cx="562.5" cy="93.53" r="2.3"/></g><rect class="cls-4" x="413.91" y="98.92" width="2.97" height="2.97"/><circle class="cls-5" cx="415.39" cy="100.4" r="1.48"/><rect class="cls-4" x="481.59" y="168.42" width="7.1" height="7.1"/><circle class="cls-5" cx="485.13" cy="171.97" r="3.55"/><rect class="cls-4" x="506.3" y="168.39" width="7.34" height="7.34"/><circle class="cls-5" cx="509.97" cy="172.06" r="3.67"/><g class="cls-3"><rect class="cls-4" x="619.18" y="101.16" width="5.48" height="5.48"/><circle class="cls-5" cx="621.92" cy="103.9" r="2.74"/></g><rect class="cls-4" x="813.4" y="250.92" width="6.32" height="6.32"/><circle class="cls-5" cx="816.56" cy="254.08" r="3.16"/><rect class="cls-4" x="854.61" y="173.91" width="4.18" height="4.18"/><circle class="cls-5" cx="856.7" cy="176" r="2.09"/><rect class="cls-4" x="868.24" y="230.89" width="5.56" height="5.56"/><circle class="cls-5" cx="871.02" cy="233.67" r="2.78"/><rect class="cls-4" x="763.9" y="170.83" width="6.79" height="6.79"/><circle class="cls-5" cx="767.3" cy="174.23" r="3.4"/><g class="cls-3"><rect class="cls-4" x="949.04" y="95.3" width="3.23" height="3.23"/><circle class="cls-5" cx="950.65" cy="96.92" r="1.62"/></g><rect class="cls-4" x="1376.15" y="299.73" width="2.52" height="2.52"/><circle class="cls-5" cx="1377.41" cy="300.99" r="1.26"/><g class="cls-3"><rect class="cls-4" x="1369.81" y="96.99" width="6.99" height="6.99"/><circle class="cls-5" cx="1373.31" cy="100.49" r="3.49"/></g><g class="cls-3"><rect class="cls-4" x="1540.91" y="269.36" width="6.52" height="6.52"/><circle class="cls-5" cx="1544.17" cy="272.62" r="3.26"/></g><g class="cls-3"><rect class="cls-4" x="1551.07" y="289.56" width="4.12" height="4.12"/><circle class="cls-5" cx="1553.13" cy="291.62" r="2.06"/></g><g class="cls-3"><rect class="cls-4" x="1521.88" y="294.07" width="5.69" height="5.69"/><circle class="cls-5" cx="1524.73" cy="296.92" r="2.85"/></g><g class="cls-3"><rect class="cls-4" x="1450.58" y="317.38" width="7.2" height="7.2"/><circle class="cls-5" cx="1454.18" cy="320.98" r="3.6"/></g><g class="cls-3"><rect class="cls-4" x="992.89" y="102.75" width="3.39" height="3.39"/><circle class="cls-5" cx="994.59" cy="104.44" r="1.7"/></g><g class="cls-3"><rect class="cls-4" x="1112.56" y="89.25" width="4.5" height="4.5"/><circle class="cls-5" cx="1114.81" cy="91.5" r="2.25"/></g><rect class="cls-4" x="846.48" y="110.81" width="5.6" height="5.6"/><circle class="cls-5" cx="849.28" cy="113.61" r="2.8"/><g class="cls-3"><rect class="cls-4" x="865.39" y="49.36" width="5.59" height="5.59"/><circle class="cls-5" cx="868.18" cy="52.15" r="2.79"/></g><rect class="cls-4" x="790.75" y="74.35" width="6.49" height="6.49"/><circle class="cls-5" cx="793.99" cy="77.6" r="3.24"/><g class="cls-3"><rect class="cls-4" x="756.51" y="45.76" width="6.58" height="6.58"/><circle class="cls-5" cx="759.8" cy="49.05" r="3.29"/></g><rect class="cls-4" x="728.35" y="191.37" width="3.53" height="3.53"/><circle class="cls-5" cx="730.12" cy="193.14" r="1.77"/><rect class="cls-4" x="836.07" y="202.67" width="3.49" height="3.49"/><circle class="cls-5" cx="837.81" cy="204.41" r="1.75"/><g class="cls-3"><rect class="cls-4" x="1016.06" y="332.21" width="4.99" height="4.99"/><circle class="cls-5" cx="1018.55" cy="334.7" r="2.49"/></g><rect class="cls-4" x="494.95" y="178.94" width="4.28" height="4.28"/><circle class="cls-5" cx="497.09" cy="181.08" r="2.14"/><rect class="cls-4" x="486.9" y="99.77" width="5.44" height="5.44"/><circle class="cls-5" cx="489.61" cy="102.49" r="2.72"/><g class="cls-3"><rect class="cls-4" x="213.8" y="25.28" width="6.86" height="6.86"/><circle class="cls-5" cx="217.23" cy="28.71" r="3.43"/></g><g class="cls-3"><rect class="cls-4" x="149.96" y="93.5" width="6.72" height="6.72"/><circle class="cls-5" cx="153.32" cy="96.86" r="3.36"/></g><g class="cls-3"><rect class="cls-4" x="32.43" y="90.06" width="4.13" height="4.13"/><circle class="cls-5" cx="34.49" cy="92.12" r="2.06"/></g><rect class="cls-4" x="34.57" y="369.75" width="6.94" height="6.94"/><circle class="cls-5" cx="38.04" cy="373.22" r="3.47"/><g class="cls-3"><rect class="cls-4" x="284.19" y="460.63" width="3.77" height="3.77"/><circle class="cls-5" cx="286.08" cy="462.51" r="1.88"/></g><g class="cls-3"><rect class="cls-4" x="546.27" y="21.43" width="5.5" height="5.5"/><circle class="cls-5" cx="549.02" cy="24.18" r="2.75"/></g><g class="cls-3"><rect class="cls-4" x="235.44" y="40.1" width="6.13" height="6.13"/><circle class="cls-5" cx="238.51" cy="43.17" r="3.07"/></g><g class="cls-3"><rect class="cls-4" x="119.79" y="65.21" width="6.17" height="6.17"/><circle class="cls-5" cx="122.87" cy="68.29" r="3.09"/></g><rect class="cls-4" x="169.2" y="246.76" width="6.32" height="6.32"/><circle class="cls-5" cx="172.36" cy="249.92" r="3.16"/><rect class="cls-4" x="210.41" y="169.74" width="4.18" height="4.18"/><circle class="cls-5" cx="212.5" cy="171.83" r="2.09"/><rect class="cls-4" x="224.04" y="226.72" width="5.56" height="5.56"/><circle class="cls-5" cx="226.82" cy="229.5" r="2.78"/><g class="cls-3"><rect class="cls-4" x="119.7" y="166.66" width="6.79" height="6.79"/><circle class="cls-5" cx="123.1" cy="170.06" r="3.4"/></g><rect class="cls-4" x="180.04" y="239.88" width="4.91" height="4.91"/><circle class="cls-5" cx="182.5" cy="242.34" r="2.46"/><rect class="cls-4" x="304.83" y="91.14" width="3.23" height="3.23"/><circle class="cls-5" cx="306.45" cy="92.75" r="1.62"/><g class="cls-3"><rect class="cls-4" x="327.93" y="22.21" width="6.91" height="6.91"/><circle class="cls-5" cx="331.39" cy="25.66" r="3.45"/></g><rect class="cls-4" x="321.09" y="137.31" width="7.03" height="7.03"/><circle class="cls-5" cx="324.61" cy="140.82" r="3.51"/><rect class="cls-4" x="400.88" y="166.36" width="4.3" height="4.3"/><circle class="cls-5" cx="403.03" cy="168.51" r="2.15"/><rect class="cls-4" x="416.38" y="176.42" width="6.79" height="6.79"/><circle class="cls-5" cx="419.78" cy="179.82" r="3.39"/><rect class="cls-4" x="417.61" y="210.08" width="3.5" height="3.5"/><circle class="cls-5" cx="419.36" cy="211.83" r="1.75"/><rect class="cls-4" x="430.01" y="184.97" width="3.45" height="3.45"/><circle class="cls-5" cx="431.73" cy="186.69" r="1.72"/><rect class="cls-4" x="718.67" y="155.84" width="6.12" height="6.12"/><circle class="cls-5" cx="721.73" cy="158.9" r="3.06"/><g class="cls-3"><rect class="cls-4" x="679.75" y="127.03" width="3.74" height="3.74"/><circle class="cls-5" cx="681.62" cy="128.91" r="1.87"/></g><g class="cls-3"><rect class="cls-4" x="651.19" y="207.33" width="4.31" height="4.31"/><circle class="cls-5" cx="653.35" cy="209.48" r="2.15"/></g><rect class="cls-4" x="688.18" y="222.96" width="6.84" height="6.84"/><circle class="cls-5" cx="691.6" cy="226.38" r="3.42"/><rect class="cls-4" x="731.95" y="295.56" width="2.52" height="2.52"/><circle class="cls-5" cx="733.21" cy="296.82" r="1.26"/><rect class="cls-4" x="896.71" y="265.19" width="6.52" height="6.52"/><circle class="cls-5" cx="899.97" cy="268.45" r="3.26"/><rect class="cls-4" x="906.87" y="285.39" width="4.12" height="4.12"/><circle class="cls-5" cx="908.93" cy="287.45" r="2.06"/><g class="cls-3"><rect class="cls-4" x="946.44" y="277.01" width="4.99" height="4.99"/><circle class="cls-5" cx="948.93" cy="279.51" r="2.49"/></g><rect class="cls-4" x="877.68" y="289.91" width="5.69" height="5.69"/><circle class="cls-5" cx="880.53" cy="292.75" r="2.85"/><g class="cls-3"><rect class="cls-4" x="924.72" y="301.55" width="7.2" height="7.2"/><circle class="cls-5" cx="928.32" cy="305.15" r="3.6"/></g><g class="cls-3"><rect class="cls-4" x="960.14" y="347.95" width="6.17" height="6.17"/><circle class="cls-5" cx="963.23" cy="351.04" r="3.08"/></g><g class="cls-3"><rect class="cls-4" x="980.23" y="320.94" width="5.05" height="5.05"/><circle class="cls-5" cx="982.76" cy="323.46" r="2.53"/></g><g class="cls-3"><rect class="cls-4" x="963.05" y="276.88" width="4.1" height="4.1"/><circle class="cls-5" cx="965.1" cy="278.93" r="2.05"/></g><g class="cls-3"><rect class="cls-4" x="941.48" y="353.05" width="2.74" height="2.74"/><circle class="cls-5" cx="942.86" cy="354.42" r="1.37"/></g><g class="cls-3"><rect class="cls-4" x="1002.47" y="375.3" width="5.35" height="5.35"/><circle class="cls-5" cx="1005.15" cy="377.97" r="2.68"/></g><rect class="cls-4" x="1232.6" y="291.55" width="4.91" height="4.91"/><circle class="cls-5" cx="1235.05" cy="294.01" r="2.46"/><rect class="cls-4" x="1244.42" y="250.17" width="3.49" height="3.49"/><circle class="cls-5" cx="1246.17" cy="251.92" r="1.75"/><rect class="cls-4" x="1283.29" y="274.56" width="6.6" height="6.6"/><circle class="cls-5" cx="1286.58" cy="277.86" r="3.3"/><g class="cls-3"><rect class="cls-4" x="1354.79" y="324.52" width="4.99" height="4.99"/><circle class="cls-5" cx="1357.29" cy="327.01" r="2.49"/></g><g class="cls-3"><rect class="cls-4" x="1368.5" y="395.45" width="6.17" height="6.17"/><circle class="cls-5" cx="1371.58" cy="398.54" r="3.08"/></g><g class="cls-3"><rect class="cls-4" x="1166.9" y="290.54" width="4.99" height="4.99"/><circle class="cls-5" cx="1169.39" cy="293.03" r="2.49"/></g><g class="cls-3"><rect class="cls-4" x="1110.98" y="306.28" width="6.17" height="6.17"/><circle class="cls-5" cx="1114.07" cy="309.37" r="3.08"/></g><g class="cls-3"><rect class="cls-4" x="1153.31" y="333.63" width="5.35" height="5.35"/><circle class="cls-5" cx="1155.99" cy="336.31" r="2.68"/></g><g class="cls-3"><rect class="cls-4" x="1296.4" y="9.36" width="4.1" height="4.1"/><circle class="cls-5" cx="1298.45" cy="11.42" r="2.05"/></g><g class="cls-3"><rect class="cls-4" x="1166.86" y="18.23" width="5.69" height="5.69"/><circle class="cls-5" cx="1169.71" cy="21.07" r="2.85"/></g><g class="cls-3"><rect class="cls-4" x="1068.57" y="226.76" width="5.05" height="5.05"/><circle class="cls-5" cx="1071.1" cy="229.29" r="2.53"/></g><rect class="cls-4" x="1574.27" y="183.42" width="6.32" height="6.32"/><circle class="cls-5" cx="1577.43" cy="186.58" r="3.16"/><rect class="cls-4" x="40.64" y="38.79" width="6.84" height="6.84"/><circle class="cls-5" cx="44.06" cy="42.21" r="3.42"/><rect class="cls-4" x="1438.29" y="239.56" width="6.6" height="6.6"/><circle class="cls-5" cx="1441.59" cy="242.86" r="3.3"/><g class="cls-3"><rect class="cls-4" x="608.54" y="269.7" width="4.99" height="4.99"/><circle class="cls-5" cx="611.03" cy="272.2" r="2.49"/></g><g class="cls-3"><rect class="cls-4" x="552.62" y="285.45" width="6.17" height="6.17"/><circle class="cls-5" cx="555.71" cy="288.53" r="3.08"/></g><g class="cls-3"><rect class="cls-4" x="594.95" y="312.79" width="5.35" height="5.35"/><circle class="cls-5" cx="597.63" cy="315.47" r="2.68"/></g><rect class="cls-6" x="-0.92" y="604.15" width="1600.08" height="295.85"/><rect class="cls-7" x="1443.33" y="742.49" width="140.84" height="20"/><rect class="cls-7" x="1203.31" y="741.66" width="140.84" height="20"/><rect class="cls-7" x="967.47" y="741.66" width="140.84" height="20"/><rect class="cls-7" x="733.29" y="741.66" width="140.84" height="20"/><rect class="cls-7" x="499.11" y="741.66" width="140.84" height="20"/><rect class="cls-7" x="256.6" y="741.66" width="140.84" height="20"/><rect class="cls-7" x="25.75" y="741.66" width="140.84" height="20"/><rect class="cls-8" x="213.7" y="67.46" width="328.14" height="537.53"/><rect class="cls-9" x="238.26" y="88.29" width="50.84" height="28.47"/><rect class="cls-10" x="304.1" y="88.29" width="50.84" height="28.47"/><rect class="cls-11" x="371.6" y="88.29" width="50.84" height="28.47"/><rect class="cls-12" x="439.11" y="88.29" width="50.84" height="28.47"/><rect class="cls-13" x="238.26" y="130.79" width="50.84" height="28.47"/><rect class="cls-14" x="304.1" y="130.79" width="50.84" height="28.47"/><rect class="cls-15" x="371.6" y="130.79" width="50.84" height="28.47"/><rect class="cls-16" x="439.11" y="130.79" width="50.84" height="28.47"/><rect class="cls-17" x="238.26" y="172.46" width="50.84" height="28.47"/><rect class="cls-18" x="304.1" y="172.46" width="50.84" height="28.47"/><rect class="cls-19" x="371.6" y="172.46" width="50.84" height="28.47"/><rect class="cls-20" x="439.11" y="172.46" width="50.84" height="28.47"/><rect class="cls-21" x="238.26" y="214.13" width="50.84" height="28.47"/><rect class="cls-22" x="304.1" y="214.13" width="50.84" height="28.47"/><rect class="cls-23" x="371.6" y="214.13" width="50.84" height="28.47"/><rect class="cls-24" x="439.11" y="214.13" width="50.84" height="28.47"/><rect class="cls-25" x="19.92" y="174.96" width="262.51" height="430.02"/><rect class="cls-26" x="44.09" y="194.13" width="62.5" height="35"/><rect class="cls-27" x="121.59" y="194.13" width="62.5" height="35"/><rect class="cls-28" x="199.93" y="194.13" width="62.5" height="35"/><rect class="cls-29" x="43.25" y="247.47" width="62.5" height="35"/><rect class="cls-30" x="120.76" y="247.47" width="62.5" height="35"/><rect class="cls-31" x="199.09" y="247.47" width="62.5" height="35"/><rect class="cls-32" x="42.42" y="297.47" width="62.5" height="35"/><rect class="cls-33" x="119.92" y="297.47" width="62.5" height="35"/><rect class="cls-34" x="198.26" y="297.47" width="62.5" height="35"/></g></g></svg>
