<svg xmlns="http://www.w3.org/2000/svg" xmlns:xlink="http://www.w3.org/1999/xlink" width="1920" height="1080" viewBox="0 0 1920 1080"><defs><style>.cls-1{isolation:isolate;}.cls-2{fill:url(#linear-gradient);}.cls-3{mix-blend-mode:overlay;}.cls-4{fill:none;}.cls-5{fill:#fff;}.cls-6{fill:#85381d;}.cls-7{fill:#d9831a;}.cls-8{fill:#a0a605;}.cls-9{fill:#7aa61c;}.cls-10{fill:#606060;}.cls-11{fill:#efefef;}.cls-12{fill:#555859;}.cls-13{fill:url(#linear-gradient-2);}.cls-14{fill:url(#linear-gradient-3);}.cls-15{fill:url(#linear-gradient-4);}.cls-16{fill:url(#linear-gradient-5);}.cls-17{fill:url(#linear-gradient-6);}.cls-18{fill:url(#linear-gradient-7);}.cls-19{fill:url(#linear-gradient-8);}.cls-20{fill:url(#linear-gradient-9);}.cls-21{fill:url(#linear-gradient-10);}.cls-22{fill:url(#linear-gradient-11);}.cls-23{fill:url(#linear-gradient-12);}.cls-24{fill:url(#linear-gradient-13);}.cls-25{fill:url(#linear-gradient-14);}.cls-26{fill:url(#linear-gradient-15);}.cls-27{fill:url(#linear-gradient-16);}.cls-28{fill:url(#linear-gradient-17);}.cls-29{fill:#3e3f3f;}.cls-30{fill:url(#linear-gradient-18);}.cls-31{fill:url(#linear-gradient-19);}.cls-32{fill:url(#linear-gradient-20);}.cls-33{fill:url(#linear-gradient-21);}.cls-34{fill:url(#linear-gradient-22);}.cls-35{fill:url(#linear-gradient-23);}.cls-36{fill:url(#linear-gradient-24);}.cls-37{fill:url(#linear-gradient-25);}.cls-38{fill:url(#linear-gradient-26);}.cls-39{fill:#f43838;}.cls-40{fill:#a5a5a5;}.cls-41{fill:url(#linear-gradient-27);}.cls-42{fill:#efece6;}.cls-43{fill:#9e9e9e;}.cls-44{fill:#e5d648;}.cls-45{fill:#e2e0e0;}</style><linearGradient id="linear-gradient" x1="960" y1="1080" x2="960" gradientUnits="userSpaceOnUse"><stop offset="0.16" stop-color="#1e9cd7"/><stop offset="0.47" stop-color="#0075be"/><stop offset="1" stop-color="#0b3168"/></linearGradient><linearGradient id="linear-gradient-2" x1="301.48" y1="97.06" x2="331.52" y2="149.1" gradientUnits="userSpaceOnUse"><stop offset="0" stop-color="#ffa727"/><stop offset="1" stop-color="#fcdb54"/></linearGradient><linearGradient id="linear-gradient-3" x1="380.48" y1="97.06" x2="410.52" y2="149.1" xlink:href="#linear-gradient-2"/><linearGradient id="linear-gradient-4" x1="461.48" y1="97.06" x2="491.52" y2="149.1" xlink:href="#linear-gradient-2"/><linearGradient id="linear-gradient-5" x1="542.48" y1="97.06" x2="572.52" y2="149.1" xlink:href="#linear-gradient-2"/><linearGradient id="linear-gradient-6" x1="301.48" y1="148.06" x2="331.52" y2="200.1" xlink:href="#linear-gradient-2"/><linearGradient id="linear-gradient-7" x1="380.48" y1="148.06" x2="410.52" y2="200.1" xlink:href="#linear-gradient-2"/><linearGradient id="linear-gradient-8" x1="461.48" y1="148.06" x2="491.52" y2="200.1" xlink:href="#linear-gradient-2"/><linearGradient id="linear-gradient-9" x1="542.48" y1="148.06" x2="572.52" y2="200.1" xlink:href="#linear-gradient-2"/><linearGradient id="linear-gradient-10" x1="301.48" y1="198.06" x2="331.52" y2="250.1" xlink:href="#linear-gradient-2"/><linearGradient id="linear-gradient-11" x1="380.48" y1="198.06" x2="410.52" y2="250.1" xlink:href="#linear-gradient-2"/><linearGradient id="linear-gradient-12" x1="461.48" y1="198.06" x2="491.52" y2="250.1" xlink:href="#linear-gradient-2"/><linearGradient id="linear-gradient-13" x1="542.48" y1="198.06" x2="572.52" y2="250.1" xlink:href="#linear-gradient-2"/><linearGradient id="linear-gradient-14" x1="301.48" y1="248.06" x2="331.52" y2="300.1" xlink:href="#linear-gradient-2"/><linearGradient id="linear-gradient-15" x1="380.48" y1="248.06" x2="410.52" y2="300.1" xlink:href="#linear-gradient-2"/><linearGradient id="linear-gradient-16" x1="461.48" y1="248.06" x2="491.52" y2="300.1" xlink:href="#linear-gradient-2"/><linearGradient id="linear-gradient-17" x1="542.48" y1="248.06" x2="572.52" y2="300.1" xlink:href="#linear-gradient-2"/><linearGradient id="linear-gradient-18" x1="72.03" y1="222.01" x2="108.97" y2="285.99" xlink:href="#linear-gradient-2"/><linearGradient id="linear-gradient-19" x1="165.03" y1="222.01" x2="201.97" y2="285.99" xlink:href="#linear-gradient-2"/><linearGradient id="linear-gradient-20" x1="259.03" y1="222.01" x2="295.97" y2="285.99" xlink:href="#linear-gradient-2"/><linearGradient id="linear-gradient-21" x1="71.03" y1="286.01" x2="107.97" y2="349.99" xlink:href="#linear-gradient-2"/><linearGradient id="linear-gradient-22" x1="164.03" y1="286.01" x2="200.97" y2="349.99" xlink:href="#linear-gradient-2"/><linearGradient id="linear-gradient-23" x1="258.03" y1="286.01" x2="294.97" y2="349.99" xlink:href="#linear-gradient-2"/><linearGradient id="linear-gradient-24" x1="70.03" y1="346.01" x2="106.97" y2="409.99" xlink:href="#linear-gradient-2"/><linearGradient id="linear-gradient-25" x1="163.03" y1="346.01" x2="199.97" y2="409.99" xlink:href="#linear-gradient-2"/><linearGradient id="linear-gradient-26" x1="257.03" y1="346.01" x2="293.97" y2="409.99" xlink:href="#linear-gradient-2"/><linearGradient id="linear-gradient-27" x1="841.95" y1="920.72" x2="1151.8" y2="920.72" gradientUnits="userSpaceOnUse"><stop offset="0" stop-color="#3dc1ae"/><stop offset="0.1" stop-color="#47bdae"/><stop offset="0.28" stop-color="#62b4ae"/><stop offset="0.51" stop-color="#8da4ad"/><stop offset="0.78" stop-color="#c98ead"/><stop offset="1" stop-color="#ff7bac"/></linearGradient></defs><title>Spilskærm_eksempel</title><g class="cls-1"><g id="Layer_4" data-name="Layer 4"><rect class="cls-2" width="1920" height="1080"/><g class="cls-3"><rect class="cls-4" x="1788.82" y="138.02" width="6.72" height="6.72"/><circle class="cls-5" cx="1792.19" cy="141.39" r="3.36"/></g><g class="cls-3"><rect class="cls-4" x="1811.51" y="64.28" width="6.71" height="6.71"/><circle class="cls-5" cx="1814.87" cy="67.64" r="3.35"/></g><g class="cls-3"><rect class="cls-4" x="1740.97" y="82.43" width="8.85" height="8.85"/><circle class="cls-5" cx="1745.4" cy="86.85" r="4.42"/></g><g class="cls-3"><rect class="cls-4" x="1721.95" y="94.27" width="7.79" height="7.79"/><circle class="cls-5" cx="1725.84" cy="98.17" r="3.89"/></g><g class="cls-3"><rect class="cls-4" x="1680.87" y="59.97" width="7.9" height="7.9"/><circle class="cls-5" cx="1684.81" cy="63.92" r="3.95"/></g><g class="cls-3"><rect class="cls-4" x="1357.34" y="124.78" width="6.52" height="6.52"/><circle class="cls-5" cx="1360.61" cy="128.04" r="3.26"/></g><g class="cls-3"><rect class="cls-4" x="1029.65" y="35.39" width="8.23" height="8.23"/><circle class="cls-5" cx="1033.77" cy="39.5" r="4.11"/></g><g class="cls-3"><rect class="cls-4" x="812.02" y="113.12" width="4.95" height="4.95"/><circle class="cls-5" cx="814.49" cy="115.6" r="2.48"/></g><rect class="cls-4" x="597.26" y="139.81" width="7.57" height="7.57"/><circle class="cls-5" cx="601.04" cy="143.59" r="3.78"/><rect class="cls-4" x="550.39" y="125.06" width="6.49" height="6.49"/><circle class="cls-5" cx="553.63" cy="128.3" r="3.25"/><g class="cls-3"><rect class="cls-4" x="591.05" y="515.76" width="6.21" height="6.21"/><circle class="cls-5" cx="594.15" cy="518.86" r="3.11"/></g><g class="cls-3"><rect class="cls-4" x="1055.61" y="53.17" width="7.36" height="7.36"/><circle class="cls-5" cx="1059.29" cy="56.85" r="3.68"/></g><g class="cls-3"><rect class="cls-4" x="744.67" y="81.29" width="5.33" height="5.33"/><circle class="cls-5" cx="747.33" cy="83.95" r="2.66"/></g><g class="cls-3"><rect class="cls-4" x="654.81" y="43.38" width="6.85" height="6.85"/><circle class="cls-5" cx="658.23" cy="46.8" r="3.43"/></g><rect class="cls-4" x="540.1" y="105.08" width="5.48" height="5.48"/><circle class="cls-5" cx="542.84" cy="107.82" r="2.74"/><rect class="cls-4" x="375.13" y="171.31" width="7.4" height="7.4"/><circle class="cls-5" cx="378.83" cy="175.01" r="3.7"/><rect class="cls-4" x="310.35" y="212.69" width="3.06" height="3.06"/><circle class="cls-5" cx="311.89" cy="214.22" r="1.53"/><rect class="cls-4" x="290.54" y="192.01" width="8.75" height="8.75"/><circle class="cls-5" cx="294.92" cy="196.39" r="4.38"/><rect class="cls-4" x="323.72" y="122.47" width="8.88" height="8.88"/><circle class="cls-5" cx="328.16" cy="126.92" r="4.44"/><rect class="cls-4" x="424.97" y="147.18" width="6.1" height="6.1"/><circle class="cls-5" cx="428.02" cy="150.23" r="3.05"/><rect class="cls-4" x="560.91" y="262.56" width="8.06" height="8.06"/><circle class="cls-5" cx="564.94" cy="266.59" r="4.03"/><rect class="cls-4" x="510.07" y="313.33" width="5.56" height="5.56"/><circle class="cls-5" cx="512.85" cy="316.11" r="2.78"/><g class="cls-3"><rect class="cls-4" x="672.3" y="109.52" width="5.53" height="5.53"/><circle class="cls-5" cx="675.07" cy="112.28" r="2.76"/></g><rect class="cls-4" x="496.76" y="118.75" width="3.56" height="3.56"/><circle class="cls-5" cx="498.54" cy="120.53" r="1.78"/><rect class="cls-4" x="577.97" y="202.15" width="8.52" height="8.52"/><circle class="cls-5" cx="582.23" cy="206.4" r="4.26"/><rect class="cls-4" x="607.63" y="202.11" width="8.81" height="8.81"/><circle class="cls-5" cx="612.04" cy="206.52" r="4.41"/><g class="cls-3"><rect class="cls-4" x="743.07" y="121.44" width="6.57" height="6.57"/><circle class="cls-5" cx="746.36" cy="124.73" r="3.29"/></g><rect class="cls-4" x="976.13" y="301.15" width="7.58" height="7.58"/><circle class="cls-5" cx="979.92" cy="304.94" r="3.79"/><rect class="cls-4" x="1025.58" y="208.73" width="5.01" height="5.01"/><circle class="cls-5" cx="1028.09" cy="211.24" r="2.51"/><rect class="cls-4" x="1041.93" y="277.1" width="6.67" height="6.67"/><circle class="cls-5" cx="1045.27" cy="280.44" r="3.34"/><rect class="cls-4" x="916.73" y="205.04" width="8.15" height="8.15"/><circle class="cls-5" cx="920.81" cy="209.12" r="4.08"/><g class="cls-3"><rect class="cls-4" x="1138.88" y="114.41" width="3.88" height="3.88"/><circle class="cls-5" cx="1140.82" cy="116.35" r="1.94"/></g><rect class="cls-4" x="1651.39" y="359.71" width="3.02" height="3.02"/><circle class="cls-5" cx="1652.9" cy="361.22" r="1.51"/><g class="cls-3"><rect class="cls-4" x="1643.79" y="116.44" width="8.39" height="8.39"/><circle class="cls-5" cx="1647.98" cy="120.64" r="4.19"/></g><g class="cls-3"><rect class="cls-4" x="1849.09" y="323.27" width="7.82" height="7.82"/><circle class="cls-5" cx="1853.01" cy="327.18" r="3.91"/></g><g class="cls-3"><rect class="cls-4" x="1861.29" y="347.51" width="4.95" height="4.95"/><circle class="cls-5" cx="1863.76" cy="349.98" r="2.47"/></g><g class="cls-3"><rect class="cls-4" x="1826.26" y="352.93" width="6.83" height="6.83"/><circle class="cls-5" cx="1829.68" cy="356.34" r="3.42"/></g><g class="cls-3"><rect class="cls-4" x="1740.7" y="380.89" width="8.65" height="8.65"/><circle class="cls-5" cx="1745.03" cy="385.22" r="4.32"/></g><g class="cls-3"><rect class="cls-4" x="1191.51" y="123.35" width="4.07" height="4.07"/><circle class="cls-5" cx="1193.55" cy="125.38" r="2.03"/></g><g class="cls-3"><rect class="cls-4" x="1335.1" y="107.15" width="5.4" height="5.4"/><circle class="cls-5" cx="1337.8" cy="109.85" r="2.7"/></g><rect class="cls-4" x="1015.82" y="133.02" width="6.72" height="6.72"/><circle class="cls-5" cx="1019.19" cy="136.39" r="3.36"/><g class="cls-3"><rect class="cls-4" x="1038.51" y="59.28" width="6.71" height="6.71"/><circle class="cls-5" cx="1041.87" cy="62.64" r="3.35"/></g><rect class="cls-4" x="948.95" y="89.27" width="7.79" height="7.79"/><circle class="cls-5" cx="952.84" cy="93.17" r="3.89"/><g class="cls-3"><rect class="cls-4" x="907.87" y="54.97" width="7.9" height="7.9"/><circle class="cls-5" cx="911.81" cy="58.92" r="3.95"/></g><rect class="cls-4" x="874.08" y="229.69" width="4.24" height="4.24"/><circle class="cls-5" cx="876.2" cy="231.81" r="2.12"/><rect class="cls-4" x="1003.33" y="243.24" width="4.19" height="4.19"/><circle class="cls-5" cx="1005.42" cy="245.34" r="2.1"/><g class="cls-3"><rect class="cls-4" x="1219.31" y="398.68" width="5.99" height="5.99"/><circle class="cls-5" cx="1222.3" cy="401.68" r="2.99"/></g><rect class="cls-4" x="594.01" y="214.77" width="5.14" height="5.14"/><circle class="cls-5" cx="596.58" cy="217.34" r="2.57"/><rect class="cls-4" x="584.34" y="119.78" width="6.52" height="6.52"/><circle class="cls-5" cx="587.61" cy="123.04" r="3.26"/><g class="cls-3"><rect class="cls-4" x="256.65" y="30.39" width="8.23" height="8.23"/><circle class="cls-5" cx="260.77" cy="34.5" r="4.11"/></g><g class="cls-3"><rect class="cls-4" x="180.05" y="112.25" width="8.06" height="8.06"/><circle class="cls-5" cx="184.08" cy="116.28" r="4.03"/></g><g class="cls-3"><rect class="cls-4" x="39.02" y="108.12" width="4.95" height="4.95"/><circle class="cls-5" cx="41.49" cy="110.6" r="2.48"/></g><rect class="cls-4" x="41.58" y="443.74" width="8.33" height="8.33"/><circle class="cls-5" cx="45.75" cy="447.9" r="4.17"/><g class="cls-3"><rect class="cls-4" x="341.11" y="552.78" width="4.52" height="4.52"/><circle class="cls-5" cx="343.37" cy="555.04" r="2.26"/></g><g class="cls-3"><rect class="cls-4" x="655.59" y="25.77" width="6.6" height="6.6"/><circle class="cls-5" cx="658.88" cy="29.07" r="3.3"/></g><g class="cls-3"><rect class="cls-4" x="282.61" y="48.17" width="7.36" height="7.36"/><circle class="cls-5" cx="286.29" cy="51.85" r="3.68"/></g><g class="cls-3"><rect class="cls-4" x="143.84" y="78.3" width="7.4" height="7.4"/><circle class="cls-5" cx="147.54" cy="82" r="3.7"/></g><rect class="cls-4" x="203.13" y="296.15" width="7.58" height="7.58"/><circle class="cls-5" cx="206.92" cy="299.94" r="3.79"/><rect class="cls-4" x="252.58" y="203.73" width="5.01" height="5.01"/><circle class="cls-5" cx="255.09" cy="206.24" r="2.51"/><rect class="cls-4" x="268.93" y="272.1" width="6.67" height="6.67"/><circle class="cls-5" cx="272.27" cy="275.44" r="3.34"/><g class="cls-3"><rect class="cls-4" x="143.73" y="200.04" width="8.15" height="8.15"/><circle class="cls-5" cx="147.81" cy="204.12" r="4.08"/></g><rect class="cls-4" x="216.14" y="287.9" width="5.89" height="5.89"/><circle class="cls-5" cx="219.08" cy="290.85" r="2.95"/><rect class="cls-4" x="365.88" y="109.41" width="3.88" height="3.88"/><circle class="cls-5" cx="367.82" cy="111.35" r="1.94"/><g class="cls-3"><rect class="cls-4" x="393.6" y="26.71" width="8.29" height="8.29"/><circle class="cls-5" cx="397.74" cy="30.85" r="4.14"/></g><rect class="cls-4" x="385.39" y="164.82" width="8.43" height="8.43"/><circle class="cls-5" cx="389.61" cy="169.03" r="4.22"/><rect class="cls-4" x="481.13" y="199.68" width="5.17" height="5.17"/><circle class="cls-5" cx="483.71" cy="202.26" r="2.58"/><rect class="cls-4" x="499.73" y="211.75" width="8.14" height="8.14"/><circle class="cls-5" cx="503.8" cy="215.83" r="4.07"/><rect class="cls-4" x="501.21" y="252.14" width="4.2" height="4.2"/><circle class="cls-5" cx="503.31" cy="254.24" r="2.1"/><rect class="cls-4" x="516.09" y="222" width="4.13" height="4.13"/><circle class="cls-5" cx="518.15" cy="224.07" r="2.07"/><rect class="cls-4" x="862.46" y="187.06" width="7.34" height="7.34"/><circle class="cls-5" cx="866.13" cy="190.73" r="3.67"/><g class="cls-3"><rect class="cls-4" x="815.76" y="152.49" width="4.49" height="4.49"/><circle class="cls-5" cx="818.01" cy="154.73" r="2.25"/></g><g class="cls-3"><rect class="cls-4" x="781.49" y="248.83" width="5.17" height="5.17"/><circle class="cls-5" cx="784.07" cy="251.42" r="2.58"/></g><rect class="cls-4" x="825.87" y="267.6" width="8.2" height="8.2"/><circle class="cls-5" cx="829.97" cy="271.7" r="4.1"/><rect class="cls-4" x="878.39" y="354.71" width="3.02" height="3.02"/><circle class="cls-5" cx="879.9" cy="356.22" r="1.51"/><rect class="cls-4" x="1076.09" y="318.27" width="7.82" height="7.82"/><circle class="cls-5" cx="1080.01" cy="322.18" r="3.91"/><rect class="cls-4" x="1088.29" y="342.51" width="4.95" height="4.95"/><circle class="cls-5" cx="1090.76" cy="344.98" r="2.47"/><g class="cls-3"><rect class="cls-4" x="1135.77" y="332.46" width="5.98" height="5.98"/><circle class="cls-5" cx="1138.76" cy="335.45" r="2.99"/></g><rect class="cls-4" x="1053.26" y="347.93" width="6.83" height="6.83"/><circle class="cls-5" cx="1056.68" cy="351.34" r="3.42"/><g class="cls-3"><rect class="cls-4" x="1109.7" y="361.89" width="8.65" height="8.65"/><circle class="cls-5" cx="1114.03" cy="366.22" r="4.32"/></g><g class="cls-3"><rect class="cls-4" x="1152.21" y="417.58" width="7.4" height="7.4"/><circle class="cls-5" cx="1155.91" cy="421.28" r="3.7"/></g><g class="cls-3"><rect class="cls-4" x="1176.32" y="385.16" width="6.06" height="6.06"/><circle class="cls-5" cx="1179.35" cy="388.19" r="3.03"/></g><g class="cls-3"><rect class="cls-4" x="1155.7" y="332.29" width="4.93" height="4.93"/><circle class="cls-5" cx="1158.16" cy="334.76" r="2.46"/></g><g class="cls-3"><rect class="cls-4" x="1129.82" y="423.7" width="3.29" height="3.29"/><circle class="cls-5" cx="1131.47" cy="425.34" r="1.65"/></g><g class="cls-3"><rect class="cls-4" x="1203.01" y="450.39" width="6.43" height="6.43"/><circle class="cls-5" cx="1206.22" cy="453.6" r="3.21"/></g><rect class="cls-4" x="1479.14" y="349.9" width="5.89" height="5.89"/><circle class="cls-5" cx="1482.08" cy="352.85" r="2.95"/><rect class="cls-4" x="1493.33" y="300.24" width="4.19" height="4.19"/><circle class="cls-5" cx="1495.42" cy="302.34" r="2.1"/><rect class="cls-4" x="1539.96" y="329.51" width="7.92" height="7.92"/><circle class="cls-5" cx="1543.92" cy="333.47" r="3.96"/><g class="cls-3"><rect class="cls-4" x="1625.77" y="389.46" width="5.98" height="5.98"/><circle class="cls-5" cx="1628.76" cy="392.45" r="2.99"/></g><g class="cls-3"><rect class="cls-4" x="1642.21" y="474.58" width="7.4" height="7.4"/><circle class="cls-5" cx="1645.91" cy="478.28" r="3.7"/></g><g class="cls-3"><rect class="cls-4" x="1400.31" y="348.68" width="5.99" height="5.99"/><circle class="cls-5" cx="1403.3" cy="351.68" r="2.99"/></g><g class="cls-3"><rect class="cls-4" x="1333.21" y="367.58" width="7.4" height="7.4"/><circle class="cls-5" cx="1336.91" cy="371.28" r="3.7"/></g><g class="cls-3"><rect class="cls-4" x="1384.01" y="400.39" width="6.43" height="6.43"/><circle class="cls-5" cx="1387.22" cy="403.6" r="3.21"/></g><g class="cls-3"><rect class="cls-4" x="1555.7" y="11.29" width="4.93" height="4.93"/><circle class="cls-5" cx="1558.16" cy="13.76" r="2.46"/></g><g class="cls-3"><rect class="cls-4" x="1400.26" y="21.93" width="6.83" height="6.83"/><circle class="cls-5" cx="1403.68" cy="25.34" r="3.42"/></g><g class="cls-3"><rect class="cls-4" x="1282.32" y="272.16" width="6.06" height="6.06"/><circle class="cls-5" cx="1285.35" cy="275.19" r="3.03"/></g><rect class="cls-4" x="1889.13" y="220.15" width="7.58" height="7.58"/><circle class="cls-5" cx="1892.92" cy="223.94" r="3.79"/><rect class="cls-4" x="48.87" y="46.6" width="8.2" height="8.2"/><circle class="cls-5" cx="52.97" cy="50.7" r="4.1"/><rect class="cls-4" x="1725.96" y="287.51" width="7.92" height="7.92"/><circle class="cls-5" cx="1729.92" cy="291.47" r="3.96"/><g class="cls-3"><rect class="cls-4" x="730.31" y="323.68" width="5.99" height="5.99"/><circle class="cls-5" cx="733.3" cy="326.68" r="2.99"/></g><g class="cls-3"><rect class="cls-4" x="663.21" y="342.58" width="7.4" height="7.4"/><circle class="cls-5" cx="666.91" cy="346.28" r="3.7"/></g><g class="cls-3"><rect class="cls-4" x="714.01" y="375.39" width="6.43" height="6.43"/><circle class="cls-5" cx="717.22" cy="378.6" r="3.21"/></g></g><g id="Layer_2" data-name="Layer 2"><path class="cls-6" d="M1672.4,739s32.77,9,33-107.17l9.69-.13s-7.6,106.63,29.93,106.71Z"/><circle class="cls-7" cx="1675.88" cy="602.39" r="19.88"/><ellipse class="cls-8" cx="1708.58" cy="586.37" rx="24.36" ry="34.62"/><ellipse class="cls-9" cx="1708.58" cy="625.48" rx="25.65" ry="21.16"/><circle class="cls-9" cx="1741.92" cy="597.91" r="23.08"/><circle class="cls-7" cx="1733.58" cy="571.62" r="14.75"/><circle class="cls-7" cx="1734.86" cy="620.35" r="9.62"/><circle class="cls-9" cx="1682.29" cy="575.47" r="16.03"/><path class="cls-6" d="M1789.41,736.9s44.8,12.36,45.08-146.48l13.23-.19S1837.34,736,1888.63,736.1Z"/><circle class="cls-7" cx="1794.17" cy="550.24" r="27.17"/><ellipse class="cls-8" cx="1838.86" cy="528.33" rx="33.3" ry="47.33"/><ellipse class="cls-9" cx="1838.86" cy="581.79" rx="35.06" ry="28.92"/><circle class="cls-9" cx="1884.44" cy="544.1" r="31.55"/><circle class="cls-7" cx="1873.04" cy="508.17" r="20.16"/><circle class="cls-7" cx="1874.8" cy="574.77" r="13.15"/><circle class="cls-9" cx="1802.93" cy="513.43" r="21.91"/><path class="cls-6" d="M825.42,746.87s50.82,14,51.13-166.16l15-.21S879.78,745.83,938,746Z"/><circle class="cls-7" cx="830.82" cy="535.13" r="30.82"/><ellipse class="cls-8" cx="881.52" cy="510.28" rx="37.78" ry="53.68"/><ellipse class="cls-9" cx="881.52" cy="570.92" rx="39.76" ry="32.81"/><circle class="cls-9" cx="933.21" cy="528.17" r="35.79"/><circle class="cls-7" cx="920.29" cy="487.41" r="22.86"/><circle class="cls-7" cx="922.28" cy="562.97" r="14.91"/><circle class="cls-9" cx="840.76" cy="493.38" r="24.85"/><path class="cls-6" d="M688.89,740.9s43.75,12.08,44-143l12.92-.18S735.69,740,785.78,740.12Z"/><circle class="cls-7" cx="693.53" cy="558.61" r="26.53"/><ellipse class="cls-8" cx="737.18" cy="537.22" rx="32.52" ry="46.22"/><ellipse class="cls-9" cx="737.18" cy="589.42" rx="34.23" ry="28.24"/><circle class="cls-9" cx="781.69" cy="552.62" r="30.81"/><circle class="cls-7" cx="770.56" cy="517.53" r="19.68"/><circle class="cls-7" cx="772.27" cy="582.58" r="12.84"/><circle class="cls-9" cx="702.09" cy="522.67" r="21.4"/></g><g id="Layer_5" data-name="Layer 5"><rect class="cls-10" x="-1" y="725" width="1920" height="355"/><rect class="cls-11" x="1732" y="891" width="169" height="24"/><rect class="cls-11" x="1444" y="890" width="169" height="24"/><rect class="cls-11" x="1161" y="890" width="169" height="24"/><rect class="cls-11" x="880" y="890" width="169" height="24"/><rect class="cls-11" x="599" y="890" width="169" height="24"/><rect class="cls-11" x="308" y="890" width="169" height="24"/><rect class="cls-11" x="31" y="890" width="169" height="24"/><rect class="cls-12" x="256.53" y="81" width="393.75" height="645"/><rect class="cls-13" x="286" y="106" width="61" height="34.16"/><rect class="cls-14" x="365" y="106" width="61" height="34.16"/><rect class="cls-15" x="446" y="106" width="61" height="34.16"/><rect class="cls-16" x="527" y="106" width="61" height="34.16"/><rect class="cls-17" x="286" y="157" width="61" height="34.16"/><rect class="cls-18" x="365" y="157" width="61" height="34.16"/><rect class="cls-19" x="446" y="157" width="61" height="34.16"/><rect class="cls-20" x="527" y="157" width="61" height="34.16"/><rect class="cls-21" x="286" y="207" width="61" height="34.16"/><rect class="cls-22" x="365" y="207" width="61" height="34.16"/><rect class="cls-23" x="446" y="207" width="61" height="34.16"/><rect class="cls-24" x="527" y="207" width="61" height="34.16"/><rect class="cls-25" x="286" y="257" width="61" height="34.16"/><rect class="cls-26" x="365" y="257" width="61" height="34.16"/><rect class="cls-27" x="446" y="257" width="61" height="34.16"/><rect class="cls-28" x="527" y="257" width="61" height="34.16"/><rect class="cls-29" x="24" y="210" width="315" height="516"/><rect class="cls-30" x="53" y="233" width="75" height="42"/><rect class="cls-31" x="146" y="233" width="75" height="42"/><rect class="cls-32" x="240" y="233" width="75" height="42"/><rect class="cls-33" x="52" y="297" width="75" height="42"/><rect class="cls-34" x="145" y="297" width="75" height="42"/><rect class="cls-35" x="239" y="297" width="75" height="42"/><rect class="cls-36" x="51" y="357" width="75" height="42"/><rect class="cls-37" x="144" y="357" width="75" height="42"/><rect class="cls-38" x="238" y="357" width="75" height="42"/><circle cx="337.29" cy="1037.56" r="17.44"/><circle cx="158.85" cy="1029.51" r="17.44"/><path class="cls-39" d="M418.92,1024.59c-.06-2.15,3.19-21.3-19.93-44.26-11.65-11.88-30.15-26-59.11-39.15-28.88-12.75-68.22-24.63-119.76-21.74-9.19,11.06-17.93,21.17-26.3,32.36-37.66-4.93-75.24-7.56-113-1.42.11-2-16.42,14.78-22.41,31.36-6.29,17.43-2,34.64,32.73,53.24,14.37-1.53,28.84-3.4,43.37-5-.34-1,9.25-21.28,23-21.66,6.62-.19,14.19,2.2,22.07,17.55,44.88-.26,89.92,2.79,135.34,4.23-.33-.1,10.55-13.43,23.72-13.47,6.77,0,14.15,5.44,20.92,13.92A398.67,398.67,0,0,0,418.92,1024.59Z"/><path class="cls-40" d="M225.93,931.57l-21.47,33.54,155.64,4S346.68,949,299.72,938.27Z"/><circle cx="1052.26" cy="1027.36" r="19.95"/><circle cx="932.56" cy="1027.36" r="19.95"/><path class="cls-41" d="M1141.77,1019.73c-.63-.19,30.09-123-13-157.88-40.86-37.66-189.42-85.26-277,7.65-21.2,49.17-1.64,156.35-2,156.32h50.48c-.52-.37,28.59-53.29,64.91,0h56.26c-.44-.5,22-48,60.82-4.29C1102.12,1021.05,1121.94,1020.51,1141.77,1019.73Z"/><path class="cls-42" d="M1131.78,863.36c-93.76,7.25-187-2.36-279.86,6.14-.12-.26-14,41-8.7,63.88,102.2-15.61,205.13,4,308.78-11.47C1152,921.88,1148.38,877,1131.78,863.36Z"/><path class="cls-43" d="M1064,878.05c17.86.4,35.71.45,53.57-.11,10.85-.32,19,7.92,18.19,18.55h0c-.85,10.65-10.19,20-20.77,20.41-17.48.7-35,.63-52.43.14a19.58,19.58,0,0,1-18.77-20h0A19.67,19.67,0,0,1,1064,878.05Z"/><path class="cls-43" d="M974.24,877.54c11.54.52,23.09,1.09,34.63,1.63a20.22,20.22,0,0,1,19.32,20.28h0a18.47,18.47,0,0,1-19.61,18.22c-11.3-.65-22.6-1.35-33.9-2-10.57-.6-19.43-9.64-19.69-20.07h0C954.73,885.18,963.4,877.06,974.24,877.54Z"/><path class="cls-43" d="M883.27,877.08c11.53-.16,23.05-.08,34.58.15,10.82.22,19.91,9,20.19,19.42h0a17.9,17.9,0,0,1-18.67,18.41c-11.28-.29-22.56-.38-33.84-.19-10.55.17-19.8-8-20.56-18.43h0C864.21,886,872.45,877.21,883.27,877.08Z"/><path class="cls-4" d="M991.82,977.19v23a26.83,26.83,0,0,0,16.72-6.28Z"/><path class="cls-4" d="M989.58,1000.15v-22.6l-16,16A26.83,26.83,0,0,0,989.58,1000.15Z"/><path class="cls-4" d="M989.58,975V946.38a26.93,26.93,0,0,0-17.36,45.93Z"/><path class="cls-4" d="M991.82,946.34V974.6l18.08,18.08a26.91,26.91,0,0,0-18.08-46.34Z"/><path d="M991.26,943a30.31,30.31,0,1,0,30.31,30.31A30.34,30.34,0,0,0,991.26,943Zm.56,34.23,16.72,16.72a26.83,26.83,0,0,1-16.72,6.28Zm-2.24,23a26.83,26.83,0,0,1-16-6.6l16-16Zm-25.26-26.88a27,27,0,0,1,25.26-26.89V975l-17.36,17.36A26.86,26.86,0,0,1,964.32,973.27Zm45.58,19.41L991.82,974.6V946.34a26.91,26.91,0,0,1,18.08,46.34Z"/><path class="cls-44" d="M320.45,773.85,407,771.23c0-.13-2.2-38.58,26.79-38.15s31,14.42,36.59,26.26,72.67.45,72.8.8c0,0,7.81-22.85,24.21-24.35s30.18,8.59,32.71,21.5c2.42,13.12,81.68-4.21,82-5,1.12-27.62,2.11-54.67,3-82.1a524.64,524.64,0,0,1-52.69,4C612.75,646.61,592,615.05,570,583c-44.25-3.53-88.65-7-133.19-10a989.05,989.05,0,0,0-47.06,93.78c-26.91,0-53.82,1.58-80.73,5.73Q314.75,723.25,320.45,773.85Z"/><circle cx="571.96" cy="764.64" r="24.42"/><circle cx="438.57" cy="762.76" r="24.42"/><polyline class="cls-40" points="412.27 668.83 446.09 588.05 496.81 591.8 496.81 668.83"/><polyline class="cls-40" points="515.6 593.68 515.6 668.83 600.14 668.83 564.45 595.56"/><rect class="cls-45" x="312.71" y="689.49" width="46.26" height="7.51"/><rect class="cls-45" x="358.97" y="697.01" width="46.26" height="7.51"/><rect class="cls-45" x="405.23" y="689.49" width="46.26" height="7.51"/><rect class="cls-45" x="451.49" y="697.01" width="46.26" height="7.51"/><rect class="cls-45" x="497.75" y="689.49" width="46.26" height="7.51"/><rect class="cls-45" x="544.01" y="697.01" width="46.26" height="7.51"/><rect class="cls-45" x="590.28" y="689.49" width="46.26" height="7.51"/><rect class="cls-45" x="636.54" y="697.01" width="46.26" height="7.51"/><rect x="312.71" y="697.01" width="46.26" height="7.51"/><rect x="358.97" y="689.49" width="46.26" height="7.51"/><rect x="405.23" y="697.01" width="46.26" height="7.51"/><rect x="451.49" y="689.49" width="46.26" height="7.51"/><rect x="497.75" y="697.01" width="46.26" height="7.51"/><rect x="544.01" y="689.49" width="46.26" height="7.51"/><rect x="590.28" y="697.01" width="46.26" height="7.51"/><rect x="636.54" y="689.49" width="46.26" height="7.51"/><rect class="cls-39" x="476.97" y="557.69" width="59.23" height="20.6" transform="translate(36.4 -30.48) rotate(3.57)"/><path d="M492.73,560.25a1.16,1.16,0,0,1,.58.44.81.81,0,0,1-.14,1.1,1.22,1.22,0,0,1-.69.28l-3.49-.19-.66,10.92a1.07,1.07,0,0,1-.35.76.86.86,0,0,1-.63.21.85.85,0,0,1-.57-.27,1.08,1.08,0,0,1-.29-.75l.66-11-3.53-.22a1.13,1.13,0,0,1-.68-.41.8.8,0,0,1-.18-.61.9.9,0,0,1,.32-.58,1,1,0,0,1,.79-.22l.95.06,1.58.09,1.9.12,1.9.12,1.58.09Z"/><path d="M505,573.69a1.23,1.23,0,0,1-.27.68.79.79,0,0,1-.51.29.84.84,0,0,1-.57-.14,1.18,1.18,0,0,1-.46-.57,20.9,20.9,0,0,0-.25-2.09c-.13-.69-.28-1.38-.46-2.06l-5.93-.33h-.1l-.1,0c-.46,1.24-.87,2.54-1.26,3.87a1.06,1.06,0,0,1-.55.6.89.89,0,0,1-.64,0,.87.87,0,0,1-.47-.44,1.15,1.15,0,0,1-.05-.81,64.55,64.55,0,0,1,2.18-6.23,39.8,39.8,0,0,1,3-5.9.79.79,0,0,1,.66-.49.84.84,0,0,1,.47,0,.85.85,0,0,1,.37.24h0s0,0,0,0a10.62,10.62,0,0,1,1.79,2.66c.47,1,.88,1.95,1.26,2.95.14.35.27.71.39,1.06s.24.7.35,1l1.19.06a1.13,1.13,0,0,1,.6.44.91.91,0,0,1,.16.56.88.88,0,0,1-.27.52,1.23,1.23,0,0,1-.67.31l-.47,0c.15.62.28,1.25.39,1.87A17.34,17.34,0,0,1,505,573.69Zm-5.5-11.16c-.47.83-.91,1.67-1.32,2.53s-.78,1.72-1.14,2.6l4.88.26c-.16-.46-.33-.91-.51-1.36s-.35-.89-.53-1.33l-.63-1.37A10.28,10.28,0,0,0,499.49,562.53Z"/><path d="M518,561.6a1.13,1.13,0,0,1,.76-.24.83.83,0,0,1,.59.28.84.84,0,0,1,.2.64,1.19,1.19,0,0,1-.14.49,30.6,30.6,0,0,1-2.14,2.74c-.73.84-1.51,1.7-2.33,2.6.69,1,1.37,2,2.05,3a21,21,0,0,1,1.75,3.13,1.09,1.09,0,0,1,0,.4.89.89,0,0,1-.28.64.87.87,0,0,1-.62.21,1.1,1.1,0,0,1-.76-.41,20.56,20.56,0,0,0-1.59-2.86c-.61-.93-1.23-1.83-1.86-2.73-.82.88-1.65,1.74-2.49,2.59l-2.51,2.56a1.19,1.19,0,0,1-.66.16.81.81,0,0,1-.6-.27.86.86,0,0,1-.2-.63,1.36,1.36,0,0,1,.25-.64c.86-.89,1.72-1.77,2.58-2.63s1.7-1.76,2.55-2.66c-.65-1-1.32-1.93-2-2.84a23.15,23.15,0,0,0-2.3-2.6,1,1,0,0,1-.25-.41,1.18,1.18,0,0,1-.06-.4.89.89,0,0,1,.28-.59.79.79,0,0,1,.63-.2,1.07,1.07,0,0,1,.68.29,27.34,27.34,0,0,1,2.28,2.58c.7.89,1.37,1.82,2,2.79l2.15-2.41A26.09,26.09,0,0,0,518,561.6Z"/><path d="M525.79,573.82a1,1,0,0,1,.76.27,1,1,0,0,1,.29.58.88.88,0,0,1-.21.6,1.07,1.07,0,0,1-.73.37c-.78,0-1.55,0-2.32-.11s-1.54-.11-2.32-.15a1.1,1.1,0,0,1-.7-.4.84.84,0,0,1-.19-.61.91.91,0,0,1,.31-.58,1,1,0,0,1,.77-.24l.66,0,.66.06.61-9.78-1.41-.09a1.08,1.08,0,0,1-.71-.39.91.91,0,0,1-.19-.62,1,1,0,0,1,.31-.58,1.08,1.08,0,0,1,.77-.24l4.61.29a1.18,1.18,0,0,1,.6.44.86.86,0,0,1,.16.56.85.85,0,0,1-.27.52,1.11,1.11,0,0,1-.67.31l-1.37-.09-.61,9.81.58,0Z"/><circle cx="1360.46" cy="771.52" r="20.88"/><circle cx="1509.25" cy="776.74" r="20.88"/><path class="cls-40" d="M1608.19,771.52,1630,573.14H1333.94a973,973,0,0,0-63.29,88.19q-11.82.74-23.65,1.86,6.16,56.13,12.34,112.25c23.57-1.31,47.21-2.79,70.9-4.19-.52-.36,23.66-54.79,62.69-1.24q46.14-.46,92.36-.79c-.3-.18,21.68-36.87,48.12-1.09C1558.4,769.36,1583.33,770.42,1608.19,771.52Z"/><polygon points="1299.12 657.97 1346.11 590.11 1369.6 590.11 1364.38 657.97 1299.12 657.97"/><path d="M1413.17,607.33a1.39,1.39,0,0,1-.39,1,1.14,1.14,0,0,1-.79.33,1.21,1.21,0,0,1-.78-.32,1.46,1.46,0,0,1-.46-1q0-3.75,0-7.44t0-7.7a1.64,1.64,0,0,1,.46-.87,1,1,0,0,1,.72-.29,1.15,1.15,0,0,1,.71.26,1.47,1.47,0,0,1,.47.81c0,1.1,0,2.15,0,3.14s0,2.06,0,3.18a10.4,10.4,0,0,0,2.18-1.24,12.38,12.38,0,0,0,1.69-1.55c.52-.56,1-1.19,1.56-1.87s1.11-1.42,1.78-2.21a1.51,1.51,0,0,1,1-.37,1.09,1.09,0,0,1,.78.31,1.12,1.12,0,0,1,.31.81,2,2,0,0,1-.14.64q-.87,1-1.56,1.89c-.46.58-.91,1.14-1.35,1.65s-.89,1-1.35,1.46a12.12,12.12,0,0,1-1.48,1.26l3.37,3.59c1.12,1.18,2.23,2.38,3.35,3.59a1.43,1.43,0,0,1,.32.89,1.06,1.06,0,0,1-1.1,1.1,1.39,1.39,0,0,1-.5-.1,1.26,1.26,0,0,1-.51-.36q-.2-.24-.75-.81l-1.25-1.34-1.5-1.62-1.5-1.61c-.47-.51-.89-1-1.26-1.34l-.75-.81c-.36.17-.81.36-1.32.55,0,1.11,0,2.17,0,3.18S1413.13,606.24,1413.17,607.33Z"/><path d="M1436.45,606.21a1.52,1.52,0,0,1,.8.52,1,1,0,0,1,.25.7,1.17,1.17,0,0,1-.3.7,1.54,1.54,0,0,1-.84.44c-1.48,0-2.95.07-4.41.07s-2.93,0-4.39.08a1.26,1.26,0,0,1-1.24-1.24q0-3.81,0-7.59t0-7.61a1.48,1.48,0,0,1,.45-.84,1.12,1.12,0,0,1,.69-.3,1.11,1.11,0,0,1,.71.24,1.61,1.61,0,0,1,.52.81q0,3.57,0,7.08t0,7.08c1.29,0,2.57-.06,3.86-.07S1435.14,606.25,1436.45,606.21Z"/><path d="M1454.5,601a15.86,15.86,0,0,1-.73,2.13,14.42,14.42,0,0,1-1.13,2.13,10.29,10.29,0,0,1-1.5,1.85,6,6,0,0,1-1.86,1.27l-.81.3a6.12,6.12,0,0,1-.69.22l-.73.16c-.26,0-.56.08-.88.1H1446l-.17,0a5.21,5.21,0,0,1-1.53-.25l-1.47-.47a5.51,5.51,0,0,1-2-1.24,6.64,6.64,0,0,1-1.31-1.84,8,8,0,0,1-.72-2.17,12,12,0,0,1-.22-2.31c0-.29,0-.57,0-.85s0-.55.09-.82a11.36,11.36,0,0,1,.5-2,13.33,13.33,0,0,1,.91-2.1,11.17,11.17,0,0,1,1.25-1.88,6.76,6.76,0,0,1,1.52-1.39,7.83,7.83,0,0,1,2.16-1,8.49,8.49,0,0,1,2.34-.34,7.69,7.69,0,0,1,3.69.93,6.61,6.61,0,0,1,2.74,2.82,6.88,6.88,0,0,1,.69,1.95,10.2,10.2,0,0,1,.2,2.06c0,.45,0,.89,0,1.35S1454.58,600.57,1454.5,601Zm-2.3-.29c0-.39.11-.78.15-1.17a9.42,9.42,0,0,0,.08-1.2,8.09,8.09,0,0,0-.15-1.53,4.43,4.43,0,0,0-.52-1.44,4.48,4.48,0,0,0-1.93-1.9,5.7,5.7,0,0,0-2.65-.67,4.85,4.85,0,0,0-3,1,6.63,6.63,0,0,0-1.42,1.47,9.27,9.27,0,0,0-1,1.84,11.44,11.44,0,0,0-.64,2,9.67,9.67,0,0,0-.21,1.95,8,8,0,0,0,.3,2.2,5.16,5.16,0,0,0,1,1.85,4.9,4.9,0,0,0,3.94,1.77,4.75,4.75,0,0,0,1.11-.14,3.89,3.89,0,0,0,1-.41,6.13,6.13,0,0,0,1.49-1.12,9.25,9.25,0,0,0,1.14-1.44,10.72,10.72,0,0,0,.83-1.66,13.78,13.78,0,0,0,.58-1.75Z"/><path d="M1471.38,607.53a1.63,1.63,0,0,1-.29.9,1.07,1.07,0,0,1-.64.42,1.18,1.18,0,0,1-.75-.13,1.61,1.61,0,0,1-.63-.7,26,26,0,0,0-.49-2.66q-.32-1.32-.75-2.61l-7.65,0h-.13l-.13,0q-.72,2.46-1.29,5.08a1.39,1.39,0,0,1-.67.81,1.19,1.19,0,0,1-.82.09,1.14,1.14,0,0,1-.63-.52,1.41,1.41,0,0,1-.13-1,84.32,84.32,0,0,1,2.29-8.18,51.25,51.25,0,0,1,3.36-7.8,1,1,0,0,1,.81-.69,1,1,0,0,1,.6,0,1,1,0,0,1,.49.28h0s0,0,0,0a13.51,13.51,0,0,1,2.51,3.26c.67,1.21,1.29,2.44,1.85,3.69.21.44.41.88.59,1.32s.36.89.53,1.33l1.53,0a1.61,1.61,0,0,1,.81.52,1.11,1.11,0,0,1,.24.71,1.12,1.12,0,0,1-.3.69,1.48,1.48,0,0,1-.84.45h-.6c.25.79.46,1.58.65,2.38A24.16,24.16,0,0,1,1471.38,607.53Zm-8-13.87c-.54,1.1-1,2.21-1.49,3.35s-.87,2.28-1.26,3.43l6.29-.06c-.25-.58-.5-1.14-.76-1.7s-.53-1.12-.8-1.67l-.92-1.71A12.39,12.39,0,0,0,1463.42,593.66Z"/><path d="M1476.13,607.33a1.39,1.39,0,0,1-.39,1,1.14,1.14,0,0,1-.79.33,1.21,1.21,0,0,1-.78-.32,1.46,1.46,0,0,1-.46-1q0-3.75,0-7.44t0-7.7a1.71,1.71,0,0,1,.46-.87,1,1,0,0,1,.72-.29,1.15,1.15,0,0,1,.71.26,1.54,1.54,0,0,1,.48.81c0,1.1,0,2.15,0,3.14s0,2.06,0,3.18a10.57,10.57,0,0,0,2.17-1.24,12.38,12.38,0,0,0,1.69-1.55c.52-.56,1-1.19,1.56-1.87s1.11-1.42,1.79-2.21a1.46,1.46,0,0,1,1-.37,1.06,1.06,0,0,1,.78.31,1.13,1.13,0,0,1,.32.81,1.77,1.77,0,0,1-.15.64c-.58.67-1.09,1.3-1.56,1.89s-.91,1.14-1.35,1.65-.89,1-1.34,1.46a13,13,0,0,1-1.49,1.26l3.38,3.59c1.11,1.18,2.23,2.38,3.34,3.59a1.43,1.43,0,0,1,.32.89,1.06,1.06,0,0,1-1.1,1.1,1.39,1.39,0,0,1-.5-.1,1.41,1.41,0,0,1-.51-.36q-.19-.24-.75-.81l-1.25-1.34-1.5-1.62-1.5-1.61c-.47-.51-.89-1-1.26-1.34l-.75-.81c-.36.17-.8.36-1.32.55q0,1.66,0,3.18C1476.07,605.18,1476.09,606.24,1476.13,607.33Z"/><path d="M1487.12,603.84a1.45,1.45,0,0,1-.93-.43,1.09,1.09,0,0,1-.31-.75,1.22,1.22,0,0,1,.33-.79,1.25,1.25,0,0,1,1-.39h1.46l2.39,0h3.85a1.44,1.44,0,0,1,.81.47,1.17,1.17,0,0,1,.26.71,1,1,0,0,1-.29.72,1.64,1.64,0,0,1-.87.46l-3.85,0Z"/><path d="M1518,607.62a1.39,1.39,0,0,1-.39,1,1.14,1.14,0,0,1-.79.33,1.13,1.13,0,0,1-.76-.31,1.31,1.31,0,0,1-.42-.93c-.1-.93-.22-1.9-.36-2.93s-.31-2.07-.49-3.12-.39-2.08-.61-3.1-.46-2-.71-2.85c-.36.88-.73,1.81-1.09,2.78s-.74,2-1.11,2.94-.75,2-1.11,3-.74,1.91-1.13,2.8a1.32,1.32,0,0,1-1,.55,1.57,1.57,0,0,1-1-.46l-5.71-11.17c-.1.93-.19,1.9-.29,2.92s-.19,2-.27,3.08-.18,2.07-.27,3.09-.2,2-.29,2.91a1.64,1.64,0,0,1-.52.72,1.08,1.08,0,0,1-1.42-.08,1.41,1.41,0,0,1-.4-.93c.12-1.23.24-2.5.36-3.82s.25-2.64.38-4,.25-2.67.37-4,.25-2.61.36-3.84a1.46,1.46,0,0,1,.45-.81,1.09,1.09,0,0,1,.73-.29,1.28,1.28,0,0,1,1.07.64c.52.94,1,1.93,1.56,3s1,2.06,1.56,3.11,1,2.09,1.57,3.12,1,2,1.57,3c.38-.94.77-1.93,1.17-3s.79-2.07,1.18-3.12.79-2.09,1.18-3.13.8-2,1.2-3a1.63,1.63,0,0,1,.52-.55,1.19,1.19,0,0,1,.6-.17,1.09,1.09,0,0,1,.68.26,1.44,1.44,0,0,1,.48.75c.34,1.21.68,2.47,1,3.78s.62,2.63.9,4,.52,2.68.73,4S1517.9,606.37,1518,607.62Z"/><path d="M1534.46,607.53a1.72,1.72,0,0,1-.29.9,1.07,1.07,0,0,1-.64.42,1.18,1.18,0,0,1-.75-.13,1.61,1.61,0,0,1-.63-.7,26,26,0,0,0-.49-2.66q-.33-1.32-.75-2.61l-7.65,0h-.13l-.13,0q-.72,2.46-1.29,5.08a1.39,1.39,0,0,1-.67.81,1.19,1.19,0,0,1-.82.09,1.14,1.14,0,0,1-.63-.52,1.41,1.41,0,0,1-.13-1,84.32,84.32,0,0,1,2.29-8.18,51.25,51.25,0,0,1,3.36-7.8,1,1,0,0,1,.81-.69,1,1,0,0,1,.6,0,1,1,0,0,1,.49.28h0s0,0,0,0a13.51,13.51,0,0,1,2.51,3.26c.67,1.21,1.29,2.44,1.85,3.69.21.44.4.88.59,1.32s.36.89.53,1.33l1.53,0a1.65,1.65,0,0,1,.81.52,1.11,1.11,0,0,1,.24.71,1.12,1.12,0,0,1-.3.69,1.48,1.48,0,0,1-.84.45h-.6c.25.79.46,1.58.65,2.38A24.16,24.16,0,0,1,1534.46,607.53Zm-8-13.87c-.53,1.1-1,2.21-1.48,3.35s-.87,2.28-1.26,3.43l6.29-.06c-.25-.58-.5-1.14-.76-1.7s-.53-1.12-.8-1.67l-.92-1.71A11.53,11.53,0,0,0,1526.49,593.66Z"/><path d="M1548.76,591.58a1.65,1.65,0,0,1,.46-.86,1,1,0,0,1,.72-.29,1.15,1.15,0,0,1,.71.26,1.4,1.4,0,0,1,.47.81c0,2.75,0,5.41,0,8s-.14,5.24-.29,8l0,0h0a1.12,1.12,0,0,0,0,.24V608a1.5,1.5,0,0,1-.48.69,1.05,1.05,0,0,1-.65.23,1.38,1.38,0,0,1-1-.46.75.75,0,0,0-.11-.2l-.12-.18h0v0q-1-1.77-2.13-3.36t-2.25-3.15c-.77-1-1.55-2-2.35-3.06l-2.47-3.1v5.84c0,1,0,2,0,3.05s0,2.2,0,3.43a1.37,1.37,0,0,1-.39,1,1.11,1.11,0,0,1-.79.34,1.09,1.09,0,0,1-.75-.31,1.41,1.41,0,0,1-.43-.93q0-3.9,0-7.89c0-2.67,0-5.29,0-7.89a1.44,1.44,0,0,1,.43-.81,1,1,0,0,1,.72-.29,1.59,1.59,0,0,1,.87.32l2.59,3.1c.85,1,1.68,2,2.5,3s1.61,2.07,2.38,3.13,1.52,2.18,2.25,3.33c.07-2.11.13-4.14.16-6.08S1548.76,593.72,1548.76,591.58Z"/><path d="M1556.4,609a1.66,1.66,0,0,1-.72-.24,1.23,1.23,0,0,1-.43-.45l-.09-.17c0-.1-.08-.2-.11-.3a.89.89,0,0,1-.06-.31V594.61l-.42.16a1.06,1.06,0,0,1-.45.07,1.25,1.25,0,0,1-.88-.31,1,1,0,0,1-.33-.75,1.32,1.32,0,0,1,.74-1.1,7,7,0,0,1,1.74-.76,13.06,13.06,0,0,1,2.12-.45,14.17,14.17,0,0,1,1.83-.15,9.39,9.39,0,0,1,3.75.7,8.13,8.13,0,0,1,2.77,1.86,7.87,7.87,0,0,1,1.72,2.72,9.23,9.23,0,0,1,.59,3.26,9.43,9.43,0,0,1-.63,3.39,7.88,7.88,0,0,1-1.94,2.9,7,7,0,0,1-2,1.37,13.27,13.27,0,0,1-2.32.81,18.79,18.79,0,0,1-2.45.44C1558,608.87,1557.19,609,1556.4,609Zm2.92-15.34a7.93,7.93,0,0,0-1,.06c-.33,0-.66.08-1,.14v12.69l1.78-.2A14.07,14.07,0,0,0,1561,606a8.68,8.68,0,0,0,1.67-.6,4.25,4.25,0,0,0,1.3-.95,7.09,7.09,0,0,0,1.4-2.28,7.3,7.3,0,0,0,.48-2.6,6,6,0,0,0-.42-2.22,5.49,5.49,0,0,0-1.24-1.89,6.07,6.07,0,0,0-2-1.31A7.31,7.31,0,0,0,1559.32,593.69Z"/><path d="M1580.75,605.49a1.49,1.49,0,0,1,.91.21,1.13,1.13,0,0,1,.46.61,1.22,1.22,0,0,1-.06.75,1.5,1.5,0,0,1-.65.68,19.29,19.29,0,0,1-2.22.46,23.08,23.08,0,0,1-4.79.17,13.23,13.23,0,0,1-2.25-.35,1.49,1.49,0,0,1-.66-.56,1,1,0,0,1-.17-.65V594.12a1,1,0,0,1-.58-.4,1,1,0,0,1-.2-.64,1.11,1.11,0,0,1,.23-.67,1.43,1.43,0,0,1,.72-.51,12.77,12.77,0,0,1,2.29-.48c.78-.08,1.56-.14,2.35-.17s1.58,0,2.37,0,1.56,0,2.33-.06a1.36,1.36,0,0,1,1,.29,1.18,1.18,0,0,1,.42.72,1.13,1.13,0,0,1-.22.79,1.47,1.47,0,0,1-.91.54c-1.15.06-2.38.07-3.68.06a22.07,22.07,0,0,0-3.76.25v5.08c1,0,2,0,3,0s2-.12,3-.22a1.35,1.35,0,0,1,1,.29,1.18,1.18,0,0,1,.42.72,1,1,0,0,1-.22.79,1.45,1.45,0,0,1-.9.54c-1.06.09-2.12.17-3.19.23s-2.12.06-3.16,0v4.67a16.4,16.4,0,0,0,3.59.13A18.61,18.61,0,0,0,1580.75,605.49Z"/><path d="M1596.78,591.58a1.72,1.72,0,0,1,.46-.86,1,1,0,0,1,.72-.29,1.15,1.15,0,0,1,.71.26,1.47,1.47,0,0,1,.48.81q0,4.13-.06,8c0,2.57-.13,5.24-.29,8l0,0h0a1.12,1.12,0,0,0,0,.24V608a1.49,1.49,0,0,1-.47.69,1.1,1.1,0,0,1-.65.23,1.35,1.35,0,0,1-1-.46,1.17,1.17,0,0,0-.12-.2l-.11-.18h0v0c-.69-1.18-1.41-2.3-2.14-3.36s-1.48-2.12-2.25-3.15-1.55-2-2.35-3.06l-2.46-3.1v5.84c0,1,0,2,0,3.05s0,2.2,0,3.43a1.37,1.37,0,0,1-.39,1,1.15,1.15,0,0,1-.8.34,1.09,1.09,0,0,1-.75-.31,1.45,1.45,0,0,1-.43-.93c0-2.6,0-5.23,0-7.89s0-5.29,0-7.89a1.51,1.51,0,0,1,.43-.81,1.09,1.09,0,0,1,.73-.29,1.58,1.58,0,0,1,.86.32c.88,1.06,1.75,2.09,2.6,3.1s1.67,2,2.49,3,1.61,2.07,2.38,3.13,1.52,2.18,2.25,3.33q.12-3.16.16-6.08T1596.78,591.58Z"/><path d="M1568.91,646.45a1.94,1.94,0,0,1-.36,1.12,1.25,1.25,0,0,1-.79.52,1.38,1.38,0,0,1-.94-.16,2,2,0,0,1-.79-.87,30.55,30.55,0,0,0-.62-3.33c-.26-1.09-.57-2.18-.93-3.26l-9.56.07-.16,0-.16,0q-.9,3.06-1.62,6.35a1.76,1.76,0,0,1-.83,1,1.51,1.51,0,0,1-1,.11,1.39,1.39,0,0,1-.79-.65,1.83,1.83,0,0,1-.17-1.3q1.2-5.24,2.87-10.22a65.7,65.7,0,0,1,4.2-9.76,1.67,1.67,0,0,1,1.77-.91,1.27,1.27,0,0,1,.61.34h0s0,0,0,0a17.29,17.29,0,0,1,3.14,4.08q1.26,2.26,2.31,4.61c.26.56.51,1.11.74,1.66s.45,1.11.66,1.66l1.91,0a1.94,1.94,0,0,1,1,.65,1.38,1.38,0,0,1,.31.89,1.36,1.36,0,0,1-.38.86,1.84,1.84,0,0,1-1,.56h-.76q.47,1.49.81,3A28.14,28.14,0,0,1,1568.91,646.45Zm-10-17.34q-1,2.05-1.86,4.18t-1.56,4.29l7.86-.07-1-2.13c-.32-.69-.65-1.39-1-2.09s-.77-1.41-1.16-2.13A13.55,13.55,0,0,0,1559,629.11Z"/><path d="M1573.09,632a1.32,1.32,0,0,1,.9-.36,1.4,1.4,0,0,1,.89.33,1.82,1.82,0,0,1,.59,1v.32a5.43,5.43,0,0,1,1.89-1.06,6.72,6.72,0,0,1,2.08-.35,5.67,5.67,0,0,1,2.61.62,6.78,6.78,0,0,1,2.11,1.66,7.68,7.68,0,0,1,1.41,2.43,8.82,8.82,0,0,1,.5,3,8.57,8.57,0,0,1-.56,3.18,6.89,6.89,0,0,1-1.64,2.49,7.72,7.72,0,0,1-2.68,1.64,10.91,10.91,0,0,1-3.74.59c-.33,0-.66,0-1,0s-.65-.06-1-.1v7.6a1.67,1.67,0,0,1-.49,1.25,1.45,1.45,0,0,1-1,.41,1.34,1.34,0,0,1-.93-.38,1.79,1.79,0,0,1-.54-1.17v-22A2.14,2.14,0,0,1,1573.09,632Zm2.74,5.16a1.12,1.12,0,0,1-.18.2l-.18.16v6.81a9.44,9.44,0,0,0,1,.18,6.61,6.61,0,0,0,1,.08,7.57,7.57,0,0,0,2.28-.33,5.71,5.71,0,0,0,1.82-.94,4.13,4.13,0,0,0,1.2-1.51,4.69,4.69,0,0,0,.44-2.06,5.89,5.89,0,0,0-.27-1.74,6.12,6.12,0,0,0-.76-1.61,4.24,4.24,0,0,0-1.14-1.17,2.46,2.46,0,0,0-1.44-.45,2.94,2.94,0,0,0-1.15.22,4.7,4.7,0,0,0-1,.55,7.89,7.89,0,0,0-.87.76C1576.29,636.58,1576.05,636.86,1575.83,637.15Z"/><path d="M1590,644.9a2.32,2.32,0,0,1-.22-.94,1.34,1.34,0,0,1,.38-1,1.3,1.3,0,0,1,.95-.38,1.89,1.89,0,0,1,1.12.4,5.88,5.88,0,0,0,1.42,1.21,7.81,7.81,0,0,0,1.73.75,11,11,0,0,0,1.88.38,17.15,17.15,0,0,0,1.86.11l.84-.27a1.66,1.66,0,0,0,.38-.13,1.62,1.62,0,0,0,.33-.21c.12-.1.35-.27.68-.51.12-.16.23-.32.33-.47s.2-.3.32-.46l.33-1v-.48c0-.16,0-.33,0-.53a3.94,3.94,0,0,0-.18-.48c-.07-.16-.15-.32-.22-.49l-.41-.47-.42-.47c-.21-.12-.43-.25-.64-.39a2.31,2.31,0,0,0-.73-.33,15.83,15.83,0,0,0-2.72-.7,19.23,19.23,0,0,1-2.34-.51,7.11,7.11,0,0,1-2.08-.95,7.32,7.32,0,0,1-1.91-2.09,1.49,1.49,0,0,1-.21-.44,2.64,2.64,0,0,1-.07-.5,5.62,5.62,0,0,1-.06-.56c0-.18,0-.35,0-.52a5.08,5.08,0,0,1,.13-1.16,4,4,0,0,1,.38-1,5.75,5.75,0,0,1,.65-1c.26-.33.57-.68.93-1.07a5.22,5.22,0,0,1,1.41-1.06,8.18,8.18,0,0,1,1.66-.65,10.54,10.54,0,0,1,1.78-.33c.62-.06,1.21-.09,1.79-.09h.52a4.22,4.22,0,0,1,.49,0,5,5,0,0,1,1.57.4,12.57,12.57,0,0,0,1.53.54,1.68,1.68,0,0,1,.83,1.4,1.32,1.32,0,0,1-.42,1,1.55,1.55,0,0,1-1.17.41h-.16a.5.5,0,0,0-.16,0c-.77-.24-1.45-.43-2-.56a8,8,0,0,0-1.71-.2,5.85,5.85,0,0,0-1.77.29,11.29,11.29,0,0,0-2.09,1,6.16,6.16,0,0,1-.43.53c-.15.15-.29.31-.44.48l-.19.43c-.06.15-.12.29-.17.44s0,.29,0,.43a2.4,2.4,0,0,0,.06.4,3.9,3.9,0,0,1,.25.36,2.6,2.6,0,0,0,.25.36l1.52.86c.72.17,1.39.32,2,.44s1.23.25,1.81.41,1.14.34,1.71.56a15.3,15.3,0,0,1,1.82.86,2.94,2.94,0,0,1,.86.74c.25.3.47.59.69.85a4.51,4.51,0,0,1,.85,1.55,6,6,0,0,1,.27,1.8,6.53,6.53,0,0,1-.51,2.53,5.12,5.12,0,0,1-1.44,2,8,8,0,0,1-.67.52l-.66.45a5.7,5.7,0,0,1-1.7.76,7.89,7.89,0,0,1-2,.25,11,11,0,0,1-2.4-.27,12.35,12.35,0,0,1-2.32-.76,12,12,0,0,1-2.06-1.13A8.75,8.75,0,0,1,1590,644.9Z"/></g></g></svg>
