<svg xmlns="http://www.w3.org/2000/svg" xmlns:xlink="http://www.w3.org/1999/xlink" width="1920" height="1080" viewBox="0 0 1920 1080"><defs><style>.cls-1{isolation:isolate;}.cls-2{fill:url(#linear-gradient);}.cls-3{mix-blend-mode:overlay;}.cls-4{fill:none;}.cls-5{fill:#fff;}.cls-6{fill:#606060;}.cls-7{fill:#efefef;}.cls-8{fill:#555859;}.cls-9{fill:url(#linear-gradient-2);}.cls-10{fill:url(#linear-gradient-3);}.cls-11{fill:url(#linear-gradient-4);}.cls-12{fill:url(#linear-gradient-5);}.cls-13{fill:url(#linear-gradient-6);}.cls-14{fill:url(#linear-gradient-7);}.cls-15{fill:url(#linear-gradient-8);}.cls-16{fill:url(#linear-gradient-9);}.cls-17{fill:url(#linear-gradient-10);}.cls-18{fill:url(#linear-gradient-11);}.cls-19{fill:url(#linear-gradient-12);}.cls-20{fill:url(#linear-gradient-13);}.cls-21{fill:url(#linear-gradient-14);}.cls-22{fill:url(#linear-gradient-15);}.cls-23{fill:url(#linear-gradient-16);}.cls-24{fill:url(#linear-gradient-17);}.cls-25{fill:#3e3f3f;}.cls-26{fill:url(#linear-gradient-18);}.cls-27{fill:url(#linear-gradient-19);}.cls-28{fill:url(#linear-gradient-20);}.cls-29{fill:url(#linear-gradient-21);}.cls-30{fill:url(#linear-gradient-22);}.cls-31{fill:url(#linear-gradient-23);}.cls-32{fill:url(#linear-gradient-24);}.cls-33{fill:url(#linear-gradient-25);}.cls-34{fill:url(#linear-gradient-26);}</style><linearGradient id="linear-gradient" x1="960" y1="1080" x2="960" gradientUnits="userSpaceOnUse"><stop offset="0.16" stop-color="#1e9cd7"/><stop offset="0.47" stop-color="#0075be"/><stop offset="1" stop-color="#0b3168"/></linearGradient><linearGradient id="linear-gradient-2" x1="301.48" y1="97.06" x2="331.52" y2="149.1" gradientUnits="userSpaceOnUse"><stop offset="0" stop-color="#ffa727"/><stop offset="1" stop-color="#fcdb54"/></linearGradient><linearGradient id="linear-gradient-3" x1="380.48" y1="97.06" x2="410.52" y2="149.1" xlink:href="#linear-gradient-2"/><linearGradient id="linear-gradient-4" x1="461.48" y1="97.06" x2="491.52" y2="149.1" xlink:href="#linear-gradient-2"/><linearGradient id="linear-gradient-5" x1="542.48" y1="97.06" x2="572.52" y2="149.1" xlink:href="#linear-gradient-2"/><linearGradient id="linear-gradient-6" x1="301.48" y1="148.06" x2="331.52" y2="200.1" xlink:href="#linear-gradient-2"/><linearGradient id="linear-gradient-7" x1="380.48" y1="148.06" x2="410.52" y2="200.1" xlink:href="#linear-gradient-2"/><linearGradient id="linear-gradient-8" x1="461.48" y1="148.06" x2="491.52" y2="200.1" xlink:href="#linear-gradient-2"/><linearGradient id="linear-gradient-9" x1="542.48" y1="148.06" x2="572.52" y2="200.1" xlink:href="#linear-gradient-2"/><linearGradient id="linear-gradient-10" x1="301.48" y1="198.06" x2="331.52" y2="250.1" xlink:href="#linear-gradient-2"/><linearGradient id="linear-gradient-11" x1="380.48" y1="198.06" x2="410.52" y2="250.1" xlink:href="#linear-gradient-2"/><linearGradient id="linear-gradient-12" x1="461.48" y1="198.06" x2="491.52" y2="250.1" xlink:href="#linear-gradient-2"/><linearGradient id="linear-gradient-13" x1="542.48" y1="198.06" x2="572.52" y2="250.1" xlink:href="#linear-gradient-2"/><linearGradient id="linear-gradient-14" x1="301.48" y1="248.06" x2="331.52" y2="300.1" xlink:href="#linear-gradient-2"/><linearGradient id="linear-gradient-15" x1="380.48" y1="248.06" x2="410.52" y2="300.1" xlink:href="#linear-gradient-2"/><linearGradient id="linear-gradient-16" x1="461.48" y1="248.06" x2="491.52" y2="300.1" xlink:href="#linear-gradient-2"/><linearGradient id="linear-gradient-17" x1="542.48" y1="248.06" x2="572.52" y2="300.1" xlink:href="#linear-gradient-2"/><linearGradient id="linear-gradient-18" x1="72.03" y1="222.01" x2="108.97" y2="285.99" xlink:href="#linear-gradient-2"/><linearGradient id="linear-gradient-19" x1="165.03" y1="222.01" x2="201.97" y2="285.99" xlink:href="#linear-gradient-2"/><linearGradient id="linear-gradient-20" x1="259.03" y1="222.01" x2="295.97" y2="285.99" xlink:href="#linear-gradient-2"/><linearGradient id="linear-gradient-21" x1="71.03" y1="286.01" x2="107.97" y2="349.99" xlink:href="#linear-gradient-2"/><linearGradient id="linear-gradient-22" x1="164.03" y1="286.01" x2="200.97" y2="349.99" xlink:href="#linear-gradient-2"/><linearGradient id="linear-gradient-23" x1="258.03" y1="286.01" x2="294.97" y2="349.99" xlink:href="#linear-gradient-2"/><linearGradient id="linear-gradient-24" x1="70.03" y1="346.01" x2="106.97" y2="409.99" xlink:href="#linear-gradient-2"/><linearGradient id="linear-gradient-25" x1="163.03" y1="346.01" x2="199.97" y2="409.99" xlink:href="#linear-gradient-2"/><linearGradient id="linear-gradient-26" x1="257.03" y1="346.01" x2="293.97" y2="409.99" xlink:href="#linear-gradient-2"/></defs><title>Spilskærm</title><g class="cls-1"><g id="Layer_4" data-name="Layer 4"><rect class="cls-2" width="1920" height="1080"/><g class="cls-3"><rect class="cls-4" x="1788.82" y="138.02" width="6.72" height="6.72"/><circle class="cls-5" cx="1792.19" cy="141.39" r="3.36"/></g><g class="cls-3"><rect class="cls-4" x="1811.51" y="64.28" width="6.71" height="6.71"/><circle class="cls-5" cx="1814.87" cy="67.64" r="3.35"/></g><g class="cls-3"><rect class="cls-4" x="1740.97" y="82.43" width="8.85" height="8.85"/><circle class="cls-5" cx="1745.4" cy="86.85" r="4.42"/></g><g class="cls-3"><rect class="cls-4" x="1721.95" y="94.27" width="7.79" height="7.79"/><circle class="cls-5" cx="1725.84" cy="98.17" r="3.89"/></g><g class="cls-3"><rect class="cls-4" x="1680.87" y="59.97" width="7.9" height="7.9"/><circle class="cls-5" cx="1684.81" cy="63.92" r="3.95"/></g><g class="cls-3"><rect class="cls-4" x="1357.34" y="124.78" width="6.52" height="6.52"/><circle class="cls-5" cx="1360.61" cy="128.04" r="3.26"/></g><g class="cls-3"><rect class="cls-4" x="1029.65" y="35.39" width="8.23" height="8.23"/><circle class="cls-5" cx="1033.77" cy="39.5" r="4.11"/></g><g class="cls-3"><rect class="cls-4" x="812.02" y="113.12" width="4.95" height="4.95"/><circle class="cls-5" cx="814.49" cy="115.6" r="2.48"/></g><rect class="cls-4" x="597.26" y="139.81" width="7.57" height="7.57"/><circle class="cls-5" cx="601.04" cy="143.59" r="3.78"/><rect class="cls-4" x="550.39" y="125.06" width="6.49" height="6.49"/><circle class="cls-5" cx="553.63" cy="128.3" r="3.25"/><g class="cls-3"><rect class="cls-4" x="591.05" y="515.76" width="6.21" height="6.21"/><circle class="cls-5" cx="594.15" cy="518.86" r="3.11"/></g><g class="cls-3"><rect class="cls-4" x="1055.61" y="53.17" width="7.36" height="7.36"/><circle class="cls-5" cx="1059.29" cy="56.85" r="3.68"/></g><g class="cls-3"><rect class="cls-4" x="744.67" y="81.29" width="5.33" height="5.33"/><circle class="cls-5" cx="747.33" cy="83.95" r="2.66"/></g><g class="cls-3"><rect class="cls-4" x="654.81" y="43.38" width="6.85" height="6.85"/><circle class="cls-5" cx="658.23" cy="46.8" r="3.43"/></g><rect class="cls-4" x="540.1" y="105.08" width="5.48" height="5.48"/><circle class="cls-5" cx="542.84" cy="107.82" r="2.74"/><rect class="cls-4" x="375.13" y="171.31" width="7.4" height="7.4"/><circle class="cls-5" cx="378.83" cy="175.01" r="3.7"/><rect class="cls-4" x="310.35" y="212.69" width="3.06" height="3.06"/><circle class="cls-5" cx="311.89" cy="214.22" r="1.53"/><rect class="cls-4" x="290.54" y="192.01" width="8.75" height="8.75"/><circle class="cls-5" cx="294.92" cy="196.39" r="4.38"/><rect class="cls-4" x="323.72" y="122.47" width="8.88" height="8.88"/><circle class="cls-5" cx="328.16" cy="126.92" r="4.44"/><rect class="cls-4" x="424.97" y="147.18" width="6.1" height="6.1"/><circle class="cls-5" cx="428.02" cy="150.23" r="3.05"/><rect class="cls-4" x="560.91" y="262.56" width="8.06" height="8.06"/><circle class="cls-5" cx="564.94" cy="266.59" r="4.03"/><rect class="cls-4" x="510.07" y="313.33" width="5.56" height="5.56"/><circle class="cls-5" cx="512.85" cy="316.11" r="2.78"/><g class="cls-3"><rect class="cls-4" x="672.3" y="109.52" width="5.53" height="5.53"/><circle class="cls-5" cx="675.07" cy="112.28" r="2.76"/></g><rect class="cls-4" x="496.76" y="118.75" width="3.56" height="3.56"/><circle class="cls-5" cx="498.54" cy="120.53" r="1.78"/><rect class="cls-4" x="577.97" y="202.15" width="8.52" height="8.52"/><circle class="cls-5" cx="582.23" cy="206.4" r="4.26"/><rect class="cls-4" x="607.63" y="202.11" width="8.81" height="8.81"/><circle class="cls-5" cx="612.04" cy="206.52" r="4.41"/><g class="cls-3"><rect class="cls-4" x="743.07" y="121.44" width="6.57" height="6.57"/><circle class="cls-5" cx="746.36" cy="124.73" r="3.29"/></g><rect class="cls-4" x="976.13" y="301.15" width="7.58" height="7.58"/><circle class="cls-5" cx="979.92" cy="304.94" r="3.79"/><rect class="cls-4" x="1025.58" y="208.73" width="5.01" height="5.01"/><circle class="cls-5" cx="1028.09" cy="211.24" r="2.51"/><rect class="cls-4" x="1041.93" y="277.1" width="6.67" height="6.67"/><circle class="cls-5" cx="1045.27" cy="280.44" r="3.34"/><rect class="cls-4" x="916.73" y="205.04" width="8.15" height="8.15"/><circle class="cls-5" cx="920.81" cy="209.12" r="4.08"/><g class="cls-3"><rect class="cls-4" x="1138.88" y="114.41" width="3.88" height="3.88"/><circle class="cls-5" cx="1140.82" cy="116.35" r="1.94"/></g><rect class="cls-4" x="1651.39" y="359.71" width="3.02" height="3.02"/><circle class="cls-5" cx="1652.9" cy="361.22" r="1.51"/><g class="cls-3"><rect class="cls-4" x="1643.79" y="116.44" width="8.39" height="8.39"/><circle class="cls-5" cx="1647.98" cy="120.64" r="4.19"/></g><g class="cls-3"><rect class="cls-4" x="1849.09" y="323.27" width="7.82" height="7.82"/><circle class="cls-5" cx="1853.01" cy="327.18" r="3.91"/></g><g class="cls-3"><rect class="cls-4" x="1861.29" y="347.51" width="4.95" height="4.95"/><circle class="cls-5" cx="1863.76" cy="349.98" r="2.47"/></g><g class="cls-3"><rect class="cls-4" x="1826.26" y="352.93" width="6.83" height="6.83"/><circle class="cls-5" cx="1829.68" cy="356.34" r="3.42"/></g><g class="cls-3"><rect class="cls-4" x="1740.7" y="380.89" width="8.65" height="8.65"/><circle class="cls-5" cx="1745.03" cy="385.22" r="4.32"/></g><g class="cls-3"><rect class="cls-4" x="1191.51" y="123.35" width="4.07" height="4.07"/><circle class="cls-5" cx="1193.55" cy="125.38" r="2.03"/></g><g class="cls-3"><rect class="cls-4" x="1335.1" y="107.15" width="5.4" height="5.4"/><circle class="cls-5" cx="1337.8" cy="109.85" r="2.7"/></g><rect class="cls-4" x="1015.82" y="133.02" width="6.72" height="6.72"/><circle class="cls-5" cx="1019.19" cy="136.39" r="3.36"/><g class="cls-3"><rect class="cls-4" x="1038.51" y="59.28" width="6.71" height="6.71"/><circle class="cls-5" cx="1041.87" cy="62.64" r="3.35"/></g><rect class="cls-4" x="948.95" y="89.27" width="7.79" height="7.79"/><circle class="cls-5" cx="952.84" cy="93.17" r="3.89"/><g class="cls-3"><rect class="cls-4" x="907.87" y="54.97" width="7.9" height="7.9"/><circle class="cls-5" cx="911.81" cy="58.92" r="3.95"/></g><rect class="cls-4" x="874.08" y="229.69" width="4.24" height="4.24"/><circle class="cls-5" cx="876.2" cy="231.81" r="2.12"/><rect class="cls-4" x="1003.33" y="243.24" width="4.19" height="4.19"/><circle class="cls-5" cx="1005.42" cy="245.34" r="2.1"/><g class="cls-3"><rect class="cls-4" x="1219.31" y="398.68" width="5.99" height="5.99"/><circle class="cls-5" cx="1222.3" cy="401.68" r="2.99"/></g><rect class="cls-4" x="594.01" y="214.77" width="5.14" height="5.14"/><circle class="cls-5" cx="596.58" cy="217.34" r="2.57"/><rect class="cls-4" x="584.34" y="119.78" width="6.52" height="6.52"/><circle class="cls-5" cx="587.61" cy="123.04" r="3.26"/><g class="cls-3"><rect class="cls-4" x="256.65" y="30.39" width="8.23" height="8.23"/><circle class="cls-5" cx="260.77" cy="34.5" r="4.11"/></g><g class="cls-3"><rect class="cls-4" x="180.05" y="112.25" width="8.06" height="8.06"/><circle class="cls-5" cx="184.08" cy="116.28" r="4.03"/></g><g class="cls-3"><rect class="cls-4" x="39.02" y="108.12" width="4.95" height="4.95"/><circle class="cls-5" cx="41.49" cy="110.6" r="2.48"/></g><rect class="cls-4" x="41.58" y="443.74" width="8.33" height="8.33"/><circle class="cls-5" cx="45.75" cy="447.9" r="4.17"/><g class="cls-3"><rect class="cls-4" x="341.11" y="552.78" width="4.52" height="4.52"/><circle class="cls-5" cx="343.37" cy="555.04" r="2.26"/></g><g class="cls-3"><rect class="cls-4" x="655.59" y="25.77" width="6.6" height="6.6"/><circle class="cls-5" cx="658.88" cy="29.07" r="3.3"/></g><g class="cls-3"><rect class="cls-4" x="282.61" y="48.17" width="7.36" height="7.36"/><circle class="cls-5" cx="286.29" cy="51.85" r="3.68"/></g><g class="cls-3"><rect class="cls-4" x="143.84" y="78.3" width="7.4" height="7.4"/><circle class="cls-5" cx="147.54" cy="82" r="3.7"/></g><rect class="cls-4" x="203.13" y="296.15" width="7.58" height="7.58"/><circle class="cls-5" cx="206.92" cy="299.94" r="3.79"/><rect class="cls-4" x="252.58" y="203.73" width="5.01" height="5.01"/><circle class="cls-5" cx="255.09" cy="206.24" r="2.51"/><rect class="cls-4" x="268.93" y="272.1" width="6.67" height="6.67"/><circle class="cls-5" cx="272.27" cy="275.44" r="3.34"/><g class="cls-3"><rect class="cls-4" x="143.73" y="200.04" width="8.15" height="8.15"/><circle class="cls-5" cx="147.81" cy="204.12" r="4.08"/></g><rect class="cls-4" x="216.14" y="287.9" width="5.89" height="5.89"/><circle class="cls-5" cx="219.08" cy="290.85" r="2.95"/><rect class="cls-4" x="365.88" y="109.41" width="3.88" height="3.88"/><circle class="cls-5" cx="367.82" cy="111.35" r="1.94"/><g class="cls-3"><rect class="cls-4" x="393.6" y="26.71" width="8.29" height="8.29"/><circle class="cls-5" cx="397.74" cy="30.85" r="4.14"/></g><rect class="cls-4" x="385.39" y="164.82" width="8.43" height="8.43"/><circle class="cls-5" cx="389.61" cy="169.03" r="4.22"/><rect class="cls-4" x="481.13" y="199.68" width="5.17" height="5.17"/><circle class="cls-5" cx="483.71" cy="202.26" r="2.58"/><rect class="cls-4" x="499.73" y="211.75" width="8.14" height="8.14"/><circle class="cls-5" cx="503.8" cy="215.83" r="4.07"/><rect class="cls-4" x="501.21" y="252.14" width="4.2" height="4.2"/><circle class="cls-5" cx="503.31" cy="254.24" r="2.1"/><rect class="cls-4" x="516.09" y="222" width="4.13" height="4.13"/><circle class="cls-5" cx="518.15" cy="224.07" r="2.07"/><rect class="cls-4" x="862.46" y="187.06" width="7.34" height="7.34"/><circle class="cls-5" cx="866.13" cy="190.73" r="3.67"/><g class="cls-3"><rect class="cls-4" x="815.76" y="152.49" width="4.49" height="4.49"/><circle class="cls-5" cx="818.01" cy="154.73" r="2.25"/></g><g class="cls-3"><rect class="cls-4" x="781.49" y="248.83" width="5.17" height="5.17"/><circle class="cls-5" cx="784.07" cy="251.42" r="2.58"/></g><rect class="cls-4" x="825.87" y="267.6" width="8.2" height="8.2"/><circle class="cls-5" cx="829.97" cy="271.7" r="4.1"/><rect class="cls-4" x="878.39" y="354.71" width="3.02" height="3.02"/><circle class="cls-5" cx="879.9" cy="356.22" r="1.51"/><rect class="cls-4" x="1076.09" y="318.27" width="7.82" height="7.82"/><circle class="cls-5" cx="1080.01" cy="322.18" r="3.91"/><rect class="cls-4" x="1088.29" y="342.51" width="4.95" height="4.95"/><circle class="cls-5" cx="1090.76" cy="344.98" r="2.47"/><g class="cls-3"><rect class="cls-4" x="1135.77" y="332.46" width="5.98" height="5.98"/><circle class="cls-5" cx="1138.76" cy="335.45" r="2.99"/></g><rect class="cls-4" x="1053.26" y="347.93" width="6.83" height="6.83"/><circle class="cls-5" cx="1056.68" cy="351.34" r="3.42"/><g class="cls-3"><rect class="cls-4" x="1109.7" y="361.89" width="8.65" height="8.65"/><circle class="cls-5" cx="1114.03" cy="366.22" r="4.32"/></g><g class="cls-3"><rect class="cls-4" x="1152.21" y="417.58" width="7.4" height="7.4"/><circle class="cls-5" cx="1155.91" cy="421.28" r="3.7"/></g><g class="cls-3"><rect class="cls-4" x="1176.32" y="385.16" width="6.06" height="6.06"/><circle class="cls-5" cx="1179.35" cy="388.19" r="3.03"/></g><g class="cls-3"><rect class="cls-4" x="1155.7" y="332.29" width="4.93" height="4.93"/><circle class="cls-5" cx="1158.16" cy="334.76" r="2.46"/></g><g class="cls-3"><rect class="cls-4" x="1129.82" y="423.7" width="3.29" height="3.29"/><circle class="cls-5" cx="1131.47" cy="425.34" r="1.65"/></g><g class="cls-3"><rect class="cls-4" x="1203.01" y="450.39" width="6.43" height="6.43"/><circle class="cls-5" cx="1206.22" cy="453.6" r="3.21"/></g><rect class="cls-4" x="1479.14" y="349.9" width="5.89" height="5.89"/><circle class="cls-5" cx="1482.08" cy="352.85" r="2.95"/><rect class="cls-4" x="1493.33" y="300.24" width="4.19" height="4.19"/><circle class="cls-5" cx="1495.42" cy="302.34" r="2.1"/><rect class="cls-4" x="1539.96" y="329.51" width="7.92" height="7.92"/><circle class="cls-5" cx="1543.92" cy="333.47" r="3.96"/><g class="cls-3"><rect class="cls-4" x="1625.77" y="389.46" width="5.98" height="5.98"/><circle class="cls-5" cx="1628.76" cy="392.45" r="2.99"/></g><g class="cls-3"><rect class="cls-4" x="1642.21" y="474.58" width="7.4" height="7.4"/><circle class="cls-5" cx="1645.91" cy="478.28" r="3.7"/></g><g class="cls-3"><rect class="cls-4" x="1400.31" y="348.68" width="5.99" height="5.99"/><circle class="cls-5" cx="1403.3" cy="351.68" r="2.99"/></g><g class="cls-3"><rect class="cls-4" x="1333.21" y="367.58" width="7.4" height="7.4"/><circle class="cls-5" cx="1336.91" cy="371.28" r="3.7"/></g><g class="cls-3"><rect class="cls-4" x="1384.01" y="400.39" width="6.43" height="6.43"/><circle class="cls-5" cx="1387.22" cy="403.6" r="3.21"/></g><g class="cls-3"><rect class="cls-4" x="1555.7" y="11.29" width="4.93" height="4.93"/><circle class="cls-5" cx="1558.16" cy="13.76" r="2.46"/></g><g class="cls-3"><rect class="cls-4" x="1400.26" y="21.93" width="6.83" height="6.83"/><circle class="cls-5" cx="1403.68" cy="25.34" r="3.42"/></g><g class="cls-3"><rect class="cls-4" x="1282.32" y="272.16" width="6.06" height="6.06"/><circle class="cls-5" cx="1285.35" cy="275.19" r="3.03"/></g><rect class="cls-4" x="1889.13" y="220.15" width="7.58" height="7.58"/><circle class="cls-5" cx="1892.92" cy="223.94" r="3.79"/><rect class="cls-4" x="48.87" y="46.6" width="8.2" height="8.2"/><circle class="cls-5" cx="52.97" cy="50.7" r="4.1"/><rect class="cls-4" x="1725.96" y="287.51" width="7.92" height="7.92"/><circle class="cls-5" cx="1729.92" cy="291.47" r="3.96"/><g class="cls-3"><rect class="cls-4" x="730.31" y="323.68" width="5.99" height="5.99"/><circle class="cls-5" cx="733.3" cy="326.68" r="2.99"/></g><g class="cls-3"><rect class="cls-4" x="663.21" y="342.58" width="7.4" height="7.4"/><circle class="cls-5" cx="666.91" cy="346.28" r="3.7"/></g><g class="cls-3"><rect class="cls-4" x="714.01" y="375.39" width="6.43" height="6.43"/><circle class="cls-5" cx="717.22" cy="378.6" r="3.21"/></g></g><g id="Layer_5" data-name="Layer 5"><rect class="cls-6" x="-1" y="725" width="1920" height="355"/><rect class="cls-7" x="1732" y="891" width="169" height="24"/><rect class="cls-7" x="1444" y="890" width="169" height="24"/><rect class="cls-7" x="1161" y="890" width="169" height="24"/><rect class="cls-7" x="880" y="890" width="169" height="24"/><rect class="cls-7" x="599" y="890" width="169" height="24"/><rect class="cls-7" x="308" y="890" width="169" height="24"/><rect class="cls-7" x="31" y="890" width="169" height="24"/><rect class="cls-8" x="256.53" y="81" width="393.75" height="645"/><rect class="cls-9" x="286" y="106" width="61" height="34.16"/><rect class="cls-10" x="365" y="106" width="61" height="34.16"/><rect class="cls-11" x="446" y="106" width="61" height="34.16"/><rect class="cls-12" x="527" y="106" width="61" height="34.16"/><rect class="cls-13" x="286" y="157" width="61" height="34.16"/><rect class="cls-14" x="365" y="157" width="61" height="34.16"/><rect class="cls-15" x="446" y="157" width="61" height="34.16"/><rect class="cls-16" x="527" y="157" width="61" height="34.16"/><rect class="cls-17" x="286" y="207" width="61" height="34.16"/><rect class="cls-18" x="365" y="207" width="61" height="34.16"/><rect class="cls-19" x="446" y="207" width="61" height="34.16"/><rect class="cls-20" x="527" y="207" width="61" height="34.16"/><rect class="cls-21" x="286" y="257" width="61" height="34.16"/><rect class="cls-22" x="365" y="257" width="61" height="34.16"/><rect class="cls-23" x="446" y="257" width="61" height="34.16"/><rect class="cls-24" x="527" y="257" width="61" height="34.16"/><rect class="cls-25" x="24" y="210" width="315" height="516"/><rect class="cls-26" x="53" y="233" width="75" height="42"/><rect class="cls-27" x="146" y="233" width="75" height="42"/><rect class="cls-28" x="240" y="233" width="75" height="42"/><rect class="cls-29" x="52" y="297" width="75" height="42"/><rect class="cls-30" x="145" y="297" width="75" height="42"/><rect class="cls-31" x="239" y="297" width="75" height="42"/><rect class="cls-32" x="51" y="357" width="75" height="42"/><rect class="cls-33" x="144" y="357" width="75" height="42"/><rect class="cls-34" x="238" y="357" width="75" height="42"/></g></g></svg>
