<svg xmlns="http://www.w3.org/2000/svg" width="360" height="360" viewBox="0 0 360 360"><defs><style>.cls-1{fill:#f7f7f7;}.cls-2{fill:#e5d648;}.cls-3{fill:#a5a5a5;}.cls-4{fill:#e2e0e0;}.cls-5{fill:#f43838;}.cls-6{fill:#ddb980;}.cls-7{fill:#efc67d;}.cls-8{fill:#fff;}.cls-9{fill:#cc3e3e;}.cls-10{fill:#704807;}.cls-11{fill:#f4f4f4;}.cls-12{fill:#ed2e2e;}.cls-13{fill:none;}.cls-14{fill:#dbdbdb;}</style></defs><title>Taxi_Bendtner</title><g id="Layer_3" data-name="Layer 3"><path class="cls-1" d="M339.52,113.46A173.23,173.23,0,1,0,180,354q3.41,0,6.79-.14a171.69,171.69,0,0,0,60.6-13.46q6.44-2.73,12.59-5.94a173.33,173.33,0,0,0,79.54-221Z"/><path class="cls-1" d="M180,4.89a176,176,0,1,0,0,351.91q3.76,0,7.48-.17A175.95,175.95,0,0,0,180,4.89ZM302.42,303.27A172.94,172.94,0,0,1,260,334.43q-6.17,3.21-12.59,5.94a171.69,171.69,0,0,1-60.6,13.46q-3.39.14-6.79.14A173.17,173.17,0,0,1,112.61,21.33,173.13,173.13,0,0,1,302.42,303.27Z"/><path class="cls-2" d="M24.23,165.17l32.71-4.09c0-.05-2.22-14.55,8.79-15.42S78,150,80.54,154.3s27.55-2.43,27.62-2.3,2.14-8.94,8.3-10.09,11.75,2.17,13.16,7,30.81-4.52,30.89-4.83c-.56-10.5-1.15-20.79-1.81-31.22a198.41,198.41,0,0,1-19.83,3.39c-8.4-9.75-17.4-21-26.87-32.33-16.89.24-33.84.53-50.84,1a375.3,375.3,0,0,0-14.47,37.23,201.52,201.52,0,0,0-30.4,5.06Q20.27,146.19,24.23,165.17Z"/><circle cx="119.23" cy="152.68" r="9.3"/><circle cx="68.61" cy="156.74" r="9.3"/><polyline class="cls-3" points="55.28 122.08 65.21 90.25 84.57 89.86 87.32 119.05"/><polyline class="cls-3" points="91.75 89.9 94.44 118.38 126.48 115.35 110.33 88.86"/><rect class="cls-4" x="18.38" y="132.64" width="17.61" height="2.86" transform="translate(-12.48 3.15) rotate(-5.39)"/><rect class="cls-4" x="36.18" y="133.83" width="17.61" height="2.86" transform="translate(-12.51 4.83) rotate(-5.39)"/><rect class="cls-4" x="53.45" y="129.33" width="17.61" height="2.86" transform="translate(-12.01 6.43) rotate(-5.39)"/><rect class="cls-4" x="71.25" y="130.52" width="17.61" height="2.86" transform="translate(-12.04 8.11) rotate(-5.39)"/><rect class="cls-4" x="88.51" y="126.02" width="17.61" height="2.86" transform="translate(-11.54 9.71) rotate(-5.39)"/><rect class="cls-4" x="106.32" y="127.21" width="17.61" height="2.86" transform="translate(-11.58 11.39) rotate(-5.39)"/><rect class="cls-4" x="123.58" y="122.71" width="17.61" height="2.86" transform="translate(-11.08 12.99) rotate(-5.39)"/><rect class="cls-4" x="141.38" y="123.9" width="17.61" height="2.86" transform="translate(-11.11 14.67) rotate(-5.39)"/><rect x="18.65" y="135.48" width="17.61" height="2.86" transform="translate(-12.74 3.19) rotate(-5.39)"/><rect x="35.91" y="130.98" width="17.61" height="2.86" transform="matrix(1, -0.09, 0.09, 1, -12.24, 4.79)"/><rect x="53.71" y="132.17" width="17.61" height="2.86" transform="translate(-12.28 6.47) rotate(-5.39)"/><rect x="70.98" y="127.67" width="17.61" height="2.86" transform="translate(-11.78 8.07) rotate(-5.39)"/><rect x="88.78" y="128.86" width="17.61" height="2.86" transform="matrix(1, -0.09, 0.09, 1, -11.81, 9.75)"/><rect x="106.05" y="124.36" width="17.61" height="2.86" transform="translate(-11.31 11.35) rotate(-5.39)"/><rect x="123.85" y="125.55" width="17.61" height="2.86" transform="translate(-11.35 13.03) rotate(-5.39)"/><rect x="141.11" y="121.05" width="17.61" height="2.86" transform="translate(-10.85 14.63) rotate(-5.39)"/><rect class="cls-5" x="76.14" y="76.56" width="22.55" height="7.84" transform="translate(-2.51 2.81) rotate(-1.82)"/><path d="M81.89,78a.49.49,0,0,1,.24.15.35.35,0,0,1,.07.21.29.29,0,0,1-.09.21.43.43,0,0,1-.25.13l-1.33.06L80.67,83a.45.45,0,0,1-.1.3.37.37,0,0,1-.24.1.28.28,0,0,1-.22-.08A.44.44,0,0,1,80,83l-.14-4.19-1.35,0a.43.43,0,0,1-.27-.13.35.35,0,0,1-.09-.23.36.36,0,0,1,.39-.34h.36l.61,0,.72,0,.73,0,.6,0Z"/><path d="M87,82.7a.46.46,0,0,1-.08.27.27.27,0,0,1-.18.12.31.31,0,0,1-.23,0,.41.41,0,0,1-.19-.2,7.25,7.25,0,0,0-.17-.78,7.66,7.66,0,0,0-.25-.77l-2.26.09h-.07c-.13.49-.24,1-.34,1.51a.41.41,0,0,1-.19.25.34.34,0,0,1-.24,0,.31.31,0,0,1-.19-.15.42.42,0,0,1,0-.3,24.14,24.14,0,0,1,.6-2.44A15.56,15.56,0,0,1,84.1,78a.32.32,0,0,1,.23-.22.28.28,0,0,1,.18,0,.26.26,0,0,1,.15.07s0,0,0,0h0a4.11,4.11,0,0,1,.77.94c.21.35.4.71.58,1.08.07.12.13.25.19.38l.17.39.45,0a.46.46,0,0,1,.24.14.31.31,0,0,1,.08.21.37.37,0,0,1-.08.21.57.57,0,0,1-.24.14h-.18c.08.23.15.47.21.7S87,82.45,87,82.7Zm-2.49-4c-.15.33-.28.66-.41,1s-.23.68-.33,1l1.86-.08c-.08-.17-.16-.33-.25-.49s-.16-.33-.25-.49l-.29-.5A2.86,2.86,0,0,0,84.53,78.67Z"/><path d="M91.51,77.65a.53.53,0,0,1,.28-.12.32.32,0,0,1,.23.09.34.34,0,0,1,.11.24.45.45,0,0,1,0,.18,12,12,0,0,1-.71,1.12l-.79,1.07c.29.34.59.69.88,1a8.26,8.26,0,0,1,.77,1.12.94.94,0,0,1,0,.16.37.37,0,0,1-.09.25.33.33,0,0,1-.23.1.41.41,0,0,1-.3-.13,8.89,8.89,0,0,0-.7-1c-.27-.32-.54-.65-.81-1-.28.36-.56.72-.85,1.07l-.86,1.06a.46.46,0,0,1-.24.08.28.28,0,0,1-.24-.08.37.37,0,0,1-.1-.23.5.5,0,0,1,.07-.25l.89-1.09.87-1.1c-.28-.35-.57-.69-.86-1a10.52,10.52,0,0,0-1-.91.33.33,0,0,1-.11-.15.39.39,0,0,1,0-.14.31.31,0,0,1,.31-.34.44.44,0,0,1,.27.09,11.62,11.62,0,0,1,1,.89c.29.32.58.64.87,1l.72-1A8.36,8.36,0,0,0,91.51,77.65Z"/><path d="M94.91,82a.39.39,0,0,1,.29.08.33.33,0,0,1,.08.45.48.48,0,0,1-.27.16c-.29,0-.59,0-.88,0l-.88,0a.49.49,0,0,1-.29-.13.33.33,0,0,1-.09-.22.3.3,0,0,1,.1-.23.39.39,0,0,1,.28-.12h.5l-.11-3.73-.54,0a.43.43,0,0,1-.28-.13.3.3,0,0,1-.1-.22.34.34,0,0,1,.1-.23.41.41,0,0,1,.28-.12l1.76-.06a.42.42,0,0,1,.24.15.27.27,0,0,1,.08.2.37.37,0,0,1-.08.21.48.48,0,0,1-.24.14l-.53,0L94.45,82h.23Z"/><path d="M155,25.9a2.27,2.27,0,0,1,1,.93,1.52,1.52,0,0,1,.16,1.09,1.6,1.6,0,0,1-.62.93,2.37,2.37,0,0,1-1.34.39l-6.43-1-3.34,20.09a2,2,0,0,1-.79,1.33,1.65,1.65,0,0,1-1.21.28,1.6,1.6,0,0,1-1-.61,2.1,2.1,0,0,1-.39-1.44l3.36-20.22-6.51-1.09a2.23,2.23,0,0,1-1.18-.9,1.54,1.54,0,0,1-.21-1.16,1.72,1.72,0,0,1,.71-1,1.91,1.91,0,0,1,1.5-.26l1.75.3,2.9.48,3.5.59,3.5.59c1.1.19,2.06.34,2.9.47Z"/><path d="M175.09,53.16a2.37,2.37,0,0,1-.63,1.21,1.52,1.52,0,0,1-1,.44,1.55,1.55,0,0,1-1-.37,2.27,2.27,0,0,1-.74-1.14,36.59,36.59,0,0,0-.06-3.92c-.09-1.3-.24-2.6-.44-3.91l-10.93-1.75-.18,0a.7.7,0,0,0-.18-.05q-1.62,3.32-3.07,6.93a2,2,0,0,1-1.14,1,1.69,1.69,0,0,1-1.2-.07,1.6,1.6,0,0,1-.78-.9,2.05,2.05,0,0,1,.07-1.51q2.35-5.73,5.23-11.12a75.27,75.27,0,0,1,6.67-10.32,1.45,1.45,0,0,1,1.32-.8,1.53,1.53,0,0,1,.88.08,1.58,1.58,0,0,1,.63.51s0,0,0,0,0,0,0,0a20.06,20.06,0,0,1,2.79,5.25c.67,1.89,1.26,3.8,1.75,5.72.2.68.37,1.36.53,2s.3,1.35.44,2l2.19.33a2.25,2.25,0,0,1,1,.93,1.49,1.49,0,0,1-.42,2,2.05,2.05,0,0,1-1.3.44l-.87-.14c.17,1.18.29,2.37.36,3.55A32.86,32.86,0,0,1,175.09,53.16Zm-8-21.71c-1,1.43-2,2.9-2.92,4.41s-1.79,3-2.62,4.6l9,1.43c-.22-.88-.45-1.75-.68-2.61s-.48-1.72-.73-2.58-.61-1.75-.91-2.65A16.22,16.22,0,0,0,167.06,31.45Z"/><path d="M201.5,33.3A2.17,2.17,0,0,1,203,33a1.51,1.51,0,0,1,1,.64,1.58,1.58,0,0,1,.26,1.23,2.68,2.68,0,0,1-.36.87,58.86,58.86,0,0,1-4.49,4.66q-2.28,2.12-4.81,4.35c1.08,1.94,2.16,3.9,3.22,5.9a39.61,39.61,0,0,1,2.62,6.14,1.94,1.94,0,0,1,0,.76,1.67,1.67,0,0,1-.65,1.12,1.51,1.51,0,0,1-1.19.26,2.07,2.07,0,0,1-1.33-.9,39.15,39.15,0,0,0-2.38-5.61Q193.45,49.69,192,47c-1.68,1.47-3.39,2.9-5.1,4.31s-3.44,2.82-5.14,4.25a2.31,2.31,0,0,1-1.26.17,1.5,1.5,0,0,1-1.3-1.82,2.28,2.28,0,0,1,.57-1.14L185,48.41q2.63-2.16,5.25-4.42c-1-2-2.08-3.83-3.18-5.64a43.81,43.81,0,0,0-3.75-5.27,1.8,1.8,0,0,1-.39-.8,2.13,2.13,0,0,1,0-.75,1.57,1.57,0,0,1,.62-1,1.51,1.51,0,0,1,1.2-.26,2.07,2.07,0,0,1,1.21.67,53.21,53.21,0,0,1,3.73,5.22q1.66,2.67,3.21,5.56l4.45-4A46.6,46.6,0,0,0,201.5,33.3Z"/><path d="M213.57,57.43a2,2,0,0,1,1.35.65,1.71,1.71,0,0,1,.42,1.13,1.56,1.56,0,0,1-.5,1.08,2.1,2.1,0,0,1-1.42.55c-1.44-.19-2.86-.41-4.27-.66l-4.26-.74a2,2,0,0,1-1.23-.86,1.64,1.64,0,0,1-.23-1.18,1.66,1.66,0,0,1,.68-1,1.94,1.94,0,0,1,1.47-.3l1.21.2c.4.07.8.15,1.21.25l3-18-2.6-.44a2.1,2.1,0,0,1-1.23-.86,1.63,1.63,0,0,1-.22-1.18,1.66,1.66,0,0,1,.68-1,1.94,1.94,0,0,1,1.47-.3l8.48,1.42a2.3,2.3,0,0,1,1,.94,1.49,1.49,0,0,1,.18,1.07,1.62,1.62,0,0,1-.59.91,2.14,2.14,0,0,1-1.3.44l-2.52-.42-3,18,1.07.16Z"/><path d="M143.92,95.49a1.91,1.91,0,0,1-1.24-.82,1.65,1.65,0,0,1-.24-1.16,1.85,1.85,0,0,1,.28-.68l3-17.78a2.42,2.42,0,0,1-.76,0,1.52,1.52,0,0,1-1.06-.64,1.56,1.56,0,0,1-.25-1.15,2.23,2.23,0,0,1,1.27-1.52,10.59,10.59,0,0,1,2.62-1,15.68,15.68,0,0,1,3.06-.44,12.92,12.92,0,0,1,2.59.09,8.94,8.94,0,0,1,3.25,1.19,8.62,8.62,0,0,1,2.28,2A7.13,7.13,0,0,1,160,76a5.46,5.46,0,0,1,.17,2.38,6.32,6.32,0,0,1-1.31,2.89,8,8,0,0,1-2.67,2.15,7.38,7.38,0,0,1,2.6,3.13,6.13,6.13,0,0,1,.43,3.48,6.28,6.28,0,0,1-.78,2.17,8,8,0,0,1-1.48,1.85,8.42,8.42,0,0,1-2,1.38,7.43,7.43,0,0,1-2.36.72,14.48,14.48,0,0,1-3.22.12c-1.07-.08-2.13-.21-3.17-.39l-1.13-.19C144.68,95.66,144.3,95.58,143.92,95.49Zm10.76-8.81a6.71,6.71,0,0,0-1.92-1.32,14.37,14.37,0,0,0-2.25-.82l-1.45-.1c-.49,0-1-.1-1.43-.18l-1.38,8.24c.57.09,1.36.2,2.36.31a13.5,13.5,0,0,0,3,0,6.64,6.64,0,0,0,2.68-.84,3,3,0,0,0,1.46-2.25,3.6,3.6,0,0,0-.11-1.63A3.11,3.11,0,0,0,154.68,86.68Zm-5.14-5.84c.42.08.85.18,1.29.28a7,7,0,0,0,1.53-.06,8.47,8.47,0,0,0,1.85-.45,5.19,5.19,0,0,0,1.62-.93,2.51,2.51,0,0,0,.88-1.55,2.81,2.81,0,0,0-.19-1.64,3.92,3.92,0,0,0-1-1.29,5.57,5.57,0,0,0-1.48-.9,7.47,7.47,0,0,0-1.67-.49,8,8,0,0,0-3,0l-1.13,6.75Q148.91,80.71,149.54,80.84Z"/><path d="M177,96.44a2.08,2.08,0,0,1,1.24.52,1.56,1.56,0,0,1,.52,1,1.63,1.63,0,0,1-.27,1,2.08,2.08,0,0,1-1.08.82,26.91,26.91,0,0,1-3.29.12,29,29,0,0,1-3.46-.27A31.56,31.56,0,0,1,167.2,99a19.81,19.81,0,0,1-3.13-1,2.25,2.25,0,0,1-.81-1,1.51,1.51,0,0,1-.09-1v0l3-18.07a1.57,1.57,0,0,1-.73-.71,1.52,1.52,0,0,1-.13-1,1.61,1.61,0,0,1,.49-.91,2,2,0,0,1,1.15-.55,17.36,17.36,0,0,1,3.38-.12c1.14.06,2.27.16,3.4.31s2.26.32,3.39.51,2.24.35,3.34.48a2,2,0,0,1,1.36.65,1.69,1.69,0,0,1,.42,1.13,1.59,1.59,0,0,1-.5,1.08,2.09,2.09,0,0,1-1.42.54c-1.67-.19-3.42-.46-5.27-.8a30.9,30.9,0,0,0-5.43-.53l-1.22,7.24c1.42.3,2.85.53,4.3.7s2.92.32,4.4.43a1.93,1.93,0,0,1,1.35.65,1.69,1.69,0,0,1,.42,1.13,1.55,1.55,0,0,1-.5,1.08,2.12,2.12,0,0,1-1.42.54c-1.53-.12-3.07-.26-4.6-.44s-3.05-.41-4.52-.71l-1.12,6.67a23.68,23.68,0,0,0,5.09,1A26.43,26.43,0,0,0,177,96.44Z"/><path d="M203.17,80.44a2.49,2.49,0,0,1,.87-1.12,1.56,1.56,0,0,1,1.1-.24,1.65,1.65,0,0,1,1,.54,2.16,2.16,0,0,1,.48,1.27q-1,5.88-2,11.39t-2.33,11.33l0,0h0a2.45,2.45,0,0,0-.1.35c0,.09,0,.2,0,.3a2.13,2.13,0,0,1-.85.88,1.49,1.49,0,0,1-1,.17,2,2,0,0,1-1.29-.89,2,2,0,0,0-.11-.32l-.12-.27h0l0-.08q-1.06-2.76-2.24-5.31c-.79-1.7-1.61-3.37-2.46-5s-1.72-3.29-2.62-4.93-1.82-3.3-2.77-5c-.25,1.45-.48,2.86-.71,4.22s-.46,2.73-.69,4.11-.48,2.84-.72,4.35-.5,3.15-.8,4.9a2,2,0,0,1-.79,1.33,1.71,1.71,0,0,1-1.22.28,1.6,1.6,0,0,1-1-.61,2.17,2.17,0,0,1-.4-1.44q.94-5.56,1.88-11.27T186,78.11a2.25,2.25,0,0,1,.81-1,1.51,1.51,0,0,1,1.1-.23,2.17,2.17,0,0,1,1.16.66q1.51,2.58,3,5.05t2.83,4.94q1.38,2.47,2.65,5c.84,1.7,1.64,3.47,2.41,5.29.61-3,1.18-5.88,1.68-8.65S202.66,83.49,203.17,80.44Z"/><path d="M209.89,107.19a2.57,2.57,0,0,1-1-.53,1.9,1.9,0,0,1-.51-.74l-.08-.27c0-.14-.06-.3-.09-.46a1.1,1.1,0,0,1,0-.44l3.11-18.49c-.26,0-.48.09-.64.13a2,2,0,0,1-1.83-.67,1.47,1.47,0,0,1-.3-1.15,1.93,1.93,0,0,1,1.32-1.39,10.43,10.43,0,0,1,2.67-.67,22,22,0,0,1,5.78.11,13.64,13.64,0,0,1,5.19,1.89,11.73,11.73,0,0,1,3.5,3.32,11.48,11.48,0,0,1,1.8,4.3,13.28,13.28,0,0,1,.06,4.79,13.7,13.7,0,0,1-1.72,4.69,11.41,11.41,0,0,1-3.45,3.67,10.26,10.26,0,0,1-3.19,1.47,20.43,20.43,0,0,1-3.51.6,29,29,0,0,1-3.61.05C212.21,107.34,211,107.27,209.89,107.19ZM217.73,86a12.93,12.93,0,0,0-1.41-.16c-.48,0-.95,0-1.43,0l-3,18.12,2.58.13a20.22,20.22,0,0,0,2.7,0,13.64,13.64,0,0,0,2.53-.46,6.08,6.08,0,0,0,2.08-1.05,9.87,9.87,0,0,0,2.54-2.92A10.64,10.64,0,0,0,225.58,96a8.78,8.78,0,0,0-.07-3.27,7.93,7.93,0,0,0-1.31-3,8.83,8.83,0,0,0-2.59-2.36A10.73,10.73,0,0,0,217.73,86Z"/><path d="M251.49,88.11a2.25,2.25,0,0,1,1,.93,1.55,1.55,0,0,1,.16,1.08,1.67,1.67,0,0,1-.63.94,2.24,2.24,0,0,1-1.33.38l-6.43-1-3.34,20.1a2,2,0,0,1-.79,1.33,1.71,1.71,0,0,1-1.22.28,1.6,1.6,0,0,1-1-.61,2.18,2.18,0,0,1-.4-1.44l3.36-20.22-6.5-1.1a2.13,2.13,0,0,1-1.18-.89,1.54,1.54,0,0,1-.21-1.16,1.8,1.8,0,0,1,.7-1,1.93,1.93,0,0,1,1.51-.25l1.75.29,2.9.49,3.5.59,3.49.59,2.91.47Z"/><path d="M272.53,92.12A2.54,2.54,0,0,1,273.4,91a1.56,1.56,0,0,1,1.1-.24,1.61,1.61,0,0,1,.95.55,2.12,2.12,0,0,1,.48,1.26q-1,5.89-2,11.39t-2.33,11.33l0,0h0a2.05,2.05,0,0,0-.1.34c0,.09,0,.2-.05.31a2.16,2.16,0,0,1-.85.87,1.49,1.49,0,0,1-1,.17,2,2,0,0,1-1.29-.89,2,2,0,0,0-.11-.32l-.12-.27h0l0-.08c-.71-1.84-1.45-3.61-2.24-5.31s-1.61-3.37-2.46-5-1.72-3.29-2.62-4.92-1.82-3.31-2.77-5c-.25,1.45-.48,2.86-.71,4.22s-.46,2.73-.69,4.11-.48,2.84-.71,4.35-.51,3.15-.81,4.9a2,2,0,0,1-.79,1.33,1.66,1.66,0,0,1-1.22.28,1.6,1.6,0,0,1-1-.61,2.15,2.15,0,0,1-.4-1.44q.94-5.57,1.88-11.26t1.87-11.27a2.17,2.17,0,0,1,.81-1,1.47,1.47,0,0,1,1.1-.24,2.17,2.17,0,0,1,1.16.66q1.51,2.58,3,5t2.83,4.94q1.38,2.47,2.65,5c.84,1.7,1.64,3.47,2.41,5.29.61-3,1.18-5.88,1.68-8.65S272,95.16,272.53,92.12Z"/><path d="M291.14,115.65a2.08,2.08,0,0,1,1.24.53,1.57,1.57,0,0,1,.51,1,1.66,1.66,0,0,1-.26,1.06,2.1,2.1,0,0,1-1.09.81,26.68,26.68,0,0,1-3.28.13,34,34,0,0,1-3.47-.27,31.4,31.4,0,0,1-3.4-.64,19.46,19.46,0,0,1-3.13-1,2.37,2.37,0,0,1-.81-1,1.51,1.51,0,0,1-.09-1v0l3-18.07a1.52,1.52,0,0,1-.72-.72,1.56,1.56,0,0,1-.14-1,1.71,1.71,0,0,1,.49-.91,2,2,0,0,1,1.15-.55,18.32,18.32,0,0,1,3.39-.13c1.13.06,2.27.17,3.4.32s2.26.31,3.38.5,2.24.35,3.35.48a2,2,0,0,1,1.35.65,1.78,1.78,0,0,1,.43,1.13,1.56,1.56,0,0,1-.5,1.08,2.12,2.12,0,0,1-1.43.55q-2.49-.3-5.26-.81a33,33,0,0,0-5.43-.53l-1.22,7.25c1.41.29,2.85.53,4.3.7s2.92.31,4.4.42a2,2,0,0,1,1.35.65,1.71,1.71,0,0,1,.42,1.13,1.56,1.56,0,0,1-.5,1.08,2,2,0,0,1-1.42.54c-1.54-.11-3.07-.26-4.61-.43s-3-.41-4.51-.72L281,114.57a24.31,24.31,0,0,0,5.09,1.05A27.23,27.23,0,0,0,291.14,115.65Z"/><path d="M299.82,121.75a1.6,1.6,0,0,1-2.21-.33,2.13,2.13,0,0,1-.39-1.44l3.31-19.64a1.71,1.71,0,0,1-1-.69,1.54,1.54,0,0,1-.21-1.12,2,2,0,0,1,.32-.75,2.15,2.15,0,0,1,.72-.64A17.11,17.11,0,0,1,304.64,96a14.87,14.87,0,0,1,4.52.06,12.17,12.17,0,0,1,3.4,1.08,9.07,9.07,0,0,1,2.79,2.12,8.41,8.41,0,0,1,1.9,3.28,7.45,7.45,0,0,1,.2,3.34,7.93,7.93,0,0,1-.86,2.52,10.24,10.24,0,0,1-1.62,2.2A10.61,10.61,0,0,1,310,113.5c.84,1.35,1.76,2.79,2.74,4.31s1.91,3,2.76,4.27a2.1,2.1,0,0,1,.23,1.36,1.52,1.52,0,0,1-.64,1,1.58,1.58,0,0,1-1.18.25,2.19,2.19,0,0,1-.7-.27,1.81,1.81,0,0,1-.63-.63l-.71-1.12c-.33-.52-.71-1.1-1.14-1.75s-.87-1.35-1.34-2.09l-1.32-2.09c-.42-.65-.79-1.22-1.13-1.73s-.57-.88-.7-1.1a19,19,0,0,1-2.27-.08c-.75-.07-1.5-.15-2.25-.25l-1.14,6.79A2,2,0,0,1,299.82,121.75Zm12.92-20.29a6.53,6.53,0,0,0-2-1.35,10.28,10.28,0,0,0-2.35-.69,11.07,11.07,0,0,0-2.14-.15,12.51,12.51,0,0,0-2.11.24l-1.81,10.74c1.05.12,2.11.22,3.17.28a12.47,12.47,0,0,0,3.21-.22,6.53,6.53,0,0,0,1.87-.66,8,8,0,0,0,1.65-1.16,6.57,6.57,0,0,0,1.25-1.5,4.77,4.77,0,0,0,.65-1.69,4.25,4.25,0,0,0-.14-1.93A4.6,4.6,0,0,0,312.74,101.46Z"/><ellipse class="cls-6" cx="177.76" cy="181.25" rx="17.24" ry="6.11" transform="translate(-40.09 311.6) rotate(-76.45)"/><ellipse class="cls-6" cx="321.33" cy="223.23" rx="17.24" ry="6.11" transform="translate(-13.48 425.69) rotate(-65.95)"/><polygon class="cls-7" points="297.12 285.37 214.46 297.23 162.72 235.99 192.45 146.37 272.84 134.7 327.37 196.61 297.12 285.37"/><ellipse class="cls-8" cx="227.68" cy="191.8" rx="6.46" ry="14.01" transform="translate(-12.12 368.21) rotate(-76.45)"/><ellipse cx="228.03" cy="191.88" rx="6.46" ry="4.31" transform="translate(-11.94 368.61) rotate(-76.45)"/><ellipse class="cls-8" cx="269.24" cy="203.29" rx="6.46" ry="14.01" transform="translate(-0.29 406.2) rotate(-74.03)"/><ellipse cx="269.58" cy="203.39" rx="6.46" ry="4.31" transform="translate(-0.13 406.6) rotate(-74.03)"/><path class="cls-9" d="M249.53,262.08c-1.3,5.4-11-1.17-19.89-3.31s-21.22-.88-19.91-6.28,16.16-7.92,25-5.79S250.83,256.69,249.53,262.08Z"/><polygon class="cls-6" points="243.51 210.39 244.47 240.18 225.78 234.93 243.51 210.39"/><polygon class="cls-10" points="242.92 190.63 224.85 177.61 226.79 173.7 245.34 189.73 242.92 190.63"/><polygon class="cls-10" points="257.62 194.92 279.63 191.55 279.69 187.18 255.87 193 257.62 194.92"/><polygon points="191.86 330.53 131.54 297.25 107.81 239.96 98.98 243.61 122.78 301.08 121.94 302.62 123.86 303.68 124.88 306.14 126.84 305.33 187.35 338.7 191.86 330.53"/><path class="cls-11" d="M116,237.44l-6.47-9.5A11.52,11.52,0,0,0,108,226.1s0,0,0,.05c-3.44,6.46-11.17,9.64-20,9.13a11.75,11.75,0,0,0,2,6l6.46,9.5A11.85,11.85,0,1,0,116,237.44Z"/><path class="cls-12" d="M108,226.15s0,0,0-.05c5.35-10.16-1.92-24.54-16.26-32.16S61.37,188.35,56,198.51s1.87,24.59,16.23,32.22A38.39,38.39,0,0,0,88,235.28C96.82,235.79,104.55,232.61,108,226.15Z"/><path class="cls-13" d="M291,307,261.13,335.8A176,176,0,1,0,180,355.63c2.3,0,4.6-.06,6.88-.15l-21-84.5Z"/><path class="cls-14" d="M261.13,335.8,291,307,165.87,271l21,84.5a174.3,174.3,0,0,0,61.48-13.65Q254.89,339.07,261.13,335.8Z"/><path class="cls-13" d="M341.83,111.64A175.73,175.73,0,1,0,180,355.63c2.3,0,4.6-.06,6.88-.15a174.3,174.3,0,0,0,61.48-13.65q6.52-2.76,12.77-6a175.82,175.82,0,0,0,80.7-224.16Z"/><path d="M180,1.5a178.5,178.5,0,0,0,0,357c2.54,0,5.07-.07,7.59-.17A178.5,178.5,0,0,0,180,1.5ZM304.19,304.19a175.4,175.4,0,0,1-43.06,31.61q-6.24,3.26-12.77,6a174.3,174.3,0,0,1-61.48,13.65c-2.28.09-4.58.15-6.88.15A175.68,175.68,0,0,1,111.64,18.17a175.63,175.63,0,0,1,192.55,286Z"/></g></svg>
