<svg xmlns="http://www.w3.org/2000/svg" width="205" height="130" viewBox="0 0 205 130"><defs><style>.cls-1{fill:#e5d648;}.cls-2{fill:#a5a5a5;}.cls-3{fill:#e2e0e0;}.cls-4{fill:#f43838;}</style></defs><title>Taxi</title><g id="Layer_2" data-name="Layer 2"><path class="cls-1" d="M7.18,119.73l46.71-1.41c0-.07-1.19-20.83,14.46-20.6s16.76,7.79,19.75,14.18,39.23.24,39.3.43c0,0,4.22-12.33,13.07-13.14s16.29,4.63,17.66,11.6,44.09-2.27,44.24-2.69c.61-14.9,1.14-29.51,1.6-44.32a280.49,280.49,0,0,1-28.45,2.15C165,51,153.76,34,141.91,16.7,118,14.79,94.06,12.94,70,11.29a535.62,535.62,0,0,0-25.4,50.62A289,289,0,0,0,1,65Q4.1,92.42,7.18,119.73Z"/><circle cx="142.95" cy="114.76" r="13.18"/><circle cx="70.94" cy="113.75" r="13.18"/><polyline class="cls-2" points="56.75 63.04 75 19.43 102.38 21.46 102.38 63.04"/><polyline class="cls-2" points="112.52 22.47 112.52 63.04 158.16 63.04 138.89 23.49"/><rect class="cls-3" x="3" y="74.19" width="24.97" height="4.06"/><rect class="cls-3" x="27.97" y="78.25" width="24.97" height="4.06"/><rect class="cls-3" x="52.94" y="74.19" width="24.97" height="4.06"/><rect class="cls-3" x="77.92" y="78.25" width="24.97" height="4.06"/><rect class="cls-3" x="102.89" y="74.19" width="24.97" height="4.06"/><rect class="cls-3" x="127.86" y="78.25" width="24.97" height="4.06"/><rect class="cls-3" x="152.84" y="74.19" width="24.97" height="4.06"/><rect class="cls-3" x="177.81" y="78.25" width="24.97" height="4.06"/><rect x="3" y="78.25" width="24.97" height="4.06"/><rect x="27.97" y="74.19" width="24.97" height="4.06"/><rect x="52.94" y="78.25" width="24.97" height="4.06"/><rect x="77.92" y="74.19" width="24.97" height="4.06"/><rect x="102.89" y="78.25" width="24.97" height="4.06"/><rect x="127.86" y="74.19" width="24.97" height="4.06"/><rect x="152.84" y="78.25" width="24.97" height="4.06"/><rect x="177.81" y="74.19" width="24.97" height="4.06"/><rect class="cls-4" x="91.67" y="3.04" width="31.97" height="11.12" transform="translate(0.75 -6.7) rotate(3.57)"/><path d="M100.18,4.43a.58.58,0,0,1,.31.23.45.45,0,0,1,.08.31.54.54,0,0,1-.15.29.66.66,0,0,1-.37.15l-1.89-.1L97.8,11.2a.57.57,0,0,1-.19.41.49.49,0,0,1-.34.12.48.48,0,0,1-.3-.15.59.59,0,0,1-.16-.4l.36-5.94-1.91-.12a.6.6,0,0,1-.37-.22.4.4,0,0,1-.09-.33A.46.46,0,0,1,95,4.26a.56.56,0,0,1,.42-.12l.52,0,.85,0,1,.07,1,.06.86.05Z"/><path d="M106.8,11.68a.73.73,0,0,1-.15.37.39.39,0,0,1-.27.15.43.43,0,0,1-.31-.07.57.57,0,0,1-.25-.31,10.89,10.89,0,0,0-.14-1.13,11,11,0,0,0-.24-1.11l-3.21-.18h-.1c-.25.67-.47,1.37-.68,2.09a.63.63,0,0,1-.3.32.47.47,0,0,1-.35,0,.43.43,0,0,1-.25-.23.64.64,0,0,1,0-.44,34.21,34.21,0,0,1,1.18-3.36,20.63,20.63,0,0,1,1.61-3.18.59.59,0,0,1,.61-.28.46.46,0,0,1,.2.13h0a5.55,5.55,0,0,1,1,1.43c.25.52.47,1,.68,1.59l.21.57.19.57.64,0a.63.63,0,0,1,.32.24.44.44,0,0,1,.09.3.43.43,0,0,1-.15.28.56.56,0,0,1-.36.17l-.25,0q.12.51.21,1C106.74,11,106.78,11.33,106.8,11.68Zm-3-6A14.65,14.65,0,0,0,103.12,7c-.22.47-.43.93-.62,1.41l2.64.14c-.09-.25-.19-.49-.28-.74s-.19-.48-.29-.72-.23-.48-.34-.73A5.07,5.07,0,0,0,103.83,5.66Z"/><path d="M113.81,5.16a.64.64,0,0,1,.41-.14.43.43,0,0,1,.32.16.42.42,0,0,1,.11.34.72.72,0,0,1-.07.26,18.31,18.31,0,0,1-1.16,1.49c-.39.45-.81.92-1.26,1.4.38.52.75,1.06,1.11,1.6a11.75,11.75,0,0,1,1,1.69,1.64,1.64,0,0,1,0,.22.44.44,0,0,1-.16.34.44.44,0,0,1-.33.12.62.62,0,0,1-.41-.22,10.69,10.69,0,0,0-.86-1.55c-.33-.5-.66-1-1-1.47-.45.47-.89.94-1.35,1.4l-1.35,1.38a.83.83,0,0,1-.36.09.46.46,0,0,1-.32-.15.45.45,0,0,1-.11-.34.76.76,0,0,1,.13-.35l1.4-1.42,1.38-1.43c-.36-.54-.72-1-1.09-1.53a12.52,12.52,0,0,0-1.24-1.41.59.59,0,0,1-.14-.22.88.88,0,0,1,0-.21.46.46,0,0,1,.15-.32.45.45,0,0,1,.34-.12.65.65,0,0,1,.37.16,14.4,14.4,0,0,1,1.23,1.39c.38.48.74,1,1.1,1.51l1.16-1.3A13.44,13.44,0,0,0,113.81,5.16Z"/><path d="M118,11.75a.53.53,0,0,1,.41.15.47.47,0,0,1,.16.31.49.49,0,0,1-.11.33.64.64,0,0,1-.4.2c-.42,0-.83,0-1.25-.06l-1.25-.09a.57.57,0,0,1-.38-.21.47.47,0,0,1-.1-.33.46.46,0,0,1,.17-.31.53.53,0,0,1,.41-.14l.36,0,.35,0,.33-5.28-.76,0a.57.57,0,0,1-.38-.21.47.47,0,0,1-.1-.33.49.49,0,0,1,.16-.31.61.61,0,0,1,.42-.14l2.49.16a.63.63,0,0,1,.32.24A.44.44,0,0,1,119,6a.43.43,0,0,1-.15.28.56.56,0,0,1-.36.17l-.74,0-.33,5.29.32,0Z"/></g></svg>
