<svg xmlns="http://www.w3.org/2000/svg" width="360" height="115" viewBox="0 0 360 115"><defs><style>.cls-1{fill:#fcfcfc;}</style></defs><title>UI_back</title><g id="Layer_5" data-name="Layer 5"><rect class="cls-1" x="3.5" y="2" width="355" height="112" rx="18"/><path d="M339.5,114.5H20.5A19.53,19.53,0,0,1,1,95V20A19.53,19.53,0,0,1,20.5.5h319A19.53,19.53,0,0,1,359,20V95A19.53,19.53,0,0,1,339.5,114.5ZM20.5,3.5A16.52,16.52,0,0,0,4,20V95a16.52,16.52,0,0,0,16.5,16.5h319A16.52,16.52,0,0,0,356,95V20A16.52,16.52,0,0,0,339.5,3.5Z"/><path d="M40.69,75.76a2.84,2.84,0,0,1-2-.91A2.55,2.55,0,0,1,38,73.18a3,3,0,0,1,.25-1.07V44.9a3.48,3.48,0,0,1-1.13.19,2.32,2.32,0,0,1-2.4-2.33,3.37,3.37,0,0,1,1.51-2.58,15.93,15.93,0,0,1,3.66-2.11,25,25,0,0,1,4.44-1.42,19,19,0,0,1,3.87-.5,13.44,13.44,0,0,1,5.14.94,12.91,12.91,0,0,1,3.9,2.43,10.71,10.71,0,0,1,2.46,3.27,8.25,8.25,0,0,1,.85,3.5,9.5,9.5,0,0,1-1.23,4.63,12.11,12.11,0,0,1-3.43,3.87,11.25,11.25,0,0,1,4.66,4,9.41,9.41,0,0,1,.88,8.5,12.23,12.23,0,0,1-1.73,3.12A12.43,12.43,0,0,1,57.06,73a11.25,11.25,0,0,1-3.34,1.67,22.16,22.16,0,0,1-4.75,1c-1.62.14-3.22.22-4.82.22H42.42C41.85,75.83,41.27,75.81,40.69,75.76Zm4.69-23.21,2,.1a11.18,11.18,0,0,0,2.27-.47A12.4,12.4,0,0,0,52.28,51a8.21,8.21,0,0,0,2.17-1.79,3.76,3.76,0,0,0,.91-2.52,4.13,4.13,0,0,0-.69-2.39,5.73,5.73,0,0,0-1.76-1.67,8.2,8.2,0,0,0-2.43-1,11.46,11.46,0,0,0-2.61-.31,12.16,12.16,0,0,0-4.47.81V52.52Q44.41,52.52,45.38,52.55ZM54.48,60a10,10,0,0,0-3.18-1.48,22.15,22.15,0,0,0-3.56-.67c-.71.09-1.44.16-2.17.22s-1.46.1-2.17.1v12.6c.88,0,2.07,0,3.59-.13a21.43,21.43,0,0,0,4.44-.72A10,10,0,0,0,55.2,68a4.51,4.51,0,0,0,1.61-3.71,5.3,5.3,0,0,0-.57-2.4A4.65,4.65,0,0,0,54.48,60Z"/><path d="M99.51,73.37a3.43,3.43,0,0,1-.63,1.95,2.25,2.25,0,0,1-1.38.92A2.41,2.41,0,0,1,95.86,76a3.43,3.43,0,0,1-1.39-1.51,53.73,53.73,0,0,0-1.07-5.82q-.69-2.87-1.63-5.7L75.08,63l-.29,0-.28,0q-1.58,5.35-2.84,11.08a3,3,0,0,1-1.44,1.77,2.55,2.55,0,0,1-1.8.19A2.43,2.43,0,0,1,67,74.88a3.21,3.21,0,0,1-.28-2.27q2.08-9.12,5-17.85a112.68,112.68,0,0,1,7.34-17,2.19,2.19,0,0,1,1.76-1.51,2.16,2.16,0,0,1,1.32-.09,2.21,2.21,0,0,1,1.07.59s.07,0,.07,0,0,0,.06,0a30.28,30.28,0,0,1,5.48,7.11q2.2,4,4,8.07c.46,1,.89,1.93,1.29,2.89s.79,1.94,1.17,2.9l3.33-.06a3.43,3.43,0,0,1,1.77,1.13,2.27,2.27,0,0,1-.13,3.06,3.18,3.18,0,0,1-1.83,1H97.18c.55,1.72,1,3.46,1.42,5.2A49.23,49.23,0,0,1,99.51,73.37ZM82.13,43.08q-1.77,3.59-3.24,7.3t-2.74,7.5l13.73-.13c-.55-1.26-1.11-2.5-1.67-3.72s-1.15-2.43-1.74-3.65-1.34-2.45-2-3.71A24.77,24.77,0,0,0,82.13,43.08Z"/><path d="M128.8,65.18a3.29,3.29,0,0,1,2.08-.82,2.32,2.32,0,0,1,1.7.7,2.39,2.39,0,0,1,.69,1.76,4,4,0,0,1-.31,1.39,35.43,35.43,0,0,1-2.37,3.18,16.63,16.63,0,0,1-2.86,2.71A15,15,0,0,1,124.3,76a11.16,11.16,0,0,1-4.13.73,13.68,13.68,0,0,1-6.2-1.39,15,15,0,0,1-4.85-3.78A16.73,16.73,0,0,1,106,65.91a21.33,21.33,0,0,1-1.1-7,16.86,16.86,0,0,1,.69-4.92,28.64,28.64,0,0,1,2.2-5.29,18.24,18.24,0,0,1,3-4,21.12,21.12,0,0,1,4-3.08,37.87,37.87,0,0,1,5.14-2.55,25.45,25.45,0,0,1,3.49-1.26,11.31,11.31,0,0,1,3.06-.44,6.62,6.62,0,0,1,4,1.26A11.86,11.86,0,0,1,133.71,43a3.48,3.48,0,0,1,.19,1.13,2.47,2.47,0,0,1-.69,1.83,2.32,2.32,0,0,1-1.7.69,3.07,3.07,0,0,1-2.21-1,10.17,10.17,0,0,0-1.57-2.4,2.18,2.18,0,0,0-1.58-.69,4.65,4.65,0,0,0-1.63.35l-2.4.85a29.87,29.87,0,0,0-4.6,2.29,16.75,16.75,0,0,0-3.87,3.28A14.94,14.94,0,0,0,111,53.72a15.58,15.58,0,0,0-1,5.73,14.6,14.6,0,0,0,.69,4.44,13.24,13.24,0,0,0,2,3.91,9.84,9.84,0,0,0,3.18,2.77,8.9,8.9,0,0,0,4.34,1,6.49,6.49,0,0,0,2.71-.57,9.21,9.21,0,0,0,2.33-1.51,14.22,14.22,0,0,0,2-2.08A23.91,23.91,0,0,0,128.8,65.18Z"/><path d="M143.73,72.93a3,3,0,0,1-.85,2.17,2.55,2.55,0,0,1-1.74.73,2.58,2.58,0,0,1-1.7-.7,3.14,3.14,0,0,1-1-2.07q.06-8.19.06-16.25T138.44,40a3.63,3.63,0,0,1,1-1.89,2.28,2.28,0,0,1,1.58-.63,2.45,2.45,0,0,1,1.54.57,3.19,3.19,0,0,1,1,1.76q0,3.59,0,6.87t0,6.92a22.67,22.67,0,0,0,4.75-2.7A28.7,28.7,0,0,0,152,47.52q1.7-1.86,3.4-4.1c1.13-1.49,2.43-3.09,3.9-4.82a3.3,3.3,0,0,1,2.08-.81,2.32,2.32,0,0,1,1.7.69,2.39,2.39,0,0,1,.69,1.76,4,4,0,0,1-.31,1.39q-1.89,2.2-3.4,4.12t-3,3.62c-1,1.14-1.94,2.2-2.93,3.18a25.22,25.22,0,0,1-3.24,2.74q3.71,4,7.37,7.85t7.3,7.84a3.1,3.1,0,0,1,.69,2,2.29,2.29,0,0,1-.69,1.73,2.37,2.37,0,0,1-1.7.66,3.11,3.11,0,0,1-1.1-.22,2.7,2.7,0,0,1-1.1-.78c-.3-.34-.84-.93-1.64-1.77s-1.71-1.81-2.74-2.93-2.12-2.29-3.28-3.52l-3.27-3.53c-1-1.11-1.94-2.09-2.74-2.93s-1.35-1.43-1.64-1.76c-.8.37-1.76.77-2.9,1.19,0,2.44,0,4.76.07,7S143.64,70.54,143.73,72.93Z"/><polygon points="221.5 48 221.5 41.71 208 49.5 221.5 57.29 221.5 52 249.5 52 249.5 66 231.5 66 231.5 70 249.5 70 253.5 70 253.5 66 253.5 52 253.5 51 253.5 48 221.5 48"/></g></svg>
