<svg xmlns="http://www.w3.org/2000/svg" xmlns:xlink="http://www.w3.org/1999/xlink" width="365" height="480" viewBox="0 0 365 480"><defs><style>.cls-1{fill:#efefef;}.cls-2{fill:url(#radial-gradient);}</style><radialGradient id="radial-gradient" cx="189" cy="345.25" r="134.5" gradientTransform="translate(0 241.67) scale(1 0.3)" gradientUnits="userSpaceOnUse"><stop offset="0" stop-opacity="0.6"/><stop offset="1" stop-opacity="0"/></radialGradient></defs><title>UI_gameover_score</title><g id="Layer_2" data-name="Layer 2"><rect class="cls-1" x="7.5" y="157.75" width="355" height="112" rx="18"/><circle class="cls-2" cx="189" cy="345.25" r="134.5"/><path d="M343.5,270.25H24.5A19.53,19.53,0,0,1,5,250.75v-75a19.53,19.53,0,0,1,19.5-19.5h319a19.53,19.53,0,0,1,19.5,19.5v75A19.53,19.53,0,0,1,343.5,270.25Zm-319-111A16.52,16.52,0,0,0,8,175.75v75a16.52,16.52,0,0,0,16.5,16.5h319a16.52,16.52,0,0,0,16.5-16.5v-75a16.52,16.52,0,0,0-16.5-16.5Z"/><path d="M37.82,226.43a17.54,17.54,0,0,0,8.89,2.51c5.08,0,8-2.68,8-6.56,0-3.59-2-5.64-7.24-7.64-6.27-2.22-10.15-5.47-10.15-10.88,0-6,5-10.44,12.43-10.44a17.44,17.44,0,0,1,8.49,1.88l-1.36,4a15.39,15.39,0,0,0-7.3-1.82c-5.25,0-7.24,3.13-7.24,5.76,0,3.59,2.34,5.35,7.64,7.41,6.5,2.5,9.8,5.64,9.8,11.28,0,5.93-4.39,11.06-13.45,11.06-3.71,0-7.75-1.08-9.81-2.45Z"/><path d="M93.45,231.22A24.63,24.63,0,0,1,83.31,233c-10.84,0-19-6.84-19-19.44,0-12,8.15-20.18,20.07-20.18,4.79,0,7.81,1,9.12,1.71l-1.2,4.05a18.08,18.08,0,0,0-7.75-1.6c-9,0-15,5.76-15,15.85,0,9.41,5.41,15.45,14.76,15.45a20.06,20.06,0,0,0,8.1-1.59Z"/><path d="M131.3,212.86c0,13.23-8,20.24-17.84,20.24-10.15,0-17.27-7.87-17.27-19.5,0-12.2,7.58-20.18,17.84-20.18C124.52,193.42,131.3,201.46,131.3,212.86Zm-29.81.63c0,8.21,4.44,15.56,12.25,15.56s12.32-7.24,12.32-16c0-7.64-4-15.62-12.26-15.62S101.49,205.05,101.49,213.49Z"/><path d="M137.74,194.56a51.93,51.93,0,0,1,9.52-.8c5.3,0,8.72,1,11.12,3.14a9.6,9.6,0,0,1,3,7.3,10.1,10.1,0,0,1-7.24,9.8v.17c3,1,4.73,3.77,5.64,7.76,1.25,5.36,2.17,9.06,3,10.54h-5.13c-.62-1.08-1.48-4.39-2.56-9.18-1.14-5.3-3.19-7.29-7.7-7.46H142.7v16.64h-5Zm5,17.5h5.07c5.3,0,8.67-2.9,8.67-7.29,0-5-3.59-7.13-8.84-7.19a20.25,20.25,0,0,0-4.9.46Z"/><path d="M188.3,214.46H173.36v13.85H190v4.16H168.4V194.05h20.75v4.16H173.36v12.14H188.3Z"/><path d="M195.08,209.44a3.4,3.4,0,1,1,6.78,0,3.39,3.39,0,1,1-6.78,0Zm0,20.13a3.4,3.4,0,1,1,6.78,0,3.39,3.39,0,1,1-6.78,0Z"/><rect class="cls-1" x="4.5" y="1.75" width="355" height="112" rx="18"/><path d="M340.5,114.25H21.5A19.53,19.53,0,0,1,2,94.75v-75A19.53,19.53,0,0,1,21.5.25h319A19.53,19.53,0,0,1,360,19.75v75A19.53,19.53,0,0,1,340.5,114.25Zm-319-111A16.52,16.52,0,0,0,5,19.75v75a16.52,16.52,0,0,0,16.5,16.5h319A16.52,16.52,0,0,0,357,94.75v-75a16.52,16.52,0,0,0-16.5-16.5Z"/><path d="M57.72,54a3,3,0,0,1,1.7,1A2.35,2.35,0,0,1,60,56.44a2.21,2.21,0,0,1-.49,1.37,3.18,3.18,0,0,1-1.4,1v9.11a3.08,3.08,0,0,1-.88,2.25c-.58.61-1.14,1.18-1.67,1.7a11.48,11.48,0,0,1-4.59,2.83,16.79,16.79,0,0,1-5.37.88,15.82,15.82,0,0,1-7.78-1.85,18.16,18.16,0,0,1-5.56-4.68,20.47,20.47,0,0,1-3.35-6.17,20,20,0,0,1-1.12-6.38,19.3,19.3,0,0,1,.42-3.83,20.51,20.51,0,0,1,1.31-4.07,18.85,18.85,0,0,1,2.22-3.77,12,12,0,0,1,3.16-2.92,39.39,39.39,0,0,1,6.71-3.49,18.86,18.86,0,0,1,7-1.37,18.08,18.08,0,0,1,2.5.21,17.55,17.55,0,0,1,2.82.67,7.46,7.46,0,0,1,2.34,1.25,2.4,2.4,0,0,1,1,1.94,2.23,2.23,0,0,1-.66,1.64,2.31,2.31,0,0,1-1.71.67,4.12,4.12,0,0,1-1.27-.24L52,42.67c-.55-.18-1.12-.35-1.7-.51a6.65,6.65,0,0,0-1.74-.25,10.52,10.52,0,0,0-1.15.06,5.21,5.21,0,0,0-1.09.25c-1.58.48-3.19,1.06-4.81,1.73a17,17,0,0,0-4.4,2.64,12.57,12.57,0,0,0-3.19,4,13.23,13.23,0,0,0-1.22,6,15.07,15.07,0,0,0,3.77,10,12.91,12.91,0,0,0,4,3,10.7,10.7,0,0,0,4.68,1.09,10.82,10.82,0,0,0,4.19-.85,11.54,11.54,0,0,0,3.77-2.55V59q-2.31.06-4.59.06H43.92a3,3,0,0,1-2-.91,2.34,2.34,0,0,1-.64-1.58,2.55,2.55,0,0,1,.7-1.67,2.59,2.59,0,0,1,2.1-.82l2.58,0c1.32,0,2.72,0,4.22,0s2.91,0,4.23,0Z"/><path d="M95.34,72.36a3.35,3.35,0,0,1-.61,1.89,2.2,2.2,0,0,1-1.34.88,2.31,2.31,0,0,1-1.58-.28,3.35,3.35,0,0,1-1.33-1.46,53,53,0,0,0-1-5.62q-.66-2.76-1.58-5.5l-16.1.12-.27,0-.28,0Q69.7,67.51,68.48,73a2.88,2.88,0,0,1-1.4,1.7,2.42,2.42,0,0,1-1.73.18A2.29,2.29,0,0,1,64,73.82a3.06,3.06,0,0,1-.27-2.19A175.26,175.26,0,0,1,68.57,54.4,108.66,108.66,0,0,1,75.65,38a2.13,2.13,0,0,1,1.7-1.46,2.14,2.14,0,0,1,2.31.49s.06,0,.06,0,0,0,.06,0a29.17,29.17,0,0,1,5.29,6.87c1.42,2.55,2.71,5.14,3.89,7.78.44.93.86,1.86,1.24,2.79s.76,1.87,1.13,2.8l3.22-.06a3.27,3.27,0,0,1,1.7,1.09,2.28,2.28,0,0,1,.52,1.49,2.39,2.39,0,0,1-.64,1.46,3.07,3.07,0,0,1-1.76.94H93.09c.53,1.66,1,3.33,1.37,5A48.18,48.18,0,0,1,95.34,72.36ZM78.57,43.13q-1.71,3.46-3.13,7t-2.65,7.23L86,57.29c-.53-1.22-1.06-2.41-1.61-3.59s-1.1-2.35-1.67-3.52-1.3-2.37-2-3.59A23.5,23.5,0,0,0,78.57,43.13Z"/><path d="M141.71,72.54a2.92,2.92,0,0,1-.82,2.1,2.34,2.34,0,0,1-3.28.06,2.79,2.79,0,0,1-.89-2q-.3-2.92-.75-6.17c-.31-2.17-.65-4.36-1-6.57s-.81-4.38-1.27-6.53-1-4.15-1.49-6c-.77,1.87-1.54,3.82-2.31,5.87l-2.34,6.2q-1.18,3.12-2.34,6.23c-.77,2.06-1.56,4-2.37,5.89a2.79,2.79,0,0,1-2.13,1.16,3.14,3.14,0,0,1-2-1l-12-23.52q-.3,2.93-.61,6.14t-.57,6.51q-.28,3.27-.58,6.5c-.2,2.15-.41,4.19-.61,6.14a3.47,3.47,0,0,1-1.09,1.52,2.37,2.37,0,0,1-1.4.48,2.28,2.28,0,0,1-1.58-.67A2.86,2.86,0,0,1,99.35,73c.24-2.59.49-5.28.76-8s.52-5.57.79-8.39.52-5.62.79-8.42.52-5.49.76-8.08a3,3,0,0,1,.94-1.7,2.29,2.29,0,0,1,1.55-.61,2.68,2.68,0,0,1,2.25,1.34c1.09,2,2.19,4.06,3.28,6.23s2.19,4.35,3.28,6.56,2.2,4.4,3.31,6.56,2.22,4.25,3.32,6.23q1.22-3,2.46-6.23t2.49-6.56q1.24-3.32,2.49-6.59T130.34,39a3.34,3.34,0,0,1,1.1-1.16,2.45,2.45,0,0,1,1.27-.36,2.3,2.3,0,0,1,1.43.54,3,3,0,0,1,1,1.58c.73,2.56,1.43,5.21,2.1,8s1.3,5.54,1.89,8.35,1.1,5.63,1.55,8.45S141.47,69.91,141.71,72.54Z"/><path d="M167.29,68.05a3.09,3.09,0,0,1,1.92.45,2.31,2.31,0,0,1,1,1.28,2.42,2.42,0,0,1-.12,1.58,3.11,3.11,0,0,1-1.37,1.43,38.61,38.61,0,0,1-4.68,1,46.71,46.71,0,0,1-5,.45,42.41,42.41,0,0,1-5.05-.09,28.29,28.29,0,0,1-4.74-.73,3.25,3.25,0,0,1-1.39-1.18,2.19,2.19,0,0,1-.37-1.37V44.1a2.16,2.16,0,0,1-1.21-.85,2.23,2.23,0,0,1-.43-1.34,2.42,2.42,0,0,1,.49-1.42,3,3,0,0,1,1.52-1.07,26.57,26.57,0,0,1,4.83-1c1.64-.18,3.29-.3,4.95-.37s3.32-.09,5-.09,3.3,0,4.93-.12a2.82,2.82,0,0,1,2.09.61,2.45,2.45,0,0,1,.88,1.52,2.3,2.3,0,0,1-.45,1.67,3.05,3.05,0,0,1-1.92,1.12q-3.65.2-7.75.13a46.82,46.82,0,0,0-7.93.54v10.7q3.16.12,6.35,0t6.42-.46a2.82,2.82,0,0,1,2.09.61,2.45,2.45,0,0,1,.88,1.52,2.3,2.3,0,0,1-.45,1.67,3.08,3.08,0,0,1-1.92,1.13c-2.23.2-4.46.36-6.71.48s-4.47.14-6.66.06V69a35.12,35.12,0,0,0,7.57.27A39.15,39.15,0,0,0,167.29,68.05Z"/><path d="M230.44,58.63a34.38,34.38,0,0,1-1.55,4.49,30.11,30.11,0,0,1-2.37,4.5,23.27,23.27,0,0,1-3.16,3.89,12.65,12.65,0,0,1-3.92,2.67l-1.71.64a13.5,13.5,0,0,1-1.45.46c-.49.12-1,.23-1.55.33a17.65,17.65,0,0,1-1.86.22,1.16,1.16,0,0,0-.3,0,2.22,2.22,0,0,1-.37,0,10.88,10.88,0,0,1-3.22-.52l-3.1-1a11.28,11.28,0,0,1-4.19-2.62,14.51,14.51,0,0,1-2.77-3.86,17.72,17.72,0,0,1-1.51-4.58,25.9,25.9,0,0,1-.46-4.87c0-.6,0-1.2.06-1.79s.1-1.16.18-1.73a24.6,24.6,0,0,1,1.07-4.19,28.39,28.39,0,0,1,1.91-4.41,24.54,24.54,0,0,1,2.64-4A13.94,13.94,0,0,1,206,39.42a16.52,16.52,0,0,1,4.56-2.09,17.59,17.59,0,0,1,4.93-.7,16.22,16.22,0,0,1,7.77,1.94,13.88,13.88,0,0,1,5.78,6,14.86,14.86,0,0,1,1.46,4.1,22.71,22.71,0,0,1,.42,4.34c0,.94,0,1.88-.12,2.83S230.6,57.69,230.44,58.63ZM225.57,58c.13-.81.24-1.63.34-2.46a21,21,0,0,0,.15-2.52,18,18,0,0,0-.3-3.23,9.81,9.81,0,0,0-1.1-3,9.51,9.51,0,0,0-4.07-4A11.93,11.93,0,0,0,215,41.37a10.25,10.25,0,0,0-6.2,2,14.31,14.31,0,0,0-3,3.1,20.66,20.66,0,0,0-2.19,3.89,23.19,23.19,0,0,0-1.33,4.22,19.53,19.53,0,0,0-.46,4.11,16.58,16.58,0,0,0,.64,4.65,10.75,10.75,0,0,0,2,3.89,10.35,10.35,0,0,0,3.43,2.7,10.74,10.74,0,0,0,4.86,1,9.51,9.51,0,0,0,2.34-.3,9,9,0,0,0,2.16-.85,13.59,13.59,0,0,0,3.13-2.37,18.45,18.45,0,0,0,2.4-3,21.12,21.12,0,0,0,1.76-3.49,35.2,35.2,0,0,0,1.22-3.68Z"/><path d="M263,38.87a2.8,2.8,0,0,1,2.37-1.58A2.39,2.39,0,0,1,267,38a2.29,2.29,0,0,1,.73,1.77,3.86,3.86,0,0,1-.3,1.33A133.79,133.79,0,0,0,259.76,57q-3.37,8.32-6.47,16.47a3.1,3.1,0,0,1-1,1.45,2.21,2.21,0,0,1-2.7.06,3.08,3.08,0,0,1-1.06-1.27q-3.23-8.33-6.36-16.59t-6.29-16.59a1.41,1.41,0,0,0,0-.28,1.39,1.39,0,0,1,0-.27,2.72,2.72,0,0,1,.7-2,2.26,2.26,0,0,1,1.61-.7,2.85,2.85,0,0,1,2.37,1.4q1.59,4.08,2.86,7.54t2.49,6.71q1.22,3.26,2.43,6.45t2.55,6.83c.45-1.17.93-2.36,1.43-3.55s1-2.38,1.49-3.56Q255.84,54,258,48.84A97.52,97.52,0,0,1,263,38.87Z"/><path d="M293.94,68.05a3.09,3.09,0,0,1,1.92.45,2.31,2.31,0,0,1,1,1.28,2.42,2.42,0,0,1-.12,1.58,3.06,3.06,0,0,1-1.37,1.43,38.61,38.61,0,0,1-4.68,1,46.71,46.71,0,0,1-5,.45,42.41,42.41,0,0,1-5.05-.09,28.29,28.29,0,0,1-4.74-.73,3.25,3.25,0,0,1-1.39-1.18,2.19,2.19,0,0,1-.37-1.37V44.1a2.16,2.16,0,0,1-1.21-.85,2.23,2.23,0,0,1-.43-1.34,2.42,2.42,0,0,1,.49-1.42,3,3,0,0,1,1.52-1.07,26.57,26.57,0,0,1,4.83-1c1.64-.18,3.29-.3,5-.37s3.32-.09,5-.09,3.3,0,4.93-.12a2.82,2.82,0,0,1,2.09.61A2.45,2.45,0,0,1,297.1,40a2.3,2.3,0,0,1-.45,1.67,3.05,3.05,0,0,1-1.92,1.12q-3.64.2-7.74.13a46.87,46.87,0,0,0-7.94.54v10.7q3.17.12,6.36,0t6.41-.46a2.82,2.82,0,0,1,2.09.61,2.45,2.45,0,0,1,.88,1.52,2.25,2.25,0,0,1-.45,1.67,3.08,3.08,0,0,1-1.92,1.13q-3.33.3-6.71.48t-6.66.06V69a35.14,35.14,0,0,0,7.57.27A39.15,39.15,0,0,0,293.94,68.05Z"/><path d="M307.89,74.7a2.4,2.4,0,0,1-1.67.7,2.32,2.32,0,0,1-1.58-.64,3,3,0,0,1-.91-2v-29a2.42,2.42,0,0,1-1.55-.76,2.21,2.21,0,0,1-.58-1.55,2.87,2.87,0,0,1,.27-1.16,3.1,3.1,0,0,1,.88-1.09,24.69,24.69,0,0,1,5.84-2.64,21.71,21.71,0,0,1,6.5-1,18.24,18.24,0,0,1,5.14.73,13.34,13.34,0,0,1,4.52,2.37A12.18,12.18,0,0,1,328.28,43a11,11,0,0,1,1.09,4.74,12.05,12.05,0,0,1-.63,3.83,14.47,14.47,0,0,1-1.8,3.55,15.48,15.48,0,0,1-6.38,5.32q2.31,2.61,5,5.53c1.79,1.94,3.45,3.77,5,5.47a3,3,0,0,1,.67,1.88,2.21,2.21,0,0,1-.67,1.67,2.27,2.27,0,0,1-1.64.64,3.16,3.16,0,0,1-1.07-.21,2.69,2.69,0,0,1-1.06-.76c-.24-.28-.67-.76-1.28-1.43s-1.29-1.42-2.06-2.25-1.58-1.72-2.43-2.67l-2.4-2.68c-.75-.83-1.43-1.57-2-2.21s-1-1.12-1.28-1.4a30.32,30.32,0,0,1-3.28.42c-1.09.09-2.19.15-3.28.19v10A2.86,2.86,0,0,1,307.89,74.7Zm13.64-32.24A9.35,9.35,0,0,0,318.34,41a15,15,0,0,0-3.55-.42,15.9,15.9,0,0,0-3.1.3,19.45,19.45,0,0,0-3,.85V57.59q2.31-.12,4.62-.36a18.05,18.05,0,0,0,4.56-1.1,9.46,9.46,0,0,0,2.52-1.39,12.11,12.11,0,0,0,2.1-2.07,9.82,9.82,0,0,0,1.42-2.46,6.87,6.87,0,0,0,.52-2.58,6,6,0,0,0-.67-2.74A6.56,6.56,0,0,0,321.53,42.46Z"/></g></svg>
