<svg xmlns="http://www.w3.org/2000/svg" width="500" height="130" viewBox="0 0 500 130"><defs><style>.cls-1{fill:#fcfcfc;}.cls-2{fill:#b7b7b7;}</style></defs><title>UI_music_on</title><g id="Layer_2" data-name="Layer 2"><rect class="cls-1" x="3.5" y="2.5" width="493" height="125" rx="18"/><path d="M478.5,129H21.5A19.53,19.53,0,0,1,2,109.5v-89A19.53,19.53,0,0,1,21.5,1h457A19.53,19.53,0,0,1,498,20.5v89A19.53,19.53,0,0,1,478.5,129ZM21.5,4A16.52,16.52,0,0,0,5,20.5v89A16.52,16.52,0,0,0,21.5,126h457A16.52,16.52,0,0,0,495,109.5v-89A16.52,16.52,0,0,0,478.5,4Z"/><path d="M64.18,79.86a2.64,2.64,0,0,1-.75,1.91,2.14,2.14,0,0,1-3,0,2.49,2.49,0,0,1-.8-1.79q-.28-2.66-.69-5.61t-.94-6q-.52-3-1.16-5.94T55.5,57q-1.05,2.55-2.1,5.34L51.28,68q-1.08,2.85-2.13,5.66T47,79a2.51,2.51,0,0,1-1.93,1,2.86,2.86,0,0,1-1.82-.88L32.3,57.82q-.28,2.66-.55,5.58c-.19,1.95-.36,3.92-.53,5.91s-.34,4-.52,5.91-.37,3.81-.56,5.58a3,3,0,0,1-1,1.38A2,2,0,0,1,26.44,82a2.65,2.65,0,0,1-.77-1.77q.33-3.54.69-7.32t.72-7.63c.24-2.55.48-5.11.72-7.65s.47-5,.69-7.35a2.74,2.74,0,0,1,.85-1.54,2.11,2.11,0,0,1,1.41-.55,2.44,2.44,0,0,1,2,1.21c1,1.81,2,3.69,3,5.66s2,4,3,6,2,4,3,6,2,3.86,3,5.66Q45.89,70,47,67c.76-2,1.51-4,2.27-6s1.51-4,2.26-6,1.52-3.89,2.3-5.69a3,3,0,0,1,1-1A2.14,2.14,0,0,1,56,48a2.11,2.11,0,0,1,1.3.5,2.72,2.72,0,0,1,.91,1.44q1,3.48,1.91,7.24t1.71,7.59q.8,3.84,1.41,7.68C63.64,75,64,77.47,64.18,79.86Z"/><path d="M89.26,50.25a3.24,3.24,0,0,1,.88-1.66A2,2,0,0,1,91.53,48a2.17,2.17,0,0,1,1.35.5,2.76,2.76,0,0,1,.91,1.54q-.06,3.48-.19,7.32c-.1,2.56-.26,5.05-.5,7.46s-.57,4.68-1,6.8A21.94,21.94,0,0,1,90.37,77a6.65,6.65,0,0,1-1.75,2.3,10.5,10.5,0,0,1-2.54,1.6,13.53,13.53,0,0,1-3,.94,15.7,15.7,0,0,1-3,.3,14.87,14.87,0,0,1-3.34-.38,11.66,11.66,0,0,1-3-1.19,9.78,9.78,0,0,1-2.48-2,7.78,7.78,0,0,1-1.63-2.79A26.09,26.09,0,0,1,68.35,70q-.36-3.18-.44-6.55t0-6.68c0-2.21.05-4.29.05-6.24a3.25,3.25,0,0,1,.89-1.66,2,2,0,0,1,1.38-.55,2.14,2.14,0,0,1,1.35.49,2.73,2.73,0,0,1,.91,1.55c0,1.22,0,2.61,0,4.17s-.07,3.19-.08,4.86,0,3.36,0,5,.17,3.25.33,4.72a22,22,0,0,0,.78,3.93,6.09,6.09,0,0,0,1.41,2.59,5.68,5.68,0,0,0,2.62,1.63,10.3,10.3,0,0,0,2.85.42A7.83,7.83,0,0,0,83.62,77a7.73,7.73,0,0,0,2.88-2.32,6.7,6.7,0,0,0,1.08-2.57c.27-1.16.51-2.48.71-3.95s.36-3.05.47-4.72.2-3.33.28-5,.12-3.15.14-4.58S89.22,51.24,89.26,50.25Z"/><path d="M100.31,77.32a3.65,3.65,0,0,1-.33-1.44,2,2,0,0,1,.58-1.51,2,2,0,0,1,1.46-.58,2.92,2.92,0,0,1,1.72.6,8.41,8.41,0,0,0,2.18,1.85,11,11,0,0,0,2.65,1.16,16.59,16.59,0,0,0,2.87.58,25.59,25.59,0,0,0,2.85.17,12.29,12.29,0,0,1,1.3-.41,2.59,2.59,0,0,0,.58-.2,2.63,2.63,0,0,0,.49-.33c.19-.15.54-.4,1-.77.19-.26.35-.5.5-.72s.31-.46.5-.72l.5-1.49v-.75a6,6,0,0,0-.06-.8,5.1,5.1,0,0,0-.28-.74q-.16-.36-.33-.75l-.63-.72c-.21-.22-.42-.46-.64-.72s-.66-.38-1-.6a3.73,3.73,0,0,0-1.11-.5A24.75,24.75,0,0,0,111,66.85a32.33,32.33,0,0,1-3.59-.77,10,10,0,0,1-6.11-4.67,3,3,0,0,1-.33-.66c0-.15-.07-.41-.11-.78s-.06-.58-.08-.85,0-.55,0-.8a7.19,7.19,0,0,1,.2-1.77,5.91,5.91,0,0,1,.58-1.49,8.62,8.62,0,0,1,1-1.47c.4-.5.88-1,1.44-1.63a8.2,8.2,0,0,1,2.15-1.63,12.86,12.86,0,0,1,2.54-1,16.55,16.55,0,0,1,2.74-.5c.94-.09,1.85-.14,2.73-.14h.8a4.93,4.93,0,0,1,.75.06,7.19,7.19,0,0,1,2.4.61,17.18,17.18,0,0,0,2.35.82,2.57,2.57,0,0,1,1.27,2.16,2,2,0,0,1-.63,1.46,2.43,2.43,0,0,1-1.8.64l-.25,0-.25,0c-1.18-.36-2.22-.65-3.12-.85a11.55,11.55,0,0,0-2.62-.31,9,9,0,0,0-2.71.44,17.31,17.31,0,0,0-3.2,1.5c-.23.29-.45.56-.67.8l-.66.74c-.11.22-.21.45-.3.67a5.92,5.92,0,0,0-.25.66c0,.22,0,.44,0,.66a4.94,4.94,0,0,0,.09.61c.14.19.27.37.38.55a4.73,4.73,0,0,0,.39.56l2.32,1.32c1.11.26,2.14.48,3.1.66s1.87.4,2.76.64a25.05,25.05,0,0,1,2.62.86,21.5,21.5,0,0,1,2.79,1.32A4.68,4.68,0,0,1,121,66.35c.37.47.72.9,1,1.3a6.82,6.82,0,0,1,1.3,2.38,9.36,9.36,0,0,1,.41,2.76,10.16,10.16,0,0,1-.77,3.87,8.05,8.05,0,0,1-2.21,3.09,10.5,10.5,0,0,1-1,.8l-1,.69a8.45,8.45,0,0,1-2.59,1.16,11.56,11.56,0,0,1-3,.39,17.22,17.22,0,0,1-3.68-.41,20.58,20.58,0,0,1-3.56-1.16,19,19,0,0,1-3.15-1.74A12.89,12.89,0,0,1,100.31,77.32Z"/><path d="M142.3,76.82a2.59,2.59,0,0,1,1.9.56,2.2,2.2,0,0,1,.8,1.38,2.05,2.05,0,0,1-.41,1.52,2.79,2.79,0,0,1-1.74,1c-1.92.07-3.82.1-5.72.08s-3.8,0-5.72,0a2.69,2.69,0,0,1-1.79-.85,2.12,2.12,0,0,1,.11-3,2.63,2.63,0,0,1,1.85-.72h1.63c.53,0,1.08,0,1.63.06V52.74h-3.48a2.79,2.79,0,0,1-1.8-.86,2.18,2.18,0,0,1-.55-1.49,2.23,2.23,0,0,1,.66-1.47,2.61,2.61,0,0,1,1.85-.71h11.39a3,3,0,0,1,1.54,1,2.08,2.08,0,0,1,.47,1.35,2.14,2.14,0,0,1-.58,1.33,2.85,2.85,0,0,1-1.6.86h-3.37V76.93c.48,0,1,0,1.44,0Z"/><path d="M171.41,72.51a2.92,2.92,0,0,1,1.83-.71,2,2,0,0,1,1.49.6,2.14,2.14,0,0,1,.61,1.55,3.66,3.66,0,0,1-.28,1.22A33.49,33.49,0,0,1,173,78a14.83,14.83,0,0,1-2.52,2.37,12.77,12.77,0,0,1-3,1.66,9.93,9.93,0,0,1-3.62.63,12.13,12.13,0,0,1-5.44-1.21,13.07,13.07,0,0,1-4.25-3.32,14.6,14.6,0,0,1-2.76-4.94,18.72,18.72,0,0,1-1-6.11,14.46,14.46,0,0,1,.61-4.3A24.55,24.55,0,0,1,153,58.09a15.92,15.92,0,0,1,2.62-3.5,18.17,18.17,0,0,1,3.49-2.71,32.52,32.52,0,0,1,4.5-2.24,22.14,22.14,0,0,1,3.06-1.1,10.1,10.1,0,0,1,2.68-.39,5.88,5.88,0,0,1,3.48,1.1A10.41,10.41,0,0,1,175.72,53a3.14,3.14,0,0,1,.17,1,2.16,2.16,0,0,1-.61,1.6,2,2,0,0,1-1.49.61,2.67,2.67,0,0,1-1.93-.89,9.06,9.06,0,0,0-1.39-2.1,1.91,1.91,0,0,0-1.38-.61,4.35,4.35,0,0,0-1.43.31l-2.1.74a26.73,26.73,0,0,0-4,2,14.42,14.42,0,0,0-3.39,2.87,13.14,13.14,0,0,0-2.32,3.9,13.64,13.64,0,0,0-.86,5,12.6,12.6,0,0,0,.61,3.89,11.44,11.44,0,0,0,1.74,3.43,8.58,8.58,0,0,0,2.79,2.43,7.72,7.72,0,0,0,3.81.91,5.77,5.77,0,0,0,2.38-.5,8.28,8.28,0,0,0,2-1.32A12.88,12.88,0,0,0,170,74.5,18.75,18.75,0,0,0,171.41,72.51Z"/><rect class="cls-2" x="323.5" y="63.68" width="89" height="45.82" rx="22.91"/><circle cx="350.18" cy="86.59" r="16.74"/><path d="M300.79,37.22a17.64,17.64,0,0,1,1-2.42,11.58,11.58,0,0,1,1.47-2.14,9,9,0,0,1,2-1.67,7.71,7.71,0,0,1,2.45-1,5.68,5.68,0,0,1,3.93.35,6.77,6.77,0,0,1,2.69,2.43,9.58,9.58,0,0,1,1.33,3.62,9.22,9.22,0,0,1-.17,3.89,12.12,12.12,0,0,1-2.05,4.25,8.43,8.43,0,0,1-3.72,2.86,6.64,6.64,0,0,1-3.19.49,6.15,6.15,0,0,1-2.74-1,7,7,0,0,1-2.07-2.13,8,8,0,0,1-1.16-3,8.4,8.4,0,0,1-.14-2.05,15.33,15.33,0,0,1,.25-2Zm3,.89a13.46,13.46,0,0,0-.22,1.49,6.78,6.78,0,0,0,.06,1.53,4.28,4.28,0,0,0,.66,1.87,3.9,3.9,0,0,0,1.31,1.28,3.16,3.16,0,0,0,1.72.42,3.81,3.81,0,0,0,1.92-.6,5.83,5.83,0,0,0,2-2,10.24,10.24,0,0,0,1.14-2.67,6.32,6.32,0,0,0,.14-2.47,5.92,5.92,0,0,0-.8-2.32,3.54,3.54,0,0,0-1.66-1.45,3.19,3.19,0,0,0-2.48.13,5.41,5.41,0,0,0-2.43,2A10.89,10.89,0,0,0,303.81,38.11Z"/><path d="M332.68,46.87a1.54,1.54,0,0,1-1.07.44,1.48,1.48,0,0,1-1-.4,1.92,1.92,0,0,1-.58-1.26c0-1.18,0-2.36,0-3.54s0-2.35,0-3.54c0-.85,0-1.7,0-2.55a15.62,15.62,0,0,0-.18-2.55,1.4,1.4,0,0,0-.67-.72,2.57,2.57,0,0,0-.87-.13,5.74,5.74,0,0,0-2.6.64,5,5,0,0,0-2,1.76c-.28.43-.51.8-.67,1.1a3.25,3.25,0,0,0-.33,1.29v4c0,1.31,0,2.63,0,3.94a1.84,1.84,0,0,1-.53,1.34,1.54,1.54,0,0,1-1.06.44,1.48,1.48,0,0,1-1-.4,1.92,1.92,0,0,1-.58-1.26v-3.6c0-1.16,0-2.3,0-3.44s0-2.29,0-3.46V31.3a2.26,2.26,0,0,1,.62-1.16,1.41,1.41,0,0,1,1-.38,1.52,1.52,0,0,1,1,.34,2,2,0,0,1,.64,1.09v.31A8.69,8.69,0,0,1,325.21,30a7.72,7.72,0,0,1,2.84-.56,5.69,5.69,0,0,1,2.69.66,4.75,4.75,0,0,1,2,2.12,3.6,3.6,0,0,1,.37,1.26q.09.75.12,1.59c0,.55,0,1.12,0,1.7s0,1.13,0,1.64v7.16A1.87,1.87,0,0,1,332.68,46.87Z"/><path d="M401.37,37.6a17.58,17.58,0,0,1,1-2.42A10.84,10.84,0,0,1,403.86,33a8.92,8.92,0,0,1,1.94-1.68,7.84,7.84,0,0,1,2.45-1,5.74,5.74,0,0,1,3.93.33,6.65,6.65,0,0,1,2.7,2.42,9.57,9.57,0,0,1,1.36,3.61,9.22,9.22,0,0,1-.16,3.89,11.84,11.84,0,0,1-2,4.26,8.5,8.5,0,0,1-3.7,2.89,6.65,6.65,0,0,1-3.19.5,6.21,6.21,0,0,1-2.75-1,7.38,7.38,0,0,1-2.08-2.12,8.3,8.3,0,0,1-1.18-3,8.43,8.43,0,0,1-.14-2.05,13.77,13.77,0,0,1,.24-2Zm3,.88a13.1,13.1,0,0,0-.2,1.49,6.67,6.67,0,0,0,.06,1.52,4.33,4.33,0,0,0,.67,1.88,4.08,4.08,0,0,0,1.32,1.27,3.26,3.26,0,0,0,1.73.41,3.79,3.79,0,0,0,1.91-.61,5.92,5.92,0,0,0,2-2A10.14,10.14,0,0,0,413,39.75a6.2,6.2,0,0,0,.13-2.48,5.77,5.77,0,0,0-.81-2.32,3.59,3.59,0,0,0-1.67-1.44,3.18,3.18,0,0,0-2.47.15,5.49,5.49,0,0,0-2.43,2A11.42,11.42,0,0,0,404.39,38.48Z"/><path d="M424.57,47.13a1.53,1.53,0,0,1-1.06.45,1.51,1.51,0,0,1-1-.4,2,2,0,0,1-.59-1.26l-.06-11H421a2,2,0,0,1-1.26-.58,1.5,1.5,0,0,1-.41-1,1.63,1.63,0,0,1,.44-1.07,1.67,1.67,0,0,1,1.33-.53h.7l0-4.33a7.4,7.4,0,0,1,.42-2.52,6.08,6.08,0,0,1,1.16-2,5.33,5.33,0,0,1,1.8-1.3,5.74,5.74,0,0,1,2.31-.48,9.08,9.08,0,0,1,3.1.68,5.54,5.54,0,0,1,1.42.86,1.57,1.57,0,0,1,.6,1.22A1.42,1.42,0,0,1,432.2,25a1.47,1.47,0,0,1-1.08.43,2.26,2.26,0,0,1-.81-.17l-.89-.37-1-.36a3.15,3.15,0,0,0-1-.17,2.21,2.21,0,0,0-1.64.69,4,4,0,0,0-.86,2.15l0,4.52c.72,0,1.5-.05,2.34-.06l2.38-.08a2,2,0,0,1,1.08.64,1.5,1.5,0,0,1,.35.94,1.17,1.17,0,0,1-.65,1.13,4.63,4.63,0,0,1-1.62.47,14.51,14.51,0,0,1-2,.11c-.7,0-1.31,0-1.85,0l.05,10.94A1.83,1.83,0,0,1,424.57,47.13Z"/><path d="M438.65,47.05a1.53,1.53,0,0,1-1.07.45,1.44,1.44,0,0,1-1-.4,1.94,1.94,0,0,1-.59-1.25l-.06-11h-.81a2,2,0,0,1-1.26-.57,1.52,1.52,0,0,1-.41-1,1.61,1.61,0,0,1,.44-1.06,1.63,1.63,0,0,1,1.33-.53h.7l0-4.33a7.3,7.3,0,0,1,.41-2.51,6,6,0,0,1,1.17-2,5.42,5.42,0,0,1,1.79-1.31,5.66,5.66,0,0,1,2.32-.47,7,7,0,0,1,1.41.16,8.94,8.94,0,0,1,1.69.52,5.21,5.21,0,0,1,1.41.86,1.55,1.55,0,0,1,.61,1.21,1.45,1.45,0,0,1-1.5,1.48,2,2,0,0,1-.81-.17l-.89-.36c-.31-.13-.64-.25-1-.36a2.88,2.88,0,0,0-1-.17,2.15,2.15,0,0,0-1.64.68,4.05,4.05,0,0,0-.86,2.16l0,4.52,2.34-.07,2.38-.07a2,2,0,0,1,1.09.63,1.53,1.53,0,0,1,.35.95,1.15,1.15,0,0,1-.65,1.12,4.55,4.55,0,0,1-1.62.47,14.69,14.69,0,0,1-2,.11q-1.05,0-1.86,0l.06,10.95A1.82,1.82,0,0,1,438.65,47.05Z"/></g></svg>
