<svg xmlns="http://www.w3.org/2000/svg" width="500" height="305" viewBox="0 0 500 305"><defs><style>.cls-1{fill:#fcfcfc;}.cls-2{fill:#b7b7b7;}</style></defs><title>UI_music_sounds</title><g id="Layer_2" data-name="Layer 2"><rect class="cls-1" x="3.25" y="3.75" width="493" height="125" rx="18"/><path d="M478.25,130.25h-457a19.53,19.53,0,0,1-19.5-19.5v-89a19.53,19.53,0,0,1,19.5-19.5h457a19.53,19.53,0,0,1,19.5,19.5v89A19.53,19.53,0,0,1,478.25,130.25Zm-457-125a16.52,16.52,0,0,0-16.5,16.5v89a16.52,16.52,0,0,0,16.5,16.5h457a16.52,16.52,0,0,0,16.5-16.5v-89a16.52,16.52,0,0,0-16.5-16.5Z"/><rect class="cls-1" x="3.75" y="176.25" width="493" height="125" rx="18"/><path d="M478.75,302.75h-457a19.53,19.53,0,0,1-19.5-19.5v-89a19.53,19.53,0,0,1,19.5-19.5h457a19.53,19.53,0,0,1,19.5,19.5v89A19.53,19.53,0,0,1,478.75,302.75Zm-457-125a16.52,16.52,0,0,0-16.5,16.5v89a16.52,16.52,0,0,0,16.5,16.5h457a16.52,16.52,0,0,0,16.5-16.5v-89a16.52,16.52,0,0,0-16.5-16.5Z"/><path d="M63.93,81.11A2.64,2.64,0,0,1,63.18,83a2.14,2.14,0,0,1-3,0,2.49,2.49,0,0,1-.8-1.79q-.28-2.66-.69-5.61t-.94-6q-.52-3-1.16-5.94t-1.36-5.47q-1.05,2.55-2.1,5.34L51,69.26Q50,72.11,48.9,74.92t-2.16,5.36a2.51,2.51,0,0,1-1.93,1A2.86,2.86,0,0,1,43,80.45L32.05,59.07q-.28,2.66-.55,5.58c-.19,1.95-.36,3.92-.53,5.91s-.34,4-.52,5.91-.37,3.81-.56,5.58a3,3,0,0,1-1,1.38,2,2,0,0,1-2.71-.16,2.65,2.65,0,0,1-.77-1.77q.33-3.54.69-7.32t.72-7.63c.24-2.55.48-5.11.72-7.65s.47-5,.69-7.35A2.74,2.74,0,0,1,29.09,50a2.11,2.11,0,0,1,1.41-.55,2.44,2.44,0,0,1,2,1.21c1,1.81,2,3.69,3,5.66s2,4,3,6,2,4,3,6,2,3.86,3,5.66q1.11-2.7,2.24-5.66c.76-2,1.51-4,2.27-6s1.51-4,2.26-6,1.52-3.89,2.3-5.69a3,3,0,0,1,1-1,2,2,0,0,1,2.46.16A2.72,2.72,0,0,1,58,51.17q1,3.48,1.91,7.24T61.58,66q.8,3.84,1.41,7.68C63.39,76.24,63.71,78.72,63.93,81.11Z"/><path d="M89,51.5a3.24,3.24,0,0,1,.88-1.66,2,2,0,0,1,1.39-.55,2.17,2.17,0,0,1,1.35.5,2.76,2.76,0,0,1,.91,1.54q-.06,3.48-.19,7.32c-.1,2.56-.26,5.05-.5,7.46s-.57,4.68-1,6.8a21.94,21.94,0,0,1-1.74,5.38,6.65,6.65,0,0,1-1.75,2.3,10.5,10.5,0,0,1-2.54,1.6,13.53,13.53,0,0,1-3,.94,15.7,15.7,0,0,1-3,.3,14.87,14.87,0,0,1-3.34-.38,11.66,11.66,0,0,1-3-1.19,9.78,9.78,0,0,1-2.48-2,7.78,7.78,0,0,1-1.63-2.79,26.09,26.09,0,0,1-1.3-5.83q-.36-3.18-.44-6.55t0-6.68c0-2.21.05-4.29.05-6.24a3.25,3.25,0,0,1,.89-1.66A2,2,0,0,1,70,49.57a2.14,2.14,0,0,1,1.35.49,2.73,2.73,0,0,1,.91,1.55c0,1.22,0,2.61,0,4.17s-.07,3.19-.08,4.86,0,3.36,0,5,.17,3.25.33,4.72a22,22,0,0,0,.78,3.93,6.09,6.09,0,0,0,1.41,2.59,5.68,5.68,0,0,0,2.62,1.63,10.3,10.3,0,0,0,2.85.42,7.83,7.83,0,0,0,3.25-.72,7.73,7.73,0,0,0,2.88-2.32,6.7,6.7,0,0,0,1.08-2.57c.27-1.16.51-2.48.71-3.95s.36-3.05.47-4.72.2-3.33.28-5,.12-3.15.14-4.58S89,52.49,89,51.5Z"/><path d="M100.06,78.57a3.65,3.65,0,0,1-.33-1.44,2,2,0,0,1,.58-1.51,2,2,0,0,1,1.46-.58,2.92,2.92,0,0,1,1.72.6,8.41,8.41,0,0,0,2.18,1.85,11,11,0,0,0,2.65,1.16,16.59,16.59,0,0,0,2.87.58,25.59,25.59,0,0,0,2.85.17,12.29,12.29,0,0,1,1.3-.41,2.59,2.59,0,0,0,.58-.2,2.63,2.63,0,0,0,.49-.33c.19-.15.54-.4,1-.77.19-.26.35-.5.5-.72s.31-.46.5-.72l.5-1.49V74a6,6,0,0,0-.06-.8,5.1,5.1,0,0,0-.28-.74q-.16-.36-.33-.75l-.63-.72c-.21-.22-.42-.46-.64-.72s-.66-.38-1-.6a3.73,3.73,0,0,0-1.11-.5,24.75,24.75,0,0,0-4.17-1.08,32.33,32.33,0,0,1-3.59-.77,10,10,0,0,1-6.11-4.67,3,3,0,0,1-.33-.66c0-.15-.07-.41-.11-.78s-.06-.58-.08-.85,0-.55,0-.8a7.19,7.19,0,0,1,.2-1.77,5.91,5.91,0,0,1,.58-1.49,8.62,8.62,0,0,1,1-1.47c.4-.5.88-1,1.44-1.63a8.2,8.2,0,0,1,2.15-1.63,12.86,12.86,0,0,1,2.54-1,16.55,16.55,0,0,1,2.74-.5c.94-.09,1.85-.14,2.73-.14h.8a4.93,4.93,0,0,1,.75.06,7.19,7.19,0,0,1,2.4.61,17.18,17.18,0,0,0,2.35.82,2.57,2.57,0,0,1,1.27,2.16,2,2,0,0,1-.63,1.46,2.43,2.43,0,0,1-1.8.64l-.25,0-.25,0c-1.18-.36-2.22-.65-3.12-.85a11.55,11.55,0,0,0-2.62-.31,9,9,0,0,0-2.71.44,17.31,17.31,0,0,0-3.2,1.5c-.23.29-.45.56-.67.8l-.66.74c-.11.22-.21.45-.3.67a5.92,5.92,0,0,0-.25.66c0,.22,0,.44,0,.66a4.94,4.94,0,0,0,.09.61c.14.19.27.37.38.55a4.73,4.73,0,0,0,.39.56L108.18,63c1.11.26,2.14.48,3.1.66s1.87.4,2.76.64a25.05,25.05,0,0,1,2.62.86,21.5,21.5,0,0,1,2.79,1.32,4.68,4.68,0,0,1,1.33,1.13c.37.47.72.9,1,1.3a6.82,6.82,0,0,1,1.3,2.38,9.36,9.36,0,0,1,.41,2.76,10.16,10.16,0,0,1-.77,3.87A8.05,8.05,0,0,1,120.56,81a10.5,10.5,0,0,1-1,.8l-1,.69a8.45,8.45,0,0,1-2.59,1.16,11.56,11.56,0,0,1-3,.39,17.22,17.22,0,0,1-3.68-.41,20.58,20.58,0,0,1-3.56-1.16,19,19,0,0,1-3.15-1.74A12.89,12.89,0,0,1,100.06,78.57Z"/><path d="M142.05,78.07a2.59,2.59,0,0,1,1.9.56,2.2,2.2,0,0,1,.8,1.38,2.05,2.05,0,0,1-.41,1.52,2.79,2.79,0,0,1-1.74,1c-1.92.07-3.82.1-5.72.08s-3.8,0-5.72,0a2.69,2.69,0,0,1-1.79-.85,2.12,2.12,0,0,1,.11-3,2.63,2.63,0,0,1,1.85-.72H133c.53,0,1.08,0,1.63.06V54h-3.48a2.74,2.74,0,0,1-1.8-.86,2.18,2.18,0,0,1-.55-1.49,2.23,2.23,0,0,1,.66-1.47,2.61,2.61,0,0,1,1.85-.71h11.39a3,3,0,0,1,1.54,1,2.08,2.08,0,0,1,.47,1.35,2.14,2.14,0,0,1-.58,1.33,2.85,2.85,0,0,1-1.6.86h-3.37V78.18c.48,0,1,0,1.44,0Z"/><path d="M171.16,73.76a2.92,2.92,0,0,1,1.83-.71,2,2,0,0,1,1.49.6,2.14,2.14,0,0,1,.61,1.55,3.66,3.66,0,0,1-.28,1.22,31.91,31.91,0,0,1-2.07,2.79,14.83,14.83,0,0,1-2.52,2.37,12.77,12.77,0,0,1-3,1.66,9.93,9.93,0,0,1-3.62.64,12.14,12.14,0,0,1-5.44-1.22,13.07,13.07,0,0,1-4.25-3.32,14.6,14.6,0,0,1-2.76-4.94,18.72,18.72,0,0,1-1-6.11,14.46,14.46,0,0,1,.61-4.3,24.55,24.55,0,0,1,1.93-4.65,15.92,15.92,0,0,1,2.62-3.5,18.17,18.17,0,0,1,3.49-2.71,32.52,32.52,0,0,1,4.5-2.24,22.14,22.14,0,0,1,3.06-1.1,10.1,10.1,0,0,1,2.68-.39,5.88,5.88,0,0,1,3.48,1.1,10.41,10.41,0,0,1,2.93,3.76,3.14,3.14,0,0,1,.17,1,2.16,2.16,0,0,1-.61,1.6,2.05,2.05,0,0,1-1.49.61,2.67,2.67,0,0,1-1.93-.89,9.06,9.06,0,0,0-1.39-2.1,1.9,1.9,0,0,0-1.38-.6,4.31,4.31,0,0,0-1.43.3l-2.1.74a26.73,26.73,0,0,0-4,2,14.42,14.42,0,0,0-3.39,2.87,13.14,13.14,0,0,0-2.32,3.9,13.64,13.64,0,0,0-.86,5,12.6,12.6,0,0,0,.61,3.89,11.44,11.44,0,0,0,1.74,3.43,8.58,8.58,0,0,0,2.79,2.43,7.72,7.72,0,0,0,3.81.91,5.77,5.77,0,0,0,2.38-.5,8.28,8.28,0,0,0,2-1.32,12.88,12.88,0,0,0,1.71-1.83A18.75,18.75,0,0,0,171.16,73.76Z"/><path d="M26.69,251.14a3.64,3.64,0,0,1-.33-1.43,2.07,2.07,0,0,1,.58-1.52,2,2,0,0,1,1.47-.58,2.87,2.87,0,0,1,1.71.6,8.57,8.57,0,0,0,2.18,1.85A11,11,0,0,0,35,251.22a16.51,16.51,0,0,0,2.88.58,23.12,23.12,0,0,0,2.84.17,13.08,13.08,0,0,1,1.3-.41,2.59,2.59,0,0,0,.58-.2,2.66,2.66,0,0,0,.5-.33c.18-.15.53-.4,1.05-.77.18-.26.35-.5.49-.72l.5-.72.5-1.49v-.75a6,6,0,0,0-.06-.8,5.05,5.05,0,0,0-.27-.74q-.16-.36-.33-.75l-.64-.72-.64-.72q-.49-.27-1-.6a3.79,3.79,0,0,0-1.1-.5,26.11,26.11,0,0,0-4.18-1.08,32.83,32.83,0,0,1-3.59-.77,10.75,10.75,0,0,1-3.17-1.47,10.89,10.89,0,0,1-2.93-3.2,2.3,2.3,0,0,1-.33-.66,4.88,4.88,0,0,1-.11-.78c0-.29-.07-.58-.09-.85s0-.55,0-.8a7.22,7.22,0,0,1,.19-1.77,6.31,6.31,0,0,1,.58-1.49,10,10,0,0,1,1-1.47c.41-.49.89-1,1.44-1.63a8.36,8.36,0,0,1,2.15-1.63,12.71,12.71,0,0,1,2.55-1,16.24,16.24,0,0,1,2.73-.5c.94-.09,1.85-.14,2.74-.14h.8a4.81,4.81,0,0,1,.74.06,7.31,7.31,0,0,1,2.41.61,16.6,16.6,0,0,0,2.34.82,2.57,2.57,0,0,1,1.27,2.16,2,2,0,0,1-.63,1.46,2.4,2.4,0,0,1-1.8.64l-.24,0-.25,0c-1.18-.36-2.22-.65-3.12-.85a12.23,12.23,0,0,0-2.63-.31,8.74,8.74,0,0,0-2.71.45,16.57,16.57,0,0,0-3.2,1.49c-.22.29-.44.56-.66.8l-.67.74c-.11.22-.21.45-.3.67s-.18.44-.25.66,0,.44,0,.66a5,5,0,0,0,.08.61,5.64,5.64,0,0,1,.39.55,6.15,6.15,0,0,0,.38.56l2.33,1.32q1.65.39,3.09.66c1,.19,1.88.4,2.76.64a25.22,25.22,0,0,1,2.63.86A22.81,22.81,0,0,1,46.09,239a4.77,4.77,0,0,1,1.32,1.13c.37.47.72.9,1.05,1.3a6.82,6.82,0,0,1,1.3,2.38,9,9,0,0,1,.41,2.76,10,10,0,0,1-.77,3.87,8,8,0,0,1-2.21,3.09,9.42,9.42,0,0,1-1,.8l-1,.69a8.5,8.5,0,0,1-2.6,1.16,11.56,11.56,0,0,1-3,.39,17.13,17.13,0,0,1-3.67-.41A20.68,20.68,0,0,1,32.27,255a19,19,0,0,1-3.15-1.74A13.17,13.17,0,0,1,26.69,251.14Z"/><path d="M85.26,241a28.9,28.9,0,0,1-1.41,4.09,27,27,0,0,1-2.16,4.09,19.52,19.52,0,0,1-2.87,3.53,11.52,11.52,0,0,1-3.56,2.43l-1.55.58a10.78,10.78,0,0,1-1.33.42c-.44.11-.91.21-1.4.3a14.84,14.84,0,0,1-1.69.2l-.28,0-.33,0a9.84,9.84,0,0,1-2.93-.47c-1-.31-1.93-.62-2.81-.91A10.28,10.28,0,0,1,59.12,253a13.13,13.13,0,0,1-2.51-3.5,16.48,16.48,0,0,1-1.38-4.17,23.69,23.69,0,0,1-.41-4.42c0-.56,0-1.1,0-1.63s.09-1.06.17-1.58a22.61,22.61,0,0,1,1-3.81,26.57,26.57,0,0,1,1.74-4,22.56,22.56,0,0,1,2.41-3.62,12.76,12.76,0,0,1,2.9-2.65,15.23,15.23,0,0,1,4.14-1.9,15.91,15.91,0,0,1,4.48-.64,14.8,14.8,0,0,1,7.07,1.77A12.65,12.65,0,0,1,84,228.21a13.83,13.83,0,0,1,1.32,3.73,20.27,20.27,0,0,1,.39,3.95c0,.85,0,1.71-.11,2.57S85.4,240.18,85.26,241Zm-4.42-.55c.11-.74.21-1.48.3-2.24a19.29,19.29,0,0,0,.14-2.29A15.53,15.53,0,0,0,81,233a8.76,8.76,0,0,0-1-2.76,8.63,8.63,0,0,0-3.7-3.65,10.81,10.81,0,0,0-5.09-1.27,9.31,9.31,0,0,0-5.63,1.82A13.35,13.35,0,0,0,62.85,230a18.63,18.63,0,0,0-2,3.54,20.4,20.4,0,0,0-1.22,3.84,17.8,17.8,0,0,0-.41,3.73,15,15,0,0,0,.58,4.22,9.36,9.36,0,0,0,4.94,6,9.86,9.86,0,0,0,4.42.94,8.31,8.31,0,0,0,2.13-.28,7.93,7.93,0,0,0,2-.77A11.91,11.91,0,0,0,76.11,249a16.6,16.6,0,0,0,2.19-2.76,18.92,18.92,0,0,0,1.6-3.18,29.6,29.6,0,0,0,1.1-3.34Z"/><path d="M112.94,224.07a3.24,3.24,0,0,1,.88-1.66,2,2,0,0,1,1.38-.55,2.2,2.2,0,0,1,1.36.5,2.85,2.85,0,0,1,.91,1.54c0,2.32-.1,4.77-.2,7.32s-.25,5.05-.49,7.46a68,68,0,0,1-1,6.8,21.34,21.34,0,0,1-1.74,5.39,6.55,6.55,0,0,1-1.74,2.29,10.5,10.5,0,0,1-2.54,1.6,13.61,13.61,0,0,1-3,.94,15.6,15.6,0,0,1-3,.3,14.81,14.81,0,0,1-3.34-.38,11.66,11.66,0,0,1-3-1.19,10,10,0,0,1-2.49-2,8.08,8.08,0,0,1-1.63-2.79A26.1,26.1,0,0,1,92,243.82q-.36-3.18-.45-6.55t0-6.68q0-3.32,0-6.24a3.24,3.24,0,0,1,.88-1.66,2,2,0,0,1,1.39-.55,2.16,2.16,0,0,1,1.35.49,2.79,2.79,0,0,1,.91,1.55c0,1.22,0,2.61,0,4.17s-.07,3.19-.09,4.86,0,3.36.06,5,.16,3.25.33,4.72a22.07,22.07,0,0,0,.77,3.93,6.09,6.09,0,0,0,1.41,2.59,5.76,5.76,0,0,0,2.63,1.63,10.23,10.23,0,0,0,2.84.42,7.87,7.87,0,0,0,3.26-.72,7.63,7.63,0,0,0,2.87-2.32,6.4,6.4,0,0,0,1.08-2.57A39.92,39.92,0,0,0,112,242c.2-1.47.36-3.05.47-4.72s.2-3.33.28-4.95.11-3.15.13-4.58S112.9,225.06,112.94,224.07Z"/><path d="M145.59,223a3.25,3.25,0,0,1,.88-1.65,2,2,0,0,1,1.38-.56,2.2,2.2,0,0,1,1.36.5,2.85,2.85,0,0,1,.91,1.55q0,7.9-.11,15.3t-.55,15.31l0,.05h0a2.31,2.31,0,0,0-.06.47v.42a2.81,2.81,0,0,1-.91,1.32,2,2,0,0,1-1.24.44,2.62,2.62,0,0,1-1.88-.88c-.08-.15-.15-.28-.22-.39l-.23-.33h0v-.11q-2-3.36-4.09-6.44t-4.31-6q-2.21-3-4.5-5.85t-4.72-5.94v11.18c0,1.87,0,3.81,0,5.83s0,4.22,0,6.58a2.62,2.62,0,0,1-.75,1.9,2.16,2.16,0,0,1-1.51.64,2.12,2.12,0,0,1-1.44-.58,2.82,2.82,0,0,1-.83-1.8q0-7.46,0-15.11t0-15.11a2.87,2.87,0,0,1,.83-1.54,2,2,0,0,1,1.38-.56,3,3,0,0,1,1.66.61l5,5.94c1.62,1.93,3.22,3.88,4.78,5.83s3.09,3.95,4.56,6,2.91,4.17,4.31,6.38q.23-6.08.3-11.65T145.59,223Z"/><path d="M160.23,256.39a3.22,3.22,0,0,1-1.38-.47,2.35,2.35,0,0,1-.83-.86l-.17-.33-.22-.58a1.75,1.75,0,0,1-.11-.58v-24.8c-.33.11-.6.21-.8.3a2.16,2.16,0,0,1-.86.14,2.3,2.3,0,0,1-1.68-.61,1.89,1.89,0,0,1-.64-1.44,2.51,2.51,0,0,1,1.41-2.1,14.12,14.12,0,0,1,3.34-1.46,26,26,0,0,1,4.07-.86,28.67,28.67,0,0,1,3.5-.27,18.47,18.47,0,0,1,7.19,1.32,15.86,15.86,0,0,1,5.3,3.57,15.23,15.23,0,0,1,3.29,5.22,17.55,17.55,0,0,1,1.13,6.24,18,18,0,0,1-1.22,6.49,15,15,0,0,1-3.7,5.56,13.49,13.49,0,0,1-3.84,2.62,26.8,26.8,0,0,1-4.44,1.55,37.66,37.66,0,0,1-4.7.85C163.29,256.08,161.74,256.24,160.23,256.39ZM165.81,227a16.93,16.93,0,0,0-1.88.11c-.63.07-1.25.16-1.88.27v24.31c1.07-.11,2.2-.23,3.4-.38a26.87,26.87,0,0,0,3.51-.67,16.85,16.85,0,0,0,3.2-1.16,7.65,7.65,0,0,0,2.49-1.82,13.38,13.38,0,0,0,2.68-4.36,14,14,0,0,0,.91-5,11.62,11.62,0,0,0-.8-4.25,10.6,10.6,0,0,0-2.38-3.62,11.5,11.5,0,0,0-3.89-2.51A14.17,14.17,0,0,0,165.81,227Z"/><path d="M188.63,251.14a3.66,3.66,0,0,1-.34-1.43,2,2,0,0,1,.59-1.52,2,2,0,0,1,1.46-.58,2.87,2.87,0,0,1,1.71.6,8.75,8.75,0,0,0,2.18,1.85,11.06,11.06,0,0,0,2.66,1.16,16.4,16.4,0,0,0,2.87.58,23.12,23.12,0,0,0,2.84.17,13.08,13.08,0,0,1,1.3-.41,2.59,2.59,0,0,0,.58-.2,2.66,2.66,0,0,0,.5-.33c.18-.15.53-.4,1.05-.77l.5-.72c.14-.22.31-.46.49-.72l.5-1.49v-.75c0-.24,0-.5-.05-.8a6.61,6.61,0,0,0-.28-.74q-.16-.36-.33-.75c-.22-.26-.44-.5-.64-.72l-.63-.72c-.33-.18-.67-.38-1-.6a3.79,3.79,0,0,0-1.1-.5,25.75,25.75,0,0,0-4.17-1.08,32.33,32.33,0,0,1-3.59-.77,10.68,10.68,0,0,1-3.18-1.47,10.89,10.89,0,0,1-2.93-3.2,3,3,0,0,1-.33-.66,4.88,4.88,0,0,1-.11-.78c0-.29-.07-.58-.08-.85s0-.55,0-.8a7.22,7.22,0,0,1,.19-1.77,6.31,6.31,0,0,1,.58-1.49,9.35,9.35,0,0,1,1-1.47c.4-.49.88-1,1.43-1.63a8.41,8.41,0,0,1,2.16-1.63,12.63,12.63,0,0,1,2.54-1,16.24,16.24,0,0,1,2.73-.5c.94-.09,1.85-.14,2.74-.14h.8a4.93,4.93,0,0,1,.75.06,7.32,7.32,0,0,1,2.4.61,16.73,16.73,0,0,0,2.35.82,2.6,2.6,0,0,1,1.27,2.16,2,2,0,0,1-.64,1.46,2.39,2.39,0,0,1-1.79.64l-.25,0-.25,0c-1.18-.36-2.22-.65-3.12-.85a12.23,12.23,0,0,0-2.63-.31,8.68,8.68,0,0,0-2.7.45,16.9,16.9,0,0,0-3.21,1.49c-.22.29-.44.56-.66.8l-.66.74c-.11.22-.22.45-.31.67s-.17.44-.25.66,0,.44,0,.66.05.43.08.61a5.64,5.64,0,0,1,.39.55,4.73,4.73,0,0,0,.39.56l2.32,1.32q1.65.39,3.09.66c1,.19,1.88.4,2.76.64a25.22,25.22,0,0,1,2.63.86A22.81,22.81,0,0,1,208,239a4.63,4.63,0,0,1,1.32,1.13c.37.47.72.9,1,1.3a6.66,6.66,0,0,1,1.3,2.38,9,9,0,0,1,.42,2.76,10,10,0,0,1-.78,3.87,7.85,7.85,0,0,1-2.21,3.09,9.42,9.42,0,0,1-1,.8l-1,.69a8.4,8.4,0,0,1-2.6,1.16,11.56,11.56,0,0,1-3,.39,17.13,17.13,0,0,1-3.67-.41,20.58,20.58,0,0,1-3.56-1.16,18.27,18.27,0,0,1-3.15-1.74A12.55,12.55,0,0,1,188.63,251.14Z"/><rect class="cls-2" x="323.25" y="64.93" width="89" height="45.82" rx="22.91"/><circle cx="384.93" cy="87.84" r="16.74"/><path d="M300.54,38.47a17.64,17.64,0,0,1,1-2.42,11.58,11.58,0,0,1,1.47-2.14,9,9,0,0,1,2-1.67,7.71,7.71,0,0,1,2.45-1,5.68,5.68,0,0,1,3.93.35A6.77,6.77,0,0,1,314.08,34a9.58,9.58,0,0,1,1.33,3.62,9.22,9.22,0,0,1-.17,3.89,12.12,12.12,0,0,1-2.05,4.25,8.43,8.43,0,0,1-3.72,2.86,6.51,6.51,0,0,1-3.19.48,6,6,0,0,1-2.74-1A7,7,0,0,1,301.47,46a8,8,0,0,1-1.16-3,8.4,8.4,0,0,1-.14-2.05,15.33,15.33,0,0,1,.25-2Zm3,.89a13.46,13.46,0,0,0-.22,1.49,6.78,6.78,0,0,0,.06,1.53,4.28,4.28,0,0,0,.66,1.87,3.9,3.9,0,0,0,1.31,1.28,3.16,3.16,0,0,0,1.72.42,3.81,3.81,0,0,0,1.92-.6,5.83,5.83,0,0,0,2-2,10.24,10.24,0,0,0,1.14-2.67,6.32,6.32,0,0,0,.14-2.47,5.92,5.92,0,0,0-.8-2.32,3.54,3.54,0,0,0-1.66-1.45,3.19,3.19,0,0,0-2.48.13,5.41,5.41,0,0,0-2.43,2A10.89,10.89,0,0,0,303.56,39.36Z"/><path d="M332.43,48.12a1.54,1.54,0,0,1-1.07.44,1.48,1.48,0,0,1-1-.4,1.92,1.92,0,0,1-.58-1.26c0-1.18,0-2.36,0-3.54s0-2.35,0-3.54c0-.85,0-1.7,0-2.55a15.62,15.62,0,0,0-.18-2.55,1.4,1.4,0,0,0-.67-.72,2.57,2.57,0,0,0-.87-.13,5.74,5.74,0,0,0-2.6.64,5,5,0,0,0-2,1.76c-.28.43-.51.8-.67,1.1a3.25,3.25,0,0,0-.33,1.29v4c0,1.31,0,2.63,0,3.94a1.84,1.84,0,0,1-.53,1.34,1.54,1.54,0,0,1-1.06.44,1.48,1.48,0,0,1-1-.4,1.92,1.92,0,0,1-.58-1.26v-3.6c0-1.16,0-2.3,0-3.44s0-2.29,0-3.46V32.55a2.26,2.26,0,0,1,.62-1.16,1.41,1.41,0,0,1,1-.38,1.52,1.52,0,0,1,1,.34,2,2,0,0,1,.64,1.09v.31A8.69,8.69,0,0,1,325,31.22a7.72,7.72,0,0,1,2.84-.56,5.69,5.69,0,0,1,2.69.66,4.75,4.75,0,0,1,2,2.12,3.6,3.6,0,0,1,.37,1.26q.09.75.12,1.59c0,.55,0,1.12,0,1.7s0,1.13,0,1.64v7.16A1.87,1.87,0,0,1,332.43,48.12Z"/><path d="M401.12,38.85a17.58,17.58,0,0,1,1-2.42,10.84,10.84,0,0,1,1.46-2.15,8.92,8.92,0,0,1,1.94-1.68,7.84,7.84,0,0,1,2.45-1,5.74,5.74,0,0,1,3.93.33,6.65,6.65,0,0,1,2.7,2.42A9.57,9.57,0,0,1,416,37.94a9.22,9.22,0,0,1-.16,3.89,11.84,11.84,0,0,1-2,4.26,8.43,8.43,0,0,1-3.7,2.89,6.65,6.65,0,0,1-3.19.5,6.21,6.21,0,0,1-2.75-1,7.38,7.38,0,0,1-2.08-2.12,8.12,8.12,0,0,1-1.18-3,8.43,8.43,0,0,1-.14-2.05,13.77,13.77,0,0,1,.24-2Zm3,.88a13.1,13.1,0,0,0-.2,1.49,6.67,6.67,0,0,0,.06,1.52,4.33,4.33,0,0,0,.67,1.88A4.08,4.08,0,0,0,406,45.89a3.26,3.26,0,0,0,1.73.41,3.79,3.79,0,0,0,1.91-.61,5.92,5.92,0,0,0,2-2A10.14,10.14,0,0,0,412.77,41a6.2,6.2,0,0,0,.13-2.48,5.77,5.77,0,0,0-.81-2.32,3.59,3.59,0,0,0-1.67-1.44,3.18,3.18,0,0,0-2.47.15,5.49,5.49,0,0,0-2.43,2A11.42,11.42,0,0,0,404.14,39.73Z"/><path d="M424.32,48.38a1.53,1.53,0,0,1-1.06.45,1.51,1.51,0,0,1-1-.4,2,2,0,0,1-.59-1.26l-.06-11h-.81a2,2,0,0,1-1.26-.58,1.5,1.5,0,0,1-.41-1,1.63,1.63,0,0,1,.44-1.07,1.67,1.67,0,0,1,1.33-.53h.7l0-4.33a7.4,7.4,0,0,1,.42-2.52,6.08,6.08,0,0,1,1.16-2,5.33,5.33,0,0,1,1.8-1.3,5.74,5.74,0,0,1,2.31-.48,9.08,9.08,0,0,1,3.1.68,5.54,5.54,0,0,1,1.42.86,1.57,1.57,0,0,1,.6,1.22A1.38,1.38,0,0,1,432,26.2a1.51,1.51,0,0,1-1.08.43,2.26,2.26,0,0,1-.81-.17l-.89-.37-1-.36a3.15,3.15,0,0,0-1-.17,2.21,2.21,0,0,0-1.64.69,4,4,0,0,0-.86,2.15l0,4.52c.72,0,1.5-.05,2.34-.06l2.38-.08a2,2,0,0,1,1.08.64,1.5,1.5,0,0,1,.35.94,1.17,1.17,0,0,1-.65,1.13,4.63,4.63,0,0,1-1.62.47,14.51,14.51,0,0,1-2,.11c-.7,0-1.31,0-1.85,0L424.83,47A1.83,1.83,0,0,1,424.32,48.38Z"/><path d="M438.4,48.3a1.53,1.53,0,0,1-1.07.45,1.44,1.44,0,0,1-1-.4,1.94,1.94,0,0,1-.59-1.25l-.06-11h-.81a2,2,0,0,1-1.26-.57,1.52,1.52,0,0,1-.41-1,1.61,1.61,0,0,1,.44-1.06A1.64,1.64,0,0,1,435,33h.7l0-4.33a7.3,7.3,0,0,1,.41-2.51,6,6,0,0,1,1.17-2A5.42,5.42,0,0,1,439,22.79a5.66,5.66,0,0,1,2.32-.47,7,7,0,0,1,1.41.16,8.94,8.94,0,0,1,1.69.52,5.21,5.21,0,0,1,1.41.86,1.55,1.55,0,0,1,.61,1.21,1.45,1.45,0,0,1-1.5,1.48,2,2,0,0,1-.81-.17l-.89-.36c-.31-.13-.64-.25-1-.36a2.88,2.88,0,0,0-1-.17,2.15,2.15,0,0,0-1.64.68,4.05,4.05,0,0,0-.86,2.16l0,4.52,2.34-.07,2.38-.07a2,2,0,0,1,1.09.63,1.53,1.53,0,0,1,.35.95,1.15,1.15,0,0,1-.65,1.12,4.55,4.55,0,0,1-1.62.47,14.69,14.69,0,0,1-2,.11q-1.05,0-1.86,0L438.91,47A1.82,1.82,0,0,1,438.4,48.3Z"/><rect class="cls-2" x="317.25" y="236.93" width="89" height="45.82" rx="22.91"/><circle cx="378.93" cy="259.84" r="16.74"/><path d="M294.54,210.47a17.64,17.64,0,0,1,1-2.42,11.58,11.58,0,0,1,1.47-2.14,9,9,0,0,1,2-1.67,7.71,7.71,0,0,1,2.45-1,5.68,5.68,0,0,1,3.93.35,6.77,6.77,0,0,1,2.69,2.43,9.58,9.58,0,0,1,1.33,3.62,9.22,9.22,0,0,1-.17,3.89,12.12,12.12,0,0,1-2.05,4.25,8.43,8.43,0,0,1-3.72,2.86,6.51,6.51,0,0,1-3.19.48,6,6,0,0,1-2.74-1,7,7,0,0,1-2.07-2.13,8,8,0,0,1-1.16-3,8.4,8.4,0,0,1-.14-2.05,15.33,15.33,0,0,1,.25-2Zm3,.89a13.46,13.46,0,0,0-.22,1.49,6.78,6.78,0,0,0,.06,1.53,4.28,4.28,0,0,0,.66,1.87,3.9,3.9,0,0,0,1.31,1.28,3.16,3.16,0,0,0,1.72.42,3.81,3.81,0,0,0,1.92-.6,5.83,5.83,0,0,0,2-2,10.24,10.24,0,0,0,1.14-2.67,6.32,6.32,0,0,0,.14-2.47,5.92,5.92,0,0,0-.8-2.32,3.54,3.54,0,0,0-1.66-1.45,3.19,3.19,0,0,0-2.48.13,5.41,5.41,0,0,0-2.43,2A10.89,10.89,0,0,0,297.56,211.36Z"/><path d="M326.43,220.12a1.54,1.54,0,0,1-1.07.44,1.48,1.48,0,0,1-1-.4,1.92,1.92,0,0,1-.58-1.26c0-1.18,0-2.36,0-3.54s0-2.35,0-3.54c0-.85,0-1.7,0-2.55a15.62,15.62,0,0,0-.18-2.55,1.4,1.4,0,0,0-.67-.72,2.57,2.57,0,0,0-.87-.13,5.74,5.74,0,0,0-2.6.64,5,5,0,0,0-2,1.76c-.28.43-.51.8-.67,1.1a3.25,3.25,0,0,0-.33,1.29v4c0,1.31,0,2.63,0,3.94a1.84,1.84,0,0,1-.53,1.34,1.54,1.54,0,0,1-1.06.44,1.48,1.48,0,0,1-1-.4,1.92,1.92,0,0,1-.58-1.26v-3.6c0-1.16,0-2.3,0-3.44s0-2.29,0-3.46v-3.62a2.26,2.26,0,0,1,.62-1.16,1.41,1.41,0,0,1,1-.38,1.52,1.52,0,0,1,1,.34,2,2,0,0,1,.64,1.09v.31a8.69,8.69,0,0,1,2.53-1.53,7.72,7.72,0,0,1,2.84-.56,5.69,5.69,0,0,1,2.69.66,4.75,4.75,0,0,1,2,2.12,3.6,3.6,0,0,1,.37,1.26q.09.75.12,1.59c0,.55,0,1.12,0,1.7s0,1.13,0,1.64v7.16A1.87,1.87,0,0,1,326.43,220.12Z"/><path d="M395.12,210.85a17.58,17.58,0,0,1,1-2.42,10.84,10.84,0,0,1,1.46-2.15,8.92,8.92,0,0,1,1.94-1.68,7.84,7.84,0,0,1,2.45-1,5.74,5.74,0,0,1,3.93.33,6.65,6.65,0,0,1,2.7,2.42,9.57,9.57,0,0,1,1.36,3.61,9.22,9.22,0,0,1-.16,3.89,11.84,11.84,0,0,1-2,4.26,8.43,8.43,0,0,1-3.7,2.89,6.65,6.65,0,0,1-3.19.5,6.21,6.21,0,0,1-2.75-1,7.38,7.38,0,0,1-2.08-2.12,8.12,8.12,0,0,1-1.18-3,8.43,8.43,0,0,1-.14-2,13.77,13.77,0,0,1,.24-2Zm3,.88a13.1,13.1,0,0,0-.2,1.49,6.67,6.67,0,0,0,.06,1.52,4.33,4.33,0,0,0,.67,1.88,4.08,4.08,0,0,0,1.32,1.27,3.26,3.26,0,0,0,1.73.41,3.79,3.79,0,0,0,1.91-.61,5.92,5.92,0,0,0,2-2,10.14,10.14,0,0,0,1.12-2.67,6.2,6.2,0,0,0,.13-2.48,5.77,5.77,0,0,0-.81-2.32,3.59,3.59,0,0,0-1.67-1.44,3.18,3.18,0,0,0-2.47.15,5.49,5.49,0,0,0-2.43,2A11.42,11.42,0,0,0,398.14,211.73Z"/><path d="M418.32,220.38a1.53,1.53,0,0,1-1.06.45,1.51,1.51,0,0,1-1-.4,2,2,0,0,1-.59-1.26l-.06-11h-.81a2,2,0,0,1-1.26-.58,1.5,1.5,0,0,1-.41-1,1.63,1.63,0,0,1,.44-1.07,1.67,1.67,0,0,1,1.33-.53h.7l0-4.33a7.4,7.4,0,0,1,.42-2.52,6.08,6.08,0,0,1,1.16-2,5.33,5.33,0,0,1,1.8-1.3,5.74,5.74,0,0,1,2.31-.48,9.08,9.08,0,0,1,3.1.68,5.54,5.54,0,0,1,1.42.86,1.57,1.57,0,0,1,.6,1.22,1.38,1.38,0,0,1-.42,1,1.51,1.51,0,0,1-1.08.43,2.26,2.26,0,0,1-.81-.17l-.89-.37-1-.36a3.15,3.15,0,0,0-1-.17,2.21,2.21,0,0,0-1.64.69,4,4,0,0,0-.86,2.15l0,4.52c.72,0,1.5,0,2.34-.06l2.38-.08a2,2,0,0,1,1.08.64,1.5,1.5,0,0,1,.35.94,1.17,1.17,0,0,1-.65,1.13,4.63,4.63,0,0,1-1.62.47,14.51,14.51,0,0,1-2,.11c-.7,0-1.31,0-1.85,0l.05,10.94A1.83,1.83,0,0,1,418.32,220.38Z"/><path d="M432.4,220.3a1.53,1.53,0,0,1-1.07.45,1.44,1.44,0,0,1-1-.4,1.94,1.94,0,0,1-.59-1.25l-.06-11h-.81a2,2,0,0,1-1.26-.57,1.52,1.52,0,0,1-.41-1,1.61,1.61,0,0,1,.44-1.06A1.64,1.64,0,0,1,429,205h.7l0-4.33a7.3,7.3,0,0,1,.41-2.51,6,6,0,0,1,1.17-2,5.42,5.42,0,0,1,1.79-1.31,5.66,5.66,0,0,1,2.32-.47,7,7,0,0,1,1.41.16,8.94,8.94,0,0,1,1.69.52,5.21,5.21,0,0,1,1.41.86,1.55,1.55,0,0,1,.61,1.21,1.45,1.45,0,0,1-1.5,1.48,2,2,0,0,1-.81-.17l-.89-.36c-.31-.13-.64-.25-1-.36a2.88,2.88,0,0,0-1-.17,2.15,2.15,0,0,0-1.64.68,4.05,4.05,0,0,0-.86,2.16l0,4.52,2.34-.07,2.38-.07a2,2,0,0,1,1.09.63,1.53,1.53,0,0,1,.35.95,1.15,1.15,0,0,1-.65,1.12,4.55,4.55,0,0,1-1.62.47,14.69,14.69,0,0,1-2,.11q-1.05,0-1.86,0l.06,10.95A1.82,1.82,0,0,1,432.4,220.3Z"/></g></svg>
