<svg xmlns="http://www.w3.org/2000/svg" width="360" height="115" viewBox="0 0 360 115"><defs><style>.cls-1{fill:#fcfcfc;}</style></defs><title>UI_playagain</title><g id="Layer_2" data-name="Layer 2"><rect class="cls-1" x="3.5" y="2" width="355" height="112" rx="18"/><path d="M339.5,114.5H20.5A19.53,19.53,0,0,1,1,95V20A19.53,19.53,0,0,1,20.5.5h319A19.53,19.53,0,0,1,359,20V95A19.53,19.53,0,0,1,339.5,114.5ZM20.5,3.5A16.52,16.52,0,0,0,4,20V95a16.52,16.52,0,0,0,16.5,16.5h319A16.52,16.52,0,0,0,356,95V20A16.52,16.52,0,0,0,339.5,3.5Z"/><path d="M33.19,39.24a2.15,2.15,0,0,1,1.44-.54,1.6,1.6,0,0,1,.69.11,29.26,29.26,0,0,1,4.59-1.61,19.07,19.07,0,0,1,4.83-.63,15.38,15.38,0,0,1,3.13.31,10.5,10.5,0,0,1,3,1.13,11.47,11.47,0,0,1,2.82,2.06,13.18,13.18,0,0,1,2.12,2.79,14.29,14.29,0,0,1,1.35,3.25,12.43,12.43,0,0,1,.49,3.44,11.22,11.22,0,0,1-1.78,6.15,15.33,15.33,0,0,1-4.66,4.69,13.77,13.77,0,0,1-6.32,2l-1.4.08-1.35,0c-.89,0-1.75,0-2.59-.11s-1.69-.18-2.53-.29v4.94c0,1.84,0,3.49.06,4.94a2.73,2.73,0,0,1-.78,2,2.26,2.26,0,0,1-1.58.66,2.24,2.24,0,0,1-1.49-.6,2.86,2.86,0,0,1-.86-1.87V61a.86.86,0,0,1-.4-.12,3.23,3.23,0,0,1-1.27-1.09,2.31,2.31,0,0,1-.4-1.26,2,2,0,0,1,.52-1.35,2.76,2.76,0,0,1,1.49-.84V40.94A3.22,3.22,0,0,1,33.19,39.24Zm15.4,2.9a8.44,8.44,0,0,0-3.91-.92,13.67,13.67,0,0,0-4,.61A25.43,25.43,0,0,0,37,43.23V57.37a20.47,20.47,0,0,0,2.42.43,19.89,19.89,0,0,0,2.47.14,16.28,16.28,0,0,0,2.41-.17,22.77,22.77,0,0,0,3.3-.83,7.24,7.24,0,0,0,2.91-1.87,8.73,8.73,0,0,0,1.72-2.76,8.32,8.32,0,0,0-.49-7.09A7.8,7.8,0,0,0,48.59,42.14Z"/><path d="M82.26,68.34a3.12,3.12,0,0,1,1.61,1,2.2,2.2,0,0,1,.49,1.41,2.3,2.3,0,0,1-.61,1.38,3,3,0,0,1-1.66.89q-4.43.1-8.8.14t-8.73.14a2.49,2.49,0,0,1-2.47-2.47q0-7.58.06-15.11t.06-15.17a2.94,2.94,0,0,1,.89-1.67,2.24,2.24,0,0,1,1.38-.6,2.14,2.14,0,0,1,1.4.49,3.08,3.08,0,0,1,1,1.61q0,7.13-.06,14.1T66.8,68.63c2.57-.08,5.14-.12,7.7-.14S79.65,68.42,82.26,68.34Z"/><path d="M117.31,71a3.17,3.17,0,0,1-.58,1.78,2,2,0,0,1-1.26.83,2.15,2.15,0,0,1-1.49-.26A3.18,3.18,0,0,1,112.71,72a46.86,46.86,0,0,0-1-5.31c-.42-1.74-.91-3.48-1.49-5.2L95,61.56l-.26,0-.25,0q-1.44,4.88-2.59,10.11a2.77,2.77,0,0,1-1.32,1.61A2.27,2.27,0,0,1,89,73.4a2.17,2.17,0,0,1-1.26-1,2.9,2.9,0,0,1-.26-2.07A167.24,167.24,0,0,1,92,54a103.37,103.37,0,0,1,6.69-15.55,2,2,0,0,1,1.61-1.37,2,2,0,0,1,1.21-.09,2.09,2.09,0,0,1,1,.55s.06,0,.06,0,0,0,.06,0a27.49,27.49,0,0,1,5,6.5q2,3.61,3.67,7.35c.43.88.82,1.76,1.18,2.64s.72,1.77,1.07,2.65l3-.06a3.07,3.07,0,0,1,1.61,1,2,2,0,0,1-.12,2.79,2.88,2.88,0,0,1-1.66.89h-1.21q.75,2.36,1.29,4.74A43.26,43.26,0,0,1,117.31,71ZM101.45,43.35q-1.61,3.27-3,6.66c-.9,2.27-1.73,4.54-2.5,6.84l12.53-.11Q107.77,55,107,53.35c-.51-1.11-1-2.22-1.58-3.34s-1.22-2.24-1.83-3.39A23.51,23.51,0,0,0,101.45,43.35Z"/><path d="M134.66,70.76a2.73,2.73,0,0,1-.78,2,2.26,2.26,0,0,1-1.58.66,2.24,2.24,0,0,1-1.49-.6,2.91,2.91,0,0,1-.86-1.87c0-2.34,0-4.66,0-7s0-4.66,0-7a63.27,63.27,0,0,1-6.52-7.38,28.47,28.47,0,0,1-4.45-8.77,1.38,1.38,0,0,0,0-.26,1.21,1.21,0,0,1,0-.25,2.52,2.52,0,0,1,.66-1.87,2.09,2.09,0,0,1,1.52-.66A2.68,2.68,0,0,1,123.28,39a25.89,25.89,0,0,0,3.62,7.38,49.49,49.49,0,0,0,5.29,6.24l5.54-6.58a39.89,39.89,0,0,0,4.8-7.1,3.06,3.06,0,0,1,1.06-1.15,2.4,2.4,0,0,1,1.18-.34,2.21,2.21,0,0,1,1.55.63,2.16,2.16,0,0,1,.69,1.67,3.66,3.66,0,0,1-.28,1.26,49.28,49.28,0,0,1-5.58,8.13q-3.21,3.82-6.32,7.61l-.23.23v6.87Q134.6,67.31,134.66,70.76Z"/><path d="M196.37,71a3.25,3.25,0,0,1-.57,1.78,2.07,2.07,0,0,1-1.27.83,2.16,2.16,0,0,1-1.49-.26A3.18,3.18,0,0,1,191.77,72a49.17,49.17,0,0,0-1-5.31c-.42-1.74-.92-3.48-1.5-5.2l-15.22.11-.26,0-.26,0q-1.44,4.88-2.59,10.11a2.7,2.7,0,0,1-1.32,1.61,2.27,2.27,0,0,1-1.64.17,2.24,2.24,0,0,1-1.26-1,2.9,2.9,0,0,1-.26-2.07Q168.4,62,171.06,54a103.37,103.37,0,0,1,6.69-15.55,2,2,0,0,1,1.61-1.37,2,2,0,0,1,1.21-.09,2.12,2.12,0,0,1,1,.55s0,0,0,0,0,0,.06,0a27.49,27.49,0,0,1,5,6.5q2,3.61,3.68,7.35.63,1.32,1.17,2.64c.37.89.72,1.77,1.07,2.65l3-.06a3.07,3.07,0,0,1,1.61,1,2.15,2.15,0,0,1,.49,1.41,2.24,2.24,0,0,1-.6,1.38,2.94,2.94,0,0,1-1.67.89h-1.21q.75,2.36,1.3,4.74A45.64,45.64,0,0,1,196.37,71ZM180.51,43.35q-1.6,3.27-3,6.66c-.9,2.27-1.73,4.54-2.5,6.84l12.53-.11c-.5-1.15-1-2.28-1.52-3.39S185,51.13,184.48,50s-1.23-2.24-1.84-3.39A22.63,22.63,0,0,0,180.51,43.35Z"/><path d="M229.75,53.58a2.87,2.87,0,0,1,1.61.94,2.26,2.26,0,0,1,.52,1.41,2.11,2.11,0,0,1-.46,1.3,3.07,3.07,0,0,1-1.32.94v8.62a3,3,0,0,1-.84,2.13l-1.58,1.61a11,11,0,0,1-4.33,2.67,16.15,16.15,0,0,1-5.09.83,14.85,14.85,0,0,1-7.35-1.75,17.2,17.2,0,0,1-5.26-4.42A19.5,19.5,0,0,1,202.49,62a18.8,18.8,0,0,1-1.06-6,17.87,17.87,0,0,1,.4-3.62,19.57,19.57,0,0,1,1.23-3.85,18,18,0,0,1,2.1-3.56,11.37,11.37,0,0,1,3-2.76,36.25,36.25,0,0,1,6.35-3.3,17.59,17.59,0,0,1,6.63-1.3,17.27,17.27,0,0,1,2.36.2,15.75,15.75,0,0,1,2.67.64,6.94,6.94,0,0,1,2.21,1.17,2.28,2.28,0,0,1,.92,1.84,2.1,2.1,0,0,1-.63,1.55,2.15,2.15,0,0,1-1.61.64,4,4,0,0,1-1.2-.23l-1.47-.49c-.52-.17-1-.34-1.61-.49a6.24,6.24,0,0,0-1.64-.23,9.56,9.56,0,0,0-1.09.06,4.77,4.77,0,0,0-1,.23q-2.25.69-4.54,1.63a16.56,16.56,0,0,0-4.17,2.5,11.86,11.86,0,0,0-3,3.83,12.36,12.36,0,0,0-1.15,5.65,13.85,13.85,0,0,0,1,5.2,14.25,14.25,0,0,0,2.59,4.23,12.15,12.15,0,0,0,3.73,2.81,10,10,0,0,0,4.43,1,10.24,10.24,0,0,0,4-.81,10.84,10.84,0,0,0,3.57-2.41V58.35c-1.46,0-2.91,0-4.34,0h-4.34a2.91,2.91,0,0,1-1.87-.86,2.24,2.24,0,0,1-.6-1.49,2.41,2.41,0,0,1,.66-1.58,2.45,2.45,0,0,1,2-.78l2.44,0c1.25,0,2.58,0,4,0l4,0Z"/><path d="M265.32,71a3.25,3.25,0,0,1-.57,1.78,2.07,2.07,0,0,1-1.27.83,2.15,2.15,0,0,1-1.49-.26A3.18,3.18,0,0,1,260.72,72a49.17,49.17,0,0,0-1-5.31c-.43-1.74-.92-3.48-1.5-5.2L243,61.56l-.26,0-.26,0q-1.44,4.88-2.59,10.11a2.7,2.7,0,0,1-1.32,1.61,2.27,2.27,0,0,1-1.64.17,2.2,2.2,0,0,1-1.26-1,2.9,2.9,0,0,1-.26-2.07Q237.35,62,240,54a103.37,103.37,0,0,1,6.69-15.55,2,2,0,0,1,1.61-1.37,2,2,0,0,1,1.21-.09,2.12,2.12,0,0,1,1,.55s.05,0,.05,0,0,0,.06,0a27.49,27.49,0,0,1,5,6.5c1.34,2.41,2.56,4.86,3.68,7.35q.63,1.32,1.17,2.64c.37.89.72,1.77,1.07,2.65l3-.06a3.07,3.07,0,0,1,1.61,1,2.15,2.15,0,0,1,.49,1.41,2.24,2.24,0,0,1-.6,1.38,2.94,2.94,0,0,1-1.67.89h-1.21q.75,2.36,1.3,4.74A45.64,45.64,0,0,1,265.32,71ZM249.46,43.35q-1.61,3.27-3,6.66c-.9,2.27-1.73,4.54-2.5,6.84l12.53-.11c-.5-1.15-1-2.28-1.52-3.39s-1-2.22-1.58-3.34-1.23-2.24-1.84-3.39A22.63,22.63,0,0,0,249.46,43.35Z"/><path d="M284.45,68a2.72,2.72,0,0,1,2,.57,2.41,2.41,0,0,1,.83,1.44,2.2,2.2,0,0,1-.43,1.58A2.89,2.89,0,0,1,285,72.65c-2,.08-4,.11-5.95.09s-4,0-5.95,0a2.79,2.79,0,0,1-1.86-.89,2.21,2.21,0,0,1-.58-1.55,2.27,2.27,0,0,1,.69-1.52,2.73,2.73,0,0,1,1.93-.75H275c.56,0,1.12,0,1.7.06V43h-3.62a2.83,2.83,0,0,1-1.87-.89,2.19,2.19,0,0,1,.11-3.08,2.7,2.7,0,0,1,1.93-.74h11.83a3,3,0,0,1,1.61,1,2.15,2.15,0,0,1,.49,1.41,2.24,2.24,0,0,1-.6,1.38,3,3,0,0,1-1.67.89h-3.5V68.11c.5,0,1,0,1.49,0S283.92,68,284.45,68Z"/><path d="M316.86,39.21a3.37,3.37,0,0,1,.92-1.72,2.09,2.09,0,0,1,1.43-.58,2.28,2.28,0,0,1,1.41.52,2.91,2.91,0,0,1,.95,1.61q0,8.22-.11,15.92t-.58,15.91l.06.06h-.06a2.41,2.41,0,0,0-.06.49v.43a3,3,0,0,1-.94,1.38,2.17,2.17,0,0,1-1.3.46,2.74,2.74,0,0,1-1.95-.92,3.55,3.55,0,0,0-.23-.4l-.23-.35h-.06v-.11c-1.38-2.34-2.79-4.57-4.25-6.7S308.91,61,307.38,59s-3.1-4.08-4.68-6.09-3.23-4.07-4.92-6.18V58.32q0,2.9,0,6.06t0,6.84a2.73,2.73,0,0,1-.78,2,2.28,2.28,0,0,1-1.58.66,2.24,2.24,0,0,1-1.49-.6,2.91,2.91,0,0,1-.86-1.87q0-7.76,0-15.72t0-15.71a3,3,0,0,1,.86-1.61,2.09,2.09,0,0,1,1.44-.57,3.07,3.07,0,0,1,1.72.63l5.17,6.17q2.53,3,5,6.07c1.63,2,3.21,4.1,4.74,6.23s3,4.34,4.49,6.64q.23-6.33.31-12.13T316.86,39.21Z"/></g></svg>
