<svg xmlns="http://www.w3.org/2000/svg" xmlns:xlink="http://www.w3.org/1999/xlink" width="365" height="420" viewBox="0 0 365 420"><defs><style>.cls-1{fill:#fcfcfc;stroke:#000;stroke-miterlimit:10;stroke-width:3px;}.cls-2{fill:url(#radial-gradient);}</style><radialGradient id="radial-gradient" cx="187.85" cy="293.75" r="124.5" gradientTransform="translate(0 205.63) scale(1 0.3)" gradientUnits="userSpaceOnUse"><stop offset="0" stop-opacity="0.6"/><stop offset="1" stop-opacity="0"/></radialGradient></defs><title>UI_play_settings_skygge</title><g id="Layer_2" data-name="Layer 2"><rect class="cls-1" x="3.35" y="3.25" width="357.94" height="90.76" rx="18"/><rect class="cls-1" x="3.71" y="128.49" width="357.94" height="90.76" rx="18"/><path d="M114.76,28.83a2.41,2.41,0,0,1,1.6-.61,1.84,1.84,0,0,1,.77.13,33.87,33.87,0,0,1,5.14-1.79,21.23,21.23,0,0,1,5.39-.71,17.61,17.61,0,0,1,3.5.35,12,12,0,0,1,3.3,1.25,12.66,12.66,0,0,1,3.15,2.31A14.53,14.53,0,0,1,140,32.88a15.82,15.82,0,0,1,1.51,3.62,14.27,14.27,0,0,1,.55,3.85,12.62,12.62,0,0,1-2,6.87,17.07,17.07,0,0,1-5.2,5.23,15.16,15.16,0,0,1-7.06,2.28c-.51,0-1,.08-1.57.1l-1.51,0c-1,0-1.95,0-2.89-.13s-1.88-.19-2.82-.32v5.52q0,3.07.06,5.52a3,3,0,0,1-.87,2.21,2.55,2.55,0,0,1-1.76.74,2.47,2.47,0,0,1-1.67-.67,3.28,3.28,0,0,1-1-2.09V53.13a1.11,1.11,0,0,1-.45-.13,3.58,3.58,0,0,1-1.41-1.22,2.6,2.6,0,0,1-.45-1.41,2.28,2.28,0,0,1,.57-1.51,3.07,3.07,0,0,1,1.67-.93V30.73A3.64,3.64,0,0,1,114.76,28.83ZM132,32.08a9.31,9.31,0,0,0-4.36-1,15.58,15.58,0,0,0-4.5.67,29.2,29.2,0,0,0-4.1,1.57V49.08a20.78,20.78,0,0,0,2.69.48,22.73,22.73,0,0,0,2.76.17,18.87,18.87,0,0,0,2.7-.2,24.31,24.31,0,0,0,3.69-.93,7.85,7.85,0,0,0,3.24-2.08A9.74,9.74,0,0,0,136,43.44a9.22,9.22,0,0,0-.54-7.93A8.7,8.7,0,0,0,132,32.08Z"/><path d="M169.57,61.34a3.49,3.49,0,0,1,1.8,1.16,2.44,2.44,0,0,1,.54,1.57,2.47,2.47,0,0,1-.67,1.54,3.28,3.28,0,0,1-1.86,1c-3.3.09-6.57.14-9.82.17s-6.51.07-9.76.16A2.81,2.81,0,0,1,147,64.17q0-8.47.07-16.88t.06-16.95a3.24,3.24,0,0,1,1-1.86,2.44,2.44,0,0,1,1.54-.67,2.47,2.47,0,0,1,1.57.54,3.48,3.48,0,0,1,1.15,1.8q0,8-.06,15.76c0,5.19-.06,10.45-.06,15.75,2.86-.08,5.73-.14,8.6-.16S166.66,61.43,169.57,61.34Z"/><path d="M208.72,64.29a3.54,3.54,0,0,1-.64,2,2.25,2.25,0,0,1-1.41.93,2.49,2.49,0,0,1-1.67-.28,3.55,3.55,0,0,1-1.41-1.54,55.53,55.53,0,0,0-1.1-5.94c-.47-2-1-3.88-1.66-5.81l-17,.13-.29,0a1.67,1.67,0,0,0-.29,0q-1.61,5.46-2.89,11.3a3,3,0,0,1-1.47,1.8,2.54,2.54,0,0,1-1.83.19,2.49,2.49,0,0,1-1.42-1.16,3.2,3.2,0,0,1-.28-2.31,188.54,188.54,0,0,1,5.1-18.19A114.9,114.9,0,0,1,187.93,28a2.22,2.22,0,0,1,1.79-1.54,2.26,2.26,0,0,1,1.35-.1,2.31,2.31,0,0,1,1.09.61s.07,0,.07,0,0,0,.06,0a30.55,30.55,0,0,1,5.58,7.26q2.25,4,4.11,8.21c.47,1,.91,2,1.32,3s.8,2,1.18,3l3.41-.07a3.48,3.48,0,0,1,1.79,1.16,2.41,2.41,0,0,1,.55,1.57,2.46,2.46,0,0,1-.68,1.54,3.23,3.23,0,0,1-1.86,1h-1.34c.55,1.75,1,3.52,1.44,5.29A49.07,49.07,0,0,1,208.72,64.29ZM191,33.42q-1.8,3.66-3.31,7.45t-2.79,7.64l14-.13c-.56-1.29-1.12-2.55-1.7-3.79s-1.17-2.48-1.77-3.72-1.37-2.51-2.05-3.79A26.29,26.29,0,0,0,191,33.42Z"/><path d="M228.1,64a3.05,3.05,0,0,1-.86,2.21,2.59,2.59,0,0,1-1.77.74,2.49,2.49,0,0,1-1.67-.67,3.28,3.28,0,0,1-1-2.09q0-3.92,0-7.8t0-7.86a69.4,69.4,0,0,1-7.29-8.25,31.81,31.81,0,0,1-5-9.78,1,1,0,0,0,0-.29,1.68,1.68,0,0,1,0-.29,2.83,2.83,0,0,1,.74-2.09,2.34,2.34,0,0,1,1.7-.74,3,3,0,0,1,2.5,1.48,28.83,28.83,0,0,0,4.05,8.25,54.61,54.61,0,0,0,5.9,7l6.2-7.35a45.37,45.37,0,0,0,5.36-7.92,3.32,3.32,0,0,1,1.18-1.29,2.61,2.61,0,0,1,1.32-.38,2.49,2.49,0,0,1,1.73.7,2.41,2.41,0,0,1,.77,1.86,4.2,4.2,0,0,1-.32,1.42,55.77,55.77,0,0,1-6.22,9.08q-3.6,4.26-7.06,8.5l-.26.26v7.67Q228,60.18,228.1,64Z"/><path d="M52.59,186.63a4.21,4.21,0,0,1-.38-1.67,2.37,2.37,0,0,1,.67-1.76,2.31,2.31,0,0,1,1.7-.68,3.32,3.32,0,0,1,2,.71,10.29,10.29,0,0,0,2.54,2.15,13,13,0,0,0,3.08,1.35,19.84,19.84,0,0,0,3.33.67,29.15,29.15,0,0,0,3.31.19c.73-.25,1.23-.41,1.51-.48a3.09,3.09,0,0,0,.67-.22,4.2,4.2,0,0,0,.58-.39c.21-.17.62-.47,1.22-.9l.58-.83.57-.84.58-1.73v-.86a8.32,8.32,0,0,0-.06-.94,6.86,6.86,0,0,0-.32-.86l-.39-.87c-.26-.3-.5-.58-.74-.83s-.48-.54-.73-.84-.77-.45-1.16-.7a4.26,4.26,0,0,0-1.28-.58A29,29,0,0,0,65,174.47a39.07,39.07,0,0,1-4.17-.9,11.5,11.5,0,0,1-7.09-5.42,3,3,0,0,1-.39-.77c0-.18-.08-.48-.13-.9s-.07-.68-.09-1,0-.63,0-.93a8.48,8.48,0,0,1,.22-2.05,7.54,7.54,0,0,1,.67-1.74,11.43,11.43,0,0,1,1.16-1.7c.47-.57,1-1.2,1.67-1.89a9.26,9.26,0,0,1,2.5-1.89,15,15,0,0,1,3-1.16,19.6,19.6,0,0,1,3.18-.58c1.09-.1,2.15-.16,3.18-.16h.93a6.49,6.49,0,0,1,.86.07,8.8,8.8,0,0,1,2.8.7,19.07,19.07,0,0,0,2.72,1,3,3,0,0,1,1.48,2.5,2.34,2.34,0,0,1-.74,1.7,2.83,2.83,0,0,1-2.08.74l-.29,0a1.81,1.81,0,0,0-.29,0q-2.06-.63-3.63-1a14.21,14.21,0,0,0-3.05-.35,10.35,10.35,0,0,0-3.14.51,19.72,19.72,0,0,0-3.72,1.73,11.21,11.21,0,0,1-.77.93c-.26.28-.52.57-.77.87s-.25.51-.36.77-.2.51-.29.77a6.62,6.62,0,0,0,0,.77,6.86,6.86,0,0,0,.09.71,5.31,5.31,0,0,1,.45.64,6.24,6.24,0,0,0,.45.64l2.7,1.54c1.28.3,2.48.56,3.59.77s2.18.46,3.21.74,2,.61,3,1a27.26,27.26,0,0,1,3.24,1.54,5.59,5.59,0,0,1,1.54,1.32c.43.54.83,1,1.22,1.51a7.91,7.91,0,0,1,1.51,2.76,10.66,10.66,0,0,1,.48,3.21,11.65,11.65,0,0,1-.9,4.49,9.09,9.09,0,0,1-2.57,3.59,10,10,0,0,1-1.18.93l-1.19.81a10.19,10.19,0,0,1-3,1.34,13.5,13.5,0,0,1-3.53.45,19.62,19.62,0,0,1-4.27-.48,22.77,22.77,0,0,1-4.14-1.35,21,21,0,0,1-3.65-2A14.48,14.48,0,0,1,52.59,186.63Z"/><path d="M107.92,184.83a3.26,3.26,0,0,1,2,.48,2.46,2.46,0,0,1,1,1.35,2.55,2.55,0,0,1-.12,1.67,3.26,3.26,0,0,1-1.45,1.51,40.57,40.57,0,0,1-4.94,1,52,52,0,0,1-5.33.48,49.52,49.52,0,0,1-5.32-.1,30.16,30.16,0,0,1-5-.77,3.46,3.46,0,0,1-1.48-1.25,2.34,2.34,0,0,1-.38-1.44V159.55a2.39,2.39,0,0,1-1.29-.9,2.48,2.48,0,0,1-.44-1.41,2.61,2.61,0,0,1,.51-1.51,3.15,3.15,0,0,1,1.6-1.13,28.63,28.63,0,0,1,5.11-1.06c1.73-.19,3.47-.32,5.23-.38s3.5-.1,5.26-.1,3.49,0,5.2-.13a3,3,0,0,1,2.21.65,2.55,2.55,0,0,1,.93,1.6,2.39,2.39,0,0,1-.48,1.77,3.24,3.24,0,0,1-2,1.18c-2.57.13-5.29.18-8.18.13a48.88,48.88,0,0,0-8.38.58v11.3c2.23.08,4.46.07,6.71,0s4.5-.26,6.77-.48a3,3,0,0,1,2.21.64,2.59,2.59,0,0,1,.93,1.61,2.35,2.35,0,0,1-.48,1.76,3.18,3.18,0,0,1-2,1.19c-2.35.22-4.72.39-7.09.51s-4.72.15-7,.07v10.4a36.44,36.44,0,0,0,8,.28A40.91,40.91,0,0,0,107.92,184.83Z"/><path d="M143.73,153.19a3.41,3.41,0,0,1,1.73,1.16A2.26,2.26,0,0,1,146,156a2.44,2.44,0,0,1-.7,1.57,3.54,3.54,0,0,1-1.93.93l-10,.07.07,31.32a3.1,3.1,0,0,1-.87,2.21,2.57,2.57,0,0,1-1.77.74,2.45,2.45,0,0,1-1.66-.67,3.24,3.24,0,0,1-1-2.09l-.06-31.51H117.93a3.32,3.32,0,0,1-2-1.06,2.29,2.29,0,0,1-.61-1.7,2.7,2.7,0,0,1,.8-1.73,2.9,2.9,0,0,1,2.21-.77h18.17c1.71,0,3.22,0,4.52,0Z"/><path d="M176.78,153.19a3.41,3.41,0,0,1,1.73,1.16A2.31,2.31,0,0,1,179,156a2.5,2.5,0,0,1-.71,1.57,3.54,3.54,0,0,1-1.92.93l-10,.07.07,31.32a3.06,3.06,0,0,1-.87,2.21,2.55,2.55,0,0,1-1.76.74,2.47,2.47,0,0,1-1.67-.67,3.19,3.19,0,0,1-1-2.09l-.07-31.51H151a3.32,3.32,0,0,1-2-1.06,2.33,2.33,0,0,1-.61-1.7,2.7,2.7,0,0,1,.8-1.73,2.91,2.91,0,0,1,2.22-.77h18.16c1.71,0,3.22,0,4.52,0Z"/><path d="M199.24,186.05a3.06,3.06,0,0,1,2.22.64,2.69,2.69,0,0,1,.93,1.61,2.44,2.44,0,0,1-.48,1.76,3.21,3.21,0,0,1-2,1.19c-2.23.09-4.44.12-6.65.1s-4.42,0-6.64,0a3.12,3.12,0,0,1-2.09-1,2.49,2.49,0,0,1-.64-1.73,2.54,2.54,0,0,1,.77-1.7,3,3,0,0,1,2.15-.84h1.9c.62,0,1.25,0,1.89.07V158.07h-4a3.14,3.14,0,0,1-2.09-1,2.49,2.49,0,0,1-.64-1.73,2.54,2.54,0,0,1,.77-1.7,3,3,0,0,1,2.15-.83H200a3.48,3.48,0,0,1,1.8,1.15,2.3,2.3,0,0,1-.13,3.11,3.24,3.24,0,0,1-1.86,1h-3.92v28.11c.56,0,1.11,0,1.67,0S198.64,186.1,199.24,186.05Z"/><path d="M235.44,153.9a3.75,3.75,0,0,1,1-1.93,2.34,2.34,0,0,1,1.6-.64,2.51,2.51,0,0,1,1.58.58,3.19,3.19,0,0,1,1,1.79q0,9.18-.12,17.78t-.65,17.78l.07.07h-.07a3,3,0,0,0-.06.54v.48a3.33,3.33,0,0,1-1.06,1.54,2.36,2.36,0,0,1-1.44.52,3.12,3.12,0,0,1-2.19-1,4.54,4.54,0,0,0-.25-.45l-.26-.39h-.06v-.12q-2.31-3.91-4.75-7.48t-5-7q-2.57-3.44-5.23-6.8c-1.78-2.25-3.6-4.55-5.49-6.9v13q0,3.24,0,6.77t0,7.64a3.06,3.06,0,0,1-.87,2.21,2.55,2.55,0,0,1-1.76.74,2.49,2.49,0,0,1-1.67-.68,3.19,3.19,0,0,1-1-2.08q0-8.67,0-17.55t0-17.56a3.34,3.34,0,0,1,1-1.8,2.36,2.36,0,0,1,1.61-.64,3.43,3.43,0,0,1,1.92.71l5.78,6.9q2.82,3.36,5.55,6.77t5.3,7q2.56,3.57,5,7.42.25-7.06.35-13.55T235.44,153.9Z"/><path d="M278.06,169.94a3.26,3.26,0,0,1,1.79,1.06,2.48,2.48,0,0,1,.58,1.57,2.35,2.35,0,0,1-.51,1.45,3.41,3.41,0,0,1-1.48,1.06v9.62a3.28,3.28,0,0,1-.93,2.38l-1.76,1.8a12.23,12.23,0,0,1-4.85,3,17.84,17.84,0,0,1-5.68.93,16.59,16.59,0,0,1-8.21-2,19,19,0,0,1-5.88-4.94,21.7,21.7,0,0,1-3.53-6.51,21.19,21.19,0,0,1-1.18-6.74,20,20,0,0,1,.45-4,20.93,20.93,0,0,1,1.37-4.31,19.67,19.67,0,0,1,2.35-4,12.65,12.65,0,0,1,3.33-3.08,41.48,41.48,0,0,1,7.1-3.7,19.86,19.86,0,0,1,7.41-1.44,18.72,18.72,0,0,1,2.63.23,17.57,17.57,0,0,1,3,.7,7.77,7.77,0,0,1,2.47,1.32,2.55,2.55,0,0,1,1,2.05,2.34,2.34,0,0,1-.7,1.73,2.44,2.44,0,0,1-1.8.71,4.47,4.47,0,0,1-1.35-.26l-1.63-.54c-.58-.2-1.18-.38-1.8-.55a6.89,6.89,0,0,0-1.83-.25,11.87,11.87,0,0,0-1.22.06,5.29,5.29,0,0,0-1.15.26q-2.51.76-5.08,1.82a17.94,17.94,0,0,0-4.65,2.8,13.35,13.35,0,0,0-3.37,4.26,14,14,0,0,0-1.28,6.33,15.38,15.38,0,0,0,1.09,5.8,15.54,15.54,0,0,0,2.89,4.72,13.48,13.48,0,0,0,4.17,3.15,11.15,11.15,0,0,0,4.94,1.15,11.54,11.54,0,0,0,4.43-.9,12,12,0,0,0,4-2.69v-8.73c-1.63,0-3.24.06-4.85.06h-4.84a3.23,3.23,0,0,1-2.09-1,2.47,2.47,0,0,1-.67-1.67,2.67,2.67,0,0,1,.74-1.76,2.74,2.74,0,0,1,2.21-.87l2.73,0c1.39,0,2.88,0,4.46,0s3.07,0,4.46,0Z"/><path d="M287,186.63a4.21,4.21,0,0,1-.38-1.67,2.37,2.37,0,0,1,.67-1.76,2.31,2.31,0,0,1,1.7-.68,3.32,3.32,0,0,1,2,.71,10.29,10.29,0,0,0,2.54,2.15,13,13,0,0,0,3.08,1.35,19.84,19.84,0,0,0,3.33.67,29.15,29.15,0,0,0,3.31.19c.73-.25,1.23-.41,1.51-.48a3.09,3.09,0,0,0,.67-.22,4.2,4.2,0,0,0,.58-.39c.21-.17.62-.47,1.22-.9l.58-.83.57-.84.58-1.73v-.86a8.32,8.32,0,0,0-.06-.94,8.89,8.89,0,0,0-.32-.86q-.19-.42-.39-.87c-.26-.3-.5-.58-.74-.83s-.48-.54-.73-.84-.77-.45-1.16-.7a4.26,4.26,0,0,0-1.28-.58,29,29,0,0,0-4.85-1.25,39.07,39.07,0,0,1-4.17-.9,11.5,11.5,0,0,1-7.09-5.42,3,3,0,0,1-.39-.77c0-.18-.08-.48-.13-.9s-.07-.68-.09-1,0-.63,0-.93a8.48,8.48,0,0,1,.22-2.05,7.54,7.54,0,0,1,.67-1.74,11.43,11.43,0,0,1,1.16-1.7c.47-.57,1-1.2,1.67-1.89a9.26,9.26,0,0,1,2.5-1.89,15,15,0,0,1,3-1.16,19.6,19.6,0,0,1,3.18-.58c1.09-.1,2.15-.16,3.18-.16H304a6.49,6.49,0,0,1,.86.07,8.8,8.8,0,0,1,2.8.7,19.07,19.07,0,0,0,2.72,1,3,3,0,0,1,1.48,2.5,2.34,2.34,0,0,1-.74,1.7,2.83,2.83,0,0,1-2.08.74l-.29,0a1.81,1.81,0,0,0-.29,0q-2.06-.63-3.63-1a14.21,14.21,0,0,0-3.05-.35,10.35,10.35,0,0,0-3.14.51,19.72,19.72,0,0,0-3.72,1.73,11.21,11.21,0,0,1-.77.93c-.26.28-.52.57-.77.87s-.25.51-.36.77-.2.51-.29.77a6.62,6.62,0,0,0,0,.77,6.86,6.86,0,0,0,.09.71,5.31,5.31,0,0,1,.45.64,6.24,6.24,0,0,0,.45.64l2.7,1.54c1.28.3,2.48.56,3.59.77s2.18.46,3.21.74,2,.61,3.05,1a27.26,27.26,0,0,1,3.24,1.54,5.59,5.59,0,0,1,1.54,1.32c.43.54.83,1,1.22,1.51a7.91,7.91,0,0,1,1.51,2.76,10.66,10.66,0,0,1,.48,3.21,11.65,11.65,0,0,1-.9,4.49,9.19,9.19,0,0,1-2.57,3.59,10,10,0,0,1-1.18.93l-1.19.81a10.19,10.19,0,0,1-3,1.34,13.5,13.5,0,0,1-3.53.45,19.62,19.62,0,0,1-4.27-.48,22.77,22.77,0,0,1-4.14-1.35,21,21,0,0,1-3.65-2A14.48,14.48,0,0,1,287,186.63Z"/><circle class="cls-2" cx="187.85" cy="293.75" r="124.5"/></g></svg>
