<svg xmlns="http://www.w3.org/2000/svg" width="360" height="115" viewBox="0 0 360 115"><defs><style>.cls-1{fill:#efefef;}</style></defs><title>UI_playagain</title><g id="Layer_2" data-name="Layer 2"><rect class="cls-1" x="3.5" y="2" width="355" height="112" rx="18"/><path d="M339.5,114.5H20.5A19.53,19.53,0,0,1,1,95V20A19.53,19.53,0,0,1,20.5.5h319A19.53,19.53,0,0,1,359,20V95A19.53,19.53,0,0,1,339.5,114.5ZM20.5,3.5A16.52,16.52,0,0,0,4,20V95a16.52,16.52,0,0,0,16.5,16.5h319A16.52,16.52,0,0,0,356,95V20A16.52,16.52,0,0,0,339.5,3.5Z"/><path d="M39.94,38.86a58,58,0,0,1,9.68-.75c5,0,8.65,1.16,11,3.24A10.54,10.54,0,0,1,64,49.53a11.51,11.51,0,0,1-3,8.35c-2.67,2.85-7,4.3-12,4.3A17.4,17.4,0,0,1,45,61.83V77.49h-5Zm5,18.85a17,17,0,0,0,4.18.41c6.09,0,9.8-3,9.8-8.36,0-5.16-3.65-7.65-9.22-7.65a21.46,21.46,0,0,0-4.76.4Z"/><path d="M70.79,38.4h5V73.25h16.7v4.24H70.79Z"/><path d="M104.49,65.19l-4.06,12.3H95.21L108.49,38.4h6.09l13.34,39.09h-5.39l-4.18-12.3Zm12.82-3.94L113.48,50c-.87-2.56-1.45-4.88-2-7.14h-.12c-.58,2.32-1.21,4.7-2,7.08l-3.82,11.31Z"/><path d="M137.78,77.49V60.9L125.43,38.4h5.74l5.51,10.78c1.51,3,2.67,5.34,3.89,8.07h.11c1.11-2.56,2.44-5.11,3.95-8.07l5.62-10.78H156L142.89,60.84V77.49Z"/><path d="M179.08,65.19,175,77.49H169.8L183.08,38.4h6.09l13.34,39.09h-5.39l-4.18-12.3Zm12.82-3.94L188.07,50c-.87-2.56-1.45-4.88-2-7.14h-.12c-.58,2.32-1.22,4.7-2,7.08l-3.83,11.31Z"/><path d="M237.14,75.75a36.56,36.56,0,0,1-12,2.14c-5.92,0-10.79-1.5-14.62-5.16-3.36-3.25-5.45-8.47-5.45-14.56C205.12,46.52,213.12,38,226.23,38a24.24,24.24,0,0,1,9.75,1.8l-1.22,4.12a20.23,20.23,0,0,0-8.64-1.69c-9.52,0-15.72,5.92-15.72,15.72s6,15.78,15.08,15.78a16.46,16.46,0,0,0,6.73-1V61h-8V57h12.88Z"/><path d="M251.17,65.19l-4.06,12.3h-5.22L255.17,38.4h6.09L274.6,77.49h-5.39L265,65.19ZM264,61.25,260.16,50c-.87-2.56-1.45-4.88-2-7.14H258c-.58,2.32-1.21,4.7-2,7.08l-3.83,11.31Z"/><path d="M285.39,38.4V77.49h-5V38.4Z"/><path d="M294.21,77.49V38.4h5.51l12.53,19.77a109.67,109.67,0,0,1,7,12.71l.12-.06c-.46-5.22-.58-10-.58-16.07V38.4h4.75V77.49h-5.1L306,57.65a122.45,122.45,0,0,1-7.31-13l-.17.06c.29,4.93.4,9.63.4,16.12V77.49Z"/></g></svg>
