<svg xmlns="http://www.w3.org/2000/svg" width="500" height="305" viewBox="0 0 500 305"><defs><style>.cls-1{fill:#fcfcfc;}</style></defs><title>UI_play_time</title><g id="Layer_2" data-name="Layer 2"><rect class="cls-1" x="3.25" y="3.75" width="493" height="125" rx="18"/><path d="M478.25,130.25h-457a19.53,19.53,0,0,1-19.5-19.5v-89a19.53,19.53,0,0,1,19.5-19.5h457a19.53,19.53,0,0,1,19.5,19.5v89A19.53,19.53,0,0,1,478.25,130.25Zm-457-125a16.52,16.52,0,0,0-16.5,16.5v89a16.52,16.52,0,0,0,16.5,16.5h457a16.52,16.52,0,0,0,16.5-16.5v-89a16.52,16.52,0,0,0-16.5-16.5Z"/><rect class="cls-1" x="3.75" y="176.25" width="493" height="125" rx="18"/><path d="M478.75,302.75h-457a19.53,19.53,0,0,1-19.5-19.5v-89a19.53,19.53,0,0,1,19.5-19.5h457a19.53,19.53,0,0,1,19.5,19.5v89A19.53,19.53,0,0,1,478.75,302.75Zm-457-125a16.52,16.52,0,0,0-16.5,16.5v89a16.52,16.52,0,0,0,16.5,16.5h457a16.52,16.52,0,0,0,16.5-16.5v-89a16.52,16.52,0,0,0-16.5-16.5Z"/><path d="M156.7,39a3.28,3.28,0,0,1,2.21-.84,2.59,2.59,0,0,1,1.06.17A46.09,46.09,0,0,1,167,35.85a29.16,29.16,0,0,1,7.43-1,24,24,0,0,1,4.82.48,15.91,15.91,0,0,1,4.55,1.73,17.33,17.33,0,0,1,4.33,3.18,19.82,19.82,0,0,1,3.27,4.29,22.18,22.18,0,0,1,2.08,5,19.44,19.44,0,0,1,.75,5.3,17.3,17.3,0,0,1-2.74,9.46,23.57,23.57,0,0,1-7.16,7.21,21,21,0,0,1-9.72,3.14c-.71,0-1.43.1-2.17.13s-1.43,0-2.08,0c-1.35,0-2.68-.06-4-.17s-2.59-.27-3.89-.45v7.61c0,2.82,0,5.36.09,7.6a4.21,4.21,0,0,1-1.19,3,3.55,3.55,0,0,1-2.43,1,3.46,3.46,0,0,1-2.3-.92,4.49,4.49,0,0,1-1.33-2.88V72.45a1.38,1.38,0,0,1-.61-.18,5,5,0,0,1-1.95-1.68,3.64,3.64,0,0,1-.62-2,3.11,3.11,0,0,1,.8-2.07,4.11,4.11,0,0,1,2.3-1.28V41.59A4.88,4.88,0,0,1,156.7,39Zm23.69,4.46a13,13,0,0,0-6-1.41,21.75,21.75,0,0,0-6.19.92,39.27,39.27,0,0,0-5.66,2.17V66.88a34.54,34.54,0,0,0,3.72.66,31.55,31.55,0,0,0,3.8.22,27.22,27.22,0,0,0,3.71-.26,35.35,35.35,0,0,0,5.08-1.29,10.87,10.87,0,0,0,4.47-2.87A13.51,13.51,0,0,0,186,59.1a12.72,12.72,0,0,0,.88-4.6,12.88,12.88,0,0,0-1.63-6.32A12.06,12.06,0,0,0,180.39,43.45Z"/><path d="M232.19,83.76a4.74,4.74,0,0,1,2.48,1.59,3.35,3.35,0,0,1,.75,2.17,3.44,3.44,0,0,1-.93,2.12A4.54,4.54,0,0,1,231.93,91q-6.81.18-13.53.22T205,91.45a3.86,3.86,0,0,1-3.8-3.8q0-11.67.09-23.25t.09-23.34a4.54,4.54,0,0,1,1.37-2.56,3.42,3.42,0,0,1,2.12-.93,3.35,3.35,0,0,1,2.17.75,4.74,4.74,0,0,1,1.59,2.48q0,11-.09,21.7t-.09,21.7q5.93-.18,11.85-.22T232.19,83.76Z"/><path d="M286.11,87.83a4.91,4.91,0,0,1-.88,2.74,3.17,3.17,0,0,1-2,1.28,3.37,3.37,0,0,1-2.29-.4A4.89,4.89,0,0,1,279,89.33a74.11,74.11,0,0,0-1.5-8.18q-1-4-2.3-8l-23.43.18a1.91,1.91,0,0,1-.39,0,2.08,2.08,0,0,0-.4-.05q-2.21,7.52-4,15.56a4.17,4.17,0,0,1-2,2.47,3.48,3.48,0,0,1-2.52.27,3.42,3.42,0,0,1-2-1.59,4.45,4.45,0,0,1-.39-3.18,258,258,0,0,1,7-25.06,159.28,159.28,0,0,1,10.3-23.92,4.1,4.1,0,0,1,4.33-2.25,3.27,3.27,0,0,1,1.51.84c.05,0,.09,0,.09,0s0,0,.08,0a42,42,0,0,1,7.69,10q3.1,5.57,5.66,11.31c.65,1.36,1.25,2.71,1.81,4.07s1.11,2.71,1.64,4.06l4.68-.08a4.74,4.74,0,0,1,2.48,1.59,3.33,3.33,0,0,1,.75,2.16,3.4,3.4,0,0,1-.93,2.12,4.45,4.45,0,0,1-2.56,1.37h-1.86q1.16,3.63,2,7.3A67.7,67.7,0,0,1,286.11,87.83ZM261.72,45.31c-1.66,3.36-3.17,6.77-4.56,10.25s-2.66,7-3.84,10.52l19.27-.18q-1.15-2.64-2.34-5.21t-2.44-5.13Q266.4,53,265,50.35A36.21,36.21,0,0,0,261.72,45.31Z"/><path d="M312.81,87.47a4.22,4.22,0,0,1-1.19,3,3.52,3.52,0,0,1-2.43,1,3.4,3.4,0,0,1-2.3-.93,4.46,4.46,0,0,1-1.33-2.87q0-5.4,0-10.74t0-10.83a96.35,96.35,0,0,1-10-11.36,43.67,43.67,0,0,1-6.85-13.48,2.08,2.08,0,0,0,0-.4,1.94,1.94,0,0,1,0-.4,3.89,3.89,0,0,1,1-2.87,3.2,3.2,0,0,1,2.34-1,4.14,4.14,0,0,1,3.45,2A39.41,39.41,0,0,0,300.88,50,75,75,0,0,0,309,59.63l8.53-10.12a61.59,61.59,0,0,0,7.38-10.92,4.5,4.5,0,0,1,1.64-1.77,3.64,3.64,0,0,1,1.81-.53,3.46,3.46,0,0,1,2.38,1,3.32,3.32,0,0,1,1.06,2.57,5.44,5.44,0,0,1-.44,1.94,75.57,75.57,0,0,1-8.57,12.51q-4.95,5.88-9.73,11.71l-.35.36V76.91Q312.72,82.18,312.81,87.47Z"/><path d="M71.08,256.32a5.76,5.76,0,0,1-.54-2.3,3.29,3.29,0,0,1,.93-2.43,3.18,3.18,0,0,1,2.35-.93,4.6,4.6,0,0,1,2.74,1,14,14,0,0,0,3.49,3,18.23,18.23,0,0,0,4.24,1.85,25.69,25.69,0,0,0,4.6.93,39.74,39.74,0,0,0,4.55.27,21.58,21.58,0,0,1,2.08-.67,4.42,4.42,0,0,0,.93-.3,4.65,4.65,0,0,0,.79-.54c.3-.23.85-.64,1.68-1.23l.8-1.15c.23-.36.5-.74.79-1.15l.8-2.39V249a10.23,10.23,0,0,0-.09-1.28,10.13,10.13,0,0,0-.44-1.2c-.18-.38-.36-.78-.53-1.19-.36-.41-.7-.8-1-1.15s-.66-.73-1-1.15c-.53-.29-1.06-.62-1.59-1a6.19,6.19,0,0,0-1.77-.8,40.59,40.59,0,0,0-6.67-1.72,51.4,51.4,0,0,1-5.75-1.24A17.71,17.71,0,0,1,77.35,236a17.47,17.47,0,0,1-4.68-5.13,3.75,3.75,0,0,1-.53-1.06,9.67,9.67,0,0,1-.18-1.24c-.06-.47-.1-.92-.13-1.37s0-.86,0-1.28a11.57,11.57,0,0,1,.31-2.83A10.5,10.5,0,0,1,73,220.7a14.76,14.76,0,0,1,1.59-2.35c.65-.79,1.42-1.66,2.3-2.6a13,13,0,0,1,3.45-2.61,19.67,19.67,0,0,1,4.06-1.59,27.51,27.51,0,0,1,4.38-.8c1.5-.14,3-.22,4.37-.22h1.29a8.25,8.25,0,0,1,1.19.09,12.25,12.25,0,0,1,3.85,1,27.76,27.76,0,0,0,3.75,1.33,4.11,4.11,0,0,1,2,3.45,3.22,3.22,0,0,1-1,2.34,3.89,3.89,0,0,1-2.87,1,2,2,0,0,1-.4,0,2,2,0,0,0-.4,0q-2.84-.88-5-1.37a18.9,18.9,0,0,0-4.2-.49,14.16,14.16,0,0,0-4.33.71A27.39,27.39,0,0,0,82,220.87c-.36.48-.71.9-1.06,1.29s-.71.78-1.06,1.19c-.18.35-.34.71-.49,1.06s-.28.71-.4,1.06,0,.71,0,1.06a8.17,8.17,0,0,0,.13,1,9.56,9.56,0,0,1,.62.89,7.88,7.88,0,0,0,.62.88l3.71,2.12q2.66.63,5,1.06c1.53.3,3,.64,4.42,1a43.75,43.75,0,0,1,4.2,1.37A35.92,35.92,0,0,1,102.1,237a7.55,7.55,0,0,1,2.12,1.81l1.68,2.08a10.77,10.77,0,0,1,2.08,3.8,14.83,14.83,0,0,1,.66,4.42,16.2,16.2,0,0,1-1.23,6.19,12.67,12.67,0,0,1-3.54,4.95,17.23,17.23,0,0,1-1.63,1.28l-1.64,1.11a14.06,14.06,0,0,1-4.15,1.85,18.41,18.41,0,0,1-4.87.62,26.88,26.88,0,0,1-5.87-.66A31,31,0,0,1,80,262.55a29.78,29.78,0,0,1-5-2.78A20.17,20.17,0,0,1,71.08,256.32Z"/><path d="M147.27,253.85a4.43,4.43,0,0,1,2.79.66,3.3,3.3,0,0,1,1.41,1.86,3.45,3.45,0,0,1-.17,2.29,4.48,4.48,0,0,1-2,2.08,56.34,56.34,0,0,1-6.81,1.42,68.47,68.47,0,0,1-14.67.53,42.54,42.54,0,0,1-6.9-1.06,4.85,4.85,0,0,1-2-1.73,3.22,3.22,0,0,1-.53-2V219a3.25,3.25,0,0,1-1.77-1.24,3.34,3.34,0,0,1-.62-1.94,3.62,3.62,0,0,1,.71-2.08,4.32,4.32,0,0,1,2.21-1.55,38.35,38.35,0,0,1,7-1.46q3.57-.39,7.2-.53c2.42-.09,4.83-.13,7.25-.13s4.8-.06,7.16-.18a4.16,4.16,0,0,1,3.05.89,3.58,3.58,0,0,1,1.28,2.21,3.31,3.31,0,0,1-.66,2.43,4.44,4.44,0,0,1-2.79,1.63q-5.29.27-11.27.18a66.86,66.86,0,0,0-11.53.8V233.6q4.59.18,9.23,0t9.33-.66a4.14,4.14,0,0,1,3,.88,3.61,3.61,0,0,1,1.28,2.21,3.29,3.29,0,0,1-.66,2.43,4.45,4.45,0,0,1-2.79,1.64c-3.24.29-6.49.53-9.76.7s-6.5.21-9.68.09v14.32a50,50,0,0,0,11,.4A56.17,56.17,0,0,0,147.27,253.85Z"/><path d="M196.6,210.27a4.72,4.72,0,0,1,2.39,1.59,3.18,3.18,0,0,1,.7,2.21,3.41,3.41,0,0,1-1,2.16,4.9,4.9,0,0,1-2.65,1.29l-13.79.08.09,43.14a4.2,4.2,0,0,1-1.2,3.05,3.49,3.49,0,0,1-2.43,1,3.44,3.44,0,0,1-2.3-.93,4.53,4.53,0,0,1-1.32-2.87L175,217.6h-14a4.59,4.59,0,0,1-2.78-1.46,3.18,3.18,0,0,1-.84-2.34,3.76,3.76,0,0,1,1.1-2.38,4,4,0,0,1,3.05-1.07h25c2.36,0,4.43,0,6.23,0S195.89,210.27,196.6,210.27Z"/><path d="M242.12,210.27a4.72,4.72,0,0,1,2.39,1.59,3.19,3.19,0,0,1,.71,2.21,3.46,3.46,0,0,1-1,2.16,4.93,4.93,0,0,1-2.66,1.29l-13.79.08.09,43.14a4.23,4.23,0,0,1-1.19,3.05,3.52,3.52,0,0,1-2.43,1,3.42,3.42,0,0,1-2.3-.93,4.48,4.48,0,0,1-1.33-2.87l-.09-43.41h-14a4.59,4.59,0,0,1-2.79-1.46,3.18,3.18,0,0,1-.84-2.34,3.72,3.72,0,0,1,1.11-2.38,4,4,0,0,1,3.05-1.07h25q3.54,0,6.24,0C240.16,210.28,241.42,210.27,242.12,210.27Z"/><path d="M273.06,255.53a4.14,4.14,0,0,1,3.05.88,3.61,3.61,0,0,1,1.28,2.21,3.29,3.29,0,0,1-.66,2.43,4.45,4.45,0,0,1-2.78,1.64q-4.6.18-9.15.13t-9.15-.05a4.32,4.32,0,0,1-2.88-1.37,3.36,3.36,0,0,1,.18-4.72,4.2,4.2,0,0,1,3-1.15h2.61c.85,0,1.72,0,2.61.08V217h-5.57a4.28,4.28,0,0,1-2.87-1.37,3.43,3.43,0,0,1-.89-2.38,3.46,3.46,0,0,1,1.06-2.34,4.2,4.2,0,0,1,3-1.15H274a4.74,4.74,0,0,1,2.48,1.59,3.33,3.33,0,0,1,.75,2.16,3.4,3.4,0,0,1-.93,2.12,4.45,4.45,0,0,1-2.56,1.37h-5.39V255.7c.76,0,1.53,0,2.29,0S272.24,255.59,273.06,255.53Z"/><path d="M322.92,211.24a5.12,5.12,0,0,1,1.41-2.65,3.21,3.21,0,0,1,2.21-.89,3.47,3.47,0,0,1,2.17.8,4.52,4.52,0,0,1,1.46,2.47q0,12.65-.18,24.49T329.1,260l.09.08h-.09a4.8,4.8,0,0,0-.08.76v.66a4.66,4.66,0,0,1-1.46,2.12,3.23,3.23,0,0,1-2,.71,4.23,4.23,0,0,1-3-1.42,6.86,6.86,0,0,0-.35-.62c-.12-.17-.24-.35-.35-.53h-.09v-.17q-3.18-5.4-6.54-10.3t-6.9-9.64q-3.54-4.72-7.2-9.37t-7.56-9.5v17.9q0,4.47,0,9.33t.05,10.52a4.22,4.22,0,0,1-1.2,3,3.52,3.52,0,0,1-2.43,1,3.44,3.44,0,0,1-2.3-.93,4.48,4.48,0,0,1-1.32-2.87q0-11.93-.05-24.18t0-24.17a4.62,4.62,0,0,1,1.33-2.48,3.17,3.17,0,0,1,2.21-.88,4.76,4.76,0,0,1,2.65,1l7.95,9.5c2.6,3.1,5.14,6.21,7.65,9.33s4.94,6.32,7.29,9.59,4.66,6.68,6.9,10.21q.34-9.72.48-18.65T322.92,211.24Z"/><path d="M381.61,233.34a4.44,4.44,0,0,1,2.48,1.46,3.45,3.45,0,0,1,.79,2.16,3.22,3.22,0,0,1-.7,2,4.65,4.65,0,0,1-2,1.46v13.26a4.53,4.53,0,0,1-1.28,3.27c-.85.88-1.67,1.71-2.43,2.48a17,17,0,0,1-6.67,4.11,24.79,24.79,0,0,1-7.83,1.28,22.91,22.91,0,0,1-11.31-2.7,26.46,26.46,0,0,1-8.09-6.8,30,30,0,0,1-4.86-9,29.09,29.09,0,0,1-1.64-9.28,28,28,0,0,1,.62-5.57,29.55,29.55,0,0,1,1.9-5.92,26.57,26.57,0,0,1,3.23-5.48,17.44,17.44,0,0,1,4.59-4.24,56.23,56.23,0,0,1,9.77-5.09,27.48,27.48,0,0,1,10.21-2,26.87,26.87,0,0,1,3.63.31,23.66,23.66,0,0,1,4.11,1,10.6,10.6,0,0,1,3.4,1.81,3.51,3.51,0,0,1,1.41,2.83,3.21,3.21,0,0,1-1,2.38,3.35,3.35,0,0,1-2.47,1,5.93,5.93,0,0,1-1.86-.36l-2.25-.75c-.8-.26-1.62-.51-2.48-.75a9.22,9.22,0,0,0-2.52-.35c-.59,0-1.15,0-1.68.08a7.59,7.59,0,0,0-1.59.36q-3.45,1-7,2.52a24.53,24.53,0,0,0-6.41,3.84,18.19,18.19,0,0,0-4.64,5.88,19.16,19.16,0,0,0-1.77,8.71,21.77,21.77,0,0,0,5.48,14.5,18.83,18.83,0,0,0,5.75,4.33,15.38,15.38,0,0,0,6.8,1.59,15.76,15.76,0,0,0,6.1-1.24,16.58,16.58,0,0,0,5.48-3.71v-12q-3.36.07-6.67.08h-6.67a4.48,4.48,0,0,1-2.88-1.32,3.42,3.42,0,0,1-.93-2.3,3.71,3.71,0,0,1,1-2.43,3.77,3.77,0,0,1,3.05-1.19l3.76-.05q2.87,0,6.14,0t6.14-.05Z"/><path d="M394,256.32a5.74,5.74,0,0,1-.53-2.3,3.32,3.32,0,0,1,.92-2.43,3.18,3.18,0,0,1,2.35-.93,4.6,4.6,0,0,1,2.74,1,14,14,0,0,0,3.49,3,18.42,18.42,0,0,0,4.24,1.85,25.87,25.87,0,0,0,4.6.93,39.74,39.74,0,0,0,4.55.27,21.58,21.58,0,0,1,2.08-.67,4.42,4.42,0,0,0,.93-.3,4.65,4.65,0,0,0,.79-.54q.45-.34,1.68-1.23c.3-.41.56-.8.8-1.15s.5-.74.79-1.15l.8-2.39V249a10.23,10.23,0,0,0-.09-1.28,8.63,8.63,0,0,0-.44-1.2c-.18-.38-.36-.78-.53-1.19-.36-.41-.7-.8-1-1.15s-.66-.73-1-1.15c-.53-.29-1.06-.62-1.59-1a6.26,6.26,0,0,0-1.76-.8,40.94,40.94,0,0,0-6.68-1.72,50.73,50.73,0,0,1-5.74-1.24,17.65,17.65,0,0,1-5.09-2.34,17.47,17.47,0,0,1-4.68-5.13,4,4,0,0,1-.53-1.06,9.67,9.67,0,0,1-.18-1.24c-.06-.47-.1-.92-.13-1.37s-.05-.86-.05-1.28a12.08,12.08,0,0,1,.31-2.83,10.5,10.5,0,0,1,.93-2.38,14.76,14.76,0,0,1,1.59-2.35c.65-.79,1.42-1.66,2.3-2.6a13,13,0,0,1,3.45-2.61,19.67,19.67,0,0,1,4.06-1.59,27.51,27.51,0,0,1,4.38-.8c1.5-.14,3-.22,4.38-.22h1.28a8.25,8.25,0,0,1,1.19.09,12.18,12.18,0,0,1,3.85,1,27.76,27.76,0,0,0,3.75,1.33,4.11,4.11,0,0,1,2,3.45,3.22,3.22,0,0,1-1,2.34,3.89,3.89,0,0,1-2.87,1,2.08,2.08,0,0,1-.4,0,2,2,0,0,0-.4,0q-2.83-.88-5-1.37a18.9,18.9,0,0,0-4.2-.49,14.16,14.16,0,0,0-4.33.71,27.39,27.39,0,0,0-5.13,2.38,16.26,16.26,0,0,1-1.06,1.29c-.35.38-.71.78-1.06,1.19-.18.35-.34.71-.49,1.06s-.28.71-.4,1.06,0,.71,0,1.06a8.17,8.17,0,0,0,.13,1,8,8,0,0,1,.62.89,7.88,7.88,0,0,0,.62.88l3.71,2.12q2.65.63,4.95,1.06c1.53.3,3,.64,4.42,1a42,42,0,0,1,4.2,1.37A35.92,35.92,0,0,1,425,237a7.59,7.59,0,0,1,2.13,1.81c.58.74,1.15,1.43,1.68,2.08a10.91,10.91,0,0,1,2.07,3.8,14.84,14.84,0,0,1,.67,4.42,16.21,16.21,0,0,1-1.24,6.19,12.67,12.67,0,0,1-3.54,4.95,16,16,0,0,1-1.63,1.28c-.56.39-1.11.75-1.64,1.11a14.06,14.06,0,0,1-4.15,1.85,18.39,18.39,0,0,1-4.86.62,26.91,26.91,0,0,1-5.88-.66,30.65,30.65,0,0,1-5.7-1.86,29,29,0,0,1-5-2.78A20,20,0,0,1,394,256.32Z"/></g></svg>
