<svg xmlns="http://www.w3.org/2000/svg" width="365" height="95" viewBox="0 0 365 95"><defs><style>.cls-1{fill:#fcfcfc;stroke:#000;stroke-miterlimit:10;stroke-width:3px;}</style></defs><title>UI_play</title><g id="Layer_2" data-name="Layer 2"><rect class="cls-1" x="3.53" y="2.12" width="357.94" height="90.76" rx="18"/><path d="M114.94,27.71a2.38,2.38,0,0,1,1.61-.61,1.93,1.93,0,0,1,.77.12,33.37,33.37,0,0,1,5.13-1.79,21.23,21.23,0,0,1,5.39-.71,17.53,17.53,0,0,1,3.5.35,11.75,11.75,0,0,1,3.31,1.26,12.79,12.79,0,0,1,3.14,2.31,14.47,14.47,0,0,1,2.37,3.11,15.71,15.71,0,0,1,1.51,3.63,13.78,13.78,0,0,1,.55,3.85,12.61,12.61,0,0,1-2,6.86,17,17,0,0,1-5.2,5.23A15.13,15.13,0,0,1,128,53.6c-.51,0-1,.08-1.57.1l-1.51,0c-1,0-2,0-2.89-.13s-1.88-.19-2.82-.32V58.8q0,3.09.06,5.52a3.08,3.08,0,0,1-.86,2.22,2.58,2.58,0,0,1-1.77.73,2.47,2.47,0,0,1-1.67-.67,3.28,3.28,0,0,1-1-2.09V52a1,1,0,0,1-.45-.13,3.66,3.66,0,0,1-1.41-1.22,2.6,2.6,0,0,1-.45-1.41,2.24,2.24,0,0,1,.58-1.51,3,3,0,0,1,1.66-.93V29.6A3.56,3.56,0,0,1,114.94,27.71ZM132.14,31a9.28,9.28,0,0,0-4.36-1,15.47,15.47,0,0,0-4.49.67,27.72,27.72,0,0,0-4.11,1.58V48a25.3,25.3,0,0,0,2.69.48,25,25,0,0,0,2.76.16,18.87,18.87,0,0,0,2.7-.2,24.31,24.31,0,0,0,3.69-.93,7.85,7.85,0,0,0,3.24-2.08,9.77,9.77,0,0,0,1.93-3.08,9.27,9.27,0,0,0-.55-7.93A8.7,8.7,0,0,0,132.14,31Z"/><path d="M169.75,60.21a3.56,3.56,0,0,1,1.8,1.16,2.4,2.4,0,0,1,.54,1.57,2.44,2.44,0,0,1-.67,1.54,3.29,3.29,0,0,1-1.86,1c-3.3.08-6.57.14-9.82.16s-6.51.07-9.76.16A2.8,2.8,0,0,1,147.22,63q0-8.48.07-16.88c0-5.61.06-11.25.06-16.95a3.24,3.24,0,0,1,1-1.86,2.5,2.5,0,0,1,1.54-.67,2.45,2.45,0,0,1,1.57.54,3.48,3.48,0,0,1,1.15,1.8q0,8-.06,15.76t-.06,15.75q4.29-.12,8.6-.16T169.75,60.21Z"/><path d="M208.9,63.17a3.6,3.6,0,0,1-.64,2,2.33,2.33,0,0,1-1.41.93,2.49,2.49,0,0,1-1.67-.29,3.5,3.5,0,0,1-1.41-1.54,56,56,0,0,0-1.09-5.94c-.48-2-1-3.88-1.67-5.81l-17,.13-.29,0-.29,0q-1.6,5.45-2.89,11.29a3,3,0,0,1-1.47,1.8,2.53,2.53,0,0,1-1.83.19,2.42,2.42,0,0,1-1.41-1.15,3.21,3.21,0,0,1-.29-2.31,187.93,187.93,0,0,1,5.1-18.2,114.9,114.9,0,0,1,7.48-17.36,2.22,2.22,0,0,1,1.79-1.54,2.34,2.34,0,0,1,1.35-.1,2.31,2.31,0,0,1,1.09.61s.07,0,.07,0,0,0,.06,0a30.54,30.54,0,0,1,5.59,7.25q2.24,4,4.1,8.21c.47,1,.91,2,1.32,3s.8,2,1.19,3l3.4-.06a3.41,3.41,0,0,1,1.79,1.15,2.41,2.41,0,0,1,.55,1.57,2.5,2.5,0,0,1-.67,1.54,3.23,3.23,0,0,1-1.87,1h-1.34c.55,1.75,1,3.52,1.44,5.29A48.85,48.85,0,0,1,208.9,63.17ZM191.19,32.29c-1.2,2.44-2.3,4.93-3.31,7.45s-1.93,5.07-2.79,7.64l14-.13c-.55-1.28-1.12-2.55-1.7-3.79s-1.17-2.48-1.76-3.72-1.37-2.5-2.06-3.79A25.41,25.41,0,0,0,191.19,32.29Z"/><path d="M228.28,62.91a3.05,3.05,0,0,1-.86,2.21,2.54,2.54,0,0,1-1.77.74,2.49,2.49,0,0,1-1.67-.67,3.28,3.28,0,0,1-1-2.09q0-3.91,0-7.8t0-7.86a69.5,69.5,0,0,1-7.29-8.25,31.81,31.81,0,0,1-5-9.78,1.59,1.59,0,0,0,0-.29,1.06,1.06,0,0,1,0-.29,2.85,2.85,0,0,1,.74-2.09,2.34,2.34,0,0,1,1.7-.74,3,3,0,0,1,2.51,1.48,28.55,28.55,0,0,0,4,8.25,54.61,54.61,0,0,0,5.9,7l6.2-7.35a45.37,45.37,0,0,0,5.36-7.92,3.32,3.32,0,0,1,1.18-1.29,2.72,2.72,0,0,1,1.32-.38,2.49,2.49,0,0,1,1.73.7,2.42,2.42,0,0,1,.77,1.87,4,4,0,0,1-.32,1.41,55.34,55.34,0,0,1-6.22,9.08q-3.6,4.27-7.06,8.5l-.26.26v7.67C228.22,57.79,228.24,60.34,228.28,62.91Z"/></g></svg>
