<svg xmlns="http://www.w3.org/2000/svg" width="355" height="115" viewBox="0 0 355 115"><title>UI_score_1</title><g id="Layer_2" data-name="Layer 2"><path d="M335.06,113l-315.37-.46A19.29,19.29,0,0,1,.44,93.19L.55,19A19.29,19.29,0,0,1,19.85-.21L335.22.25a19.3,19.3,0,0,1,19.25,19.31l-.1,74.14A19.3,19.3,0,0,1,335.06,113ZM19.85,2.76A16.33,16.33,0,0,0,3.51,19.05l-.1,74.14a16.33,16.33,0,0,0,16.28,16.34l315.37.46A16.33,16.33,0,0,0,351.4,93.7l.11-74.15A16.33,16.33,0,0,0,335.22,3.22Z"/><path d="M21.93,69a4.31,4.31,0,0,1-.4-1.72,2.43,2.43,0,0,1,.7-1.82,2.35,2.35,0,0,1,1.75-.7,3.41,3.41,0,0,1,2.06.73,10.55,10.55,0,0,0,2.62,2.22,13.29,13.29,0,0,0,3.18,1.39,20.1,20.1,0,0,0,3.45.7,31,31,0,0,0,3.41.2c.75-.27,1.27-.43,1.56-.5a3.37,3.37,0,0,0,.7-.23,3.62,3.62,0,0,0,.59-.4q.33-.27,1.26-.93l.6-.86c.17-.27.37-.55.59-.86l.6-1.79v-.9a8.8,8.8,0,0,0-.06-1,5.63,5.63,0,0,0-.34-.89q-.2-.44-.39-.9c-.27-.31-.52-.6-.77-.86l-.76-.86c-.4-.22-.79-.47-1.19-.73a4.34,4.34,0,0,0-1.33-.6,30,30,0,0,0-5-1.29,36.63,36.63,0,0,1-4.31-.93,13.09,13.09,0,0,1-3.82-1.76,13.06,13.06,0,0,1-3.51-3.84,3.59,3.59,0,0,1-.4-.8,7.22,7.22,0,0,1-.13-.93c0-.35-.08-.69-.1-1s0-.65,0-1a8.58,8.58,0,0,1,.23-2.13,7.73,7.73,0,0,1,.7-1.79,10.24,10.24,0,0,1,1.19-1.75c.49-.6,1.06-1.25,1.72-2a9.69,9.69,0,0,1,2.59-2,15.11,15.11,0,0,1,3.05-1.2,20.63,20.63,0,0,1,3.28-.59c1.13-.11,2.22-.17,3.28-.17h1a5.63,5.63,0,0,1,.9.07,9,9,0,0,1,2.88.73,22.39,22.39,0,0,0,2.82,1A3.08,3.08,0,0,1,47.58,39a2.38,2.38,0,0,1-.76,1.75,2.89,2.89,0,0,1-2.15.76,1.09,1.09,0,0,1-.3,0l-.3,0c-1.41-.44-2.66-.79-3.74-1a14.64,14.64,0,0,0-3.15-.36,10.42,10.42,0,0,0-3.25.53,20.13,20.13,0,0,0-3.85,1.79c-.26.35-.53.67-.79,1s-.53.59-.8.89-.25.53-.36.8-.21.53-.3.79,0,.53,0,.8a6.79,6.79,0,0,0,.1.73,5.26,5.26,0,0,1,.46.66c.14.22.29.44.47.67l2.78,1.59c1.33.31,2.57.57,3.72.79s2.25.48,3.31.76a33.07,33.07,0,0,1,3.15,1,27.52,27.52,0,0,1,3.35,1.59,5.63,5.63,0,0,1,1.59,1.36c.44.56.86,1.07,1.26,1.56a8.26,8.26,0,0,1,1.56,2.85,11.12,11.12,0,0,1,.49,3.32,12.23,12.23,0,0,1-.92,4.64,9.53,9.53,0,0,1-2.66,3.71,12.24,12.24,0,0,1-1.22,1l-1.23.83A10.56,10.56,0,0,1,41,75.09a14,14,0,0,1-3.65.47,20.22,20.22,0,0,1-4.41-.5,24.05,24.05,0,0,1-4.28-1.39,22.85,22.85,0,0,1-3.78-2.09A15.08,15.08,0,0,1,21.93,69Z"/><path d="M80.67,63.22a3.44,3.44,0,0,1,2.19-.86,2.48,2.48,0,0,1,1.79.73A2.56,2.56,0,0,1,85.38,65,4.3,4.3,0,0,1,85,66.41a35.6,35.6,0,0,1-2.48,3.34,17.71,17.71,0,0,1-3,2.86,15.63,15.63,0,0,1-3.61,2,11.86,11.86,0,0,1-4.35.77,14.59,14.59,0,0,1-6.53-1.46,15.91,15.91,0,0,1-5.1-4A18,18,0,0,1,56.63,64a22.75,22.75,0,0,1-1.16-7.33,17.79,17.79,0,0,1,.73-5.17,30.52,30.52,0,0,1,2.32-5.57,19.37,19.37,0,0,1,3.15-4.21,22.32,22.32,0,0,1,4.18-3.25,40,40,0,0,1,5.4-2.68,27.91,27.91,0,0,1,3.68-1.33A12.15,12.15,0,0,1,78.15,34a7.06,7.06,0,0,1,4.18,1.32,12.79,12.79,0,0,1,3.51,4.51A3.86,3.86,0,0,1,86,41a2.64,2.64,0,0,1-.73,1.93,2.48,2.48,0,0,1-1.79.73,3.24,3.24,0,0,1-2.32-1.06,10.32,10.32,0,0,0-1.66-2.52,2.28,2.28,0,0,0-1.66-.73,5.19,5.19,0,0,0-1.72.36l-2.52.9A30.8,30.8,0,0,0,68.8,43a17.58,17.58,0,0,0-4.08,3.44,15.65,15.65,0,0,0-2.78,4.68,16.5,16.5,0,0,0-1,6,15.25,15.25,0,0,0,.73,4.68A14,14,0,0,0,63.73,66a10.31,10.31,0,0,0,3.35,2.91A9.31,9.31,0,0,0,71.65,70a6.81,6.81,0,0,0,2.85-.6A10.14,10.14,0,0,0,77,67.8,15.77,15.77,0,0,0,79,65.61,25.11,25.11,0,0,0,80.67,63.22Z"/><path d="M127.41,56.86a35.45,35.45,0,0,1-1.69,4.91,31.78,31.78,0,0,1-2.59,4.9,24.3,24.3,0,0,1-3.45,4.25,13.86,13.86,0,0,1-4.27,2.91l-1.86.7A16.19,16.19,0,0,1,112,75c-.53.13-1.09.25-1.69.36a15.9,15.9,0,0,1-2,.23,1.47,1.47,0,0,0-.33,0l-.4,0a11.61,11.61,0,0,1-3.52-.57c-1.19-.37-2.32-.74-3.38-1.09a12.32,12.32,0,0,1-4.57-2.85A15.69,15.69,0,0,1,93,67a19.8,19.8,0,0,1-1.66-5,28.72,28.72,0,0,1-.49-5.3q0-1,.06-1.95c0-.64.11-1.27.2-1.89a28,28,0,0,1,1.16-4.58,31.68,31.68,0,0,1,2.09-4.81,27.7,27.7,0,0,1,2.88-4.34,15.38,15.38,0,0,1,3.49-3.18,18,18,0,0,1,5-2.29,19.68,19.68,0,0,1,5.37-.76A17.8,17.8,0,0,1,119.58,35a15.17,15.17,0,0,1,6.3,6.5A16.23,16.23,0,0,1,127.47,46a24.42,24.42,0,0,1,.47,4.74c0,1,0,2.05-.14,3.09S127.58,55.84,127.41,56.86Zm-5.31-.66c.14-.89.26-1.78.37-2.69a22.69,22.69,0,0,0,.16-2.75,19.28,19.28,0,0,0-.33-3.51,10.7,10.7,0,0,0-1.19-3.32,10.35,10.35,0,0,0-4.44-4.37,13,13,0,0,0-6.1-1.53,11.16,11.16,0,0,0-6.77,2.19,15.51,15.51,0,0,0-3.28,3.38,22.36,22.36,0,0,0-2.38,4.24,24.91,24.91,0,0,0-1.46,4.61,21.79,21.79,0,0,0-.5,4.48,18.1,18.1,0,0,0,.7,5.07,11.7,11.7,0,0,0,2.18,4.24,11.31,11.31,0,0,0,3.75,3,11.73,11.73,0,0,0,5.3,1.13,10.4,10.4,0,0,0,2.56-.33,9.6,9.6,0,0,0,2.35-.93,14.55,14.55,0,0,0,3.41-2.59,19.36,19.36,0,0,0,2.62-3.31A23.08,23.08,0,0,0,121,59.35a36.24,36.24,0,0,0,1.32-4Z"/><path d="M140.24,74.4a2.69,2.69,0,0,1-1.83.76,2.53,2.53,0,0,1-1.72-.7,3.37,3.37,0,0,1-1-2.15V40.68a2.63,2.63,0,0,1-1.69-.83,2.41,2.41,0,0,1-.63-1.69,3.12,3.12,0,0,1,.3-1.26,3.33,3.33,0,0,1,1-1.19A27.23,27.23,0,0,1,141,32.83a23.72,23.72,0,0,1,7.09-1.1,19.59,19.59,0,0,1,5.6.8,14.53,14.53,0,0,1,4.94,2.58,13.51,13.51,0,0,1,3.85,4.64,12.1,12.1,0,0,1,1.19,5.18A13,13,0,0,1,163,49.1,15.73,15.73,0,0,1,161,53a17.19,17.19,0,0,1-3,3.32,16.74,16.74,0,0,1-3.94,2.48q2.52,2.85,5.44,6l5.43,6a3.25,3.25,0,0,1,.73,2.06,2.38,2.38,0,0,1-.73,1.82,2.5,2.5,0,0,1-1.79.7,3.3,3.3,0,0,1-1.16-.24,2.88,2.88,0,0,1-1.16-.82c-.26-.31-.73-.83-1.39-1.56s-1.42-1.55-2.26-2.45-1.72-1.88-2.65-2.92l-2.62-2.92c-.81-.9-1.55-1.71-2.22-2.42s-1.12-1.21-1.39-1.52a33.7,33.7,0,0,1-3.58.46c-1.19.09-2.39.16-3.58.2V72.11A3.15,3.15,0,0,1,140.24,74.4Zm14.88-35.18a10.19,10.19,0,0,0-3.48-1.59,16.68,16.68,0,0,0-3.88-.46,17.22,17.22,0,0,0-3.38.33,20.43,20.43,0,0,0-3.25.93v17.3c1.68-.09,3.36-.22,5-.4a19.46,19.46,0,0,0,5-1.19,10.2,10.2,0,0,0,2.75-1.52,13.24,13.24,0,0,0,2.29-2.26,10.83,10.83,0,0,0,1.56-2.68,7.74,7.74,0,0,0,.56-2.82,6.52,6.52,0,0,0-.73-3A7.25,7.25,0,0,0,155.12,39.22Z"/><path d="M195.3,67.14a3.3,3.3,0,0,1,2.08.49,2.5,2.5,0,0,1,1.07,1.4,2.65,2.65,0,0,1-.14,1.72,3.31,3.31,0,0,1-1.49,1.56,42.83,42.83,0,0,1-5.1,1.06,50.79,50.79,0,0,1-11,.4,32.11,32.11,0,0,1-5.17-.8A3.56,3.56,0,0,1,174,71.68a2.38,2.38,0,0,1-.39-1.49V41a2.39,2.39,0,0,1-1.33-.92,2.48,2.48,0,0,1-.46-1.46,2.67,2.67,0,0,1,.53-1.56A3.19,3.19,0,0,1,174,35.91a28.14,28.14,0,0,1,5.28-1.09c1.79-.2,3.59-.34,5.4-.4s3.62-.1,5.43-.1,3.61,0,5.38-.13a3.06,3.06,0,0,1,2.28.66,2.73,2.73,0,0,1,1,1.66,2.47,2.47,0,0,1-.49,1.82,3.32,3.32,0,0,1-2.09,1.23q-4,.19-8.45.13a50.06,50.06,0,0,0-8.66.6V52q3.45.13,6.93,0c2.32-.11,4.65-.27,7-.5a3.1,3.1,0,0,1,2.28.67,2.71,2.71,0,0,1,1,1.65,2.49,2.49,0,0,1-.49,1.83,3.36,3.36,0,0,1-2.09,1.22c-2.43.23-4.87.4-7.33.53s-4.87.16-7.26.07V68.13a37.65,37.65,0,0,0,8.26.3A42.62,42.62,0,0,0,195.3,67.14Z"/><path d="M213.86,50a4,4,0,0,1-1.16,3,3.86,3.86,0,0,1-2.82,1.16,4,4,0,0,1-4-4.12,4.06,4.06,0,0,1,4-4,3.81,3.81,0,0,1,2.82,1.19A4,4,0,0,1,213.86,50ZM214,70.38a3.88,3.88,0,0,1-1.09,2.76,3.64,3.64,0,0,1-2.75,1.16,4,4,0,0,1-3.92-3.92,3.91,3.91,0,0,1,3.92-4,3.68,3.68,0,0,1,2.75,1.12A4,4,0,0,1,214,70.38Z"/></g></svg>
