<svg xmlns="http://www.w3.org/2000/svg" width="500" height="130" viewBox="0 0 500 130"><defs><style>.cls-1{fill:#fcfcfc;}.cls-2{fill:#b7b7b7;}</style></defs><title>UI_sounds_on</title><g id="Layer_2" data-name="Layer 2"><rect class="cls-1" x="3.5" y="2.5" width="493" height="125" rx="18"/><path d="M478.5,129H21.5A19.53,19.53,0,0,1,2,109.5v-89A19.53,19.53,0,0,1,21.5,1h457A19.53,19.53,0,0,1,498,20.5v89A19.53,19.53,0,0,1,478.5,129ZM21.5,4A16.52,16.52,0,0,0,5,20.5v89A16.52,16.52,0,0,0,21.5,126h457A16.52,16.52,0,0,0,495,109.5v-89A16.52,16.52,0,0,0,478.5,4Z"/><path d="M26.44,77.39A3.64,3.64,0,0,1,26.11,76a2.07,2.07,0,0,1,.58-1.52,2,2,0,0,1,1.47-.58,2.87,2.87,0,0,1,1.71.6,8.57,8.57,0,0,0,2.18,1.85,11,11,0,0,0,2.65,1.16,16.51,16.51,0,0,0,2.88.58,23.12,23.12,0,0,0,2.84.17,13.08,13.08,0,0,1,1.3-.41,2.59,2.59,0,0,0,.58-.2,2.66,2.66,0,0,0,.5-.33c.18-.15.53-.4,1.05-.77.18-.26.35-.5.49-.72l.5-.72.5-1.49v-.75a6,6,0,0,0-.06-.8,5.05,5.05,0,0,0-.27-.74l-.33-.75L44,69.82l-.64-.72q-.49-.27-1-.6a3.79,3.79,0,0,0-1.1-.5,25.09,25.09,0,0,0-4.18-1.08,32.83,32.83,0,0,1-3.59-.77,10.75,10.75,0,0,1-3.17-1.47,10.89,10.89,0,0,1-2.93-3.2,2.3,2.3,0,0,1-.33-.66A4.88,4.88,0,0,1,27,60c0-.29-.07-.58-.09-.85s0-.55,0-.8a7.22,7.22,0,0,1,.19-1.77,6.31,6.31,0,0,1,.58-1.49,10,10,0,0,1,1-1.47c.41-.49.89-1,1.44-1.63a8.36,8.36,0,0,1,2.15-1.63,12.71,12.71,0,0,1,2.55-1,16.24,16.24,0,0,1,2.73-.5c.94-.09,1.85-.14,2.74-.14h.8a4.81,4.81,0,0,1,.74.06,7.31,7.31,0,0,1,2.41.61,16.6,16.6,0,0,0,2.34.82,2.57,2.57,0,0,1,1.27,2.16,2,2,0,0,1-.63,1.46,2.4,2.4,0,0,1-1.8.64l-.24,0-.25,0c-1.18-.36-2.22-.65-3.12-.85a12.23,12.23,0,0,0-2.63-.31,8.74,8.74,0,0,0-2.71.45,16.57,16.57,0,0,0-3.2,1.49c-.22.29-.44.56-.66.8l-.67.74c-.11.22-.21.45-.3.67s-.18.44-.25.66,0,.44,0,.66a5,5,0,0,0,.08.61,5.64,5.64,0,0,1,.39.55,6.15,6.15,0,0,0,.38.56l2.33,1.32q1.65.39,3.09.66c1,.19,1.88.4,2.76.64a25.22,25.22,0,0,1,2.63.86,22.81,22.81,0,0,1,2.79,1.32,4.77,4.77,0,0,1,1.32,1.13c.37.47.72.9,1.05,1.3a6.82,6.82,0,0,1,1.3,2.38,9,9,0,0,1,.41,2.76,10,10,0,0,1-.77,3.87,8,8,0,0,1-2.21,3.09,9.42,9.42,0,0,1-1,.8l-1,.69a8.5,8.5,0,0,1-2.6,1.16,11.56,11.56,0,0,1-3,.39,17.13,17.13,0,0,1-3.67-.41A20.68,20.68,0,0,1,32,81.29a19,19,0,0,1-3.15-1.74A13.17,13.17,0,0,1,26.44,77.39Z"/><path d="M85,67.28a28.9,28.9,0,0,1-1.41,4.09,27,27,0,0,1-2.16,4.09A19.52,19.52,0,0,1,78.57,79,11.52,11.52,0,0,1,75,81.42L73.46,82a10.78,10.78,0,0,1-1.33.42c-.44.11-.91.21-1.4.3a14.84,14.84,0,0,1-1.69.2l-.28,0a1.84,1.84,0,0,1-.33,0,9.84,9.84,0,0,1-2.93-.47c-1-.31-1.93-.62-2.81-.91a10.16,10.16,0,0,1-3.81-2.38,12.94,12.94,0,0,1-2.52-3.5A16.48,16.48,0,0,1,55,71.54a23.69,23.69,0,0,1-.41-4.42c0-.56,0-1.1,0-1.63s.09-1.06.17-1.58a22.61,22.61,0,0,1,1-3.81,26.57,26.57,0,0,1,1.74-4,22.56,22.56,0,0,1,2.41-3.62,12.76,12.76,0,0,1,2.9-2.65,15.23,15.23,0,0,1,4.14-1.9,15.91,15.91,0,0,1,4.48-.64,14.8,14.8,0,0,1,7.07,1.77,12.65,12.65,0,0,1,5.25,5.41,13.83,13.83,0,0,1,1.32,3.73,20.27,20.27,0,0,1,.39,4c0,.85,0,1.71-.11,2.57S85.15,66.43,85,67.28Zm-4.42-.55c.11-.74.21-1.48.3-2.24A19.29,19.29,0,0,0,81,62.2a15.53,15.53,0,0,0-.28-2.93,8.76,8.76,0,0,0-1-2.76,8.63,8.63,0,0,0-3.7-3.65A10.81,10.81,0,0,0,71,51.59a9.33,9.33,0,0,0-5.63,1.82,13.35,13.35,0,0,0-2.74,2.82,18.63,18.63,0,0,0-2,3.54,20.4,20.4,0,0,0-1.22,3.84A17.8,17.8,0,0,0,59,67.34a15,15,0,0,0,.58,4.22,9.36,9.36,0,0,0,4.94,6,9.86,9.86,0,0,0,4.42.94,8.31,8.31,0,0,0,2.13-.28,7.93,7.93,0,0,0,2-.77,11.91,11.91,0,0,0,2.84-2.16,16.6,16.6,0,0,0,2.19-2.76,18.92,18.92,0,0,0,1.6-3.18A29.6,29.6,0,0,0,80.75,66Z"/><path d="M112.69,50.32a3.24,3.24,0,0,1,.88-1.66,2,2,0,0,1,1.38-.55,2.2,2.2,0,0,1,1.36.5,2.85,2.85,0,0,1,.91,1.54c0,2.32-.1,4.77-.2,7.32s-.25,5.05-.49,7.46a68,68,0,0,1-1,6.8,21.34,21.34,0,0,1-1.74,5.39,6.55,6.55,0,0,1-1.74,2.29,10.5,10.5,0,0,1-2.54,1.6,13.61,13.61,0,0,1-3,.94,15.6,15.6,0,0,1-3,.3,14.81,14.81,0,0,1-3.34-.38,11.66,11.66,0,0,1-3-1.19,10,10,0,0,1-2.49-2,8.08,8.08,0,0,1-1.63-2.79,26.1,26.1,0,0,1-1.29-5.83q-.36-3.18-.45-6.55t0-6.68q0-3.31,0-6.24a3.24,3.24,0,0,1,.88-1.66,2,2,0,0,1,1.39-.55,2.16,2.16,0,0,1,1.35.49,2.79,2.79,0,0,1,.91,1.55c0,1.22,0,2.61,0,4.17s-.07,3.19-.09,4.86,0,3.36.06,5,.16,3.25.33,4.72a22.07,22.07,0,0,0,.77,3.93,6.09,6.09,0,0,0,1.41,2.59A5.76,5.76,0,0,0,101,77.36a10.23,10.23,0,0,0,2.84.42,7.87,7.87,0,0,0,3.26-.72,7.63,7.63,0,0,0,2.87-2.32A6.4,6.4,0,0,0,111,72.17a39.92,39.92,0,0,0,.72-4c.2-1.47.36-3,.47-4.72s.2-3.33.28-5,.11-3.15.13-4.58S112.65,51.31,112.69,50.32Z"/><path d="M145.34,49.21a3.25,3.25,0,0,1,.88-1.65A2,2,0,0,1,147.6,47a2.2,2.2,0,0,1,1.36.5,2.85,2.85,0,0,1,.91,1.55q0,7.91-.11,15.3t-.55,15.31l0,0h0a2.31,2.31,0,0,0-.06.47v.42a2.88,2.88,0,0,1-.91,1.32,2,2,0,0,1-1.24.44,2.62,2.62,0,0,1-1.88-.88c-.08-.15-.15-.28-.22-.39l-.23-.33h0v-.11q-2-3.36-4.09-6.44t-4.31-6q-2.21-3-4.5-5.85T127,56.4V67.58c0,1.87,0,3.81,0,5.83s0,4.22,0,6.58a2.62,2.62,0,0,1-.75,1.9,2.16,2.16,0,0,1-1.51.64,2.12,2.12,0,0,1-1.44-.58,2.82,2.82,0,0,1-.83-1.8q0-7.45,0-15.11t0-15.11a2.87,2.87,0,0,1,.83-1.54,2,2,0,0,1,1.38-.56,3,3,0,0,1,1.66.61l5,5.94c1.62,1.93,3.22,3.88,4.78,5.83s3.09,3.95,4.56,6,2.91,4.18,4.31,6.38q.23-6.08.3-11.65T145.34,49.21Z"/><path d="M160,82.64a3.22,3.22,0,0,1-1.38-.47,2.35,2.35,0,0,1-.83-.86L157.6,81l-.22-.58a1.75,1.75,0,0,1-.11-.58V55c-.33.11-.6.21-.8.3a2.16,2.16,0,0,1-.86.14,2.3,2.3,0,0,1-1.68-.61,1.89,1.89,0,0,1-.64-1.44,2.51,2.51,0,0,1,1.41-2.1A14.12,14.12,0,0,1,158,49.85a26,26,0,0,1,4.07-.86,28.67,28.67,0,0,1,3.5-.27A18.47,18.47,0,0,1,172.8,50a15.86,15.86,0,0,1,5.3,3.57,15.23,15.23,0,0,1,3.29,5.22,17.55,17.55,0,0,1,1.13,6.24,18,18,0,0,1-1.22,6.49,15,15,0,0,1-3.7,5.56,13.49,13.49,0,0,1-3.84,2.62,26.8,26.8,0,0,1-4.44,1.55,37.66,37.66,0,0,1-4.7.85C163,82.33,161.49,82.49,160,82.64Zm5.58-29.39a16.93,16.93,0,0,0-1.88.11c-.63.07-1.25.16-1.88.27V77.94c1.07-.11,2.2-.23,3.4-.38a26.87,26.87,0,0,0,3.51-.67,16.85,16.85,0,0,0,3.2-1.16,7.65,7.65,0,0,0,2.49-1.82,13.38,13.38,0,0,0,2.68-4.36,14,14,0,0,0,.91-5,11.62,11.62,0,0,0-.8-4.25,10.6,10.6,0,0,0-2.38-3.62,11.5,11.5,0,0,0-3.89-2.51A14.17,14.17,0,0,0,165.56,53.25Z"/><path d="M188.38,77.39A3.66,3.66,0,0,1,188,76a2.07,2.07,0,0,1,.58-1.52,2,2,0,0,1,1.47-.58,2.87,2.87,0,0,1,1.71.6A8.75,8.75,0,0,0,194,76.31a11.06,11.06,0,0,0,2.66,1.16,16.4,16.4,0,0,0,2.87.58,23.12,23.12,0,0,0,2.84.17,13.08,13.08,0,0,1,1.3-.41,2.59,2.59,0,0,0,.58-.2,2.66,2.66,0,0,0,.5-.33c.18-.15.53-.4,1.05-.77l.5-.72c.14-.22.31-.46.49-.72l.5-1.49v-.75c0-.24,0-.5-.05-.8a6.61,6.61,0,0,0-.28-.74q-.16-.36-.33-.75c-.22-.26-.44-.5-.64-.72l-.63-.72c-.33-.18-.67-.38-1-.6a3.79,3.79,0,0,0-1.1-.5,24.75,24.75,0,0,0-4.17-1.08,32.33,32.33,0,0,1-3.59-.77,10.68,10.68,0,0,1-3.18-1.47,10.89,10.89,0,0,1-2.93-3.2,3,3,0,0,1-.33-.66,4.88,4.88,0,0,1-.11-.78c0-.29-.07-.58-.08-.85s0-.55,0-.8a7.22,7.22,0,0,1,.19-1.77,6.31,6.31,0,0,1,.58-1.49,9.35,9.35,0,0,1,1-1.47c.4-.49.88-1,1.43-1.63a8.41,8.41,0,0,1,2.16-1.63,12.63,12.63,0,0,1,2.54-1,16.24,16.24,0,0,1,2.73-.5c.94-.09,1.85-.14,2.74-.14h.8a4.93,4.93,0,0,1,.75.06,7.32,7.32,0,0,1,2.4.61,16.73,16.73,0,0,0,2.35.82,2.6,2.6,0,0,1,1.27,2.16,2,2,0,0,1-.64,1.46,2.39,2.39,0,0,1-1.79.64l-.25,0-.25,0c-1.18-.36-2.22-.65-3.12-.85a12.23,12.23,0,0,0-2.63-.31,8.68,8.68,0,0,0-2.7.45,16.9,16.9,0,0,0-3.21,1.49c-.22.29-.44.56-.66.8l-.66.74c-.11.22-.22.45-.31.67s-.17.44-.25.66,0,.44,0,.66.05.43.08.61a5.64,5.64,0,0,1,.39.55,4.73,4.73,0,0,0,.39.56l2.32,1.32q1.65.39,3.09.66c1,.19,1.88.4,2.76.64A25.22,25.22,0,0,1,205,64a22.81,22.81,0,0,1,2.79,1.32,4.63,4.63,0,0,1,1.32,1.13c.37.47.72.9,1,1.3a6.66,6.66,0,0,1,1.3,2.38,9,9,0,0,1,.42,2.76,10,10,0,0,1-.78,3.87,7.85,7.85,0,0,1-2.21,3.09,9.42,9.42,0,0,1-1,.8l-1,.69a8.4,8.4,0,0,1-2.6,1.16,11.56,11.56,0,0,1-3,.39,17.13,17.13,0,0,1-3.67-.41A20.58,20.58,0,0,1,194,81.29a18.27,18.27,0,0,1-3.15-1.74A12.55,12.55,0,0,1,188.38,77.39Z"/><rect class="cls-2" x="317" y="63.18" width="89" height="45.82" rx="22.91"/><circle cx="342.68" cy="86.09" r="16.74"/><path d="M294.29,36.72a17.64,17.64,0,0,1,1-2.42,11.58,11.58,0,0,1,1.47-2.14,9,9,0,0,1,2-1.67,7.71,7.71,0,0,1,2.45-1,5.68,5.68,0,0,1,3.93.35,6.77,6.77,0,0,1,2.69,2.43,9.58,9.58,0,0,1,1.33,3.62,9.22,9.22,0,0,1-.17,3.89A12.12,12.12,0,0,1,306.94,44a8.43,8.43,0,0,1-3.72,2.86,6.64,6.64,0,0,1-3.19.49,6.15,6.15,0,0,1-2.74-1,7,7,0,0,1-2.07-2.13,8,8,0,0,1-1.16-3,8.4,8.4,0,0,1-.14-2.05,15.33,15.33,0,0,1,.25-2Zm3,.89a13.46,13.46,0,0,0-.22,1.49,6.78,6.78,0,0,0,.06,1.53,4.28,4.28,0,0,0,.66,1.87,3.9,3.9,0,0,0,1.31,1.28,3.16,3.16,0,0,0,1.72.42,3.81,3.81,0,0,0,1.92-.6,5.83,5.83,0,0,0,2-2,10.24,10.24,0,0,0,1.14-2.67,6.32,6.32,0,0,0,.14-2.47,5.92,5.92,0,0,0-.8-2.32,3.54,3.54,0,0,0-1.66-1.45,3.19,3.19,0,0,0-2.48.13,5.41,5.41,0,0,0-2.43,2A10.89,10.89,0,0,0,297.31,37.61Z"/><path d="M326.18,46.37a1.54,1.54,0,0,1-1.07.44,1.48,1.48,0,0,1-1-.4,1.92,1.92,0,0,1-.58-1.26c0-1.18,0-2.36,0-3.54s0-2.35,0-3.54c0-.85,0-1.7,0-2.55a15.62,15.62,0,0,0-.18-2.55,1.4,1.4,0,0,0-.67-.72,2.57,2.57,0,0,0-.87-.13,5.74,5.74,0,0,0-2.6.64,5,5,0,0,0-2,1.76c-.28.43-.51.8-.67,1.1a3.25,3.25,0,0,0-.33,1.29v4c0,1.31,0,2.63,0,3.94a1.84,1.84,0,0,1-.53,1.34,1.54,1.54,0,0,1-1.06.44,1.48,1.48,0,0,1-1-.4,1.92,1.92,0,0,1-.58-1.26v-3.6c0-1.16,0-2.3,0-3.44s0-2.29,0-3.46V30.8a2.26,2.26,0,0,1,.62-1.16,1.41,1.41,0,0,1,1-.38,1.52,1.52,0,0,1,1,.34,2,2,0,0,1,.64,1.09V31a8.69,8.69,0,0,1,2.53-1.53,7.72,7.72,0,0,1,2.84-.56,5.69,5.69,0,0,1,2.69.66,4.75,4.75,0,0,1,2,2.12,3.6,3.6,0,0,1,.37,1.26q.09.75.12,1.59c0,.55,0,1.12,0,1.7s0,1.13,0,1.64V45A1.87,1.87,0,0,1,326.18,46.37Z"/><path d="M394.87,37.1a17.58,17.58,0,0,1,1-2.42,10.84,10.84,0,0,1,1.46-2.15,8.92,8.92,0,0,1,1.94-1.68,7.84,7.84,0,0,1,2.45-1,5.74,5.74,0,0,1,3.93.33,6.65,6.65,0,0,1,2.7,2.42,9.57,9.57,0,0,1,1.36,3.61,9.22,9.22,0,0,1-.16,3.89,11.84,11.84,0,0,1-2,4.26,8.5,8.5,0,0,1-3.7,2.89,6.65,6.65,0,0,1-3.19.5,6.21,6.21,0,0,1-2.75-1,7.38,7.38,0,0,1-2.08-2.12,8.3,8.3,0,0,1-1.18-3,8.43,8.43,0,0,1-.14-2.05,13.77,13.77,0,0,1,.24-2Zm3,.88a13.1,13.1,0,0,0-.2,1.49,6.67,6.67,0,0,0,.06,1.52,4.33,4.33,0,0,0,.67,1.88,4.08,4.08,0,0,0,1.32,1.27,3.26,3.26,0,0,0,1.73.41,3.79,3.79,0,0,0,1.91-.61,5.92,5.92,0,0,0,2-2,10.14,10.14,0,0,0,1.12-2.67,6.2,6.2,0,0,0,.13-2.48,5.77,5.77,0,0,0-.81-2.32A3.59,3.59,0,0,0,404.17,33a3.18,3.18,0,0,0-2.47.15,5.49,5.49,0,0,0-2.43,2A11.42,11.42,0,0,0,397.89,38Z"/><path d="M418.07,46.63a1.53,1.53,0,0,1-1.06.45,1.51,1.51,0,0,1-1-.4,2,2,0,0,1-.59-1.26l-.06-11h-.81a2,2,0,0,1-1.26-.58,1.5,1.5,0,0,1-.41-1,1.63,1.63,0,0,1,.44-1.07,1.67,1.67,0,0,1,1.33-.53h.7l0-4.33a7.4,7.4,0,0,1,.42-2.52,6.08,6.08,0,0,1,1.16-2,5.33,5.33,0,0,1,1.8-1.3,5.74,5.74,0,0,1,2.31-.48,9.08,9.08,0,0,1,3.1.68,5.54,5.54,0,0,1,1.42.86,1.57,1.57,0,0,1,.6,1.22,1.42,1.42,0,0,1-.42,1.05,1.47,1.47,0,0,1-1.08.43,2.26,2.26,0,0,1-.81-.17l-.89-.37L422,24a3.15,3.15,0,0,0-1-.17,2.21,2.21,0,0,0-1.64.69,4,4,0,0,0-.86,2.15l0,4.52c.72,0,1.5-.05,2.34-.06l2.38-.08a2,2,0,0,1,1.08.64,1.5,1.5,0,0,1,.35.94,1.17,1.17,0,0,1-.65,1.13,4.63,4.63,0,0,1-1.62.47,14.51,14.51,0,0,1-2,.11c-.7,0-1.31,0-1.85,0l.05,10.94A1.83,1.83,0,0,1,418.07,46.63Z"/><path d="M432.15,46.55a1.53,1.53,0,0,1-1.07.45,1.44,1.44,0,0,1-1-.4,1.94,1.94,0,0,1-.59-1.25l-.06-11h-.81a2,2,0,0,1-1.26-.57,1.52,1.52,0,0,1-.41-1,1.61,1.61,0,0,1,.44-1.06,1.63,1.63,0,0,1,1.33-.53h.7l0-4.33a7.3,7.3,0,0,1,.41-2.51,6,6,0,0,1,1.17-2A5.42,5.42,0,0,1,432.76,21a5.66,5.66,0,0,1,2.32-.47,7,7,0,0,1,1.41.16,8.94,8.94,0,0,1,1.69.52,5.21,5.21,0,0,1,1.41.86,1.55,1.55,0,0,1,.61,1.21,1.45,1.45,0,0,1-1.5,1.48,2,2,0,0,1-.81-.17l-.89-.36c-.31-.13-.64-.25-1-.36a2.88,2.88,0,0,0-1-.17,2.15,2.15,0,0,0-1.64.68,4.05,4.05,0,0,0-.86,2.16l0,4.52,2.34-.07L437.3,31a2,2,0,0,1,1.09.63,1.53,1.53,0,0,1,.35.95,1.15,1.15,0,0,1-.65,1.12,4.55,4.55,0,0,1-1.62.47,14.69,14.69,0,0,1-2,.11q-1.05,0-1.86,0l.06,10.95A1.82,1.82,0,0,1,432.15,46.55Z"/></g></svg>
