<svg xmlns="http://www.w3.org/2000/svg" width="365" height="95" viewBox="0 0 365 95"><defs><style>.cls-1{fill:#fcfcfc;stroke:#000;stroke-miterlimit:10;stroke-width:3px;}</style></defs><title>UI_settings</title><g id="Layer_2" data-name="Layer 2"><rect class="cls-1" x="3.53" y="2.12" width="357.94" height="90.76" rx="18"/><path d="M52.41,60.26A4.21,4.21,0,0,1,52,58.59a2.39,2.39,0,0,1,.67-1.77,2.31,2.31,0,0,1,1.7-.67,3.34,3.34,0,0,1,2,.71A10.43,10.43,0,0,0,58.92,59,13.5,13.5,0,0,0,62,60.35a18.92,18.92,0,0,0,3.33.68,29.15,29.15,0,0,0,3.31.19,14.6,14.6,0,0,1,1.51-.48,3.28,3.28,0,0,0,.67-.22,4.2,4.2,0,0,0,.58-.39c.21-.17.62-.47,1.22-.9l.57-.83.58-.84.58-1.73V55A8.3,8.3,0,0,0,74.3,54a7.28,7.28,0,0,0-.32-.86q-.2-.42-.39-.87c-.26-.3-.5-.58-.74-.84l-.74-.83c-.38-.21-.77-.45-1.15-.71a4.63,4.63,0,0,0-1.28-.57,29,29,0,0,0-4.85-1.25,39.07,39.07,0,0,1-4.17-.9A12.87,12.87,0,0,1,57,45.5a12.55,12.55,0,0,1-3.4-3.73,2.72,2.72,0,0,1-.39-.77,7.09,7.09,0,0,1-.13-.9q-.06-.51-.09-1c0-.32,0-.63,0-.93a8.45,8.45,0,0,1,.23-2,7.54,7.54,0,0,1,.67-1.74A11.43,11.43,0,0,1,55,32.69c.47-.58,1-1.21,1.67-1.89a9.26,9.26,0,0,1,2.5-1.89,14.14,14.14,0,0,1,3-1.16,19.6,19.6,0,0,1,3.18-.58c1.09-.1,2.15-.16,3.18-.16h.93a5.24,5.24,0,0,1,.86.07,8.67,8.67,0,0,1,2.79.7,19.65,19.65,0,0,0,2.73,1,3,3,0,0,1,1.48,2.5,2.34,2.34,0,0,1-.74,1.7,2.83,2.83,0,0,1-2.09.74,1,1,0,0,1-.28,0l-.29,0c-1.37-.42-2.58-.76-3.63-1a13.63,13.63,0,0,0-3-.36,10.37,10.37,0,0,0-3.14.52,20.07,20.07,0,0,0-3.73,1.73,10.57,10.57,0,0,1-.77.93l-.77.87c-.12.26-.24.51-.35.77s-.2.51-.29.77,0,.51,0,.77.06.49.1.7a6.34,6.34,0,0,1,.45.65,7.56,7.56,0,0,0,.45.64l2.69,1.54c1.29.3,2.49.56,3.6.77s2.18.46,3.21.74,2,.61,3,1a27.26,27.26,0,0,1,3.24,1.54,5.43,5.43,0,0,1,1.54,1.32c.43.53.83,1,1.22,1.51a7.91,7.91,0,0,1,1.51,2.76A10.66,10.66,0,0,1,79.69,55a11.69,11.69,0,0,1-.9,4.49,9.26,9.26,0,0,1-2.57,3.59A11.58,11.58,0,0,1,75,64l-1.18.8a10.21,10.21,0,0,1-3,1.35,13.5,13.5,0,0,1-3.53.45A19.62,19.62,0,0,1,63,66.13a22.77,22.77,0,0,1-4.14-1.35,22.2,22.2,0,0,1-3.66-2A14.71,14.71,0,0,1,52.41,60.26Z"/><path d="M107.73,58.46a3.27,3.27,0,0,1,2,.48,2.46,2.46,0,0,1,1,1.35,2.49,2.49,0,0,1-.13,1.67,3.18,3.18,0,0,1-1.44,1.51,40.6,40.6,0,0,1-4.94,1,49.55,49.55,0,0,1-5.33.49,49.7,49.7,0,0,1-5.33-.1,31.29,31.29,0,0,1-5-.77,3.46,3.46,0,0,1-1.48-1.25,2.3,2.3,0,0,1-.38-1.45V33.17a2.34,2.34,0,0,1-1.29-.9A2.37,2.37,0,0,1,85,30.86a2.6,2.6,0,0,1,.52-1.51,3.15,3.15,0,0,1,1.6-1.12,27.85,27.85,0,0,1,5.1-1.06c1.74-.19,3.48-.32,5.24-.38s3.5-.1,5.26-.1,3.49,0,5.2-.13a3,3,0,0,1,2.21.64,2.59,2.59,0,0,1,.93,1.61,2.35,2.35,0,0,1-.48,1.76,3.21,3.21,0,0,1-2,1.19q-3.85.19-8.18.13a48.88,48.88,0,0,0-8.38.58V43.76q3.33.14,6.71,0c2.24-.1,4.5-.27,6.77-.48a3,3,0,0,1,2.21.64,2.57,2.57,0,0,1,.93,1.61,2.36,2.36,0,0,1-.48,1.76,3.21,3.21,0,0,1-2,1.19c-2.35.21-4.72.38-7.09.51s-4.72.15-7,.07V59.42a35.82,35.82,0,0,0,8,.29A40.67,40.67,0,0,0,107.73,58.46Z"/><path d="M143.55,26.82A3.5,3.5,0,0,1,145.28,28a2.33,2.33,0,0,1,.51,1.61,2.49,2.49,0,0,1-.7,1.57,3.54,3.54,0,0,1-1.93.93l-10,.07.06,31.32a3.05,3.05,0,0,1-.86,2.21,2.59,2.59,0,0,1-1.77.74,2.49,2.49,0,0,1-1.67-.67,3.28,3.28,0,0,1-1-2.09l-.06-31.51H117.75a3.4,3.4,0,0,1-2-1.06,2.39,2.39,0,0,1-.61-1.7,2.76,2.76,0,0,1,.81-1.74,2.94,2.94,0,0,1,2.21-.77h18.16c1.72,0,3.22,0,4.53,0Z"/><path d="M176.6,26.82A3.46,3.46,0,0,1,178.33,28a2.34,2.34,0,0,1,.52,1.61,2.5,2.5,0,0,1-.71,1.57,3.54,3.54,0,0,1-1.93.93l-10,.07.07,31.32a3.1,3.1,0,0,1-.87,2.21,2.57,2.57,0,0,1-1.76.74,2.47,2.47,0,0,1-1.67-.67,3.24,3.24,0,0,1-1-2.09l-.06-31.51H150.8a3.37,3.37,0,0,1-2-1.06,2.3,2.3,0,0,1-.61-1.7,2.75,2.75,0,0,1,.8-1.74,2.94,2.94,0,0,1,2.21-.77h18.17c1.71,0,3.22,0,4.52,0Z"/><path d="M199.06,59.68a3.06,3.06,0,0,1,2.22.64,2.66,2.66,0,0,1,.93,1.61,2.45,2.45,0,0,1-.48,1.76,3.23,3.23,0,0,1-2,1.19c-2.22.09-4.44.12-6.64.1s-4.42,0-6.64,0a3.21,3.21,0,0,1-2.09-1,2.51,2.51,0,0,1-.64-1.73,2.54,2.54,0,0,1,.77-1.7,3,3,0,0,1,2.15-.84h1.89c.62,0,1.26,0,1.9.06v-28h-4.05a3.14,3.14,0,0,1-2.08-1,2.44,2.44,0,0,1-.64-1.73,2.49,2.49,0,0,1,.77-1.7,3.09,3.09,0,0,1,2.15-.84h13.22a3.56,3.56,0,0,1,1.8,1.16,2.45,2.45,0,0,1,.54,1.57,2.5,2.5,0,0,1-.67,1.54,3.24,3.24,0,0,1-1.86,1h-3.92V59.81c.56,0,1.11,0,1.67,0S198.46,59.72,199.06,59.68Z"/><path d="M235.26,27.53a3.75,3.75,0,0,1,1-1.93,2.3,2.3,0,0,1,1.6-.64,2.46,2.46,0,0,1,1.57.58,3.15,3.15,0,0,1,1.06,1.79q0,9.18-.13,17.78t-.64,17.78l.07.06h-.07a3.15,3.15,0,0,0-.06.55V64a3.33,3.33,0,0,1-1.06,1.54,2.35,2.35,0,0,1-1.44.51A3.08,3.08,0,0,1,235,65a4.54,4.54,0,0,0-.25-.45c-.09-.13-.18-.26-.26-.39h-.06V64c-1.55-2.6-3.13-5.1-4.75-7.47s-3.3-4.71-5-7-3.46-4.56-5.23-6.8-3.61-4.55-5.49-6.9v13c0,2.16,0,4.41,0,6.77s0,4.9,0,7.63a3.11,3.11,0,0,1-.87,2.22,2.57,2.57,0,0,1-1.77.74,2.46,2.46,0,0,1-1.66-.68,3.21,3.21,0,0,1-1-2.08q0-8.67,0-17.56t0-17.55a3.34,3.34,0,0,1,1-1.8,2.36,2.36,0,0,1,1.61-.64,3.46,3.46,0,0,1,1.92.71l5.78,6.9q2.82,3.36,5.55,6.77t5.29,7c1.72,2.38,3.38,4.85,5,7.41q.25-7.05.35-13.54T235.26,27.53Z"/><path d="M277.88,43.57a3.26,3.26,0,0,1,1.79,1.06,2.48,2.48,0,0,1,.58,1.57,2.35,2.35,0,0,1-.51,1.45,3.47,3.47,0,0,1-1.48,1.06v9.62a3.3,3.3,0,0,1-.93,2.38c-.62.64-1.21,1.24-1.77,1.79a12.14,12.14,0,0,1-4.84,3,17.88,17.88,0,0,1-5.68.93,16.66,16.66,0,0,1-8.22-2A19.12,19.12,0,0,1,251,59.52,21.7,21.7,0,0,1,247.42,53a21.22,21.22,0,0,1-1.19-6.74,20.22,20.22,0,0,1,.45-4.05,21.51,21.51,0,0,1,1.38-4.3,19.55,19.55,0,0,1,2.35-4,12.82,12.82,0,0,1,3.33-3.08,41.76,41.76,0,0,1,7.1-3.69,19.86,19.86,0,0,1,7.41-1.44,18.53,18.53,0,0,1,2.63.22,17.26,17.26,0,0,1,3,.71A7.9,7.9,0,0,1,276.34,28a2.58,2.58,0,0,1,1,2.06,2.35,2.35,0,0,1-.7,1.73,2.46,2.46,0,0,1-1.8.71,4.37,4.37,0,0,1-1.35-.26l-1.64-.54c-.57-.2-1.17-.38-1.79-.55a6.91,6.91,0,0,0-1.83-.26,11.63,11.63,0,0,0-1.22.07,6,6,0,0,0-1.16.25q-2.5.78-5.07,1.83a17.94,17.94,0,0,0-4.65,2.8,13.24,13.24,0,0,0-3.37,4.26,13.87,13.87,0,0,0-1.28,6.32,15.81,15.81,0,0,0,4,10.53,13.36,13.36,0,0,0,4.17,3.15,11.15,11.15,0,0,0,4.94,1.15,11.54,11.54,0,0,0,4.43-.9,12.35,12.35,0,0,0,4-2.69V48.9c-1.63,0-3.24.06-4.85.06h-4.84a3.26,3.26,0,0,1-2.09-1,2.47,2.47,0,0,1-.67-1.67,2.68,2.68,0,0,1,.73-1.76,2.76,2.76,0,0,1,2.22-.87l2.73,0c1.39,0,2.87,0,4.46,0s3.07,0,4.46,0Z"/><path d="M286.86,60.26a4.24,4.24,0,0,1-.39-1.67,2.4,2.4,0,0,1,.68-1.77,2.29,2.29,0,0,1,1.7-.67,3.34,3.34,0,0,1,2,.71A10.43,10.43,0,0,0,293.37,59a13.5,13.5,0,0,0,3.09,1.34,18.92,18.92,0,0,0,3.33.68,29.15,29.15,0,0,0,3.31.19,13.86,13.86,0,0,1,1.51-.48,3.28,3.28,0,0,0,.67-.22,4.2,4.2,0,0,0,.58-.39c.21-.17.62-.47,1.22-.9l.57-.83.58-.84.58-1.73V55a8.3,8.3,0,0,0-.06-.93,7.28,7.28,0,0,0-.32-.86q-.19-.42-.39-.87c-.26-.3-.5-.58-.74-.84l-.74-.83c-.38-.21-.77-.45-1.15-.71a4.56,4.56,0,0,0-1.29-.57,28.62,28.62,0,0,0-4.84-1.25,39.07,39.07,0,0,1-4.17-.9,12.87,12.87,0,0,1-3.69-1.7,12.55,12.55,0,0,1-3.4-3.73,2.72,2.72,0,0,1-.39-.77,7.09,7.09,0,0,1-.13-.9q-.06-.51-.09-1c0-.32,0-.63,0-.93a8.45,8.45,0,0,1,.23-2,7.54,7.54,0,0,1,.67-1.74,11.43,11.43,0,0,1,1.16-1.7c.47-.58,1-1.21,1.67-1.89a9.26,9.26,0,0,1,2.5-1.89,14.14,14.14,0,0,1,2.95-1.16,19.6,19.6,0,0,1,3.18-.58c1.09-.1,2.15-.16,3.18-.16h.93a5.24,5.24,0,0,1,.86.07,8.67,8.67,0,0,1,2.79.7,19.65,19.65,0,0,0,2.73,1,3,3,0,0,1,1.48,2.5A2.34,2.34,0,0,1,311,33a2.83,2.83,0,0,1-2.09.74,1,1,0,0,1-.28,0l-.29,0c-1.37-.42-2.58-.76-3.63-1a13.63,13.63,0,0,0-3.05-.36,10.32,10.32,0,0,0-3.14.52,20.07,20.07,0,0,0-3.73,1.73,10.57,10.57,0,0,1-.77.93l-.77.87c-.12.26-.24.51-.35.77s-.2.51-.29.77,0,.51,0,.77.06.49.1.7a6.34,6.34,0,0,1,.45.65,7.56,7.56,0,0,0,.45.64l2.69,1.54c1.29.3,2.49.56,3.6.77s2.18.46,3.21.74,2,.61,3,1a27.26,27.26,0,0,1,3.24,1.54,5.43,5.43,0,0,1,1.54,1.32c.43.53.83,1,1.22,1.51a8.07,8.07,0,0,1,1.51,2.76,10.66,10.66,0,0,1,.48,3.21,11.69,11.69,0,0,1-.9,4.49,9.26,9.26,0,0,1-2.57,3.59,11.58,11.58,0,0,1-1.19.93l-1.18.8a10.21,10.21,0,0,1-3,1.35,13.5,13.5,0,0,1-3.53.45,19.62,19.62,0,0,1-4.27-.48,22.77,22.77,0,0,1-4.14-1.35,22.2,22.2,0,0,1-3.66-2A14.71,14.71,0,0,1,286.86,60.26Z"/></g></svg>
