<svg xmlns="http://www.w3.org/2000/svg" xmlns:xlink="http://www.w3.org/1999/xlink" width="360" height="325" viewBox="0 0 360 325"><defs><style>.cls-1{fill:#efefef;}.cls-2{fill:url(#radial-gradient);}</style><radialGradient id="radial-gradient" cx="185" cy="189.75" r="134.5" gradientTransform="translate(0 132.82) scale(1 0.3)" gradientUnits="userSpaceOnUse"><stop offset="0" stop-opacity="0.6"/><stop offset="1" stop-opacity="0"/></radialGradient></defs><title>UI_score</title><g id="Layer_2" data-name="Layer 2"><rect class="cls-1" x="3.5" y="2.25" width="355" height="112" rx="18"/><circle class="cls-2" cx="185" cy="189.75" r="134.5"/><path d="M339.5,114.75H20.5A19.53,19.53,0,0,1,1,95.25v-75A19.53,19.53,0,0,1,20.5.75h319A19.53,19.53,0,0,1,359,20.25v75A19.53,19.53,0,0,1,339.5,114.75Zm-319-111A16.52,16.52,0,0,0,4,20.25v75a16.52,16.52,0,0,0,16.5,16.5h319A16.52,16.52,0,0,0,356,95.25v-75a16.52,16.52,0,0,0-16.5-16.5Z"/><path d="M33.82,70.93a17.54,17.54,0,0,0,8.89,2.51c5.08,0,8-2.68,8-6.56,0-3.59-2-5.64-7.24-7.64C37.24,57,33.36,53.77,33.36,48.36c0-6,5-10.44,12.43-10.44a17.44,17.44,0,0,1,8.49,1.88l-1.36,4.05A15.39,15.39,0,0,0,45.62,42c-5.25,0-7.24,3.13-7.24,5.76,0,3.59,2.34,5.35,7.64,7.41,6.5,2.5,9.8,5.64,9.8,11.28,0,5.93-4.39,11.06-13.45,11.06-3.71,0-7.75-1.08-9.81-2.45Z"/><path d="M89.45,75.72a24.63,24.63,0,0,1-10.14,1.82c-10.84,0-19-6.84-19-19.44,0-12,8.15-20.18,20.07-20.18,4.79,0,7.81,1,9.12,1.71l-1.2,4a18.08,18.08,0,0,0-7.75-1.6c-9,0-15,5.76-15,15.85,0,9.41,5.41,15.45,14.76,15.45a20.06,20.06,0,0,0,8.1-1.59Z"/><path d="M127.3,57.36c0,13.23-8,20.24-17.84,20.24-10.15,0-17.27-7.87-17.27-19.5,0-12.2,7.58-20.18,17.84-20.18C120.52,37.92,127.3,46,127.3,57.36ZM97.49,58c0,8.21,4.44,15.56,12.25,15.56s12.32-7.24,12.32-16c0-7.64-4-15.62-12.26-15.62S97.49,49.55,97.49,58Z"/><path d="M133.74,39.06a51.93,51.93,0,0,1,9.52-.8c5.3,0,8.72,1,11.12,3.14a9.6,9.6,0,0,1,3,7.3,10.1,10.1,0,0,1-7.24,9.8v.17c3,1,4.73,3.77,5.64,7.76,1.25,5.36,2.17,9.06,3,10.54h-5.13c-.62-1.08-1.48-4.39-2.56-9.18-1.14-5.3-3.19-7.29-7.7-7.46H138.7V77h-5Zm5,17.5h5.07c5.3,0,8.67-2.9,8.67-7.29,0-5-3.59-7.13-8.84-7.19a20.25,20.25,0,0,0-4.9.46Z"/><path d="M184.3,59H169.36V72.81H186V77H164.4V38.55h20.75v4.16H169.36V54.85H184.3Z"/><path d="M191.08,53.94a3.4,3.4,0,1,1,6.78,0,3.39,3.39,0,1,1-6.78,0Zm0,20.13a3.4,3.4,0,1,1,6.78,0,3.39,3.39,0,1,1-6.78,0Z"/></g></svg>
