<svg xmlns="http://www.w3.org/2000/svg" xmlns:xlink="http://www.w3.org/1999/xlink" width="360" height="305" viewBox="0 0 360 305"><defs><style>.cls-1{fill:#efefef;}.cls-2{fill:url(#radial-gradient);}</style><radialGradient id="radial-gradient" cx="186" cy="169.25" r="134.5" gradientTransform="translate(0 118.48) scale(1 0.3)" gradientUnits="userSpaceOnUse"><stop offset="0" stop-opacity="0.6"/><stop offset="1" stop-opacity="0"/></radialGradient></defs><title>UI_time</title><g id="Layer_2" data-name="Layer 2"><rect class="cls-1" x="3.5" y="2.75" width="355" height="112" rx="18"/><circle class="cls-2" cx="186" cy="169.25" r="134.5"/><path d="M339.5,115.25H20.5A19.53,19.53,0,0,1,1,95.75v-75A19.53,19.53,0,0,1,20.5,1.25h319A19.53,19.53,0,0,1,359,20.75v75A19.53,19.53,0,0,1,339.5,115.25Zm-319-111A16.52,16.52,0,0,0,4,20.75v75a16.52,16.52,0,0,0,16.5,16.5h319A16.52,16.52,0,0,0,356,95.75v-75a16.52,16.52,0,0,0-16.5-16.5Z"/><path d="M51.18,41H38.47V36.45H69.4V41H56.63v37.2H51.18Z"/><path d="M79.45,36.45V78.24H74.06V36.45Z"/><path d="M124.09,59.89c-.31-5.83-.68-12.84-.62-18h-.19c-1.42,4.89-3.16,10.1-5.27,15.87L110.63,78h-4.09l-6.75-19.9C97.8,52.2,96.13,46.8,95,41.85h-.12c-.13,5.2-.44,12.21-.81,18.47L92.9,78.24H87.76l2.91-41.79h6.88l7.13,20.21c1.74,5.15,3.16,9.74,4.22,14.08h.18c1.06-4.22,2.55-8.81,4.41-14.08l7.44-20.21h6.88l2.6,41.79h-5.27Z"/><path d="M160.36,58.65H144.11V73.71h18.11v4.53h-23.5V36.45h22.57V41H144.11v13.2h16.25Z"/><path d="M167.74,53.19a3.66,3.66,0,0,1,3.72-3.9c2.17,0,3.59,1.61,3.65,3.9a3.69,3.69,0,1,1-7.37,0Zm0,21.89a3.67,3.67,0,0,1,3.72-3.91c2.17,0,3.59,1.61,3.65,3.91a3.69,3.69,0,1,1-7.37,0Z"/></g></svg>
