<svg xmlns="http://www.w3.org/2000/svg" width="360" height="120" viewBox="0 0 360 120"><defs><style>.cls-1{fill:#fcfcfc;}</style></defs><title>UI_time_1</title><g id="Layer_2" data-name="Layer 2"><rect class="cls-1" x="2.5" y="4" width="355" height="112" rx="18" transform="translate(-0.6 1.83) rotate(-0.58)"/><path d="M339.49,116.51h-319A19.53,19.53,0,0,1,1,97V22A19.52,19.52,0,0,1,20.5,2.51h319A19.53,19.53,0,0,1,359,22V97A19.52,19.52,0,0,1,339.49,116.51Zm-319-111A16.52,16.52,0,0,0,4,22V97a16.52,16.52,0,0,0,16.5,16.5h319A16.52,16.52,0,0,0,356,97V22a16.52,16.52,0,0,0-16.5-16.5Z"/><path d="M51,37.45A3.79,3.79,0,0,1,53,38.74a2.57,2.57,0,0,1,.57,1.79,2.75,2.75,0,0,1-.79,1.76,4,4,0,0,1-2.15,1.05l-11.21.07.07,35.05a3.36,3.36,0,0,1-1,2.47,2.73,2.73,0,0,1-3.84.08,3.65,3.65,0,0,1-1.07-2.34L33.5,43.41H22.16a3.77,3.77,0,0,1-2.27-1.19,2.6,2.6,0,0,1-.68-1.9,3,3,0,0,1,.9-1.94,3.29,3.29,0,0,1,2.48-.86H42.91c1.92,0,3.6,0,5.07,0Z"/><path d="M76.17,74.22a3.34,3.34,0,0,1,2.47.72,3,3,0,0,1,1,1.79,2.76,2.76,0,0,1-.54,2A3.65,3.65,0,0,1,76.88,80c-2.49.09-5,.13-7.43.1s-4.94,0-7.43,0A3.53,3.53,0,0,1,59.68,79,2.85,2.85,0,0,1,59,77.06a2.9,2.9,0,0,1,.87-1.91,3.42,3.42,0,0,1,2.4-.93h2.12c.69,0,1.4,0,2.12.07V42.9H62a3.51,3.51,0,0,1-2.34-1.11,2.83,2.83,0,0,1-.72-1.94,2.87,2.87,0,0,1,.86-1.9A3.36,3.36,0,0,1,62.16,37H77a3.79,3.79,0,0,1,2,1.29,2.73,2.73,0,0,1,.61,1.76,2.8,2.8,0,0,1-.76,1.72,3.65,3.65,0,0,1-2.08,1.11H72.36V74.36l1.87,0C74.85,74.3,75.49,74.27,76.17,74.22Z"/><path d="M135.85,78.17a3.43,3.43,0,0,1-1,2.48,2.86,2.86,0,0,1-2,.82,2.93,2.93,0,0,1-1.91-.75,3.29,3.29,0,0,1-1-2.33q-.36-3.45-.9-7.29c-.36-2.57-.76-5.15-1.22-7.76s-1-5.18-1.51-7.72-1.13-4.91-1.76-7.11q-1.36,3.3-2.73,6.93l-2.76,7.32c-.93,2.47-1.86,4.92-2.77,7.37s-1.84,4.76-2.8,7A3.28,3.28,0,0,1,111,78.46a3.77,3.77,0,0,1-2.37-1.15L94.41,49.51q-.36,3.45-.72,7.26T93,64.45q-.33,3.89-.68,7.69c-.25,2.54-.48,5-.72,7.25a4.1,4.1,0,0,1-1.3,1.8,2.75,2.75,0,0,1-1.65.57A2.72,2.72,0,0,1,86.79,81a3.42,3.42,0,0,1-1-2.3c.29-3.06.58-6.23.9-9.51s.62-6.59.93-9.92.62-6.64.93-9.94.61-6.49.9-9.56a3.56,3.56,0,0,1,1.12-2A2.76,2.76,0,0,1,92.4,37a3.12,3.12,0,0,1,2.65,1.58c1.3,2.34,2.59,4.8,3.88,7.36s2.59,5.14,3.88,7.75,2.6,5.2,3.92,7.76,2.62,5,3.91,7.36c1-2.34,1.93-4.8,2.91-7.36s2-5.15,2.94-7.76,2-5.2,3-7.79,2-5.05,3-7.4a4,4,0,0,1,1.29-1.36,2.86,2.86,0,0,1,1.51-.43,2.73,2.73,0,0,1,1.69.64,3.62,3.62,0,0,1,1.18,1.87c.86,3,1.69,6.15,2.48,9.41s1.53,6.55,2.23,9.88,1.3,6.65,1.83,10S135.56,75.06,135.85,78.17Z"/><path d="M166.09,72.85a3.68,3.68,0,0,1,2.26.54,2.71,2.71,0,0,1,1.15,1.51,2.83,2.83,0,0,1-.14,1.87,3.67,3.67,0,0,1-1.62,1.69,45.29,45.29,0,0,1-5.53,1.15,56.14,56.14,0,0,1-6,.53,53.68,53.68,0,0,1-6-.1,35,35,0,0,1-5.61-.86A4,4,0,0,1,143,77.77a2.6,2.6,0,0,1-.43-1.61V44.56a2.66,2.66,0,0,1-1.44-1,2.72,2.72,0,0,1-.5-1.58,2.9,2.9,0,0,1,.58-1.69A3.47,3.47,0,0,1,143,39a31,31,0,0,1,5.71-1.19c1.94-.21,3.89-.36,5.86-.43s3.92-.11,5.89-.11,3.9,0,5.81-.14a3.35,3.35,0,0,1,2.48.72,2.86,2.86,0,0,1,1,1.79,2.67,2.67,0,0,1-.54,2A3.63,3.63,0,0,1,167,43q-4.31.21-9.16.14a54.22,54.22,0,0,0-9.37.65V56.41q3.73.14,7.51,0c2.51-.12,5-.3,7.57-.54a3.4,3.4,0,0,1,2.48.72,2.91,2.91,0,0,1,1,1.8,2.64,2.64,0,0,1-.54,2,3.58,3.58,0,0,1-2.26,1.33c-2.63.24-5.28.43-7.93.58s-5.28.16-7.87.07V73.93a41.3,41.3,0,0,0,8.94.33A45.94,45.94,0,0,0,166.09,72.85Z"/><path d="M186.2,54.25a4.33,4.33,0,0,1-1.26,3.2,4.16,4.16,0,0,1-3.05,1.26,4.43,4.43,0,0,1-3.09-7.55,4.22,4.22,0,0,1,3.09-1.29,4.11,4.11,0,0,1,3.05,1.29A4.3,4.3,0,0,1,186.2,54.25Zm.14,22.12a4.18,4.18,0,0,1-1.18,3,3.93,3.93,0,0,1-3,1.26,4.29,4.29,0,0,1-4.23-4.24,4.23,4.23,0,0,1,4.23-4.31,4,4,0,0,1,3,1.23A4.23,4.23,0,0,1,186.34,76.37Z"/></g></svg>
